/* XPM */
static const char * autoresponse_xpm[] = {
"16 15 42 1",
" 	c None",
".	c #000000",
"+	c #B784FF",
"@	c #B581FD",
"#	c #B47EFC",
"$	c #B176F9",
"%	c #B074F8",
"&	c #AD6CF4",
"*	c #AF71F7",
"=	c #AC69F3",
"-	c #A861F0",
";	c #A559EC",
">	c #AE6EF5",
",	c #AB66F2",
"'	c #A75FEF",
")	c #A457EB",
"!	c #A14FE8",
"~	c #9E47E4",
"{	c #9A3FE1",
"]	c #9737DD",
"^	c #942FDA",
"/	c #AA64F1",
"(	c #A65CED",
"_	c #A354EA",
":	c #A04CE7",
"<	c #9D44E3",
"[	c #993CE0",
"}	c #9634DC",
"|	c #932CD9",
"1	c #A251E9",
"2	c #9F49E5",
"3	c #9C42E2",
"4	c #983ADF",
"5	c #9532DB",
"6	c #922AD8",
"7	c #9127D7",
"8	c #9024D5",
"9	c #8C1DD2",
"0	c #8B1AD1",
"a	c #8812CD",
"b	c #8407C9",
"c	c #8000C6",
"       ..       ",
"      .+@.      ",
"      .#$.      ",
"      .%&.      ",
"......*=-;......",
" .+#$>,')!~{]^. ",
"  .%&/(_:<[}|.  ",
"   .-;123456.   ",
"    .!~{]^7.    ",
"    .<[}|89.    ",
"    .45..0a.    ",
"   .]^.  .bc.   ",
"   .|.    .c.   ",
"   ..      ..   ",
"   .        .   "};
