/* XPM */
static const char * expanded_xpm[] = {
"11 6 4 1",
" 	c None",
".	c #000000",
"+	c #C0C0C0",
"@	c #FFFFFF",
"...........",
" .+@+@+@+. ",
"  .+@+@+.  ",
"   .+@+.   ",
"    .+.    ",
"     .     "};
