/* XPM */
static const char * gpgon_xpm[] = {
"20 11 8 1",
" 	c None",
".	c #000000",
"+	c #F8EF9F",
"@	c #595959",
"#	c #EFDF59",
"$	c #B1AA6B",
"%	c #938C55",
"&	c #6A653A",
"  ......            ",
" ..++++..           ",
"..++++++........... ",
".++++++++...........",
".+@.@###++++++$++$+.",
".+. .######%#####%#.",
".#@.@########&#####.",
".########...........",
"..######........... ",
" ..####.            ",
"   ....             "};
