/* XPM */
static const char * remove_xpm[] = {
"16 16 3 1",
" 	c None",
".	c #FF0000",
"+	c #FFA2A2",
"                ",
"                ",
"                ",
"   ..      ..   ",
"   .+.    .+.   ",
"    .+.  .+.    ",
"     .+..+.     ",
"      .++.      ",
"      .++.      ",
"     .+..+.     ",
"    .+.  .+.    ",
"   .+.    .+.   ",
"   ..      ..   ",
"                ",
"                ",
"                "};
