/* XPM */
static const char * search_xpm[] = {
"16 16 4 1",
" 	c None",
".	c #000000",
"+	c #E3E1AF",
"@	c #FFFDC5",
"         ....   ",
"        .++@@.  ",
"       .+@@@@@. ",
"      .+@@@@@@@.",
"      .+@@@@@@@.",
"      .+@@@@@@@.",
"      .+@@@@@@@.",
"       .@@@@@@. ",
"      ...@@@@.  ",
"     ... ....   ",
"    ...         ",
"   ...          ",
"  ...           ",
" ...            ",
" ..             ",
"                "};
