/* XPM */
static char * bothmsg_xpm[] = {
"40 48 444 2",
"  	c None",
". 	c #222224",
"+ 	c #1E1E1C",
"@ 	c #161614",
"# 	c #121214",
"$ 	c #040604",
"% 	c #021604",
"& 	c #032604",
"* 	c #034604",
"= 	c #389A38",
"- 	c #50B650",
"; 	c #169614",
"> 	c #033A04",
", 	c #030A04",
"' 	c #0A0A0C",
") 	c #36C634",
"! 	c #B4FAB4",
"~ 	c #A3FEA4",
"{ 	c #1EFA1C",
"] 	c #02C204",
"^ 	c #022A04",
"/ 	c #0C0E0B",
"( 	c #1A1A1B",
"_ 	c #168E14",
": 	c #96F694",
"< 	c #EAFEEC",
"[ 	c #8EFC8C",
"} 	c #13FE14",
"| 	c #02FA04",
"1 	c #028604",
"2 	c #020204",
"3 	c #022204",
"4 	c #104E10",
"5 	c #032E04",
"6 	c #030E04",
"7 	c #0C120B",
"8 	c #56D654",
"9 	c #DDFEDC",
"0 	c #53FE54",
"a 	c #02FE04",
"b 	c #02DD04",
"c 	c #82DA84",
"d 	c #BAF2BC",
"e 	c #5AEA5C",
"f 	c #06AA04",
"g 	c #114A11",
"h 	c #123A14",
"i 	c #031A04",
"j 	c #1E861C",
"k 	c #A4F6A4",
"l 	c #F4FEF4",
"m 	c #C5FEC4",
"n 	c #1CCF1D",
"o 	c #01AC02",
"p 	c #01B402",
"q 	c #023604",
"r 	c #227624",
"s 	c #8EE68C",
"t 	c #93FE94",
"u 	c #2AFE2C",
"v 	c #02A604",
"w 	c #126214",
"x 	c #5AD25C",
"y 	c #7EE67C",
"z 	c #36A234",
"A 	c #034204",
"B 	c #021E04",
"C 	c #4AAE4C",
"D 	c #D4FED4",
"E 	c #DFDFDD",
"F 	c #1A261A",
"G 	c #010D01",
"H 	c #000F00",
"I 	c #3A0000",
"J 	c #350000",
"K 	c #001301",
"L 	c #226A24",
"M 	c #8EE28C",
"N 	c #23FE24",
"O 	c #02D404",
"P 	c #5ED45C",
"Q 	c #72FA74",
"R 	c #0ECA0C",
"S 	c #025604",
"T 	c #043E04",
"U 	c #62D264",
"V 	c #BBD2BC",
"W 	c #121212",
"X 	c #2D0000",
"Y 	c #E00000",
"Z 	c #FF0000",
"` 	c #460000",
" .	c #051705",
"..	c #7ADA7C",
"+.	c #9EFE9C",
"@.	c #02EB04",
"#.	c #037A04",
"$.	c #0A5E0C",
"%.	c #9AEA9C",
"&.	c #ACFEAC",
"*.	c #37FE36",
"=.	c #58DA58",
"-.	c #293129",
";.	c #2B2B2B",
">.	c #F00000",
",.	c #790000",
"'.	c #071507",
").	c #0D6A0C",
"!.	c #9AEE9C",
"~.	c #E2FEE4",
"{.	c #62FE64",
"].	c #0CFE0C",
"^.	c #02F404",
"/.	c #028204",
"(.	c #237024",
"_.	c #080A08",
":.	c #9D0000",
"<.	c #7A0000",
"[.	c #111D11",
"}.	c #5CFE5C",
"|.	c #041204",
"1.	c #42D644",
"2.	c #010E01",
"3.	c #290000",
"4.	c #560000",
"5.	c #3B4A3C",
"6.	c #025D04",
"7.	c #056E04",
"8.	c #2AAA2C",
"9.	c #1A501B",
"0.	c #000000",
"a.	c #001501",
"b.	c #0A0903",
"c.	c #7A6C27",
"d.	c #988730",
"e.	c #99852F",
"f.	c #99842E",
"g.	c #99832D",
"h.	c #99822B",
"i.	c #988029",
"j.	c #988128",
"k.	c #987F27",
"l.	c #987F26",
"m.	c #987D24",
"n.	c #987B23",
"o.	c #997B22",
"p.	c #987A21",
"q.	c #987920",
"r.	c #98781E",
"s.	c #98761D",
"t.	c #98751B",
"u.	c #3C2E0A",
"v.	c #050505",
"w.	c #1C6E1C",
"x.	c #4EAE4C",
"y.	c #5EB25C",
"z.	c #011D01",
"A.	c #0F0E05",
"B.	c #BEA83D",
"C.	c #F1D54C",
"D.	c #FFDE4E",
"E.	c #FFDC4C",
"F.	c #FFDB4B",
"G.	c #FFD948",
"H.	c #FDD745",
"I.	c #FDD543",
"J.	c #FDD341",
"K.	c #FDD23F",
"L.	c #FDD03D",
"M.	c #FDCE3B",
"N.	c #FFCD39",
"O.	c #FDCA36",
"P.	c #FDC935",
"Q.	c #FDC732",
"R.	c #F9C230",
"S.	c #ECB62B",
"T.	c #5E4810",
"U.	c #080808",
"V.	c #033204",
"W.	c #5ACA5C",
"X.	c #CBFECC",
"Y.	c #0A570B",
"Z.	c #030301",
"`.	c #28240D",
" +	c #685A1F",
".+	c #FFDA4A",
"++	c #FFD746",
"@+	c #FDD340",
"#+	c #FDD13E",
"$+	c #FDCE3A",
"%+	c #FDCC38",
"&+	c #FFCB37",
"*+	c #FDC834",
"=+	c #FDC530",
"-+	c #C79A25",
";+	c #312708",
">+	c #130F03",
",+	c #070807",
"'+	c #52CA54",
")+	c #FEFEFC",
"!+	c #B4FEB4",
"~+	c #0E650E",
"{+	c #040301",
"]+	c #362E10",
"^+	c #62561C",
"/+	c #BAA137",
"(+	c #E3C241",
"_+	c #FFD846",
":+	c #FFD644",
"<+	c #FDD441",
"[+	c #FDCF3C",
"}+	c #FDCD38",
"|+	c #FDCC37",
"1+	c #FFCA35",
"2+	c #F9C331",
"3+	c #C79B26",
"4+	c #9B771C",
"5+	c #44320A",
"6+	c #1A1404",
"7+	c #035204",
"8+	c #1E7E1C",
"9+	c #9BF29C",
"0+	c #246524",
"a+	c #110E05",
"b+	c #CCB03C",
"c+	c #B9A136",
"d+	c #998129",
"e+	c #FFD441",
"f+	c #FED03D",
"g+	c #FECF3B",
"h+	c #FECD38",
"i+	c #FECB36",
"j+	c #FECA34",
"k+	c #FFC833",
"l+	c #ECB72C",
"m+	c #322709",
"n+	c #FDBE28",
"o+	c #644C0F",
"p+	c #02E504",
"q+	c #36B234",
"r+	c #A4FAA4",
"s+	c #416541",
"t+	c #110E04",
"u+	c #CCAE3A",
"v+	c #E2C240",
"w+	c #7A6721",
"x+	c #705E1D",
"y+	c #E0B938",
"z+	c #FECD39",
"A+	c #FEC934",
"B+	c #FEC832",
"C+	c #FFC631",
"D+	c #A27D1E",
"E+	c #695113",
"F+	c #8E6B17",
"G+	c #B4861C",
"H+	c #FDBD27",
"I+	c #644B0E",
"J+	c #027E04",
"K+	c #64D664",
"L+	c #255424",
"M+	c #CCAD39",
"N+	c #FDD845",
"O+	c #65551B",
"P+	c #0F0D03",
"Q+	c #BE9C2E",
"R+	c #F1C539",
"S+	c #FECB37",
"T+	c #FECA35",
"U+	c #FAC330",
"V+	c #EDB72C",
"W+	c #110C02",
"X+	c #CC9820",
"Y+	c #FDBB25",
"Z+	c #026604",
"`+	c #041404",
" @	c #CCAC37",
".@	c #65551A",
"+@	c #030200",
"@@	c #282109",
"#@	c #695417",
"$@	c #FEC935",
"%@	c #FEC630",
"&@	c #C89B25",
"*@	c #CB961E",
"=@	c #FDB922",
"-@	c #644A0C",
";@	c #1A5E1C",
">@	c #228224",
",@	c #063506",
"'@	c #CCAB36",
")@	c #EBC53D",
"!@	c #BA9B2F",
"~@	c #735F1C",
"{@	c #44360F",
"]@	c #44360E",
"^@	c #634F15",
"/@	c #BA9428",
"(@	c #BA9326",
"_@	c #BA9224",
":@	c #BA9022",
"<@	c #9B771B",
"[@	c #433109",
"}@	c #4A370B",
"|@	c #A27818",
"1@	c #CC961D",
"2@	c #FDB821",
"3@	c #64490C",
"4@	c #5EE25C",
"5@	c #2B652B",
"6@	c #CCA934",
"7@	c #B99B2E",
"8@	c #B99327",
"9@	c #443209",
"0@	c #FFBF29",
"a@	c #FDBC26",
"b@	c #ECAE22",
"c@	c #312506",
"d@	c #433007",
"e@	c #FDB61D",
"f@	c #64490B",
"g@	c #42C644",
"h@	c #166515",
"i@	c #060501",
"j@	c #514314",
"k@	c #725F1B",
"l@	c #D6AB2F",
"m@	c #FFC935",
"n@	c #E2B22D",
"o@	c #98741A",
"p@	c #987319",
"q@	c #987118",
"r@	c #B3851B",
"s@	c #FFBD27",
"t@	c #F7B421",
"u@	c #AC7C15",
"v@	c #8A630F",
"w@	c #64480B",
"x@	c #271D04",
"y@	c #0E540C",
"z@	c #72F274",
"A@	c #6DFE6C",
"B@	c #046504",
"C@	c #3E330D",
"D@	c #EDC036",
"E@	c #EDBE34",
"F@	c #EDBD33",
"G@	c #EDBB30",
"H@	c #ECB92E",
"I@	c #ECB52A",
"J@	c #ECB328",
"K@	c #ECB126",
"L@	c #ECB024",
"M@	c #EDAF23",
"N@	c #ECAD21",
"O@	c #ECAC1F",
"P@	c #ECAB1C",
"Q@	c #AD7C14",
"R@	c #070707",
"S@	c #125E14",
"T@	c #7AF67C",
"U@	c #44FE44",
"V@	c #006501",
"W@	c #0C0A03",
"X@	c #32290B",
"Y@	c #32280B",
"Z@	c #32280A",
"`@	c #32270A",
" #	c #312709",
".#	c #312607",
"+#	c #322608",
"@#	c #322507",
"##	c #322406",
"$#	c #312405",
"%#	c #241A04",
"&#	c #56F654",
"*#	c #018E02",
"=#	c #023E02",
"-#	c #192319",
";#	c #202120",
">#	c #212121",
",#	c #202020",
"'#	c #272827",
")#	c #0A160C",
"!#	c #12BE14",
"~#	c #66F264",
"{#	c #4EE64C",
"]#	c #04BA04",
"^#	c #000200",
"/#	c #530000",
"(#	c #2A0000",
"_#	c #002400",
":#	c #108610",
"<#	c #9EF69C",
"[#	c #4BFE4C",
"}#	c #024E04",
"|#	c #037204",
"1#	c #0A740C",
"2#	c #020302",
"3#	c #020C02",
"4#	c #D30000",
"5#	c #1B0000",
"6#	c #017602",
"7#	c #044A04",
"8#	c #6EE66C",
"9#	c #000300",
"0#	c #440000",
"a#	c #140000",
"b#	c #013302",
"c#	c #26BA24",
"d#	c #76FE74",
"e#	c #02C604",
"f#	c #1C0000",
"g#	c #031003",
"h#	c #0A1A08",
"i#	c #5EDE5C",
"j#	c #029D04",
"k#	c #114511",
"l#	c #1C211C",
"m#	c #4C0000",
"n#	c #3D0000",
"o#	c #120000",
"p#	c #0A4E0C",
"q#	c #4ECE4C",
"r#	c #02CE04",
"s#	c #4A924C",
"t#	c #5D685C",
"u#	c #100000",
"v#	c #300000",
"w#	c #190000",
"x#	c #000B01",
"y#	c #020702",
"z#	c #229424",
"A#	c #6EDA6C",
"B#	c #52EE54",
"C#	c #06CA04",
"D#	c #1A1E1C",
"E#	c #368234",
"F#	c #CCF6CC",
"G#	c #48BA46",
"H#	c #006101",
"I#	c #012701",
"J#	c #52A254",
"K#	c #2E862C",
". . . . . . . . . . . . . . . . . . . . . . . . . . . . . . . . . . . . . . . . ",
". . . . . . . . . . . . . . . . . . + @ @ @ + . . . . . . . . . . . . . . . . . ",
". . . . . . . . . . . . . . . . + # $ % & % $ # + . . . . . . . . . . . . . . . ",
". . . . . . . . . . . . . . . . @ $ * = - ; > , # + . . . . + . . . . . . . . . ",
". . . . . . . . . . . . . . . + ' & ) ! ~ { ] ^ $ @ + + @ / ' / # ( . . . . . . ",
". . . . . . . . . . . . . . . # , _ : < [ } | 1 2 / ( # $ 3 4 5 , $ # + . . . . ",
". . . . . . + @ 6 , 6 7 ( . + ' * 8 9 9 0 a a b 6 ' 7 6 4 c d e f 5 $ @ + . . . ",
". . . . . + 7 6 5 g h i , # @ , j k l m n o o p q , i r s 9 t u a v 6 / ( + . . ",
". . . . . @ 6 w x [ y z A , $ B C D E F G H I J K 6 L M D t N a a O % ' @ + . . ",
". . . . + / > P 9 l 9 Q R S 2 T U V W X Y Z Z Z `  ...D +.N a a @.#., / @ + . . ",
". . . . + ' $.%.l l &.*.a O A A =.-.;.>.Z Z Z Z ,.'.m &.*.a a @.#.% $ # @ + . . ",
". . . . + $ ).!.l ~.{.].a ^./.& (._.:.Z Z Z Z Z <.[.D }.].a @.#.|.$ / @ ( + . . ",
". . . . + ' T 1.! m 0 a a a ] B 2.3.>.Z Z Z Z Z 4.5.+.N | O 6.2 $ # @ ( + . . . ",
". . . . ( / $ 7.8.9.0.0.0.0.0.0.0.0.0.0.0.0.0.0.0.0.0.0.0.0.0.' # @ ( + . . . . ",
". . . + / , |.i i a.b.c.d.e.f.g.h.i.j.k.l.m.n.o.p.q.r.s.t.u.v.# @ ( + . . . . . ",
". . . @ % w.x.y.= z.A.B.C.D.E.F.G.H.I.J.K.L.M.N.O.P.Q.R.S.T.U.# ( + . . . . . . ",
". . . 7 V.W.X.~.k Y.Z.`. +E..+G.++I.@+#+L.$+%+&+*+Q.=+-+;+>+,+$ / + . . . . . . ",
". . . / V.'+D )+!+~+{+]+^+/+(+_+:+<+@+#+[+}+|+1+Q.2+3+4+5+6+,+7+, ' ( . . . . . ",
". . . @ |.8+9+l ~.0+a+b+c+0.d+:+e+@+f+g+h+i+j+k+=+l+m+5+n+o+,+p+#.% ' ( + . . . ",
". . . + / ^ q+r+~.s+t+u+v+d+w+x+y+#+g+z+i+A+B+C+D+E+F+G+H+I+,+a @.J+6 ' ( + . . ",
". . . . ( 6 > 8.K+L+t+M+N+:+O+P+Q+R+z+S+T+B+U+V+T.W+X+H+Y+I+,+a a @.Z+2 / ( + . ",
". . . . + / $ B V.`+t+ @I.e+.@+@@@#@S+$@B+%@&@m+>+W+*@Y+=@-@,+a a a b q $ # + . ",
". . . + / $ 3 ;@>@,@t+'@)@!@~@{@]@^@/@(@_@:@<@5+[@}@|@1@2@3@,+a a a ^.6.2 / ( + ",
". . . @ 6 ).4@X.D 5@t+6@7@0.o.N.&+8@0.0.0.0.9@0@a@b@c@d@e@f@,+p+b O /.$ $ # ( + ",
". . . / 5 g@m l !+h@i@j@k@o.l@&+m@n@t.o@p@q@r@s@Y+t@u@v@w@x@,+7+T 3 $ $ / @ ( . ",
". . . $ y@z@< l A@B@0.0.C@D@E@F@G@H@l+I@J@K@L@M@N@O@P@Q@0.0.R@$ $ ' / # @ ( + . ",
". . . $ S@T@< < U@V@0.0.W@X@Y@Z@Z@`@m+ #.#.#+#@#@###$#%#0.0.R@' # @ @ ( ( + . . ",
". . . $ 7+&#D l }.*#=#-#;#>#>#>#>#>#>#;#;#,#>#>#>#>#;#;#;#;#'#2 / @ + + . . . . ",
". . . )#5 !#~#9+{#]#7+6 2 ^#/#>.>.(#_#O B 2 :#<#9 [#a a a a b }#$ # ( . . . . . ",
". . . ( $ > |#1#q $ $ $ 2#3#Z Z Z 4#5#6#2 $ 7#8#< +.N a a a | v i ' @ + . . . . ",
". . . + # $ $ $ $ ' 7 , 9#0#Z Z Z Z a#b#$ |.B c#X.~.d#} a a a e#V.$ @ + . . . . ",
". . . . + ( @ # @ @ @ , 3#f#Z Z Z >.0.g#$ h#|.A i#D D A@} a ^.j#i ' @ ( . . . . ",
". . . . . . + + + + ( , k#l#m#Z Y n#o#2 / @ )#, p#q#!+X.}.a r#> $ / @ + . . . . ",
". . . . . . . . . . ( 6 s#t#u#v#w#x#y#' # ( ( 7 $ 5 z#A#B#C#7#$ / # ( + . . . . ",
". . . . . . . . . . D#|.E#F#G#H#I#|.' # @ + . . @ , $ % B 6 $ ' # @ + . . . . . ",
". . . . . . . . . . + 7 V.J#K#T , ' # @ ( + . . . ( # / / 7 7 @ @ + . . . . . . ",
". . . . . . . . . . . @ , % , , / # @ ( + . . . . . + + ( ( ( ( + . . . . . . . ",
". . . . . . . . . . . + ( # # # @ ( ( + . . . . . . . . . + + . . . . . . . . . ",
". . . . . . . . . . . . . + + + + + . . . . . . . . . . . . . . . . . . . . . . ",
". . . . . . . . . . . . . . . . . . . . . . . . . . . . . . . . . . . . . . . . ",
". . . . . . . . . . . . . . . . . . . . . . . . . . . . . . . . . . . . . . . . ",
". . . . . . . . . . . . . . . . . . . . . . . . . . . . . . . . . . . . . . . . ",
". . . . . . . . . . . . . . . . . . . . . . . . . . . . . . . . . . . . . . . . ",
". . . . . . . . . . . . . . . . . . . . . . . . . . . . . . . . . . . . . . . . ",
". . . . . . . . . . . . . . . . . . . . . . . . . . . . . . . . . . . . . . . . ",
". . . . . . . . . . . . . . . . . . . . . . . . . . . . . . . . . . . . . . . . ",
". . . . . . . . . . . . . . . . . . . . . . . . . . . . . . . . . . . . . . . . ",
". . . . . . . . . . . . . . . . . . . . . . . . . . . . . . . . . . . . . . . . "};
