/* XPM */
static char * dnd_xpm[] = {
"16 16 6 1",
" 	c None",
".	c #000000",
"+	c #F8FCF8",
"@	c #00FC00",
"#	c #800000",
"$	c #F80000",
"       ..       ",
"      .+@. ...  ",
"  .. .+@@...+@. ",
" .+...+@@..+@@. ",
" .+@.##@##+@@.  ",
"  .+#$$#$$#@.   ",
"...#$+$$$+$#.   ",
".+@#$$+$+$$#..  ",
" .+@#$$+$$#@@@. ",
" ..#$$+$+$$#@@..",
"..+#$+$$$+$#... ",
".+@@#$$#$$#..   ",
".++..##@##@@@.  ",
" .. .+@...+@@.  ",
"    .+.. ..+..  ",
"    ...    ..   "};
