/* XPM */
static char * ffc_xpm[] = {
"16 16 6 1",
" 	c None",
".	c #000000",
"+	c #FFFFFF",
"@	c #00FF00",
"#	c #FFFF00",
"$	c #000080",
"       ..       ",
"      .+@. ...  ",
"  .. .+@@...+@. ",
" .+@...@@..+@@. ",
" .+.........@.  ",
"  ..+######..   ",
"...+#$$#$$##.   ",
".+.+########..  ",
" ..+#$###$##.@. ",
" ...+#$$$##.@@..",
"..+@.+###...... ",
".+@@...#.@@..   ",
".++..+...+@@@.  ",
" .. .+@...+@@.  ",
"    .+.. ..+..  ",
"    ...    ..   "};
