/* XPM */
static char * msnprivate_xpm[] = {
"16 16 25 1",
" 	c None",
".	c #CCCCCC",
"+	c #9A9A9A",
"@	c #6B6F71",
"#	c #5D5D5D",
"$	c #F0F0F0",
"%	c #D9D9D9",
"&	c #191919",
"*	c #8B8B8B",
"=	c #B6B6B6",
"-	c #FFFFFF",
";	c #AFAFAF",
">	c #828886",
",	c #323232",
"'	c #C4C4C4",
")	c #A7A7A7",
"!	c #525252",
"~	c #656565",
"{	c #464646",
"]	c #F7F7F7",
"^	c #EAEAEA",
"/	c #929292",
"(	c #777777",
"_	c #E7E7E7",
":	c #DDE7DF",
"      .+@#      ",
"     .$%+&*     ",
"    =$-$;>,     ",
"    '-$%;+@     ",
"    >%%=''>     ",
"    )!+);;~     ",
"     !{~>@      ",
"      ;=>=      ",
"     ]]].!=     ",
"   ^$$-$./{#    ",
"  ^$-$-$.;@*#   ",
"  ^-$$-$')(/;,  ",
" ^$+]]-_.;*#%(  ",
" ^'*$-$:'=/~)%( ",
"^%;=]-^%'=;((_> ",
">>#~++*>(@!{{>~ "};
