/* XPM */
static const char * pixBirthday_xpm[] = {
"16 16 70 1",
" 	c None",
".	c #000000",
"+	c #F95656",
"@	c #F44F4F",
"#	c #EF4949",
"$	c #EA4242",
"%	c #FA5757",
"&	c #F55050",
"*	c #F04A4A",
"=	c #EB4343",
"-	c #E63C3C",
";	c #E13636",
">	c #FA5858",
",	c #F55151",
"'	c #EC4444",
")	c #FF7F7F",
"!	c #DA2C2C",
"~	c #F65252",
"{	c #F14B4B",
"]	c #EC4545",
"^	c #E73E3E",
"/	c #FFBCBC",
"(	c #F75353",
"_	c #F24C4C",
":	c #ED4545",
"<	c #E83F3F",
"[	c #E33838",
"}	c #F24D4D",
"|	c #ED4646",
"1	c #E94040",
"2	c #E43939",
"3	c #DF3232",
"4	c #CC1818",
"5	c #EE4747",
"6	c #E43A3A",
"7	c #DF3333",
"8	c #D62626",
"9	c #D11F1F",
"0	c #C71212",
"a	c #E53B3B",
"b	c #E03434",
"c	c #DB2D2D",
"d	c #D62727",
"e	c #D12020",
"f	c #CC1919",
"g	c #C81313",
"h	c #C30C0C",
"i	c #E13535",
"j	c #DC2E2E",
"k	c #D72727",
"l	c #D22121",
"m	c #CD1A1A",
"n	c #C30D0D",
"o	c #DC2F2F",
"p	c #D72828",
"q	c #D32222",
"r	c #CE1B1B",
"s	c #C91414",
"t	c #C40E0E",
"u	c #BF0707",
"v	c #CE1C1C",
"w	c #C91515",
"x	c #C00808",
"y	c #CF1D1D",
"z	c #CA1616",
"A	c #C50F0F",
"B	c #C00909",
"C	c #C61010",
"D	c #C10909",
"E	c #BC0303",
"       ....     ",
"      .+@#$.    ",
"     .%&*=-;.   ",
"    .>,*'-))!.  ",
"    .~{]^)//).  ",
"   .(_:<[)//).  ",
"   .}|123!))4.  ",
"   .5167!8940.  ",
"    .abcdefgh.  ",
"    .ijklmgn.   ",
"    .opqrstu.   ",
"     .qvwtx.    ",
"     .yzAB.     ",
"      .CDE.     ",
"       .E.      ",
"        .       "};
