/* XPM */
static char * iconBack_xpm[] = {
"64 64 11 1",
" 	c None",
".	c #202020",
"+	c #000000",
"@	c #CCCCCC",
"#	c #007D71",
"$	c #004840",
"%	c #20B2AE",
"&	c #007C70",
"*	c #20B0A8",
"=	c #C0C0C0",
"-	c #004941",
"                                                                ",
"                                                                ",
"                                                                ",
"                                                                ",
"    .........................+++++++............++++++......    ",
"    .+++++++++++++++++++++++.++++++++++++++++++.++++++.+++.@    ",
"    .+++##$$$$$$++++##%%%%%%##++##%%%%%%##+++##%%%%%%##...+@    ",
"    .+++#%$$$$$$$+++#%%%%%%%%#++#%%%%%%%%#+++#%%%%%%%%#...+@    ",
"    .+++%%++++++$$++$$++%%++$$++%%++++++$$+++%%++++++%%++++@    ",
"    .+++%%++++++$$++$$++%%++$$++%%++++++$$+++%%++++++%%...+@    ",
"    .+++%%++++++$$++$$++%%++$$++%%++++++$$+++%%++++++%%..++@    ",
"    .+++%%++++++$$++$$++%%++$$++%%++++++$$+++%%++++++%%++++@    ",
"    .+++#%$$$$$$$++++$$$##$$$+++#%$$$$$$$++++#%$$$$$$%#+++.@    ",
"    ++++#%$$$$$$$++++$$$##$$$+++#%$$$$$$$++++#%$$$$$$%#+++.@    ",
"    ++++%%++++++$$++$$++%%++$$++%%++++++$$+++%%++++++%%+++.@    ",
"    ++++%%++++++$$++$$++%%++$$++%%++++++$$+++%%++++++%%+++.@    ",
"    ++++%%++++++$$++$$++%%++$$++%%++++++$$+++%%++++%%%%+++.@    ",
"    ++++%%++++++$$++$$++%%++$$++%%++++++$$+++%%++++%%%%+++.@    ",
"    ++++#%%%%%%%%#++#%%%%%%%%#++#%%%%%%%%#+++#%%%%%%%%%+++.@    ",
"    ++++##%%%%%%##++##%%%%%%##++##%%%%%%##+++##%%%%%%%%+++.@    ",
"    ..................................................++...@    ",
"    .......................................................@    ",
"    @@@@@@@@@@@@@@@@@@@@@@@@@@@@@@@@@@@@@@@@@@@@@@@@@@@@@@@@    ",
"                                                                ",
"    .+++++++++++++++++++++++++++++++++++++++++++++++++++++++    ",
"    .+........................................+++++++++++++@    ",
"    .+.+&$$$&+&***&+&***&+.$$$++.$$$+..$$$++.$$$++.$$$+++++@    ",
"    .+.+**+**.*...$.*...$.$...$+$...$.$...$.$...$.$...$+++.@    ",
"    .+.+*.*.*.*...$.*...$.$...$+$.&+$+$...$.$...$.$...$+++.@    ",
"    .+.+&$*$&.&***&.&$**&..$$$.++$*$.+.$$$...$$$...$$$.+++.@    ",
"    .+++*...*.$...*.*...*.$...$+$..+$+$...$.$...$.$...$+++.@    ",
"    .+++*...*.$...*.*...*.$...$+$.&+$+$...$.$...$.$...$+++.@    ",
"    .+++&$$$&.&***&.&***&..$$$.++$*$.+.$$$...$$$...$$$.+++.@    ",
"    .+...............................+.+......+++++++++++++@    ",
"    .++++++++++++++++++++++++++++++++++++++++++++++++++++++@    ",
"    =======================================================@    ",
"    .+++++++++++++++++++++++++++++++++++++++++++++++++++++++    ",
"    .+........................................+++++++++++++@    ",
"    .+.+&***&+#---#+&***&+.$$$++.$$$+..$$$...$$$++.$$$+++++@    ",
"    .+.+*...$.%...%.*...$.$...$+$...$+$...$.$...$.$...$+++.@    ",
"    .+.+*...$.-%.%-.*...$.$...$+$.&+$+$...$.$...$.$...$+++.@    ",
"    .+.+&***&..-#-..&***&..$$$.++$*$.+.$$$...$$$...$$$.+++.@    ",
"    .+.+$...*.-.%.-.$...*.$...$+$..+$+$...$.$...$.$...$+++.@    ",
"    .+.+$...*.-.%.-.$...*.$...$+$.&+$+$...$.$...$.$...$+++.@    ",
"    .+.+&***&..-%-..&***&..$$$..+$*$.+.$$$...$$$...$$$.+++.@    ",
"    .+.........................................++++++++++++@    ",
"    .++++++++++++++++++++++++++++++++++++++++++++++++++++++@    ",
"    @@@@@@@@@@@@@@@@@@@@@@@@@@@@@@@@@@@@@@@@@@@@@@@@@@@@@@@@    ",
"    ........................................................    ",
"    .......................................................@    ",
"    .....---...---...---...---...---...---...---...---.....@    ",
"    ....-...-.-...-.-...-.-...-.-...-.-...-.-...-.-...-....@    ",
"    ....-...-.-...-.-...-.-...-.-...-.-...-.-...-.-...-....@    ",
"    .....---...---...---...---...---...---...---...---.....@    ",
"    ....-...-.-...-.-...-.-...-.-...-.-...-.-...-.-...-....@    ",
"    ....-...-.-...-.-...-.-...-.-...-.-...-.-...-.-...-....@    ",
"    .....---...---...---...---...---...---...---...---.....@    ",
"    .......................................................@    ",
"    .......................................................@    ",
"    @@@@@@@@@@@@@@@@@@@@@@@@@@@@@@@@@@@@@@@@@@@@@@@@@@@@@@@@    ",
"                                                                ",
"                                                                ",
"                                                                ",
"                                                                "};
