/* XPM */
static const char * back64_xpm[] = {
"64 64 11 1",
" 	c None",
".	c #000000",
"+	c #CCCCCC",
"@	c #007D71",
"#	c #004941",
"$	c #20B2AE",
"%	c #202020",
"&	c #007C70",
"*	c #004840",
"=	c #20B0A8",
"-	c #C0C0C0",
"                                                                ",
"                                                                ",
"                                                                ",
"                                                                ",
"    ........................................................    ",
"    ..........................+............................+    ",
"    .@###.....................+............................+    ",
"    .$%%%#....................+............................+    ",
"    .$%%%#....................+............................+    ",
"    .@###..@$$$@..............+............................+    ",
"    .$%%%#.#%$%#..............+............................+    ",
"    .$%%%#.#%$%#.@$$$@........+............................+    ",
"    .@$$$@..#@%..$%%%#........+............................+    ",
"    .......#%$%#.$%%%#........+............................+    ",
"    .......#%$%#.@###...$$$...+............................+    ",
"    .......@$$$@.$%%%#.$%%%$..+............................+    ",
"    .............$%%%#.$%%%$..+............................+    ",
"    .............@$$$@.@###@..+............................+    ",
"    ...................$%%%$..+............................+    ",
"    ...................$%%@$..+............................+    ",
"    ....................$$$@..+............................+    ",
"    ..........................+............................+    ",
"    ..........................+............................+    ",
"    +++++++++++++++++++++++++++.++++++++++++++++++++++++++++    ",
"    %.......................................................    ",
"    %.%%%%%%%%%%%%%%%%%%%%%%%%%%%%%%%%%%%%%%%%.............+    ",
"    %.%.&***&.&===&.&===&.%***..%***.%%***..%***..%***.....+    ",
"    %.%.==.==%=%%%*%=%%%*%*%%%*.*%%%*%*%%%*%*%%%*%*%%%*...%+    ",
"    %.%.=%=%=%=%%%*%=%%%*%*%%%*.*%&.*.*%%%*%*%%%*%*%%%*...%+    ",
"    %.%.&*=*&%&===&%&*==&%%***%..*=*%.%***%%%***%%%***%...%+    ",
"    %...=%%%=%*%%%=%=%%%=%*%%%*.*%%.*.*%%%*%*%%%*%*%%%*...%+    ",
"    %...=%%%=%*%%%=%=%%%=%*%%%*.*%&.*.*%%%*%*%%%*%*%%%*...%+    ",
"    %...&***&%&===&%&===&%%***%..*=*%.%***%%%***%%%***%...%+    ",
"    %.%%%%%%%%%%%%%%%%%%%%%%%%%%%%%%%.%.%%%%%%.............+    ",
"    %......................................................+    ",
"    -------------------------------------------------------+    ",
"    %.......................................................    ",
"    %.%%%%%%%%%%%%%%%%%%%%%%%%%%%%%%%%%%%%%%%%.............+    ",
"    %.%.&===&.@###@.&===&.%***..%***.%%***%%%***..%***.....+    ",
"    %.%.=%%%*%$%%%$%=%%%*%*%%%*.*%%%*.*%%%*%*%%%*%*%%%*...%+    ",
"    %.%.=%%%*%#$%$#%=%%%*%*%%%*.*%&.*.*%%%*%*%%%*%*%%%*...%+    ",
"    %.%.&===&%%#@#%%&===&%%***%..*=*%.%***%%%***%%%***%...%+    ",
"    %.%.*%%%=%#%$%#%*%%%=%*%%%*.*%%.*.*%%%*%*%%%*%*%%%*...%+    ",
"    %.%.*%%%=%#%$%#%*%%%=%*%%%*.*%&.*.*%%%*%*%%%*%*%%%*...%+    ",
"    %.%.&===&%%#$#%%&===&%%***%%.*=*%.%***%%%***%%%***%...%+    ",
"    %.%%%%%%%%%%%%%%%%%%%%%%%%%%%%%%%%%%%%%%%%%............+    ",
"    %......................................................+    ",
"    ++++++++++++++++++++++++++++++++++++++++++++++++++++++++    ",
"    %%%%%%%%%%%%%%%%%%%%%%%%%%%%%%%%%%%%%%%%%%%%%%%%%%%%%%%%    ",
"    %%%%%%%%%%%%%%%%%%%%%%%%%%%%%%%%%%%%%%%%%%%%%%%%%%%%%%%+    ",
"    %%%%%###%%%###%%%###%%%###%%%###%%%###%%%###%%%###%%%%%+    ",
"    %%%%#%%%#%#%%%#%#%%%#%#%%%#%#%%%#%#%%%#%#%%%#%#%%%#%%%%+    ",
"    %%%%#%%%#%#%%%#%#%%%#%#%%%#%#%%%#%#%%%#%#%%%#%#%%%#%%%%+    ",
"    %%%%%###%%%###%%%###%%%###%%%###%%%###%%%###%%%###%%%%%+    ",
"    %%%%#%%%#%#%%%#%#%%%#%#%%%#%#%%%#%#%%%#%#%%%#%#%%%#%%%%+    ",
"    %%%%#%%%#%#%%%#%#%%%#%#%%%#%#%%%#%#%%%#%#%%%#%#%%%#%%%%+    ",
"    %%%%%###%%%###%%%###%%%###%%%###%%%###%%%###%%%###%%%%%+    ",
"    %%%%%%%%%%%%%%%%%%%%%%%%%%%%%%%%%%%%%%%%%%%%%%%%%%%%%%%+    ",
"    %%%%%%%%%%%%%%%%%%%%%%%%%%%%%%%%%%%%%%%%%%%%%%%%%%%%%%%+    ",
"    ++++++++++++++++++++++++++++++++++++++++++++++++++++++++    ",
"                                                                ",
"                                                                ",
"                                                                ",
"                                                                "};
