/* XPM */
static char * m_xpm[] = {
"70 23 160 2",
"  	c None",
". 	c #818181",
"+ 	c #A8A8A8",
"@ 	c #8A8A8A",
"# 	c #727272",
"$ 	c #717171",
"% 	c #6F6F6F",
"& 	c #6E6E6E",
"* 	c #6C6C6C",
"= 	c #6A6A6A",
"- 	c #696969",
"; 	c #686868",
"> 	c #676767",
", 	c #666666",
"' 	c #646464",
") 	c #626262",
"! 	c #606060",
"~ 	c #5F5F5F",
"{ 	c #5E5E5E",
"] 	c #5D5D5D",
"^ 	c #5B5B5B",
"/ 	c #5A5A5A",
"( 	c #595959",
"_ 	c #585858",
": 	c #575757",
"< 	c #656565",
"[ 	c #707070",
"} 	c #747474",
"| 	c #767676",
"1 	c #777777",
"2 	c #797979",
"3 	c #7A7A7A",
"4 	c #7B7B7B",
"5 	c #7C7C7C",
"6 	c #4C4C4C",
"7 	c #C0C0C0",
"8 	c #DDDDDD",
"9 	c #D4D4D4",
"0 	c #CACACA",
"a 	c #C7C7C7",
"b 	c #C6C6C6",
"c 	c #C4C4C4",
"d 	c #C2C2C2",
"e 	c #BEBEBE",
"f 	c #BBBBBB",
"g 	c #BABABA",
"h 	c #B7B7B7",
"i 	c #B6B6B6",
"j 	c #B4B4B4",
"k 	c #B2B2B2",
"l 	c #B0B0B0",
"m 	c #AEAEAE",
"n 	c #ACACAC",
"o 	c #ABABAB",
"p 	c #A7A7A7",
"q 	c #A5A5A5",
"r 	c #A3A3A3",
"s 	c #A0A0A0",
"t 	c #9F9F9F",
"u 	c #9E9E9E",
"v 	c #9C9C9C",
"w 	c #9B9B9B",
"x 	c #A2A2A2",
"y 	c #A4A4A4",
"z 	c #A9A9A9",
"A 	c #B5B5B5",
"B 	c #B9B9B9",
"C 	c #BDBDBD",
"D 	c #C8C8C8",
"E 	c #CBCBCB",
"F 	c #CCCCCC",
"G 	c #CFCFCF",
"H 	c #D0D0D0",
"I 	c #D3D3D3",
"J 	c #D5D5D5",
"K 	c #D8D8D8",
"L 	c #DADADA",
"M 	c #DEDEDE",
"N 	c #E1E1E1",
"O 	c #979797",
"P 	c #C3C3C3",
"Q 	c #BCBCBC",
"R 	c #B8B8B8",
"S 	c #B3B3B3",
"T 	c #B1B1B1",
"U 	c #ADADAD",
"V 	c #AAAAAA",
"W 	c #9A9A9A",
"X 	c #999999",
"Y 	c #989898",
"Z 	c #969696",
"` 	c #9D9D9D",
" .	c #AFAFAF",
"..	c #C1C1C1",
"+.	c #C5C5C5",
"@.	c #CDCDCD",
"#.	c #D1D1D1",
"$.	c #D6D6D6",
"%.	c #D7D7D7",
"&.	c #D2D2D2",
"*.	c #A6A6A6",
"=.	c #A1A1A1",
"-.	c #959595",
";.	c #929292",
">.	c #919191",
",.	c #909090",
"'.	c #8F8F8F",
").	c #8E8E8E",
"!.	c #949494",
"~.	c #C9C9C9",
"{.	c #414141",
"].	c #8C8C8C",
"^.	c #8B8B8B",
"/.	c #888888",
"(.	c #878787",
"_.	c #868686",
":.	c #858585",
"<.	c #848484",
"[.	c #838383",
"}.	c #353535",
"|.	c #898989",
"1.	c #828282",
"2.	c #808080",
"3.	c #7F7F7F",
"4.	c #7E7E7E",
"5.	c #7D7D7D",
"6.	c #787878",
"7.	c #939393",
"8.	c #363636",
"9.	c #373737",
"0.	c #8D8D8D",
"a.	c #737373",
"b.	c #383838",
"c.	c #393939",
"d.	c #BFBFBF",
"e.	c #3A3A3A",
"f.	c #6D6D6D",
"g.	c #6B6B6B",
"h.	c #3B3B3B",
"i.	c #757575",
"j.	c #3C3C3C",
"k.	c #636363",
"l.	c #5C5C5C",
"m.	c #3D3D3D",
"n.	c #2E2E2E",
"o.	c #2F2F2F",
"p.	c #161616",
"q.	c #0F0F0F",
"r.	c #0E0E0E",
"s.	c #101010",
"t.	c #111111",
"u.	c #121212",
"v.	c #131313",
"w.	c #141414",
"x.	c #151515",
"y.	c #171717",
"z.	c #181818",
"A.	c #191919",
"B.	c #1C1C1C",
"C.	c #050505",
". + @ # $ % % & * * = - ; > , ' ' ) ) ! ~ { ] ] ^ / ( _ _ : : : _ _ ( / / ^ ] ] { ~ ~ ! ) ) ' < , > ; - = * * & % [ $ # } } | | 1 2 3 4 5 6 ",
"7 8 9 0 a b c d 7 e f g h i j k l m n o + p q r s t t u v w v u u t s x y y q + z o n m l k A i B g C e 7 d c a D E F G H I 9 J K L 8 M N x ",
"O 7 0 P 7 C Q f R i S k T m U V z p q r x t u w W W X Y Z Y X W W w ` t t s r y q p z n U  .T S j h R f C e ..d +.b D 0 F @.H #.9 $.%.L &., ",
"5 T h A k T  .m o z + *.y r =.u ` v W Y Z -.;.>.>.,.'.).'.,.>.>.;.!.Z O O W w v u t x y q *.z V n  .l k S i h B g C e 7 ..c b a 0 E @.~.S {.",
"4  . .o r =.t u v w W Y O !.;.>.'.).].^./.(._._.:.<.[.<.:._._.(./.^.].].).'.,.;.!.Z Y X W v ` t =.y q *.+ z o n  .l k j A h R g Q e C S W }.",
"3 m U *.` Z !.;.>.,.).].@ |./._.:.[.1.2.3.4.4.5.5 4 5 5.4.4.3.2.1.[.<.:._./.|.^.].).'.,.;.!.Z Y W w v u t =.x y *.p z V n U  .l k S T p ;.}.",
"6.o o q w 7.'.).].^.|.(._.:.[.1.2.3.5.5 4 4 3 2 6.2 3 3 4 5.5.3.2.. 1.[.:._./.|.^.].).'.>.7.!.Z O Y W v ` t s x y q *.+ z o n m l T  .*.!.8.",
"1 z V r W >.).].@ |.(._.<.[.. 2.3.5.5 4 4 3 2 6.2 3 4 4 5.4.3.2.2.1.[.:._./.|.^.].).,.>.7.!.Z O X W v ` t =.x y q *.+ z o n m l T S l + !.8.",
"| + p =.Y '.].@ |.(._.<.[.. 2.3.5.5 4 4 3 2 6.2 3 4 4 5 4.3.2.. 1.[.:._./.|.^.].).,.>.7.!.Z O X W v u t =.x y q *.+ z o U  .l T S j k z Z 9.",
"} *.q t Z ).@ |.(._.<.[.. 2.3.5.5 4 4 3 2 6.2 3 4 4 5 4.3.2.. 1.[.:._./.|.^.0.).,.>.7.!.Z O X w v u t =.x y q *.+ V o U  .l T S A i j o Y 9.",
"a.y y ` -.].|.(._.<.[.. 2.4.5.5 4 4 3 2 6.2 3 4 4 5.4.3.2.. 1.[.:._./.@ ^.0.).,.>.7.!.Z O X w v u t =.x y q p + V n U  .l T S A i R i U X b.",
"# =.x v 7.^.(._.<.[.. 2.4.5 5 4 4 3 2 6.2 3 4 4 5.4.3.2.. 1.[.:.(./.@ ^.0.).,.>.7.-.Z Y X w v u t =.x y q p z V n U  .l k S A h R g h m W b.",
"[ s =.W ;.|._.<.[.. 3.4.5.5 4 4 3 2 6.2 3 4 4 5.4.3.2.. 1.<.:.(./.@ ].0.).,.>.7.-.Z Y X w v u t =.x y *.p z V n U  .l k S A h R g f B  .v c.",
"% t u X ,./.<.1.. 3.4.5.5 4 4 3 2 6.2 3 4 4 5.4.3.2.. 1.<._.(.|.@ ].0.).,.;.7.-.O Y X w v u s =.r y *.p z V n U  .l k j A h R g f C g T ` c.",
"% ` v Z 0._.1.2.3.4.5.5 4 4 3 2 6.2 3 4 4 5.4.3.2.. [.<._.(.|.@ ].0.).,.;.7.-.O Y X w ` u s =.r q *.p z V n U  .l k j A h R g f C d.Q S u e.",
"f.W w !.^.<.2.3.4.5.5 4 4 3 2 6.2 3 4 4 5.4.3.2.. [.<._.(.|.@ ].0.'.,.;.!.-.O Y W w ` u s x r q *.p z V n U  .T k j A h R g f C d.7 e j s e.",
"g.Y X ;.@ 1.3.4.5.5 4 4 3 3 6.2 3 4 4 5.4.3.2.. [.<._.(.|.@ ].0.'.>.;.!.-.O Y W w ` t s x r q *.p z V n m  .T k j A h R g Q C d.7 d d.i =.h.",
"= O Z >./.. 4.5.5 4 4 3 2 2 2 3 4 5 5.4.3.2.. [.<._.(.|.@ ].).'.>.;.!.-.O Y W w ` t s x r q *.+ z o n m l T k j i h R g Q e d.7 d P ..h x h.",
"- -.-.'.(.2.5.5 4 4 3 2 2 2 3 4 5 5.4.3.2.. [.<._.(.|.^.].).'.>.;.!.-.O Y W v ` t s x r q *.+ z o U m l T S j i h B g Q e d.7 d P +.P B y h.",
"> !.7.0.:.5.2 6.6.1 | i.| 1 6.6.3 4 5 5.4.2.1.[.<.:.(./.@ ^.0.).,.>.7.!.Z Y X w v u t =.x y q *.+ z o n m  .T k j i h B g f C d.7 d P B q j.",
"> >.>./.3 [ & & f.f.g.* f.& & % [ $ # } i.| 1 2 4 5 4.4.3.. 1.<.:._./.|.^.].0.).,.;.7.-.-.O Y W w ` ` t s x y q *.p z V o U m  .T S A i *.j.",
"< ,.@ | k.l.l.l.l./ ^ l.l.] { ~ ~ ! ) ) ' < , ; ; = g.g.f.& % $ $ a.} i.| 1 2 3 4 5 5.4.2.2.1.[.<.:._.(.|.@ ^.].0.'.'.>.>.7.!.-.O O Y v t m.",
"n._ o.p.q.q.q.r.r.r.q.q.q.q.q.q.q.q.s.s.s.s.s.t.t.t.t.t.u.u.u.u.u.u.v.v.v.v.v.w.w.w.w.w.w.x.x.x.x.x.p.p.p.p.p.y.y.y.y.y.z.z.z.z.z.z.A.A.B.C."};
