/* XPM */
static char * s_xpm[] = {
"70 23 195 2",
"  	c None",
". 	c #6F6F6F",
"+ 	c #909090",
"@ 	c #767676",
"# 	c #616161",
"$ 	c #5F5F5F",
"% 	c #5E5E5E",
"& 	c #5D5D5D",
"* 	c #5C5C5C",
"= 	c #5A5A5A",
"- 	c #595959",
"; 	c #575757",
"> 	c #565656",
", 	c #606060",
"' 	c #626262",
") 	c #646464",
"! 	c #656565",
"~ 	c #666666",
"{ 	c #676767",
"] 	c #696969",
"^ 	c #6A6A6A",
"/ 	c #6C6C6C",
"( 	c #6D6D6D",
"_ 	c #707070",
": 	c #717171",
"< 	c #737373",
"[ 	c #747474",
"} 	c #757575",
"| 	c #777777",
"1 	c #797979",
"2 	c #7B7B7B",
"3 	c #7C7C7C",
"4 	c #7E7E7E",
"5 	c #7F7F7F",
"6 	c #818181",
"7 	c #828282",
"8 	c #838383",
"9 	c #858585",
"0 	c #868686",
"a 	c #878787",
"b 	c #888888",
"c 	c #8A8A8A",
"d 	c #8B8B8B",
"e 	c #8D8D8D",
"f 	c #8E8E8E",
"g 	c #919191",
"h 	c #929292",
"i 	c #939393",
"j 	c #959595",
"k 	c #979797",
"l 	c #989898",
"m 	c #9A9A9A",
"n 	c #9B9B9B",
"o 	c #9C9C9C",
"p 	c #9D9D9D",
"q 	c #A4A4A4",
"r 	c #BDBDBD",
"s 	c #B5B5B5",
"t 	c #ABABAB",
"u 	c #A8A8A8",
"v 	c #A5A5A5",
"w 	c #A3A3A3",
"x 	c #A0A0A0",
"y 	c #9E9E9E",
"z 	c #9F9F9F",
"A 	c #A2A2A2",
"B 	c #A7A7A7",
"C 	c #ADADAD",
"D 	c #B0B0B0",
"E 	c #B1B1B1",
"F 	c #B4B4B4",
"G 	c #B7B7B7",
"H 	c #B9B9B9",
"I 	c #BBBBBB",
"J 	c #BEBEBE",
"K 	c #C0C0C0",
"L 	c #C3C3C3",
"M 	c #C6C6C6",
"N 	c #C8C8C8",
"O 	c #CBCBCB",
"P 	c #CDCDCD",
"Q 	c #D0D0D0",
"R 	c #D3D3D3",
"S 	c #D5D5D5",
"T 	c #D8D8D8",
"U 	c #DADADA",
"V 	c #DCDCDC",
"W 	c #DEDEDE",
"X 	c #E1E1E1",
"Y 	c #E3E3E3",
"Z 	c #E6E6E6",
"` 	c #E8E8E8",
" .	c #EBEBEB",
"..	c #EEEEEE",
"+.	c #F0F0F0",
"@.	c #F3F3F3",
"#.	c #F4F4F4",
"$.	c #F8F8F8",
"%.	c #FAFAFA",
"&.	c #FDFDFD",
"*.	c #FEFEFE",
"=.	c #FFFFFF",
"-.	c #CCCCCC",
";.	c #999999",
">.	c #969696",
",.	c #AAAAAA",
"'.	c #AFAFAF",
").	c #B2B2B2",
"!.	c #B3B3B3",
"~.	c #B6B6B6",
"{.	c #B8B8B8",
"].	c #C1C1C1",
"^.	c #C5C5C5",
"/.	c #C7C7C7",
"(.	c #CACACA",
"_.	c #CFCFCF",
":.	c #D1D1D1",
"<.	c #D4D4D4",
"[.	c #D9D9D9",
"}.	c #DBDBDB",
"|.	c #DFDFDF",
"1.	c #E4E4E4",
"2.	c #E9E9E9",
"3.	c #F5F5F5",
"4.	c #F7F7F7",
"5.	c #F9F9F9",
"6.	c #FCFCFC",
"7.	c #949494",
"8.	c #A1A1A1",
"9.	c #AEAEAE",
"0.	c #BABABA",
"a.	c #BCBCBC",
"b.	c #CECECE",
"c.	c #D2D2D2",
"d.	c #D7D7D7",
"e.	c #E0E0E0",
"f.	c #E2E2E2",
"g.	c #E5E5E5",
"h.	c #E7E7E7",
"i.	c #EDEDED",
"j.	c #EFEFEF",
"k.	c #F2F2F2",
"l.	c #FBFBFB",
"m.	c #525252",
"n.	c #848484",
"o.	c #8F8F8F",
"p.	c #A6A6A6",
"q.	c #ACACAC",
"r.	c #BFBFBF",
"s.	c #C4C4C4",
"t.	c #D6D6D6",
"u.	c #DDDDDD",
"v.	c #EAEAEA",
"w.	c #ECECEC",
"x.	c #C2C2C2",
"y.	c #434343",
"z.	c #7A7A7A",
"A.	c #7D7D7D",
"B.	c #898989",
"C.	c #C9C9C9",
"D.	c #808080",
"E.	c #787878",
"F.	c #8C8C8C",
"G.	c #A9A9A9",
"H.	c #444444",
"I.	c #636363",
"J.	c #454545",
"K.	c #464646",
"L.	c #474747",
"M.	c #484848",
"N.	c #494949",
"O.	c #F1F1F1",
"P.	c #686868",
"Q.	c #4A4A4A",
"R.	c #6B6B6B",
"S.	c #6E6E6E",
"T.	c #727272",
"U.	c #323232",
"V.	c #353535",
"W.	c #1A1A1A",
"X.	c #111111",
"Y.	c #121212",
"Z.	c #131313",
"`.	c #141414",
" +	c #151515",
".+	c #161616",
"++	c #171717",
"@+	c #181818",
"#+	c #191919",
"$+	c #1B1B1B",
"%+	c #1C1C1C",
"&+	c #1D1D1D",
"*+	c #1E1E1E",
"=+	c #222222",
"-+	c #060606",
". + @ # $ % & * = - ; > > > > ; ; - = * & % $ , ' ) ! ~ { ] ^ / ( . _ : < [ } | 1 1 2 3 4 5 6 7 8 9 0 a b c d e f + g h i j j k l m n o p , ",
"q r s t u v w x y o m m m m n y z A q B u t C D E F G H I J K L M N O P Q R S T U V W X Y Z `  ...+.@.#.$.%.&.*.=.=.=.=.=.=.=.=.=.=.=.=.=.-.",
"6 w t v x y n ;.>.j j j j >.;.n p z A w v u ,.C '.).!.~.{.I r ].L ^./.(.-._.:.<.S [.}.W |.X 1.Z 2. ...+.@.3.4.5.6.*.=.=.=.=.=.=.=.=.=.=.=.6 ",
"] >.m k j h + f e e e f f + h 7.>.l n o y 8.w v u ,.t 9.E !.s {.0.a.J K L ^./.(.-.b.:.c.<.d.[.}.W e.f.g.h.2. .i.j.k.@.3.$.5.l.&.=.=.=.*.f.m.",
"{ 7.i f b 9 8 7 7 7 8 n.9 a c d e o.g h 7.k ;.n p z x w p.u ,.q.'.D ).F ~.{.0.r r.].L s.N (.-.P _.:.R t.T U }.u.|.X Y g.h.` v.w...+.j.Y x.y.",
"~ + o.c 7 2 z.z.z.2 3 A.5 6 8 n.0 b B.d e o.g i >.l m o y x A q v u ,.q.C '.E !.s G H I r r.K x.s.N C.O P b.Q c.<.S d.[.U V W e.X Y e.c.{.y.",
") f e a D.1 | | E.1 2 3 4 D.6 8 9 a b c F.f + h 7.>.l m o y x A q p.u G.t C '.E !.s G H I r J K x.^.M N (.O P _.:.c.<.t.d.[.}.u.W e.u.:.0.H.",
"I.F.d 9 5 1 E.1 z.2 A.4 D.7 8 9 a B.c e f + h 7.>.l m o y x A q p.u ,.t 9.D ).!.s G H I r r.].L s.M N (.-.P _.:.c.<.t.T [.}.u.W e.f.|.R I H.",
"# c B.9 5 z.1 z.2 A.4 D.7 n.9 a B.d e f + h 7.>.l n p y x A q p.u ,.q.C D ).!.s G H I r r.].L ^./.N (.-.P _.:.R <.t.T [.}.u.|.e.f.1.e.S r J.",
", a B.9 6 2 z.2 A.5 D.7 n.9 a B.d e o.g h 7.>.l m p z x A q p.u ,.q.9.D ).F s G H I r r.].L ^./.C.(.-.b._.:.R S t.T U }.u.|.X f.1.Z f.d.J J.",
"% a c a 7 A.2 A.5 6 7 n.0 a B.d e o.g i 7.>.l n p z 8.A q B G.,.q.9.D ).F ~.{.0.I r r.].L ^./.C.(.-.b.Q :.R S t.T U V u.|.X f.1.Z ` 1.[.K K.",
"% b d b 8 4 A.5 6 7 n.0 b B.d e o.g i j >.l n p z 8.w q B G.,.q.9.D ).F ~.{.0.a.J r.].L ^./.C.O -.b.Q :.R S d.T U V u.|.X Y 1.Z ` 2.Z }.].K.",
"$ d F.B.n.5 5 6 8 n.0 b c d e o.g i j k ;.m p z 8.w v B G.t q.9.D ).F ~.{.0.a.J K ].s.M /.C.O P b.Q c.R S d.[.U V W |.X f.1.Z ` 2. .` V L L.",
", F.e c 0 6 6 8 9 0 b c F.f + h i j k ;.n p z 8.w v B G.t C '.D !.F ~.{.0.a.J K ].L M N C.O P b.Q c.<.S d.[.U V u.|.X Y g.Z ` 2. .i.2.u.L L.",
"# e o.F.b 8 8 9 0 b c F.f + h i j k ;.n p z 8.w v B G.t C '.E !.s ~.{.0.a.J K x.s.M /.C.O P _.Q c.<.S d.[.U V W e.X Y g.Z ` v.w.i... .|.^.M.",
"' f g o.B.9 9 a b c F.f + h 7.j k ;.n y x 8.w v B G.t C '.E !.s ~.H I r J K x.s.M N (.O P _.Q c.<.t.d.[.U V W e.X Y g.h.` v. .i...+.i.e.M M.",
"I.o.i g d a a B.c F.f + h 7.>.l ;.n p x A q v B ,.t C '.E !.s G {.I r r.K x.s.M N (.O P _.:.c.<.S d.[.}.V W e.X Y g.Z ` v. .i.j.+.k...f./.M.",
") g j i e B.B.d e o.+ h 7.>.l m o y x A q v B G.q.C '.E !.s G H I r r.K x.s.M N (.-.P _.:.c.<.t.T [.}.V W e.f.Y g.Z ` v. .i.j.+.k.@.+.Y N N.",
"! 7.k 7.+ d d e o.g h 7.>.l m o y x A q p.B G.q.C D ).F s G H I r r.].L s.M N (.-.b._.:.c.<.t.T [.}.u.|.e.X Y g.Z ` v.w.i.j.O.k.#.3.k.1.C.N.",
"{ >.m >.+ c B.d e o.+ h 7.>.l m o y x A q v B G.,.C '.E ).F ~.{.0.a.J K x.L ^.^./.C.O P b.Q c.R S d.T U }.u.|.X f.1.Z Z ` v.w.i...+.+.Y (.N.",
"P.l o 7.a D.5 6 8 9 9 a B.d e f g h 7.j k ;.n p p z A w v p.u ,.q.C '.D ).F s G {.0.a.r J K x.s.s.^./.C.(.-.P b.Q c.<.<.t.T [.}.V V W |.O Q.",
"^ m k 8 : R.( S._ : T.[ @ | E.z.2 A.4 D.6 8 n.9 a B.c F.F.f o.g h 7.j k k ;.m n p y x 8.A w q p.p.u G.t q.C '.'.E ).F s ~.G {.H 0.I I J x.Q.",
"U.# V.W.X.X.Y.Y.Y.Y.Z.Z.Z.Z.`.`.`.`.`. + + + +.+.+.+.+++++++++++@+@+@+@+#+#+#+#+#+W.W.W.W.W.$+$+$+$+$+%+%+%+%+%+&+&+&+&+*+*+*+*+*+*+*+*+=+-+"};
