/* XPM */
static const char * info_xpm[] = {
"14 14 82 1",
" 	c None",
".	c #445CAB",
"+	c #4058A8",
"@	c #3E54A7",
"#	c #3B50A4",
"$	c #4761AF",
"%	c #5E81ED",
"&	c #5B7CEB",
"*	c #5676E8",
"=	c #5371E5",
"-	c #4F6AE2",
";	c #4B65E0",
">	c #3446A1",
",	c #445EA9",
"'	c #5F81EE",
")	c #5B7BEB",
"!	c #5776E8",
"~	c #617CE7",
"{	c #5973E4",
"]	c #4760DD",
"^	c #435ADB",
"/	c #2C3B98",
"(	c #BDC8F4",
"_	c #9BA9EE",
":	c #3F55D8",
"<	c #3B4FD5",
"[	c #29369A",
"}	c #5370E5",
"|	c #4F6BE3",
"1	c #94A3EC",
"2	c #7C8DE6",
"3	c #435ADA",
"4	c #3849D2",
"5	c #3444D0",
"6	c #6079E6",
"7	c #93A3EC",
"8	c #91A0EB",
"9	c #6B7DE2",
"0	c #3C4FD5",
"a	c #303FCD",
"b	c #202A92",
"c	c #4F6AE3",
"d	c #687EE5",
"e	c #C1C9F3",
"f	c #E0E4F8",
"g	c #A4AEEC",
"h	c #303ECD",
"i	c #2C39CA",
"j	c #1D2590",
"k	c #435BDB",
"l	c #A6B0ED",
"m	c #A3ACEB",
"n	c #2933C8",
"o	c #1B218E",
"p	c #A4ADEB",
"q	c #A1A9EA",
"r	c #3443D0",
"s	c #2833C8",
"t	c #242DC5",
"u	c #181D8C",
"v	c #5C6FDE",
"w	c #7D8BE3",
"x	c #C1C7F1",
"y	c #BFC4F0",
"z	c #757FDE",
"A	c #4C57D2",
"B	c #242EC5",
"C	c #2128C2",
"D	c #7885E2",
"E	c #BDC2EF",
"F	c #BCC1EE",
"G	c #BBBFEE",
"H	c #6A71D8",
"I	c #2028C2",
"J	c #151A8C",
"K	c #3D4DD3",
"L	c #3F4ED2",
"M	c #3B48CF",
"N	c #3743CD",
"O	c #333DCA",
"P	c #2A32C6",
"Q	c #151987",
"     .+@#     ",
"   $%&*=-;>   ",
"  ,')!~{;]^/  ",
" $'&!=(_]^:<[ ",
" %)!}|123:<45 ",
".&!=6789:045ab",
"+*}cdefg<45hij",
"@=|;]klm45aino",
"#-;]3:pqrhistu",
" ;]^vwxyzAsBC ",
" >^:DyEFGHtIJ ",
"  /<KLMNOPIQ  ",
"   [5aintCJ   ",
"     bjou     "};
