/* XPM */
static char * chat_xpm[] = {
"13 12 56 1",
" 	c None",
".	c #F6CBF3",
"+	c #F4C9F2",
"@	c #F3C6F0",
"#	c #F1C3EF",
"$	c #EFC1ED",
"%	c #F7CDF4",
"&	c #F4C8F1",
"*	c #F1C3EE",
"=	c #EFC0EC",
"-	c #EEBEEB",
";	c #EBBBE9",
">	c #EAB8E7",
",	c #F6CAF3",
"'	c #3E3E3E",
")	c #E8B5E5",
"!	c #E5B2E3",
"~	c #F7CCF4",
"{	c #F5CAF3",
"]	c #F2C5F0",
"^	c #F1C2EE",
"/	c #EDBDEB",
"(	c #EBBAE9",
"_	c #E7B5E5",
":	c #E3B0E1",
"<	c #E1ACDF",
"[	c #F5CAF2",
"}	c #F0C2EE",
"|	c #DFA9DD",
"1	c #F4C7F1",
"2	c #F2C5EF",
"3	c #EFBFEC",
"4	c #ECBDEA",
"5	c #EBBAE8",
"6	c #E9B7E6",
"7	c #E5B1E3",
"8	c #E3AFE1",
"9	c #DCA6DB",
"0	c #EEBFEC",
"a	c #DEA9DD",
"b	c #ECBCEA",
"c	c #E8B6E6",
"d	c #E6B4E5",
"e	c #E3AEE1",
"f	c #E0ABDF",
"g	c #DCA5DB",
"h	c #E6B4E4",
"i	c #E4B0E2",
"j	c #E2AEE0",
"k	c #E0ABDE",
"l	c #DEA8DD",
"m	c #E0AADE",
"n	c #DDA8DC",
"o	c #E2ADE0",
"p	c #DFAADE",
"q	c #E1ADE0",
"    .+@#$    ",
"  %.&@*=-;>  ",
" %,''''''>)! ",
"~{&]^=/(>_!:<",
"[''}'''''!'<|",
"12}3456_78<|9",
" }0''6''''a9 ",
"  b5cd7efag  ",
"    hijkl    ",
"     jmn     ",
"    opn      ",
"  iqp        "};
