/* XPM */
static char * dnd_xpm[] = {
"9 9 23 1",
" 	c None",
".	c #FB0303",
"+	c #F50000",
"@	c #EE0000",
"#	c #E40000",
"$	c #DD0202",
"%	c #FC0101",
"&	c #F60000",
"*	c #E50000",
"=	c #DD0000",
"-	c #D40000",
";	c #CD0000",
">	c #FFFFFF",
",	c #C30000",
"'	c #BF0101",
")	c #BB0000",
"!	c #B40000",
"~	c #B30000",
"{	c #AA0000",
"]	c #A40000",
"^	c #A20000",
"/	c #A00000",
"(	c #9D0000",
"  .+@#$  ",
" %&@*=-; ",
".&>*=->,'",
"+@*>->,)!",
"@*=->,)~{",
"#=->,>~{]",
"$->,)~>^/",
" ;,)~{^( ",
"  '!{]/  "};
