/* XPM */
static char * url_xpm[] = {
"13 13 29 1",
" 	c None",
".	c #27D01F",
"+	c #1EA34B",
"@	c #26CB22",
"#	c #177C73",
"$	c #0003E9",
"%	c #0000FB",
"&	c #28D11F",
"*	c #1DA04E",
"=	c #1A9657",
"-	c #1FA548",
";	c #0005DF",
">	c #0001F7",
",	c #0006DB",
"'	c #0006D8",
")	c #0001F4",
"!	c #0002F0",
"~	c #0007D4",
"{	c #0003ED",
"]	c #0008D1",
"^	c #0008CD",
"/	c #0004E6",
"(	c #0009CA",
"_	c #0005E2",
":	c #000AC7",
"<	c #0007D3",
"[	c #000AC3",
"}	c #000BBF",
"|	c #000CBC",
"    .+@#$    ",
"  %&&*=-&&;  ",
" %>&&&&&&&,' ",
" >)!&&&&&&&~ ",
"&)!{$&&&&&~]^",
"&&{$/&&&&&]^(",
"&&$/_&&&&&^(:",
"{$/_;,&<]&(:[",
"$/_;,'&]^(:[}",
" _;,'&&&(:[} ",
" ;,'~&&&&&}| ",
"  '~&&&&&&|  ",
"    &&&&&    "};
