/* XPM */
static const char * iconNA_xpm[] = {
"64 64 3 1",
" 	c None",
".	c #222222",
"+	c #FFFFFF",
"                                                                ",
"                                                                ",
"                                                                ",
"                                                                ",
"                                                                ",
"                                                                ",
"                                                                ",
"                                                                ",
"                                                                ",
"                                                                ",
"                                                                ",
"                                                                ",
"                                                                ",
"                                                                ",
"                                                                ",
"                                                                ",
"                                                                ",
"                                                                ",
"                                                                ",
"                                                                ",
"                                                                ",
"                                                                ",
"                                                                ",
"                                                                ",
"                                                                ",
"                                                                ",
"                                                                ",
"                                                                ",
"                                                                ",
"                                                                ",
"                                                                ",
"                                                                ",
"                                                                ",
"                                                                ",
"                                                                ",
"                                                                ",
"                                                                ",
"                                                                ",
"                                                                ",
"                                                                ",
"                                                                ",
"                                                                ",
"                                                                ",
"                                                                ",
"                                                                ",
"                                                                ",
"       ...................................................      ",
"       ..++...+...+...+...................................      ",
"       ..++...+...+...+...................................      ",
"       ..+.+..+..+...+.+..................................      ",
"       ..+.+..+..+...+.+..................................      ",
"       ..+..+.+..+..+...+.................................      ",
"       ..+..+.+..+..+++++.................................      ",
"       ..+...++.+..+.....+................................      ",
"       ..+...++.+..+.....+................................      ",
"       ...................................................      ",
"       ...................................................      ",
"       ...................................................      ",
"                                                                ",
"                                                                ",
"                                                                ",
"                                                                ",
"                                                                ",
"                                                                "};
