/* XPM */
static char * status_xpm[] = {
"70 13 119 2",
"  	c None",
". 	c #4C4C4C",
"+ 	c #4D4D4D",
"@ 	c #4B4B4B",
"# 	c #545454",
"$ 	c #525252",
"% 	c #555555",
"& 	c #575757",
"* 	c #5D5D5D",
"= 	c #616161",
"- 	c #646464",
"; 	c #686868",
"> 	c #656565",
", 	c #5A5A5A",
"' 	c #666666",
") 	c #6D6D6D",
"! 	c #757575",
"~ 	c #7A7A7A",
"{ 	c #747474",
"] 	c #787878",
"^ 	c #7C7C7C",
"/ 	c #818181",
"( 	c #838383",
"_ 	c #797979",
": 	c #8D8D8D",
"< 	c #868686",
"[ 	c #717171",
"} 	c #848484",
"| 	c #7D7D7D",
"1 	c #808080",
"2 	c #6E6E6E",
"3 	c #7F7F7F",
"4 	c #878787",
"5 	c #767676",
"6 	c #8F8F8F",
"7 	c #898989",
"8 	c #909090",
"9 	c #8A8A8A",
"0 	c #888888",
"a 	c #929292",
"b 	c #8C8C8C",
"c 	c #949494",
"d 	c #969696",
"e 	c #979797",
"f 	c #9E9E9E",
"g 	c #999999",
"h 	c #9F9F9F",
"i 	c #A1A1A1",
"j 	c #A0A0A0",
"k 	c #A8A8A8",
"l 	c #ACACAC",
"m 	c #AAAAAA",
"n 	c #B5B5B5",
"o 	c #B7B7B7",
"p 	c #B4B4B4",
"q 	c #AFAFAF",
"r 	c #B0B0B0",
"s 	c #ADADAD",
"t 	c #A9A9A9",
"u 	c #B2B2B2",
"v 	c #AEAEAE",
"w 	c #ABABAB",
"x 	c #A7A7A7",
"y 	c #B1B1B1",
"z 	c #B3B3B3",
"A 	c #BABABA",
"B 	c #C2C2C2",
"C 	c #BCBCBC",
"D 	c #BEBEBE",
"E 	c #B8B8B8",
"F 	c #B9B9B9",
"G 	c #8B8B8B",
"H 	c #939393",
"I 	c #858585",
"J 	c #919191",
"K 	c #989898",
"L 	c #9B9B9B",
"M 	c #9D9D9D",
"N 	c #9C9C9C",
"O 	c #A5A5A5",
"P 	c #A4A4A4",
"Q 	c #BBBBBB",
"R 	c #A2A2A2",
"S 	c #B6B6B6",
"T 	c #959595",
"U 	c #8E8E8E",
"V 	c #A6A6A6",
"W 	c #BDBDBD",
"X 	c #9A9A9A",
"Y 	c #A3A3A3",
"Z 	c #CCCCCC",
"` 	c #CACACA",
" .	c #C8C8C8",
"..	c #CBCBCB",
"+.	c #CECECE",
"@.	c #D4D4D4",
"#.	c #D6D6D6",
"$.	c #D1D1D1",
"%.	c #C5C5C5",
"&.	c #D0D0D0",
"*.	c #D3D3D3",
"=.	c #DADADA",
"-.	c #D9D9D9",
";.	c #DCDCDC",
">.	c #DFDFDF",
",.	c #DDDDDD",
"'.	c #E3E3E3",
").	c #DEDEDE",
"!.	c #D5D5D5",
"~.	c #E1E1E1",
"{.	c #E8E8E8",
"].	c #E9E9E9",
"^.	c #E5E5E5",
"/.	c #D8D8D8",
"(.	c #C9C9C9",
"_.	c #CDCDCD",
":.	c #CFCFCF",
"<.	c #E2E2E2",
"[.	c #EBEBEB",
". + @ + + . + @ + # + $ % & * = - - ; > , ; ' ) ! ~ ~ { ] ^ ] / / ( ^ _ : < ~ ) [ { ] ] ^ } | 1 ( _ } _ 2 ] 3 4 [ 5 ! | 6 7 8 < 1 / : 9 : | ",
": 0 6 6 a b 7 b 6 0 9 a c d e f g h i j i f k l m n o p q o p r s t q u p p v w r l s x y q v y y q l p u v o s u v z s A B C D n E y y z F ",
"8 G G a H 7 b b I 6 J H 9 H K L M h M N d O P P q v u Q q m r y k R S r k s A y y l y v m y x v w s l s w y p y p x v p E p A E F F z F A D ",
"6 7 J b c T c 0 7 J g b U 8 H H T g j L L m k s t n C E o p u k m t r V V r z v v k O m P v t j P V v r k z S s u k s r Q S Q y E n v u B W ",
"H 7 c b K e g K 8 J 8 J G 6 a J c T R X Y k l l u r F S u s w k t m k i y v s v F t w V i Y x h k V v t q n n w q P y C S v o u v m q A o o ",
"0 9 8 d 8 g e U 8 : c b U H J a X d f f N l w w s r p z w s u w t O x V v s V s r k m R V t j R h s w l l x k v m s n p q p z n u x n E o z ",
"( : U 6 d G d J 9 6 : 9 4 0 G 6 K X h x j O k O m w x l t t p v R k m Y t w u k t r P R V h V l s x r P t k i x j x w q y S z z n v x F y S ",
"( 8 9 8 e c U 0 7 6 8 d 8 a 8 T c i h j K l t O s k m k V t v w Y x Y V x m s m r m s k R h N l l w R R R k V j M i m w s q u p z z k s q v ",
"G a I b c H 0 7 G b G g U G c : H R f f M V j M s j x w s s t s y V V i i l P t h k P i N N f s n l h V M X t i M f O v q r o Q o r t x r v ",
"0 b < G 8 a 6 0 0 G c J 9 : T J e L K g L V R V j x i V P k x q t w Y i Y s v P R m v j i i R x m k j f X O R R M f x m k s u w x y O m s m ",
"0 < b 8 8 d c T 6 U U : a G U U T K N i h O x N P x w g j O v i t V Y Y t m s s r z k N Y L Y X i m j H g f x O L N v u l s t w x w x q s l ",
"} 0 4 H 6 e T 8 a J b 8 J H 8 b g K N j M g k k i h k M R h k O x V R m x s w v u y m i j O j K e L T U T X R L g g j k O x k k V j R y q s ",
"Z `  ...+...@.#.$.`  . .` Z %.&.*.=.-.;.>.,.'.).#.;.>.,.>.=.=.=.!.>.,.=.~.'.{.].{.^.>./.-.).=.@.` (._._.:.#.!./.-.-.#.>.<.,.>.;.,.=.~.{.[.{."};
