/* XPM */
static const char * charset_xpm[] = {
/* columns rows colors chars-per-pixel */
"16 16 38 1",
"  c black",
". c #202020",
"X c #003200320032",
"o c #550e0e",
"O c #6e1313",
"+ c #711313",
"@ c #4b4316",
"# c #6a5819",
"$ c gray27",
"% c gray32",
"& c gray35",
"* c #006900690069",
"= c #009500190019",
"- c #9e1b1b",
"; c #a52b2b",
": c #867a27",
"> c #00cc00240024",
", c #cd7126",
"< c #cc4b4b",
"1 c #d44242",
"2 c #df4848",
"3 c #d85151",
"4 c #00e700790079",
"5 c #9e8c2d",
"6 c #b1a134",
"7 c #c4af00",
"8 c #ff8100",
"9 c #e3ca42",
"0 c #838183",
"q c #a4a1a4",
"w c #a4a1ac",
"e c #e98787",
"r c #eb9292",
"t c #ffeea2",
"y c #c5c2c5",
"u c #fffbe5",
"i c white",
"p c None",
/* pixels */
"p    pppp  ppppp",
" iiii    y0 pppp",
" yii<<<<iiw pppp",
" yi<<<<<<iy pppp",
" yi<<& &<ii   pp",
" yi $*$ & &.  pp",
" yi  $*$ X*$   p",
" yi -$>-X.&*%  p",
" q  >44>+=-43;op",
" Xp ->4-=O>er1op",
" pp -7ut85-24,op",
" pp 59tu6:9ut6@p",
" pp :6#@9#6tu9#p",
"ppp ##pp@#@##@pp",
"ppp pppppppppppp",
"ppp pppppppppppp"
};
