/* XPM */
static const char *charset_xpm[] = {
/* columns rows colors chars-per-pixel */
"16 16 4 1",
"  c Gray0",
". c gainsboro",
"X c Gray100",
"o c None",
/* pixels */
"oooooooooooooooo",
"oooooooooooooooo",
"oo  .ooooooo .oo",
"oo  .oooooo . .o",
"oooooooooooooooo",
"oo  .o   .oo  .o",
"o .o . .o . .o .",
"o .o . .o . .ooo",
"o    .   .o .ooo",
"o .o . .o . .ooo",
"o .o . .o . .o .",
"o .o .   .oo  .o",
"oooooooooooooooo",
"oooooooooooooooo",
"oooooooooooooooo",
"oooooooooooooooo"
};
