/* XPM */
static const char * chatItalic_xpm[] = {
"16 16 3 1",
" 	c None",
".	c #000000",
"+	c #4C4C4C",
"                ",
"                ",
"                ",
"       ....     ",
"        ..++    ",
"       ..++     ",
"       ..+      ",
"       ..+      ",
"       ..+      ",
"       ..+      ",
"       .++      ",
"      . +       ",
"     ...        ",
"      +++       ",
"                ",
"                "};
