/* XPM */
static const char * const chatItalic_xpm[] = {
"24 24 2 1",
" 	c None",
".	c #000000",
"                        ",
"                        ",
"                        ",
"            ....        ",
"            ...         ",
"            ..          ",
"            ..          ",
"            ..          ",
"           ...          ",
"           ..           ",
"           ..           ",
"           ..           ",
"          ..            ",
"          ..            ",
"          ..            ",
"         ...            ",
"         ..             ",
"         ..             ",
"        ...             ",
"                        ",
"                        ",
"                        ",
"                        ",
"                        "};
