/* XPM */
static const char * chatChangeBg_xpm[] = {
"32 24 2 1",
" 	c None",
".	c #000000",
"                                ",
"                                ",
"                                ",
"                                ",
"                                ",
"                                ",
"         ... ..                 ",
"          ..  ..                ",
"         ..   ...               ",
"         ..   ..                ",
"         ..  ...   .  ...       ",
"         .. ..    ..  ..        ",
"        ..   ..   ..  ..        ",
"        ..    ..  .. ..         ",
"        ..   ...  .             ",
"       ..    ..  ..             ",
"       ... ...    ....          ",
"                 . ....         ",
"                ..   ..         ",
"                ..   .          ",
"                                ",
"                                ",
"                                ",
"                                "};
