/* XPM */
static const char * chatChangeFg_xpm[] = {
"16 16 49 1",
" 	c None",
".	c #0A02FE",
"+	c #0206FE",
"@	c #022AFE",
"#	c #FECA02",
"$	c #0242FE",
"%	c #4602FE",
"&	c #06FE04",
"*	c #0282FE",
"=	c #AAFE02",
"-	c #FE0202",
";	c #7A02FE",
">	c #8602FE",
",	c #02FEBA",
"'	c #62FE02",
")	c #FE024A",
"!	c #028EFE",
"~	c #B602FE",
"{	c #02C2FE",
"]	c #02FE4E",
"^	c #FE028A",
"/	c #3AFE02",
"(	c #FE0296",
"_	c #02FEF2",
":	c #C602FE",
"<	c #D202FE",
"[	c #EAFE02",
"}	c #02FE3E",
"|	c #FE02BE",
"1	c #2EFE02",
"2	c #DEFE02",
"3	c #FE02CA",
"4	c #3A02FE",
"5	c #92FE02",
"6	c #6E02FE",
"7	c #FE023E",
"8	c #FE02E2",
"9	c #02DAFE",
"0	c #FE027E",
"a	c #02FE70",
"b	c #16FE02",
"c	c #02FEDA",
"d	c #2202FE",
"e	c #02FE1E",
"f	c #FA02FC",
"g	c #FED602",
"h	c #02CEFE",
"i	c #46FE02",
"j	c #02FE12",
"                ",
"                ",
"                ",
"  -)(8<>        ",
"  7^            ",
"  03     !9c }  ",
"  |f    *h  ]&  ",
"  f~6d@ {_  j/  ",
"  :;     ,ae1   ",
"  >4    ,a      ",
"  %+     }b'=   ",
"  .$    }&  [#  ",
"         i52g   ",
"                ",
"                ",
"                "};
