/* XPM */
static const char * const chatBeep_xpm[] = {
"24 24 2 1",
" 	c None",
".	c #000000",
"                        ",
"                        ",
"                        ",
"            ...         ",
"           ....         ",
"           ...          ",
"           ...          ",
"           ...          ",
"           ..           ",
"           ..           ",
"           ..           ",
"           .            ",
"          ..            ",
"          ..            ",
"                        ",
"                        ",
"         ..             ",
"        ....            ",
"        ...             ",
"         ..             ",
"                        ",
"                        ",
"                        ",
"                        "};
