/* XPM */
static const char * const chatChangeFg_xpm[] = {
"32 24 2 1",
" 	c None",
".	c #000000",
"                                ",
"                                ",
"                                ",
"                                ",
"                                ",
"           .......              ",
"           ..    .              ",
"           ..                   ",
"          ..                    ",
"          ..  .     .  ...      ",
"          .....    ..  ..       ",
"          ..  .    ..  ..       ",
"         ..        .. ..        ",
"         ..        .            ",
"         ..       ..            ",
"        ...        ....         ",
"                  . ....        ",
"                 ..   ..        ",
"                 ..   .         ",
"                                ",
"                                ",
"                                ",
"                                ",
"                                "};
