/* XPM */
static const char * history_xpm[] = {
"25 25 59 1",
" 	c None",
".	c #000000",
"+	c #FFEFAC",
"@	c #FFEEAA",
"#	c #FFEEA9",
"$	c #FFEEA7",
"%	c #FFEDA5",
"&	c #FFEDA3",
"*	c #FFEDA1",
"=	c #FFECA0",
"-	c #FFEC9E",
";	c #FFEC9C",
">	c #FFEB9A",
",	c #FFEEA8",
"'	c #FFEEA6",
")	c #FFEC9F",
"!	c #FFEC9D",
"~	c #FFEB96",
"{	c #FFEA95",
"]	c #FFEDA4",
"^	c #FFEC9B",
"/	c #FFEB98",
"(	c #FFEA94",
"_	c #FFEA92",
":	c #FFEDA6",
"<	c #FFEDA0",
"[	c #FFEDA2",
"}	c #FFEB99",
"|	c #FFEB97",
"1	c #FFEB95",
"2	c #FFEA91",
"3	c #FFEA93",
"4	c #FFEA8F",
"5	c #FFE98F",
"6	c #FFE98D",
"7	c #FFEA90",
"8	c #FFE98B",
"9	c #FFE98E",
"0	c #FFE889",
"a	c #FFE98C",
"b	c #FFE98A",
"c	c #FFE887",
"d	c #FFE886",
"e	c #FFE885",
"f	c #FFE888",
"g	c #FFE884",
"h	c #FFE783",
"i	c #FFE989",
"j	c #FFE780",
"k	c #FFE782",
"l	c #FFE77E",
"m	c #FFE67C",
"n	c #FFE781",
"o	c #FFE67E",
"p	c #FFE67A",
"q	c #FFE77F",
"r	c #FFE67B",
"s	c #FFE578",
"t	c #FFE67D",
"                         ",
"                         ",
"        ............     ",
"       .+@#$%&*=-;>..    ",
"      .+@,'%&*)!;>.~{.   ",
"      .@,']&*)!^>/.(_.   ",
"      .,:..<..^..~...    ",
"      .%][=-;^}|1(.      ",
"      .&..-.>..1.2.      ",
"      .*)-;>/~{324.      ",
"      .)..>..(.256.      ",
"      .!^}/~(_7568.      ",
"      .^}|....9..0.      ",
"      .}|13_79ab0c.      ",
"      .|1..4....de.      ",
"      .(32468bfdgh.      ",
"      ._..6.i..g.j.      ",
"      .79680cegkjl.      ",
"     ...........lm.      ",
"    .79abfcehnjo.p.      ",
"    .6abfdghnqor.s.      ",
"     .ifdgknqtrrs.       ",
"      ...........        ",
"                         ",
"                         "};
