/* XPM */
static const char * history_xpm[] = {
"16 16 47 1",
" 	c None",
".	c #000000",
"+	c #FFEFAC",
"@	c #FFEEAA",
"#	c #FFEEA9",
"$	c #FFECA0",
"%	c #FFEC9E",
"&	c #FFEC9C",
"*	c #FFEB9A",
"=	c #FFEEA8",
"-	c #FFEEA6",
";	c #FFEC9D",
">	c #FFEB96",
",	c #FFEA95",
"'	c #FFEDA4",
")	c #FFEC9B",
"!	c #FFEB98",
"~	c #FFEA94",
"{	c #FFEA92",
"]	c #FFEB99",
"^	c #FFEB97",
"/	c #FFE889",
"(	c #FFEB95",
"_	c #FFEA93",
":	c #FFE98A",
"<	c #FFE887",
"[	c #FFE886",
"}	c #FFE885",
"|	c #FFEA91",
"1	c #FFEA8F",
"2	c #FFE884",
"3	c #FFE783",
"4	c #FFE98D",
"5	c #FFE780",
"6	c #FFEA90",
"7	c #FFE98E",
"8	c #FFE98B",
"9	c #FFE782",
"0	c #FFE77E",
"a	c #FFE67C",
"b	c #FFE98C",
"c	c #FFE888",
"d	c #FFE67E",
"e	c #FFE67A",
"f	c #FFE67B",
"g	c #FFE578",
"h	c #FFE989",
"                ",
"    .........   ",
"    .+@#$%&*..  ",
"   .+@=-;&*.>,. ",
"   .@=-')*!.~{. ",
"   .)]^.../...  ",
"   .]^(_:/<.    ",
"   .^(...[}.    ",
"   .~_|1[23.    ",
"   .{..42.5.    ",
"   .6748950.    ",
"  .......0a.    ",
" .67b:c<d.e.    ",
" .4b:c[2f.g.    ",
"  .hc[29fg.     ",
"   .......      "};
