/* XPM */
static const char * iconDND_xpm[] = {
"64 20 6 1",
" 	c None",
".	c #202020",
"+	c #CCCCCC",
"@	c #007D71",
"#	c #20B2AE",
"$	c #004941",
"                                                                ",
"                                                                ",
"                                                                ",
"                                                                ",
"    ........................................................    ",
"    .......................................................+    ",
"    ....@###..@$$$@.@###...$$$...$$$...$$$...$$$...$$$.....+    ",
"    ....#...#.#...#.#...#.$...$.$...$.$...$.$...$.$...$....+    ",
"    ....#...#.##..#.#...#.$...$.$...$.$...$.$...$.$...$....+    ",
"    ....@$$$$.@$#$@.@$$$$..$$$...$$$...$$$...$$$...$$$.....+    ",
"    ....#...#.#..##.#...#.$...$.$...$.$...$.$...$.$...$....+    ",
"    ....#...#.#...#.#...#.$...$.$...$.$...$.$...$.$...$....+    ",
"    ....@###..@$$$@.@###...$$$...$$$...$$$...$$$...$$$.....+    ",
"    .......................................................+    ",
"    .......................................................+    ",
"    ++++++++++++++++++++++++++++++++++++++++++++++++++++++++    ",
"                                                                ",
"                                                                ",
"                                                                ",
"                                                                "};
