/* XPM */
static const char * iconLicq_xpm[] = {
"48 48 243 2",
"  	c None",
". 	c #040204",
"+ 	c #6C461C",
"@ 	c #644620",
"# 	c #64421F",
"$ 	c #745226",
"% 	c #7C5E36",
"& 	c #7C562C",
"* 	c #744E1C",
"= 	c #744E24",
"- 	c #7C5A2C",
"; 	c #845E2F",
"> 	c #8C622E",
", 	c #845A2C",
"' 	c #7C5221",
") 	c #744A16",
"! 	c #84561B",
"~ 	c #7C4E19",
"{ 	c #845A24",
"] 	c #845624",
"^ 	c #8C5E2C",
"/ 	c #9C7244",
"( 	c #7C5624",
"_ 	c #846234",
": 	c #6C522E",
"< 	c #5C3E19",
"[ 	c #CCCCCC",
"} 	c #644A24",
"| 	c #644214",
"1 	c #5C421C",
"2 	c #342613",
"3 	c #4C3618",
"4 	c #4C3212",
"5 	c #644A2C",
"6 	c #8C5E23",
"7 	c #543614",
"8 	c #2C1A09",
"9 	c #0C0A04",
"0 	c #3C2A14",
"a 	c #946A37",
"b 	c #6C4E25",
"c 	c #74562B",
"d 	c #543A19",
"e 	c #443219",
"f 	c #34220D",
"g 	c #7C522C",
"h 	c #6C4A24",
"i 	c #2C1E0C",
"j 	c #2C2210",
"k 	c #0C0604",
"l 	c #141204",
"m 	c #6C4A1C",
"n 	c #241A0B",
"o 	c #140E04",
"p 	c #946E3B",
"q 	c #643E13",
"r 	c #54320C",
"s 	c #4C3A1C",
"t 	c #5C3A13",
"u 	c #7C5A34",
"v 	c #1C120B",
"w 	c #9C6A2B",
"x 	c #9C723B",
"y 	c #946231",
"z 	c #8C5A21",
"A 	c #946631",
"B 	c #845E24",
"C 	c #8C6634",
"D 	c #24160B",
"E 	c #442A14",
"F 	c #A47233",
"G 	c #945E1F",
"H 	c #B48244",
"I 	c #946A2C",
"J 	c #9C6E36",
"K 	c #AC7A3A",
"L 	c #BC8A48",
"M 	c #946221",
"N 	c #AC7639",
"O 	c #A4763A",
"P 	c #6C4614",
"Q 	c #BC7E3B",
"R 	c #B47A32",
"S 	c #A46E2A",
"T 	c #AC7E44",
"U 	c #9C6A34",
"V 	c #8C663C",
"W 	c #84623C",
"X 	c #643A0C",
"Y 	c #442E13",
"Z 	c #341E0C",
"` 	c #BC823A",
" .	c #CC9249",
"..	c #C48643",
"+.	c #BC863C",
"@.	c #845219",
"#.	c #947244",
"$.	c #745634",
"%.	c #6C420C",
"&.	c #A46E34",
"*.	c #3C260F",
"=.	c #CC8634",
"-.	c #F4AE59",
";.	c #D4923E",
">.	c #C48A3E",
",.	c #BC8644",
"'.	c #9C7644",
").	c #5C4224",
"!.	c #AC7232",
"~.	c #D48E30",
"{.	c #F4B25C",
"].	c #DC9239",
"^.	c #DC9E4F",
"/.	c #E4A659",
"(.	c #9C6E2C",
"_.	c #A47E4C",
":.	c #B4864A",
"<.	c #A47A46",
"[.	c #8C6A3C",
"}.	c #3C2E18",
"|.	c #EC9E3C",
"1.	c #F4A644",
"2.	c #FCB65C",
"3.	c #ECA64C",
"4.	c #DC9A4C",
"5.	c #A46A24",
"6.	c #B47E39",
"7.	c #BC8E54",
"8.	c #C48E54",
"9.	c #AC824C",
"0.	c #4C321C",
"a.	c #442E1C",
"b.	c #C49249",
"c.	c #FCC65C",
"d.	c #FCA63C",
"e.	c #FCBA54",
"f.	c #FCC264",
"g.	c #FCB24C",
"h.	c #B4762C",
"i.	c #D49E57",
"j.	c #CC9A5C",
"k.	c #9C763C",
"l.	c #9C621C",
"m.	c #C4AE54",
"n.	c #FCFE8E",
"o.	c #FCD25C",
"p.	c #FCCE5C",
"q.	c #FCE278",
"r.	c #D48A34",
"s.	c #CC8A36",
"t.	c #F4BA6C",
"u.	c #DCA25C",
"v.	c #54361C",
"w.	c #C4BA54",
"x.	c #FCFE79",
"y.	c #FCF674",
"z.	c #FCFE84",
"A.	c #FCC654",
"B.	c #FCDA68",
"C.	c #F4A23C",
"D.	c #ECA248",
"E.	c #FCC66C",
"F.	c #FCCA74",
"G.	c #ECAE64",
"H.	c #CC9656",
"I.	c #6C4214",
"J.	c #CC964C",
"K.	c #C4BE54",
"L.	c #FCF650",
"M.	c #FCBA44",
"N.	c #FCC250",
"O.	c #FCEE88",
"P.	c #FCDA7C",
"Q.	c #5C3E24",
"R.	c #CCBE5C",
"S.	c #FCFEB4",
"T.	c #FCFEBF",
"U.	c #FCFE9C",
"V.	c #FCDE54",
"W.	c #FCFEA9",
"X.	c #D48E3C",
"Y.	c #CCBEB4",
"Z.	c #FCFE64",
"`.	c #FCAA44",
" +	c #C47E24",
".+	c #AC6E24",
"++	c #CCC27C",
"@+	c #FCFEFB",
"#+	c #FCAE38",
"$+	c #EC962C",
"%+	c #CC8E41",
"&+	c #E49E4C",
"*+	c #744A24",
"=+	c #FCFED8",
"-+	c #FCE244",
";+	c #FCDA5C",
">+	c #FCCA5C",
",+	c #FCBA60",
"'+	c #BC8E4C",
")+	c #D4C6B4",
"!+	c #E49A44",
"~+	c #946624",
"{+	c #FCEA6C",
"]+	c #FCD264",
"^+	c #F4AA54",
"/+	c #BC7A2C",
"(+	c #FCFA6C",
"_+	c #FCFECC",
":+	c #FCF279",
"<+	c #F4B66C",
"[+	c #D4A664",
"}+	c #D4CA8C",
"|+	c #FCB652",
"1+	c #E4A254",
"2+	c #BC8A54",
"3+	c #D4A264",
"4+	c #DCAA64",
"5+	c #D49648",
"6+	c #DCCA6C",
"7+	c #FCE264",
"8+	c #FCBE5C",
"9+	c #DC9644",
"0+	c #9C7A49",
"a+	c #A47644",
"b+	c #BC8244",
"c+	c #9C6634",
"d+	c #DCCA7C",
"e+	c #FCFA5C",
"f+	c #FCF664",
"g+	c #FCD248",
"h+	c #B47A3C",
"i+	c #DCCE7C",
"j+	c #DCA244",
"k+	c #DCAA54",
"l+	c #543E1D",
"m+	c #A4723C",
"n+	c #AC723C",
"o+	c #CC8A44",
"p+	c #B47E44",
"q+	c #4C3A24",
"r+	c #7C623C",
"s+	c #1C160C",
"t+	c #5C4628",
". . . . . . . . . . . . . . . . . . . . . . . . . . . . . . . . . . . . . . . . . . . . . . . . ",
". + @ # @ + $ % & * = - ; > , ' ) ) ) ) ' > ; ! ~ ' { > ] ^ / ! ' > , ( ; ; _ ; = + $ & : + < [ ",
". } @ @ | @ + 1 2 3 4 3 < 5 ; ( * ) ) ) * 6 ^ ! 3 7 8 9 . 0 a * ( ; ( - , ; _ $ + b c b + 1 d [ ",
". @ } @ 1 1 # e . . . . . . . . . . . . . . . . . . . . . f ; ) { - ' - , % g @ h $ b @ < 7 4 [ ",
". 1 h } # 1 1 7 i j k k 9 k 9 k 9 k 9 k 9 k 9 k 9 k l f i c ' * ; ' $ - - & m @ b b @ < 7 4 4 [ ",
". < # @ } @ < # | b - n k o 9 9 o 9 k o 9 9 o 9 k o $ ] { p * ( - ' - ; ; b m = $ @ q d r 7 s [ ",
". t < | @ b h @ @ + c 0 o o o o o o o o o o o o o o 6 { > a ~ > ; { _ > - m $ u b # < 7 t < 1 [ ",
". t < < q @ $ b m m * 1 v v v v v v v v v v v v v n w 6 x y z A B > A C ( ' ; $ m q t < @ 5 5 [ ",
". t < < < # m & $ * = < D v D v v D v v D v D v D E F G H 6 I a A J x ; ( > - = | < | b $ c : [ ",
". t < t < q @ = ; - ' ( D n D n D n D n D n D D n 4 K w L M N w F O a { C > ' P | m & u % % : [ ",
". | q < < q | m ' > ; { i 8 i 8 i 8 i 8 i 8 i 8 i 7 Q R H S K N T T M U p { * + ~ - _ V W u : [ ",
". b m X < q | P * { a A Y j Z j Z j Z j Z j Z j Z < `  .R ..R +.L F F O y @.* { V a #.V _ $.h [ ",
". ( c * @ | %.+ ) ' B &.< f 2 *.f 2 f *.f 2 f *.f { =.-.R ;.>. .,.N ,.w 6 ' y p '.'.a W u $ @ [ ",
". ; ; ( $ * m P * ~ ! y ).0 *.*.0 *.0 *.0 *.0 *.0 !.~.{.].;.^./.R  .K M 6 (._.:.<./ [.; & b @ [ ",
". ; _ _ ; , - ' ~ ' ! 6 + 0 E }.E E 0 E 0 E 0 E 0 ` |.1.2.3.{.;.4...S 5.6.7.8.9.'.a ; - $ h 1 [ ",
". & ; ; _ C C C > z ! G ' 0.a.a.e a.e a.e a.0.a.e b.c.d.e.f.g.3.4.R h. .i.j.L <.J > , ' * @ t [ ",
". q ) $ ; > a k.F x (.l.' 4 0.3 0.0.0.0.0.0.4 0.4 m.n.o.p.q.g.2.r.s./.t.u.8.6.x A B ( * @ q t [ ",
". | X X | * ^ J O H ,.H y 3 v.7 v.v.7 v.7 v.3 v.v.w.x.y.z.A.B.C.D.E.F.G.H.` O w 6 @.) P %.q t [ ",
". _ ( * I.q %.~ > K ,.J.K t d d d d d d d t d d d K.L.z.z.n.M.N.O.P.2.^.>.R w z ! ~ ) ) P + | [ ",
". C C C C > { @.~ ~ l.` T Q.Q.< Q.Q.< Q.Q.Q.Q.Q.< R.S.T.U.V.z.W.O.f.3.X.h.5.l.z { ! { ( ( $ h [ ",
". > C A [.a x O T K S l.! # # # # # # # # # # # # Y.T.n.Z.S.T.z.p.`.r. +.+.+5.(.w A A > ; - $ [ ",
". ( - , { > a F 6.,. .^. .+ @ @ + @ @ + @ @ @ @ @ ++@+n.@+T.x.o.#+$+$+;.X.>.` 6.N O x p a C ; [ ",
". > C > > > A A w N 6.%+&+h h h h h h h h *+h h *+Y.=+@+T.Z.-+;+;+>+,+g.G.u.i.j.8.T J C , $ @ [ ",
". C a p p x <.:.'+J.i./.G.= *+= *+= *+= *+= *+= *+)+@+n.T.T.S.W.U.q.e.!+=.h.5.G ! @.~ ) P P q [ ",
". & { ( { { > ~+&.!.6...;.' $ $.g = $.g = $.= g $ )+@+@+=+S.n.z.{+]+e.^+^.s.+.6.F (.A > ; ( b [ ",
". { { , , ^ y w F K /+..X.g g g g g g g g g & g g )+@+@+@+W.n.(+;+N.g.D.;.s.6.N S w > ^ { ' b [ ",
". ( ( ( ( ! { 6 M S R >.>., , ] , , ] , , ] , ] , )+@+W.T._+n.z.:+p.2.D.;.y { w (.A > { - $ m [ ",
". * ' ( { > a O :.H.u.<+[+, ^ , ^ , ^ , ^ , ^ , ^ }+n.T.n.x.x.z.:+c.|+-.1+; , A S A > { ] $ + [ ",
". C a p x '.9.2+H.3+4+G.5+^ ^ ^ ^ y ^ ^ ^ y ^ ^ ^ 6+U.n.n.x.V.7+>+8+E.^+%+^ y U <.J A > - ' h [ ",
". / '.'.<.9.9.:.'+8.b. .,.A y A y y y A y y y y y 6+U.L.x.x.;+N.`.,+D.9+H y y &.(.U I C _ - b [ ",
". 0+a+'./ '.a+<.<.K H >.b+c+A c+c+a c+A c+a c+c+A d+e+f+g+7+;+|+`.r.Q F c+A U K O J > { , ( $ [ ",
". #.#.p [.C [.U x K K h+K J U J U U U &.U U U U &.i+g+:+#+j+k+..F U U U J U U a U J p > - = } [ ",
". V - Q.l+< ).@ $ w &.F h.&.&.&.&.&.&.&.&.y h h h ] y ( S !.&.&.&.&.&.&.y < f 2 Y @ ; > _ - b [ ",
". ; $ v . . . 9 h > w O b+m+n+n+n+n+n+h o . . . . . . y n+F n+!.F n+n+4 . . . . . . i ' c g b [ ",
". - % i . . . i { A J ,.b+N N N N N # . . . . . . . D N h+n+N N h+N *.. . . . . . . . n $ m @ [ ",
". & ( 3 . . . n > a 9.:.N h+h+h+h+$ . . . . . . . . 0 h+h+h+h+h+h+^ . . . . . . . . . . 1 b @ [ ",
". $ = 4 . . . i C <.<.6 h+Q Q Q Q o . . . *.&.6.Q 3 g Q Q Q Q Q Q n . . . *.y ( 2 . . . o h @ [ ",
". b * e . . . 3 '.a ] > h+b+Q b+y . . . o b+Q ..Q A y b+Q b+Q b+Q . . . n ` !.' ' o . . . < < [ ",
". m + e . . . 5 _ * , a h+......] . . . 0 ......................... . . 0 ..N * * n . . . < 7 [ ",
". h b 4 . . . d m ( > ~ o+o+o+o+, . . . E o+o+o+=.h+o+o+o+o+o+o+o+. . . v h+p+( P k . . . < 3 [ ",
". b b q+. . . 8 = ; = I.o+o+=.o+c+. . . . h+=.o+..*+*+o+=.o+=.o+=.E . . . o # 0.9 . . . o < d [ ",
". $ $.l+. . . n - m q ^ o+=.o+o+o+o . . . o *+, , o . h+..o+..o+o+c+. . . . . . . . . . 7 d d [ ",
". & r+a.. . . n !.&.h+o+o+..o+..o+] . . . . . . . . . o h+..o+..o+o+] . . . . . . . . . i Y 7 [ ",
". r+$ s+. . . 8 o+o+o+o+o+..o+=.o+o+d . . . . . . . . . Z o+..o+=.o+o+U 8 . . . . o . . Z d 3 [ ",
". b f k . . . . < n+U y y U *++ = I.I.3 k . . . . . j - + *+) *+^ y ^ 6 o+.., d | l+k 1 1 3 4 [ ",
". < l+< t+l+7 4 1 h h b $.= # @ + t | * * 1 4 3 s - > _ $ I.# I.h b h < z ....' < 3 d ).@ d 4 [ ",
". t < 1 v.Y Y 3 < ).1 @ 5 1 d < d r < # @ q @ m h = $.$.m < t < < @ # d t h+h+~ v.3 7 s l+d 3 [ ",
"[ [ [ [ [ [ [ [ [ [ [ [ [ [ [ [ [ [ [ [ [ [ [ [ [ [ [ [ [ [ [ [ [ [ [ [ [ [ [ [ [ [ [ [ [ [ [ [ "};
