/* XPM */
static const char * info_xpm[] = {
"25 25 59 1",
" 	c None",
".	c #6083EF",
"+	c #5E80ED",
"@	c #5B7CEB",
"#	c #5979EA",
"$	c #5675E8",
"%	c #5472E6",
"&	c #516EE4",
"*	c #6387F1",
"=	c #4F6AE3",
"-	c #4C67E1",
";	c #4A63DF",
">	c #4760DD",
",	c #455CDC",
"'	c #4259DA",
")	c #4055D8",
"!	c #9EAEF0",
"~	c #C4CDF6",
"{	c #7388E8",
"]	c #3D52D7",
"^	c #3B4ED5",
"/	c #FFFFFF",
"(	c #8697EA",
"_	c #394AD3",
":	c #3647D1",
"<	c #9BAAEE",
"[	c #C3CBF4",
"}	c #6F83E4",
"|	c #3443D0",
"1	c #3140CE",
"2	c #2F3CCC",
"3	c #C3CCF5",
"4	c #C2CAF4",
"5	c #C1C9F3",
"6	c #6C7DE2",
"7	c #2C39CA",
"8	c #808EE5",
"9	c #2A35C9",
"0	c #8190E6",
"a	c #7E8CE4",
"b	c #2731C7",
"c	c #7C89E3",
"d	c #252EC5",
"e	c #7B86E2",
"f	c #222AC3",
"g	c #7984E0",
"h	c #2027C2",
"i	c #5568DC",
"j	c #A6AEEB",
"k	c #A4ABEA",
"l	c #7680DE",
"m	c #747DDD",
"n	c #434FD0",
"o	c #7178DB",
"p	c #1D23C0",
"q	c #5161DA",
"r	c #7882E0",
"s	c #727BDC",
"t	c #3F48CD",
"                         ",
"                         ",
"         .+@#$%&         ",
"       *.+@#$%&=-;       ",
"      *.+@#$%&=-;>,      ",
"     *.+@#$%&=-;>,')     ",
"    *.+@#$%!~{;>,')]^    ",
"   *.+@#$%&~/(>,')]^_:   ",
"   .+@#$%&=<[},')]^_:|   ",
"  .+@#$%&=-;>,')]^_:|12  ",
"  +@#$%&=3[456)]^_:|127  ",
"  @#$%&=-////8]^_:|1279  ",
"  #$%&=-;>,0/a^_:|1279b  ",
"  $%&=-;>,'8/c_:|1279bd  ",
"  %&=-;>,')a/e:|1279bdf  ",
"  &=-;>,')]c/g|1279bdfh  ",
"   -;>,'iacj/klmn9bdfh   ",
"   ;>,')a///////obdfhp   ",
"    ,')]qegrlmsotdfhp    ",
"     )]^_:|1279bdfhp     ",
"      ^_:|1279bdfhp      ",
"       :|1279bdfhp       ",
"         279bdfh         ",
"                         ",
"                         "};
