/* XPM */
static const char * itemCollapsed_xpm[] = {
"15 14 25 1",
" 	c None",
".	c #E4D55E",
"+	c #E4D562",
"@	c #E4D459",
"#	c #E4D666",
"$	c #E4D45A",
"%	c #E4D456",
"&	c #E4D66A",
"*	c #E4D563",
"=	c #E4D55F",
"-	c #E4D457",
";	c #E4D252",
">	c #E4D66E",
",	c #E4D667",
"'	c #E4D45B",
")	c #E4D24E",
"!	c #E4D772",
"~	c #E4D66B",
"{	c #E4D253",
"]	c #E4D776",
"^	c #E4D66F",
"/	c #E4D979",
"(	c #E4D76F",
"_	c #E4D97D",
":	c #E4DA80",
"               ",
"               ",
"   .           ",
"   +.@         ",
"   #+.$%       ",
"   &#*=$-;     ",
"   >&,*='-;)   ",
"   !>~,*='-{   ",
"   ]!^~,*=     ",
"   /]!(~       ",
"   _/]         ",
"   :           ",
"               ",
"               "};
