/* XPM */
static const char * itemCollapsed_xpm[] = {
"15 14 4 1",
" 	c None",
".	c #000000",
"+	c #C0C0C0",
"@	c #FFFFFF",
"               ",
"               ",
"               ",
"       .       ",
"       ..      ",
"       .+.     ",
"       .@+.    ",
"       .+@+.   ",
"       .@+@+.  ",
"       .+@+.   ",
"       .@+.    ",
"       .+.     ",
"       ..      ",
"       .       "};
