/* XPM */
static const char * phonebookPager_xpm[] = {
"16 16 8 1",
"  c #000000",
". c #00FF00",
"X c #00B900",
"o c #FF0000",
"O c #FFFFFF",
"+ c #FFFF00",
"@ c #FF5500",
"# c None",
"################",
"################",
"################",
"##            ##",
"#  XXXXXXXXXX  #",
"# O..........X #",
"# O..........X #",
"# OOOOOOOOOOOX #",
"#              #",
"#              #",
"# ++ ++ +++++  #",
"# +@ +@ +oooo  #",
"#              #",
"##            ##",
"################",
"################"
};

