/* XPM */
static const char * phonebookCellular_xpm[] = {
"16 16 6 1",
"  c #000000",
". c #C0C0C0",
"X c #808080",
"o c #FFFFFF",
"O c #FFFF00",
"+ c None",
"++++++++++ +++++",
"++++++++++ +++++",
"++++++++++ +++++",
"++++++X    +++++",
"+++++      X++++",
"+++++ oooo X++++",
"+++++ OOOO X++++",
"+++++      X++++",
"+++++ oXoX X++++",
"+++++ XoXo X++++",
"+++++ oXoX X++++",
"+++++ XoXo X++++",
"+++++ oXoX X++++",
"+++++ XoXo X++++",
"+++++ .XX. X++++",
"+++++      X++++"
};

