/* XPM */
static const char * phonebookPhone_xpm[] = {
"16 16 7 1",
"  c #000000",
". c #00FF00",
"X c #808080",
"o c #FFFFFF",
"O c #FFFF00",
"+ c #808000",
"@ c None",
"@@@@@@@@@@@@@@@@",
"@@@          @@@",
"@@ oOXOOOOX++ @@",
"@ oOOO    OO++ @",
"@ oOOO XX OOO+  ",
"@     OoO+      ",
"@@@ oOoOoo++ @@ ",
"@@ oOoO  Oo++ @ ",
"@ oOoO O. oO++  ",
"@ ooOo .. Oo++ @",
"@ oOoOo  OoO++ @",
"@ ooOoOoOoOo++ @",
"@ oOoOoOoOo+++ @",
"@+            +@",
"@@@@@@@@@@@@@@@@",
"@@@@@@@@@@@@@@@@"
};

