/* XPM */
static const char * phonebookCellularSMS_xpm[] = {
"16 16 7 1",
"  c #000000",
". c #C0C0C0",
"X c #008080",
"o c #808080",
"O c #FFFFFF",
"+ c #FFFF00",
"@ c None",
"@@@@@@@@@@@@@@ @",
"@@@@@o o@@@@@@ @",
"@@@@o X @@@@@@ @",
"@@@@o X @@o    @",
"      X        o",
" +O+O X O OOOO o",
" O+O+ X + ++++ o",
" +O+O   O      o",
" O+O+O+O+ OoOo o",
" +Ooo+ooO oOoO o",
" O+O+O+O+ OoOo o",
" +OoooOoo oOoO o",
" O+O+O+O+ OoOo o",
" +O+O+O+O oOoO o",
"          .oo. o",
"@@@@@@@@@      o"
};

