/* XPM */
static const char * pixCellular_xpm[] = {
"16 16 186 2",
"  	c None",
". 	c #558057",
"+ 	c #476C48",
"@ 	c #334F35",
"# 	c #2C3130",
"$ 	c #1C1F1F",
"% 	c #82C582",
"& 	c #83CA83",
"* 	c #81C882",
"= 	c #6BAA6B",
"- 	c #578E58",
"; 	c #426E42",
"> 	c #303C3C",
", 	c #1C2425",
"' 	c #1D2727",
") 	c #202B2D",
"! 	c #242E30",
"~ 	c #425D48",
"{ 	c #7AC37B",
"] 	c #7AC779",
"^ 	c #78C578",
"/ 	c #76C375",
"( 	c #72C373",
"_ 	c #6FC16E",
": 	c #244426",
"< 	c #5B6771",
"[ 	c #1F292B",
"} 	c #1C2526",
"| 	c #1F2728",
"1 	c #1E282A",
"2 	c #1F2827",
"3 	c #4B6D4D",
"4 	c #74C374",
"5 	c #71C16F",
"6 	c #6CC06B",
"7 	c #6ABE6A",
"8 	c #356036",
"9 	c #386D38",
"0 	c #8690A1",
"a 	c #313F41",
"b 	c #1A2022",
"c 	c #181D1E",
"d 	c #181C1E",
"e 	c #1E2424",
"f 	c #2F3A33",
"g 	c #6DBE6D",
"h 	c #6CC06C",
"i 	c #6ABE6C",
"j 	c #67BD66",
"k 	c #63BB64",
"l 	c #3A623B",
"m 	c #61BB62",
"n 	c #1B381C",
"o 	c #949CA8",
"p 	c #3F4D4F",
"q 	c #282F29",
"r 	c #2A2F28",
"s 	c #292D29",
"t 	c #272A24",
"u 	c #242927",
"v 	c #436A44",
"w 	c #64BC64",
"x 	c #62BB63",
"y 	c #61BB60",
"z 	c #5DB95D",
"A 	c #3E643F",
"B 	c #489848",
"C 	c #737F8B",
"D 	c #29312E",
"E 	c #282A25",
"F 	c #1F2323",
"G 	c #22282C",
"H 	c #212728",
"I 	c #313E41",
"J 	c #548F54",
"K 	c #5CB95C",
"L 	c #5AB85A",
"M 	c #57B656",
"N 	c #428B43",
"O 	c #367037",
"P 	c #367236",
"Q 	c #163218",
"R 	c #949BAA",
"S 	c #4F5D63",
"T 	c #586C7E",
"U 	c #495658",
"V 	c #4E616B",
"W 	c #4C5D63",
"X 	c #4C5C61",
"Y 	c #50625F",
"Z 	c #529851",
"` 	c #53B555",
" .	c #51B451",
"..	c #50B34F",
"+.	c #4DB14C",
"@.	c #49AF4A",
"#.	c #255926",
"$.	c #848F9B",
"%.	c #465762",
"&.	c #61747C",
"*.	c #4A5A5F",
"=.	c #53636B",
"-.	c #455453",
";.	c #45565E",
">.	c #50615C",
",.	c #4D984F",
"'.	c #4CB24C",
").	c #48B048",
"!.	c #46AE46",
"~.	c #44AE46",
"{.	c #225723",
"].	c #6F7A85",
"^.	c #4B5D68",
"/.	c #60757E",
"(.	c #414F50",
"_.	c #4F6067",
":.	c #333F3D",
"<.	c #3C494D",
"[.	c #303C32",
"}.	c #3F8C42",
"|.	c #43AE44",
"1.	c #41AD40",
"2.	c #3EAB3D",
"3.	c #1F5620",
"4.	c #9398A4",
"5.	c #5C6971",
"6.	c #374345",
"7.	c #252F30",
"8.	c #202625",
"9.	c #202626",
"0.	c #1D2424",
"a.	c #1E2323",
"b.	c #212926",
"c.	c #398238",
"d.	c #3AA939",
"e.	c #38A936",
"f.	c #1B551C",
"g.	c #818893",
"h.	c #506066",
"i.	c #273231",
"j.	c #1E2628",
"k.	c #1D2526",
"l.	c #1C2324",
"m.	c #1D2524",
"n.	c #232C2B",
"o.	c #347736",
"p.	c #31A632",
"q.	c #185218",
"r.	c #737E88",
"s.	c #4A5C5E",
"t.	c #2E3E3E",
"u.	c #2B3637",
"v.	c #1C2222",
"w.	c #1C2322",
"x.	c #1D2321",
"y.	c #262E29",
"z.	c #369334",
"A.	c #145115",
"B.	c #8E939E",
"C.	c #657378",
"D.	c #435556",
"E.	c #2A3537",
"F.	c #181D1F",
"G.	c #202423",
"H.	c #242826",
"I.	c #2F3330",
"J.	c #373936",
"K.	c #397538",
"L.	c #125013",
"M.	c #88909A",
"N.	c #425251",
"O.	c #1E2525",
"P.	c #4B4B45",
"Q.	c #575752",
"R.	c #9E9687",
"S.	c #626156",
"T.	c #5C5B4F",
"U.	c #2F872C",
"V.	c #0E4E10",
"W.	c #526060",
"X.	c #303935",
"Y.	c #5A5E55",
"Z.	c #52564A",
"`.	c #55594D",
" +	c #464C3E",
".+	c #0B3D0D",
"          . + @                 ",
"    #   $ % & * = - ;           ",
"> , ' ) ! ~ { ] ^ / ( _ :       ",
"< [ } | 1 2 3 4 5 _ 6 7 8 9     ",
"0 a b c d e f g h i j k l m n   ",
"o p q r s t u v w x y z A 7 B   ",
"  C D E F G H I J K L M N O P Q ",
"  R S T U V W X Y Z `  ...+.@.#.",
"    $.%.&.*.=.-.;.>.,.'.).!.~.{.",
"      ].^./.(._.:.<.[.}.|.1.2.3.",
"      4.5.6.7.8.9.0.a.b.c.d.e.f.",
"        g.h.i.1 j.k.l.m.n.o.p.q.",
"          r.s.t.u.j.v.w.x.y.z.A.",
"          B.C.D.E.F.G.H.I.J.K.L.",
"            M.N.O.P.Q.R.S.T.U.V.",
"              W.X.Y.Z.`. +  .+  "};
