/* XPM */
static const char * pixCellular_xpm[] = {
"16 16 4 1",
" 	c None",
".	c #000000",
"+	c #BFBFBF",
"@	c #A8A8A8",
"              . ",
"             .+ ",
"            .+  ",
"         ...+   ",
"        .@@.    ",
"       .@.@@.   ",
"      .@.@.@.+  ",
"     .@.@.@+.+  ",
"    .@@@.++.+   ",
"   .@.@@+..+    ",
"  .@.@.@+.+     ",
" .@.@.@+.+      ",
".@.@.@+.+       ",
".@@.++.+        ",
" .@+..+         ",
"  ..++          "};
