/* XPM */
static const char * pixICQphoneActive_xpm[] = {
"13 16 3 1",
"  c #000000",
". c #FFFF00",
"X c None",
"XXXXXXXXXXXXX",
"XXXXXXXXXXXXX",
"XXXXXXXXXXXXX",
"XXXX   X   XX",
"XXX .. XXXXXX",
"XX ... X  XXX",
"XX . . XXXXXX",
"XX .  XX XXXX",
"XX . XXXXXXXX",
"XX . XXXXXXXX",
"XX .   XXXXXX",
"XX .... XXXXX",
"XXX ... XXXXX",
"XXXX   XXXXXX",
"XXXXXXXXXXXXX",
"XXXXXXXXXXXXX"};
