/* XPM */
static const char * pixICQphoneBusy_xpm[] = {
"13 16 5 1",
"  c #000000",
". c #FF0000",
"X c #FFFFFF",
"o c #FFFF00",
"O c None",
"OOOOOOOOOOOOO",
"OOOOOOOOOOOOO",
"OOOOOOOOOOOOO",
"OO   O   OOOO",
"O oo OOOOOOOO",
" ooo O  OOOOO",
" o o O....OOO",
" o  O......OO",
" o O..X..X..O",
" o O...XX...O",
" o  ...XX...O",
" ooo..X..X..O",
"O ooo......OO",
"OO   O....OOO",
"OOOOOOOOOOOOO",
"OOOOOOOOOOOOO"};
