/* XPM */
static const char * pixPhone_xpm[] = {
"16 16 168 2",
"  	c None",
". 	c #588358",
"+ 	c #456946",
"@ 	c #304A32",
"# 	c #101812",
"$ 	c #84CA84",
"% 	c #81C981",
"& 	c #7BC27A",
"* 	c #70B471",
"= 	c #4A7A4A",
"- 	c #395F3A",
"; 	c #101811",
"> 	c #7EC77E",
", 	c #7CC67C",
"' 	c #79C578",
") 	c #76C476",
"! 	c #73C374",
"~ 	c #6FC16F",
"{ 	c #376238",
"] 	c #274928",
"^ 	c #424548",
"/ 	c #2B2E2F",
"( 	c #47604A",
"_ 	c #537655",
": 	c #659966",
"< 	c #6EB86E",
"[ 	c #6DBF6C",
"} 	c #6ABF69",
"| 	c #3A683B",
"1 	c #519951",
"2 	c #27292D",
"3 	c #26282A",
"4 	c #33363B",
"5 	c #3F4148",
"6 	c #202622",
"7 	c #2F3534",
"8 	c #1A1D1C",
"9 	c #252728",
"0 	c #415F45",
"a 	c #5EA160",
"b 	c #39683A",
"c 	c #68BE68",
"d 	c #306331",
"e 	c #222327",
"f 	c #2A2B2E",
"g 	c #191C1F",
"h 	c #1D1E21",
"i 	c #314333",
"j 	c #2D3B30",
"k 	c #4E714F",
"l 	c #466848",
"m 	c #354138",
"n 	c #282D2C",
"o 	c #2E3E30",
"p 	c #60A061",
"q 	c #54AC54",
"r 	c #173318",
"s 	c #212425",
"t 	c #232528",
"u 	c #262728",
"v 	c #1F2022",
"w 	c #434549",
"x 	c #6D6D6F",
"y 	c #6D6A68",
"z 	c #535552",
"A 	c #303531",
"B 	c #304632",
"C 	c #1F2123",
"D 	c #494F50",
"E 	c #366337",
"F 	c #1A3E1B",
"G 	c #222426",
"H 	c #242527",
"I 	c #494D56",
"J 	c #7A787B",
"K 	c #948883",
"L 	c #C3BAB4",
"M 	c #BBB2AC",
"N 	c #817E80",
"O 	c #3F4943",
"P 	c #1D2021",
"Q 	c #34373C",
"R 	c #3A603D",
"S 	c #275F28",
"T 	c #4B4D52",
"U 	c #757172",
"V 	c #8F837C",
"W 	c #E6E0DC",
"X 	c #FEFEFC",
"Y 	c #C5BBB8",
"Z 	c #797A81",
"` 	c #2B2E32",
" .	c #161919",
"..	c #2E4032",
"+.	c #225923",
"@.	c #272A2D",
"#.	c #51565D",
"$.	c #595B61",
"%.	c #736B67",
"&.	c #8A7F79",
"*.	c #B8AEA8",
"=.	c #A49891",
"-.	c #9A9596",
";.	c #55605F",
">.	c #366037",
",.	c #3C653F",
"'.	c #215A22",
").	c #232628",
"!.	c #3E4044",
"~.	c #3F4243",
"{.	c #4E535A",
"].	c #5E636B",
"^.	c #515258",
"/.	c #6B6664",
"(.	c #776F6B",
"_.	c #867B77",
":.	c #595757",
"<.	c #4F555A",
"[.	c #3F9642",
"}.	c #37A636",
"|.	c #1C5A1C",
"1.	c #242628",
"2.	c #232629",
"3.	c #2E3032",
"4.	c #2C2E31",
"5.	c #232728",
"6.	c #373B40",
"7.	c #4B4F56",
"8.	c #505158",
"9.	c #46474B",
"0.	c #4A4A4D",
"a.	c #515154",
"b.	c #555A61",
"c.	c #3F8A44",
"d.	c #30A52F",
"e.	c #195919",
"f.	c #2F3234",
"g.	c #1B1E21",
"h.	c #151617",
"i.	c #141517",
"j.	c #1A1C1F",
"k.	c #2C2F34",
"l.	c #43474F",
"m.	c #5D626B",
"n.	c #676B74",
"o.	c #417C47",
"p.	c #28A128",
"q.	c #155716",
"r.	c #242526",
"s.	c #1A1D1F",
"t.	c #191C1C",
"u.	c #191C1E",
"v.	c #18191A",
"w.	c #151718",
"x.	c #2A2C30",
"y.	c #305D35",
"z.	c #239F23",
"A.	c #115612",
"B.	c #202224",
"C.	c #1A1D1D",
"D.	c #1B1D20",
"E.	c #191A1C",
"F.	c #17191B",
"G.	c #1D2720",
"H.	c #125B12",
"I.	c #0C3F0E",
"J.	c #1E2022",
"K.	c #2D2F31",
"            . + @               ",
"          # $ % & * = -         ",
"          ; > , ' ) ! ~ { ]     ",
"        ^ / ( _ : < [ } | 1     ",
"    2 3 4 5 6 7 8 9 0 a b c d   ",
"    e f g h i j k l m n o p q r ",
"  s t   u v w x y z A B C D E F ",
"  G H     I J K L M N O P Q R S ",
"    t     T U V W X Y Z `  ...+.",
"  @.      #.$.%.&.*.=.-.;.>.,.'.",
"` ).  !.~.{.].^./.(._.:.<.[.}.|.",
"1.2.3.@.4.5.6.7.8.9.0.a.b.c.d.e.",
"    f.    g.h.i.j.k.l.m.n.o.p.q.",
"          r.s.t.u.v.w.j.x.y.z.A.",
"              e B.C.D.E.F.G.H.I.",
"                      J.s K.    "};
