/* XPM */
static const char * secure_on_xpm[] = {
"16 16 9 1",
" 	c None",
".	c #FFFF00",
"+	c #6265CD",
"@	c #000000",
"#	c #FFFFFF",
"$	c #9C99FF",
"%	c #313062",
"&	c #C5C2C5",
"*	c #202020",
"                ",
"     ...... .   ",
" . ..++@@@@. .  ",
"  ..+####$$@. . ",
" . .+#%@@+$@..  ",
"  . +#@.&*$@. . ",
" ...+#@..%$@.. .",
" .++$+%%%++%%@. ",
"  +$######$%%@..",
" .+$#++++++%%@. ",
"  +$#$$$$$$%%@..",
" .+$#++++++%%@. ",
"  +$#$$$$$$%%@..",
" .+$$++++++%%@. ",
"  .%%%%%%*@@@.  ",
"                "};
