/* XPM */
static const char * secure_off_xpm[] = {
"16 16 11 1",
" 	c None",
".	c #6265CD",
"+	c #313062",
"@	c #C5C2C5",
"#	c #FFFFFF",
"$	c #000000",
"%	c #830000",
"&	c #9C99FF",
"*	c #202020",
"=	c #838100",
"-	c #9C0062",
"                ",
"                ",
"         ...+++ ",
"        .@##@@.+",
"        .#@$%.&+",
"        +@.  *&+",
"  ......+@.. .$$",
" .#$====...$    ",
" +#######&%$    ",
" +#&-----%.$    ",
" +##======%$    ",
" +#&-----%.$    ",
" +##======.$    ",
" .+******$$.    ",
"                ",
"                "};
