/* XPM */
static const char * smile_xpm[] = {
"16 16 85 1",
" 	c None",
".	c #D4D4D4",
"+	c #FDF6CD",
"@	c #86892D",
"#	c #E7E7E7",
"$	c #ECECEC",
"%	c #C9C9C9",
"&	c #928F22",
"*	c #B9B76E",
"=	c #E3D783",
"-	c #D3D3BB",
";	c #BEB241",
">	c #DFC947",
",	c #AB9F1F",
"'	c #F1ECC2",
")	c #C8C271",
"!	c #B4A82A",
"~	c #DBCC62",
"{	c #D7BE28",
"]	c #C8C8C8",
"^	c #E8DA7C",
"/	c #D3D097",
"(	c #E3CF59",
"_	c #919338",
":	c #E2E2E2",
"<	c #7C7F16",
"[	c #CCB51B",
"}	c #FAF3C9",
"|	c #C4C079",
"1	c #D0D1B6",
"2	c #DBC437",
"3	c #E7D56B",
"4	c #A3A562",
"5	c #8B8917",
"6	c #E3E3E3",
"7	c #A0A25D",
"8	c #B7A71A",
"9	c #97973B",
"0	c #E6E6DF",
"a	c #E5E5DE",
"b	c #86876C",
"c	c #8E8F7B",
"d	c #787A37",
"e	c #787B1F",
"f	c #C5C5C5",
"g	c #8D8E4C",
"h	c #9C9D62",
"i	c #FFF9D6",
"j	c #8C8E48",
"k	c #AFAFAF",
"l	c #DBDBCA",
"m	c #ACAE74",
"n	c #9C9E61",
"o	c #D1D1D1",
"p	c #BCBDA5",
"q	c #87886F",
"r	c #D5BB1C",
"s	c #D6D7C3",
"t	c #7D801A",
"u	c #A8AA6F",
"v	c #7C7E18",
"w	c #7C7E23",
"x	c #BCBDA3",
"y	c #AAAC6F",
"z	c #7C7E21",
"A	c #7D801B",
"B	c #939389",
"C	c #C4C4C4",
"D	c #727439",
"E	c #D6D7C6",
"F	c #717335",
"G	c #797A35",
"H	c #A4A668",
"I	c #787B1E",
"J	c #ADADAD",
"K	c #DCDCD2",
"L	c #7A7D19",
"M	c #C5C699",
"N	c #F7EDB2",
"O	c #F3E8A2",
"P	c #FAF2C1",
"Q	c #EFE290",
"R	c #7A7D16",
"S	c #FFFFFF",
"T	c #D8BF28",
"    17@R@71     ",
"  0m_/'i'/_ua   ",
" lt*}+++++}*vE  ",
" y|PPPPPPPPP|n# ",
"-9NNNRNNNRNNN9p$",
"4)OOOROOOROOO)g:",
"@=QQQQQQQQQQQ=w.",
"A^RRRRRRRRRRR^L%",
"@~3RSSSSSSSR3~ef",
"4;(RMMMMMMMR(;d%",
"-&>RRSSSSSRR>&q.",
" H!2RRRRRRR2!FJ:",
" s<,{TTTTT{,<co$",
"  Kh58[r[85DB%# ",
"   #xjzRIGbk.#  ",
"    $6.]C].6$   "};
