/* XPM */
static char * butMenuFocus_xpm[] = {
"51 21 135 2",
"  	c None",
". 	c #000000",
"+ 	c #FDD7AE",
"@ 	c #F8D2A9",
"# 	c #F4CDA4",
"$ 	c #F0C8A0",
"% 	c #EBC39B",
"& 	c #E7BE96",
"* 	c #E3B992",
"= 	c #DEB48D",
"- 	c #DAAF89",
"; 	c #D6AA84",
"> 	c #D2A47F",
", 	c #CD9F7B",
"' 	c #C99A76",
") 	c #C59571",
"! 	c #C0906D",
"~ 	c #BC8B68",
"{ 	c #B88664",
"] 	c #B3815F",
"^ 	c #AF7C5A",
"/ 	c #AB7656",
"( 	c #A77151",
"_ 	c #A26C4C",
": 	c #9E6748",
"< 	c #9A6243",
"[ 	c #955D3F",
"} 	c #91583A",
"| 	c #8D5335",
"1 	c #884E31",
"2 	c #84482C",
"3 	c #804327",
"4 	c #7C3E23",
"5 	c #77391E",
"6 	c #73341A",
"7 	c #6F2F15",
"8 	c #6A2A10",
"9 	c #67270D",
"0 	c #F2CBA2",
"a 	c #5E1B03",
"b 	c #5D1B03",
"c 	c #64250D",
"d 	c #E7BE97",
"e 	c #60240C",
"f 	c #DDB28B",
"g 	c #773B22",
"h 	c #A5755A",
"i 	c #8F593F",
"j 	c #763B22",
"k 	c #5C220B",
"l 	c #D2A580",
"m 	c #FDD8AE",
"n 	c #9A7159",
"o 	c #DBB493",
"p 	c #D4B293",
"q 	c #491502",
"r 	c #F2CEA9",
"s 	c #6D3821",
"t 	c #3E1202",
"u 	c #58210A",
"v 	c #C79875",
"w 	c #C7AE93",
"x 	c #1F0901",
"y 	c #776758",
"z 	c #9F7359",
"A 	c #541F0A",
"B 	c #BD8C69",
"C 	c #726658",
"D 	c #947059",
"E 	c #501E09",
"F 	c #B27F5E",
"G 	c #4C1C08",
"H 	c #A87352",
"I 	c #481B07",
"J 	c #451907",
"K 	c #DCBF9F",
"L 	c #4F463D",
"M 	c #411806",
"N 	c #150600",
"O 	c #3D1605",
"P 	c #EECDA9",
"Q 	c #CEB093",
"R 	c #B98C70",
"S 	c #E8C39F",
"T 	c #391504",
"U 	c #9D6647",
"V 	c #340F01",
"W 	c #79533E",
"X 	c #351304",
"Y 	c #935A3C",
"Z 	c #91816F",
"` 	c #292520",
" .	c #0A0300",
"..	c #311203",
"+.	c #884D30",
"@.	c #481502",
"#.	c #521802",
"$.	c #2D1002",
"%.	c #7D4025",
"&.	c #290F01",
"*.	c #733419",
"=.	c #250D00",
"-.	c #66260D",
";.	c #65250D",
">.	c #62250C",
",.	c #61240C",
"'.	c #60230C",
").	c #5E230C",
"!.	c #5D230B",
"~.	c #5A210B",
"{.	c #59210B",
"].	c #56200A",
"^.	c #551F0A",
"/.	c #521F09",
"(.	c #511E09",
"_.	c #4E1D09",
":.	c #4D1C08",
"<.	c #4A1C08",
"[.	c #491B08",
"}.	c #471A07",
"|.	c #441906",
"1.	c #431806",
"2.	c #401806",
"3.	c #3F1705",
"4.	c #3C1605",
"5.	c #3B1505",
"6.	c #381404",
"7.	c #371404",
"8.	c #341303",
"9.	c #331203",
"0.	c #301103",
"a.	c #2F1102",
"b.	c #2C1002",
"c.	c #2B0F02",
"d.	c #280F01",
". . . . . . . . . . . . . . . . . . . . . . . . . . . . . . . . . . . . . . . . . . . . . . . . . . . ",
". + @ # $ % & * = - ; > , ' ) ! ~ { ] ^ / ( _ _ _ _ _ _ _ _ _ _ _ _ _ _ : < [ } | 1 2 3 4 5 6 7 8 9 . ",
". 0 a a a a a a a a a a a a a a a a a a a a a a a a a a a a a a a a b b b b b b b b b b a a a a a c . ",
". d a a a a a a a a a a a a a a a a a a a a a a a a a a a a a a a a a a b b b b b b b b b b a a a e . ",
". f a a a a g h h h h h h h h h i a a i h h h h h h i a h h h h h h g a j h h b b j h h b b a a a k . ",
". l a a a a h m m m m m m m m m m n a o m m m m m m p q m m m m m m r s h m m t b h m m t b a a a u . ",
". v a a a a h m m m m m m m m m m w t o m m m m m m w x m m m m m m m y z m m . b h m m . b a a a A . ",
". B a a a a h m m . . m m C . w m w x o m w . . . . . x m m C . . m m C D m m . b h m m . b a a a E . ",
". F a a a a h m m . a m m C t o m w x o m w x a a a a a m m C t a m m C D m m . b h m m . b a a a G . ",
". H a a a a h m m . a m m C t o m w x o m m m m m m o a m m C t a m m C D m m . b h m m . b a a a I . ",
". H a a a a h m m . a m m C t o m w x o m m m m m m w x m m C t a m m C D m m . b h m m . b a a a J . ",
". H a a a a h m m . a m m C t o m w x o m K C C C C L x m m C t a m m C D m m . b h m m . b a a a M . ",
". H a a a a h m m . a m m C t o m w x o m w N t t t t q m m C t a m m C D m m . b h m m . b a a a O . ",
". H a a a a h m m . a m m C t o m w x o m P Q o o o R a m m C t a m m C D m m w o S m m . b a a a T . ",
". U a a a a h m m . a m m C t o m w x o m m m m m m Q V m m C t a m m C W m m m m m m P . b a a a X . ",
". Y a a a a i p w . a o w L t R Q Z x R Q w w w w w Z x o w L t a o w L t n w w w w w `  .b a a a ... ",
". +.a a a a a q x x a a x x q a V x V a V x x x x x x V a x x q a a x x @.b t x x x x x #.b a a a $.. ",
". %.a a a a a a a a a a a a a a a a a a a a a a a a a a a a a a a a a a b b b b b b b b b b a a a &.. ",
". *.a a a a a a a a a a a a a a a a a a a a a a a a a a a a a a a b b b b b b b b b b a a a a a a =.. ",
". 9 -.;.c >.,.'.).!.k ~.{.u ].^.A /.(.E _.:.G <.[.I }.J |.1.M 2.3.O 4.5.T 6.7.X 8.9...0.a.$.b.c.&.d.. ",
". . . . . . . . . . . . . . . . . . . . . . . . . . . . . . . . . . . . . . . . . . . . . . . . . . . "};
