/* XPM */
static char * msg_xpm[] = {
"91 23 26 1",
" 	c None",
".	c #5E1B03",
"+	c #5D1B03",
"@	c #5F1B03",
"#	c #601B03",
"$	c #611B03",
"%	c #621B03",
"&	c #631B03",
"*	c #631C03",
"=	c #641C03",
"-	c #651C03",
";	c #671E03",
">	c #681E03",
",	c #6A1F03",
"'	c #6B2003",
")	c #6C2103",
"!	c #6D2103",
"~	c #6E2103",
"{	c #6E2303",
"]	c #6F2303",
"^	c #6F2203",
"/	c #6E2203",
"(	c #752504",
"_	c #681D03",
":	c #5B1601",
"<	c #551401",
"..........................++++++++++..........................@##$%&*==---;>,'')!~{]^/((_:<",
"..........................++++++++++..........................@##$%&*==---;>,'')!~{]^/((_:<",
"..........................++++++++++..........................@##$%&*==---;>,'')!~{]^/((_:<",
"..........................++++++++++..........................@##$%&*==---;>,'')!~{]^/((_:<",
"..........................++++++++++..........................@##$%&*==---;>,'')!~{]^/((_:<",
"..........................++++++++++..........................@##$%&*==---;>,'')!~{]^/((_:<",
"..........................++++++++++..........................@##$%&*==---;>,'')!~{]^/((_:<",
"..........................++++++++++..........................@##$%&*==---;>,'')!~{]^/((_:<",
"..........................++++++++++..........................@##$%&*==---;>,'')!~{]^/((_:<",
"..........................++++++++++..........................@##$%&*==---;>,'')!~{]^/((_:<",
"..........................++++++++++..........................@##$%&*==---;>,'')!~{]^/((_:<",
"..........................++++++++++..........................@##$%&*==---;>,'')!~{]^/((_:<",
"..........................++++++++++..........................@##$%&*==---;>,'')!~{]^/((_:<",
"..........................++++++++++..........................@##$%&*==---;>,'')!~{]^/((_:<",
"..........................++++++++++..........................@##$%&*==---;>,'')!~{]^/((_:<",
"..........................++++++++++..........................@##$%&*==---;>,'')!~{]^/((_:<",
"..........................++++++++++..........................@##$%&*==---;>,'')!~{]^/((_:<",
"..........................++++++++++..........................@##$%&*==---;>,'')!~{]^/((_:<",
"..........................++++++++++..........................@##$%&*==---;>,'')!~{]^/((_:<",
"..........................++++++++++..........................@##$%&*==---;>,'')!~{]^/((_:<",
"..........................++++++++++..........................@##$%&*==---;>,'')!~{]^/((_:<",
"..........................++++++++++..........................@##$%&*==---;>,'')!~{]^/((_:<",
"..........................++++++++++..........................@##$%&*==---;>,'')!~{]^/((_:<"};
