/* XPM */
static char * status_xpm[] = {
"111 20 30 1",
" 	c None",
".	c #3A1303",
"+	c #3C1303",
"@	c #3D1403",
"#	c #3E1403",
"$	c #401403",
"%	c #411403",
"&	c #431503",
"*	c #451503",
"=	c #471503",
"-	c #471603",
";	c #481603",
">	c #491603",
",	c #4A1603",
"'	c #4D1703",
")	c #4E1804",
"!	c #4F1804",
"~	c #521904",
"{	c #531904",
"]	c #561903",
"^	c #571A03",
"/	c #591A03",
"(	c #5A1A03",
"_	c #5B1A03",
":	c #5D1B03",
"<	c #5E1B03",
"[	c #5F1B03",
"}	c #601B03",
"|	c #611B03",
"1	c #651C03",
".+@#$%&*=-;>,')!~{{]]^/(_:<[}||}}[[<<<<<<<<<<<<<<<<<<<<<<<<<<<<<<<<<<<<<<<<<<<::::::::::<<<<<<<<<<<<<<<<<<<<<<1",
".+@#$%&*=-;>,')!~{{]]^/(_:<[}||}}[[<<<<<<<<<<<<<<<<<<<<<<<<<<<<<<<<<<<<<<<<<<<::::::::::<<<<<<<<<<<<<<<<<<<<<<1",
".+@#$%&*=-;>,')!~{{]]^/(_:<[}||}}[[<<<<<<<<<<<<<<<<<<<<<<<<<<<<<<<<<<<<<<<<<<<::::::::::<<<<<<<<<<<<<<<<<<<<<<1",
".+@#$%&*=-;>,')!~{{]]^/(_:<[}||}}[[<<<<<<<<<<<<<<<<<<<<<<<<<<<<<<<<<<<<<<<<<<<::::::::::<<<<<<<<<<<<<<<<<<<<<<1",
".+@#$%&*=-;>,')!~{{]]^/(_:<[}||}}[[<<<<<<<<<<<<<<<<<<<<<<<<<<<<<<<<<<<<<<<<<<<::::::::::<<<<<<<<<<<<<<<<<<<<<<1",
".+@#$%&*=-;>,')!~{{]]^/(_:<[}||}}[[<<<<<<<<<<<<<<<<<<<<<<<<<<<<<<<<<<<<<<<<<<<::::::::::<<<<<<<<<<<<<<<<<<<<<<1",
".+@#$%&*=-;>,')!~{{]]^/(_:<[}||}}[[<<<<<<<<<<<<<<<<<<<<<<<<<<<<<<<<<<<<<<<<<<<::::::::::<<<<<<<<<<<<<<<<<<<<<<1",
".+@#$%&*=-;>,')!~{{]]^/(_:<[}||}}[[<<<<<<<<<<<<<<<<<<<<<<<<<<<<<<<<<<<<<<<<<<<::::::::::<<<<<<<<<<<<<<<<<<<<<<1",
".+@#$%&*=-;>,')!~{{]]^/(_:<[}||}}[[<<<<<<<<<<<<<<<<<<<<<<<<<<<<<<<<<<<<<<<<<<<::::::::::<<<<<<<<<<<<<<<<<<<<<<1",
".+@#$%&*=-;>,')!~{{]]^/(_:<[}||}}[[<<<<<<<<<<<<<<<<<<<<<<<<<<<<<<<<<<<<<<<<<<<::::::::::<<<<<<<<<<<<<<<<<<<<<<1",
".+@#$%&*=-;>,')!~{{]]^/(_:<[}||}}[[<<<<<<<<<<<<<<<<<<<<<<<<<<<<<<<<<<<<<<<<<<<::::::::::<<<<<<<<<<<<<<<<<<<<<<1",
".+@#$%&*=-;>,')!~{{]]^/(_:<[}||}}[[<<<<<<<<<<<<<<<<<<<<<<<<<<<<<<<<<<<<<<<<<<<::::::::::<<<<<<<<<<<<<<<<<<<<<<1",
".+@#$%&*=-;>,')!~{{]]^/(_:<[}||}}[[<<<<<<<<<<<<<<<<<<<<<<<<<<<<<<<<<<<<<<<<<<<::::::::::<<<<<<<<<<<<<<<<<<<<<<1",
".+@#$%&*=-;>,')!~{{]]^/(_:<[}||}}[[<<<<<<<<<<<<<<<<<<<<<<<<<<<<<<<<<<<<<<<<<<<::::::::::<<<<<<<<<<<<<<<<<<<<<<1",
".+@#$%&*=-;>,')!~{{]]^/(_:<[}||}}[[<<<<<<<<<<<<<<<<<<<<<<<<<<<<<<<<<<<<<<<<<<<::::::::::<<<<<<<<<<<<<<<<<<<<<<1",
".+@#$%&*=-;>,')!~{{]]^/(_:<[}||}}[[<<<<<<<<<<<<<<<<<<<<<<<<<<<<<<<<<<<<<<<<<<<::::::::::<<<<<<<<<<<<<<<<<<<<<<1",
".+@#$%&*=-;>,')!~{{]]^/(_:<[}||}}[[<<<<<<<<<<<<<<<<<<<<<<<<<<<<<<<<<<<<<<<<<<<::::::::::<<<<<<<<<<<<<<<<<<<<<<1",
".+@#$%&*=-;>,')!~{{]]^/(_:<[}||}}[[<<<<<<<<<<<<<<<<<<<<<<<<<<<<<<<<<<<<<<<<<<<::::::::::<<<<<<<<<<<<<<<<<<<<<<1",
".+@#$%&*=-;>,')!~{{]]^/(_:<[}||}}[[<<<<<<<<<<<<<<<<<<<<<<<<<<<<<<<<<<<<<<<<<<<::::::::::<<<<<<<<<<<<<<<<<<<<<<1",
".+@#$%&*=-;>,')!~{{]]^/(_:<[}||}}[[<<<<<<<<<<<<<<<<<<<<<<<<<<<<<<<<<<<<<<<<<<<::::::::::<<<<<<<<<<<<<<<<<<<<<<1"};
