/* XPM */
static char * msnoccupied_xpm[] = {
"16 16 104 2",
"  	c None",
". 	c #81A879",
"+ 	c #718D5C",
"@ 	c #59684B",
"# 	c #A2A59A",
"$ 	c #6EBA79",
"% 	c #C4DB91",
"& 	c #A6B17F",
"* 	c #6C7F69",
"= 	c #1B2F33",
"- 	c #6B6F71",
"; 	c #5BB68D",
"> 	c #B1F2BB",
", 	c #D0EFC1",
"' 	c #97B5A4",
") 	c #608191",
"! 	c #3F5A85",
"~ 	c #122857",
"{ 	c #60B596",
"] 	c #A7ECCB",
"^ 	c #A4DACF",
"/ 	c #76A5BE",
"( 	c #4976B9",
"_ 	c #375DB0",
": 	c #264892",
"< 	c #428E7B",
"[ 	c #76BCAF",
"} 	c #71ACBE",
"| 	c #4D8CC4",
"1 	c #3B73D8",
"2 	c #3768DE",
"3 	c #234EAF",
"4 	c #6B8983",
"5 	c #2B6667",
"6 	c #4A7F9C",
"7 	c #4070B0",
"8 	c #3969CE",
"9 	c #2B5DD2",
"0 	c #174394",
"a 	c #405155",
"b 	c #213C63",
"c 	c #284084",
"d 	c #2A4BA0",
"e 	c #1D3F9A",
"f 	c #CF2F00",
"g 	c #649665",
"h 	c #769470",
"i 	c #52725E",
"j 	c #868E82",
"k 	c #000000",
"l 	c #C7EE9F",
"m 	c #B4CE91",
"n 	c #86A17D",
"o 	c #3D5950",
"p 	c #A6BF9D",
"q 	c #83A091",
"r 	c #5B7B83",
"s 	c #2B455F",
"t 	c #475B51",
"u 	c #9DBEA7",
"v 	c #83A2A1",
"w 	c #5D8091",
"x 	c #3C577E",
"y 	c #446F95",
"z 	c #395763",
"A 	c #929292",
"B 	c #96B7AE",
"C 	c #7A9FA4",
"D 	c #5C829D",
"E 	c #455D98",
"F 	c #457FBD",
"G 	c #22374F",
"H 	c #8FB4B2",
"I 	c #779DAC",
"J 	c #5C83A5",
"K 	c #416398",
"L 	c #2F4471",
"M 	c #5594E0",
"N 	c #24549F",
"O 	c #902F00",
"P 	c #87ACB4",
"Q 	c #7096AD",
"R 	c #5984AE",
"S 	c #4066A3",
"T 	c #30447D",
"U 	c #4975A7",
"V 	c #4B8CE6",
"W 	c #BFDFC9",
"X 	c #98BFBC",
"Y 	c #7FA5B5",
"Z 	c #6C97B2",
"` 	c #5680B3",
" .	c #4369AE",
"..	c #4A6681",
"+.	c #66A6DE",
"@.	c #406884",
"#.	c #658579",
"$.	c #57727F",
"%.	c #3F6181",
"&.	c #315484",
"*.	c #183978",
"=.	c #1D3167",
"-.	c #2E4152",
";.	c #517980",
"              . + @ #           ",
"            $ % & * = -         ",
"          ; > , ' ) ! ~         ",
"          { ] ^ / ( _ :         ",
"          < [ } | 1 2 3         ",
"          4 5 6 7 8 9 0         ",
"            a b c d e           ",
"    f f f f   g h i j           ",
"  f     k   f l m n o j         ",
"f       k     f p q r s t       ",
"f       k     f u v w x y z     ",
"f   k k A     f B C D x E F G   ",
"f             f H I J K L M N   ",
"  f         f O P Q R S T U V x ",
"  W f f f f O X Y Z `  .: ..+.d ",
"  i @.O O O #.$...%.&.*.=.-.;.c "};
