/* XPM */
static char * dnd_xpm[] = {
"16 16 77 1",
" 	c None",
".	c #037400",
"+	c #52CF30",
"@	c #89FC4F",
"#	c #83E65B",
"$	c #59C343",
"%	c #8BF25B",
"&	c #4BC031",
"*	c #CE0000",
"=	c #2C951F",
"-	c #77FF35",
";	c #FA7777",
">	c #FA6F6F",
",	c #FA6767",
"'	c #F95F5F",
")	c #36DE06",
"!	c #37BD1E",
"~	c #0A7208",
"{	c #FA7F7F",
"]	c #F95757",
"^	c #F94F4F",
"/	c #F94747",
"(	c #29D403",
"_	c #128D0D",
":	c #FFFFFF",
"<	c #EFBFBF",
"[	c #F83F3F",
"}	c #1DBB03",
"|	c #036202",
"1	c #7FE259",
"2	c #E9E9E9",
"3	c #DFDFDF",
"4	c #F83737",
"5	c #F82F2F",
"6	c #BD0000",
"7	c #8AFD50",
"8	c #F1F1F1",
"9	c #E7E7E7",
"0	c #DCDCDC",
"a	c #F82727",
"b	c #015500",
"c	c #44BD27",
"d	c #E4E4E4",
"e	c #DADADA",
"f	c #CFCFCF",
"g	c #F71F1F",
"h	c #079D01",
"i	c #C00505",
"j	c #E2E2E2",
"k	c #D7D7D7",
"l	c #C2C2C2",
"m	c #B7B7B7",
"n	c #F71717",
"o	c #049301",
"p	c #218319",
"q	c #43E111",
"r	c #D4D4D4",
"s	c #AAAAAA",
"t	c #027700",
"u	c #005300",
"v	c #4DB43A",
"w	c #39E406",
"x	c #F70F0F",
"y	c #004A00",
"z	c #46C32A",
"A	c #2DD007",
"B	c #02B000",
"C	c #007C00",
"D	c #025A01",
"E	c #BA0000",
"F	c #027D00",
"G	c #02A400",
"H	c #019601",
"I	c #006100",
"J	c #038601",
"K	c #048400",
"L	c #0C9A00",
"       ...      ",
"   ....+@#.     ",
"  .$%&****=.... ",
"  .-**;>,'**)!~.",
"  .*{;>,']^/*(_.",
" ..*;:,']</[*}|.",
".1*;>::]23[456. ",
".7*>,'890[45a*b.",
".c*,']def45ag*h.",
" .i']jk[lmagn*o.",
".pq*^r[45sgn*tu.",
".vw*/[45agnx*y. ",
"..zA**5agn**BC. ",
" ....D***EFGHI. ",
"     .JhKKL...  ",
"      ....      "};
