/* XPM */
static char * file_xpm[] = {
"16 16 82 1",
" 	c None",
".	c #0069C4",
"+	c #ABD3F6",
"@	c #2075CA",
"#	c #C7E6FF",
"$	c #C5E4FE",
"%	c #BBDEFB",
"&	c #B2D8F8",
"*	c #C6E5FE",
"=	c #BCDFFB",
"-	c #B3D8F8",
";	c #AAD2F5",
">	c #BDDFFC",
",	c #B4D9F9",
"'	c #A2CDF3",
")	c #B5DAF9",
"!	c #ACD3F6",
"~	c #A3CDF3",
"{	c #99C7F0",
"]	c #90C1ED",
"^	c #88BBEB",
"/	c #7FB5E8",
"(	c #75AFE5",
"_	c #ADD4F6",
":	c #A3CEF3",
"<	c #9AC8F0",
"[	c #91C1EE",
"}	c #6CA8E2",
"|	c #A4CEF4",
"1	c #9BC8F1",
"2	c #92C2EE",
"3	c #89BCEB",
"4	c #76AFE5",
"5	c #6DA9E2",
"6	c #64A3DF",
"7	c #9CC9F1",
"8	c #93C3EE",
"9	c #8ABCEB",
"0	c #80B6E8",
"a	c #77B0E5",
"b	c #6EAAE2",
"c	c #65A3DF",
"d	c #5B9DDD",
"e	c #94C3EE",
"f	c #8BBDEB",
"g	c #81B7E9",
"h	c #78B0E6",
"i	c #6FAAE3",
"j	c #66A4E0",
"k	c #5C9EDD",
"l	c #5397DA",
"m	c #8BBEEC",
"n	c #82B7E9",
"o	c #79B1E6",
"p	c #70ABE3",
"q	c #67A5E0",
"r	c #5D9EDD",
"s	c #5498DA",
"t	c #4B92D7",
"u	c #83B8E9",
"v	c #7AB2E6",
"w	c #71ABE3",
"x	c #5E9FDD",
"y	c #5599DA",
"z	c #4C92D8",
"A	c #438CD5",
"B	c #7BB2E6",
"C	c #72ACE4",
"D	c #68A6E1",
"E	c #5FA0DE",
"F	c #5699DB",
"G	c #4D93D8",
"H	c #438DD5",
"I	c #3A87D2",
"J	c #73ADE4",
"K	c #69A6E1",
"L	c #60A0DE",
"M	c #579ADB",
"N	c #4E94D8",
"O	c #448DD5",
"P	c #3B87D2",
"Q	c #3281CF",
"  .........     ",
"  .++++++.@.    ",
"  .+#$%&+.@@.   ",
"  .+*=-;+.@@@.  ",
"  .+>,+'+.....  ",
"  .+)!~{]^/(@.  ",
"  .+_:<[^/(}@.  ",
"  .+|123/456@.  ",
"  .+7890abcd@.  ",
"  .+efghijkl@.  ",
"  .+mnopqrst@.  ",
"  .+uvwqxyzA@.  ",
"  .+BCDEFGHI@.  ",
"  .+JKLMNOPQ@.  ",
"  .@@@@@@@@@@.  ",
"  ............  "};
