/* XPM */
static char * msnonline_xpm[] = {
"16 16 33 1",
" 	c None",
".	c #1E5ED4",
"+	c #2963D3",
"@	c #345FD1",
"#	c #3B64CF",
"$	c #3269D2",
"%	c #426ACF",
"&	c #3A6FD2",
"*	c #4871D0",
"=	c #4075D2",
"-	c #4D76CE",
";	c #457AD1",
">	c #517DCF",
",	c #5682CE",
"'	c #5A89CE",
")	c #5E8FCE",
"!	c #658CCC",
"~	c #6B94CE",
"{	c #6C98CB",
"]	c #729ECB",
"^	c #7BA4CB",
"/	c #81A7C8",
"(	c #86AEC9",
"_	c #8FB3C8",
":	c #91B9C7",
"<	c #99BEC6",
"[	c #9EC4C6",
"}	c #A5C9C5",
"|	c #ADCEC4",
"1	c #B1D7C5",
"2	c #C0E0C2",
"3	c #C3E8C3",
"4	c #D1F0BE",
"      ..@@      ",
"     .441<+     ",
"    @441</!$    ",
"    @41<^)=%    ",
"    +1</)-.&    ",
"    #<^!-..*    ",
"     $)=.@&     ",
"      &&&*      ",
"     %21}<-     ",
"    &21}<_/;    ",
"   *31|[_/])>   ",
"  *3=|[_(]>'>,  ",
" &3-|[_(]~',&,  ",
" -2-[:(]{)>,#.' ",
"=2;}<(^{!,=$'.' ",
";|;<(/{)>=#.'.! "};
