/* XPM */
static char * msnprivate_xpm[] = {
"16 16 33 1",
" 	c None",
".	c #1F5ED4",
"+	c #5B5D5A",
"@	c #345FD1",
"#	c #3064D2",
"$	c #3869D2",
"%	c #3A6FD2",
"&	c #696B68",
"*	c #3F74D1",
"=	c #4871D0",
"-	c #727471",
";	c #4D76CE",
">	c #457AD1",
",	c #537DCF",
"'	c #5683CE",
")	c #5B89CE",
"!	c #848683",
"~	c #668CCC",
"{	c #8E908D",
"]	c #9B9D9A",
"^	c #A3A5A2",
"/	c #B0B2AF",
"(	c #B8BAB7",
"_	c #C4C6C2",
":	c #CCCECB",
"<	c #D2D4D1",
"[	c #D6D8D5",
"}	c #E0E2DF",
"|	c #E7E9E6",
"1	c #EAECE9",
"2	c #EFF1EE",
"3	c #F2F4F1",
"4	c #F7F9F6",
"      ..@@      ",
"     .443|#     ",
"    @442|<($    ",
"    @43|[({$    ",
"    #3|<({+%    ",
"    #|[({++=    ",
"     $({++%     ",
"      %%%=      ",
"     $431|;     ",
"    =4311}[>    ",
"   %333|}[:(,   ",
"  =4*2||<<,/]'  ",
" %4;2||[<(/'!'  ",
" ;3;1|[<_/]'&+) ",
"*4>1|}<_(^!&)+) ",
">3>1[<<(^{-+)+~ "};
