/* XPM */
static char * occ_xpm[] = {
"16 16 90 1",
" 	c None",
".	c #037400",
"+	c #FF0000",
"@	c #52CF30",
"#	c #89FC4F",
"$	c #83E65B",
"%	c #FFFFFF",
"&	c #FFF7F7",
"*	c #4BC031",
"=	c #057A00",
"-	c #4BFB01",
";	c #49FA00",
">	c #4CF508",
",	c #2C951F",
"'	c #FFB3B3",
")	c #FFACAC",
"!	c #FFEFEF",
"~	c #FFE8E8",
"{	c #21B50A",
"]	c #47F700",
"^	c #45F600",
"/	c #41F001",
"(	c #FFA4A4",
"_	c #FFE0E0",
":	c #FFD9D9",
"<	c #2DD100",
"[	c #40F100",
"}	c #128D0D",
"|	c #FFD1D1",
"1	c #FFCACA",
"2	c #1DBB03",
"3	c #036202",
"4	c #7FE259",
"5	c #69FD25",
"6	c #45E80A",
"7	c #FFC2C2",
"8	c #FFBBBB",
"9	c #0F9500",
"0	c #014200",
"a	c #8AFD50",
"b	c #48F900",
"c	c #45F500",
"d	c #3FEF00",
"e	c #11A300",
"f	c #10A400",
"g	c #0B9400",
"h	c #015500",
"i	c #44BD27",
"j	c #3EEA00",
"k	c #39E400",
"l	c #24C000",
"m	c #FF9D9D",
"n	c #1DCC00",
"o	c #18C700",
"p	c #14C200",
"q	c #079D01",
"r	c #097F05",
"s	c #1FB601",
"t	c #FF9595",
"u	c #FF8E8E",
"v	c #12BE00",
"w	c #0EBC00",
"x	c #049301",
"y	c #218319",
"z	c #43E111",
"A	c #FF8686",
"B	c #FF7F7F",
"C	c #027700",
"D	c #005300",
"E	c #4DB43A",
"F	c #1FCE00",
"G	c #17BC00",
"H	c #FF7777",
"I	c #FF7070",
"J	c #1DC901",
"K	c #1AC900",
"L	c #15C400",
"M	c #057E00",
"N	c #FF6868",
"O	c #FF6161",
"P	c #025A01",
"Q	c #16C000",
"R	c #14C300",
"S	c #0FBE00",
"T	c #025700",
"U	c #027D00",
"V	c #FF5959",
"W	c #038601",
"X	c #048400",
"Y	c #0C9A00",
"       ...      ",
"  ++...@#$. ++  ",
" +%&+*=-;>,+')+ ",
" +&!~+{]^/+')(+.",
"  +~_:+<[+')(+}.",
" ..+:|1++')(+23.",
".456+178')(+90. ",
".abcd+8')(+efgh.",
".ijkl+')(m+nopq.",
" .rs+')(mtu+vwx.",
".yz+')(++uAB+CD.",
".E+')(+FG+BHI+. ",
".+')(+JKLM+INO+ ",
" +)(+PQRSTU+OV+ ",
"  ++ .WqXXY.++  ",
"      ....      "};
