/* XPM */
static char * offline_xpm[] = {
"16 16 99 2",
"  	c None",
". 	c #444444",
"+ 	c #979797",
"@ 	c #C5C5C5",
"# 	c #B8B8B8",
"$ 	c #949494",
"% 	c #C1C1C1",
"& 	c #8C8C8C",
"* 	c #484848",
"= 	c #AAAAAA",
"- 	c #A8A8A8",
"; 	c #A6A6A6",
"> 	c #676767",
", 	c #BEBEBE",
"' 	c #ADADAD",
") 	c #747474",
"! 	c #A5A5A5",
"~ 	c #A0A0A0",
"{ 	c #595959",
"] 	c #787878",
"^ 	c #929292",
"/ 	c #828282",
"( 	c #454545",
"_ 	c #ACACAC",
": 	c #909090",
"< 	c #888888",
"[ 	c #A1A1A1",
"} 	c #878787",
"| 	c #7A7A7A",
"1 	c #939393",
"2 	c #8F8F8F",
"3 	c #898989",
"4 	c #A3A3A3",
"5 	c #727272",
"6 	c #9B9B9B",
"7 	c #6A6A6A",
"8 	c #8B8B8B",
"9 	c #767676",
"0 	c #393939",
"a 	c #B4B4B4",
"b 	c #9D9D9D",
"c 	c #9E9E9E",
"d 	c #868686",
"e 	c #5B5B5B",
"f 	c #262626",
"g 	c #C6C6C6",
"h 	c #A7A7A7",
"i 	c #A4A4A4",
"j 	c #9F9F9F",
"k 	c #ABABAB",
"l 	c #E1E1E1",
"m 	c #E0E0E0",
"n 	c #5F5F5F",
"o 	c #656565",
"p 	c #646464",
"q 	c #5A5A5A",
"r 	c #323232",
"s 	c #9C9C9C",
"t 	c #7B7B7B",
"u 	c #707070",
"v 	c #B9B9B9",
"w 	c #DCDCDC",
"x 	c #C9C9C9",
"y 	c #808080",
"z 	c #7C7C7C",
"A 	c #777777",
"B 	c #5E5E5E",
"C 	c #4C4C4C",
"D 	c #8D8D8D",
"E 	c #838383",
"F 	c #6B6B6B",
"G 	c #686868",
"H 	c #757575",
"I 	c #575757",
"J 	c #585858",
"K 	c #999999",
"L 	c #606060",
"M 	c #818181",
"N 	c #636363",
"O 	c #6F6F6F",
"P 	c #4D4D4D",
"Q 	c #464646",
"R 	c #303030",
"S 	c #696969",
"T 	c #6D6D6D",
"U 	c #5D5D5D",
"V 	c #717171",
"W 	c #2B2B2B",
"X 	c #7E7E7E",
"Y 	c #7D7D7D",
"Z 	c #797979",
"` 	c #4B4B4B",
" .	c #6E6E6E",
"..	c #6C6C6C",
"+.	c #494949",
"@.	c #353535",
"#.	c #333333",
"$.	c #4F4F4F",
"%.	c #4E4E4E",
"              . . .             ",
"      . . . . + @ # .           ",
"    . $ % & * = - ; > . . . .   ",
"    . , ' ' ) ; ! ~ { ] ^ / ( . ",
"    . ! _ = : < [ } | 1 2 3 { . ",
"  . . > 4 ! [ 5 6 7 ^ 2 8 9 0 . ",
". a # b 5 ^ c 6 4 d & | e f .   ",
". g h i j ] k l m ^ n o p q r . ",
". } s + t u v w x 3 u y z A B . ",
"  . C ) D $ E D < F G q H 5 I . ",
". J K + 1 2 L M N H | O P Q R . ",
". } + ^ 2 S T / ) U 9 V G W .   ",
". . 8 } B 0 X Y Z `  ...> +..   ",
"  . . . . @.A ] ) #.+.L J 0 .   ",
"          . $.B %.%.U . . .     ",
"            . . . .             "};
