/* XPM */
static char * secureoff_xpm[] = {
"16 16 11 1",
" 	c None",
".	c #0069C4",
"+	c #69A6E1",
"@	c #C7E6FF",
"#	c #BCDEFB",
"$	c #B2D7F8",
"%	c #A7D0F5",
"&	c #92C2EE",
"*	c #76AFE5",
"=	c #9DC9F1",
"-	c #88BBEB",
"                ",
"                ",
"         ...... ",
"        .+@#$%+.",
"        .@+..+&.",
"        .#.  ...",
"  .......$*.    ",
" .*******%*.    ",
" .*@@@#$%=*.    ",
" .*++++++&*.    ",
" .*@#$%=&-*.    ",
" .*+++++++*.    ",
" .*********.    ",
"  .........     ",
"                ",
"                "};
