/* XPM */
static char * url_xpm[] = {
"16 16 86 1",
" 	c None",
".	c #4A94D8",
"+	c #4491D7",
"@	c #3E8DD5",
"#	c #3789D3",
"$	c #599DDD",
"%	c #549ADB",
"&	c #76AFE5",
"*	c #72ACE4",
"=	c #6BA8E1",
"-	c #62A1DF",
";	c #3387D2",
">	c #2C82D0",
",	c #62A2DF",
"'	c #86BAEA",
")	c #3B9000",
"!	c #3A8F00",
"~	c #80B6E8",
"{	c #78B0E6",
"]	c #6EA9E2",
"^	c #5599DB",
"/	c #267FCE",
"(	c #8EBFED",
"_	c #95C4EF",
":	c #429800",
"<	c #419700",
"[	c #3E9300",
"}	c #84B8E9",
"|	c #348700",
"1	c #5D9EDD",
"2	c #4F95D9",
"3	c #1F7BCC",
"4	c #9AC7F0",
"5	c #479E00",
"6	c #49A000",
"7	c #439900",
"8	c #388C00",
"9	c #328400",
"0	c #63A2DF",
"a	c #5498DA",
"b	c #458ED5",
"c	c #1776CA",
"d	c #A3CEF3",
"e	c #4DA400",
"f	c #50A800",
"g	c #338700",
"h	c #67A5E0",
"i	c #579ADB",
"j	c #4890D6",
"k	c #1675CA",
"l	c #88BBEB",
"m	c #97C6F0",
"n	c #A7D0F5",
"o	c #57B100",
"p	c #68A6E1",
"q	c #599BDC",
"r	c #4990D7",
"s	c #3986D2",
"t	c #0D70C7",
"u	c #B0D6F7",
"v	c #3885D1",
"w	c #0B6FC7",
"x	c #3683D1",
"y	c #086EC6",
"z	c #408BD4",
"A	c #3181CF",
"B	c #056CC5",
"C	c #308200",
"D	c #2B7C00",
"E	c #3A86D2",
"F	c #086DC6",
"G	c #2F8100",
"H	c #267600",
"I	c #217000",
"J	c #3F8AD4",
"K	c #3281CF",
"L	c #046BC5",
"M	c #2D7F00",
"N	c #2B7D00",
"O	c #287900",
"P	c #257600",
"Q	c #418BD4",
"R	c #257500",
"S	c #227300",
"T	c #1F6F00",
"U	c #1C6B00",
"      .+@#      ",
"    $%&*=-;>    ",
"   ,')!~{]-^/   ",
"  ,(_:<[}|=123  ",
" $(45657[890abc ",
" %_defe5<!ghijk ",
".lmnfof6:l{pqrst",
"+'_dufe5_'&hijvw",
"@~(4d654(~*0abxy",
"#{}(_m<(}{=12zAB",
" ;{~'l'8{CD^jEF ",
" >=*&{&9GDHIJKL ",
"  /0hpMNOPIQxB  ",
"   3iqiRSTJxB   ",
"    ckjbUEFL    ",
"      twyB      "};
