/* XPM */
static const char * gpgoff_xpm[] = {
"20 11 9 1",
" 	c None",
".	c #000000",
"+	c #FF0000",
"@	c #F8EF9F",
"#	c #595959",
"$	c #B1AA6B",
"%	c #EFDF59",
"&	c #938C55",
"*	c #6A653A",
"  ......            ",
"+++@@@@..      ++++ ",
".++++@@@.....++++.. ",
".@@++++@@..++++.....",
".@#.#++++++++@$@@$@.",
".@. .%%++++&%%%%%&%.",
".%#.#++++++++*%%%%%.",
".%%++++%%..++++.....",
".++++%%%.....++++.. ",
"+++%%%%.       ++++ ",
"   ....             "};
