/* XPM */
static const char * ICQphoneBusy_xpm[] = {
"12 11 5 1",
" 	c None",
".	c #000000",
"+	c #FFFF00",
"@	c #FF0000",
"#	c #FFFFFF",
"  ... ...   ",
" .++.       ",
".+++. ..    ",
".+.+. @@@@  ",
".+.. @@@@@@ ",
".+. @@#@@#@@",
".+. @@@##@@@",
".+..@@@##@@@",
".+++@@#@@#@@",
" .+++@@@@@@ ",
"  ... @@@@  "};
