/* XPM */
static const char * invisible_xpm[] = {
"11 12 84 1",
" 	c None",
".	c #1C1C2D",
"+	c #1D1D28",
"@	c #35363A",
"#	c #8E8F98",
"$	c #2E2E4F",
"%	c #C8C8E6",
"&	c #D0D0E3",
"*	c #E7E7F0",
"=	c #848487",
"-	c #7F7F81",
";	c #010126",
">	c #9B9CC4",
",	c #D0D0F4",
"'	c #D0D0E7",
")	c #E7E7F2",
"!	c #E9E9ED",
"~	c #313132",
"{	c #101010",
"]	c #00001D",
"^	c #9B9BBA",
"/	c #70708C",
"(	c #D0D0E2",
"_	c #ACACB5",
":	c #C4C4C7",
"<	c #030303",
"[	c #494953",
"}	c #A5A5B3",
"|	c #D2D2E0",
"1	c #383846",
"2	c #E1E1EB",
"3	c #85858A",
"4	c #A8A8AB",
"5	c #3A3A3B",
"6	c #969696",
"7	c #666666",
"8	c #9A99A7",
"9	c #6A6A6E",
"0	c #EBEBF0",
"a	c #EBEBF1",
"b	c #D3D3D8",
"c	c #EBEBEF",
"d	c #DDDDDF",
"e	c #DFDFE0",
"f	c #C3C3C3",
"g	c #DCDCDC",
"h	c #8F8F8F",
"i	c #2F2F33",
"j	c #6C6C6D",
"k	c #D0D0D1",
"l	c #D8D8D8",
"m	c #DBDBDB",
"n	c #9B9B9B",
"o	c #080808",
"p	c #202020",
"q	c #BCBCBC",
"r	c #F0F0F0",
"s	c #F0F0EF",
"t	c #171717",
"u	c #1B1B1B",
"v	c #A7A7A7",
"w	c #EFEFEF",
"x	c #636363",
"y	c #D6D6D6",
"z	c #ECECEC",
"A	c #E6E6E6",
"B	c #E9E9E8",
"C	c #F1F1F1",
"D	c #E3E3E3",
"E	c #707070",
"F	c #505050",
"G	c #CECECE",
"H	c #E8E8E8",
"I	c #E7E7E7",
"J	c #828282",
"K	c #D4D4D4",
"L	c #C6C6C6",
"M	c #1E1E1E",
"N	c #1D1D1D",
"O	c #999999",
"P	c #0A0A0A",
"Q	c #ABABAB",
"R	c #242424",
"S	c #141414",
"    .+@#   ",
"   $%&*=-  ",
"  ;>,')!~{ ",
"  ]^/(_:~< ",
" [}|1234567",
"890abcdefgh",
" ijkllllmno",
"  pqrssrmt ",
"  uvmmmwgt ",
"  xyzABCDEo",
" FGHEIIJKL7",
" oMMNOMPQRS"};
