/* XPM */
static char * na_xpm[] = {
"15 13 5 1",
" 	c None",
".	c #333333",
"+	c #EAEAEA",
"@	c #000000",
"#	c #878787",
" ............. ",
".+++++++++++++.",
".+@++@++#+@@++.",
".+@@+@++#@++@+.",
".+@+@@+#+@@@@+.",
".+@++@+#+@++@+.",
".+@++@#++@++@+.",
".+@++@#++@++@+.",
".+++++++++++++.",
" .++.......... ",
"  .+.          ",
"   ..          ",
"               "};
