/* XPM */
static char * online_xpm[] = {
"15 15 22 1",
" 	c None",
".	c #9AAC9A",
"+	c #6F986F",
"@	c #8FA08F",
"#	c #539553",
"$	c #007B00",
"%	c #007400",
"&	c #006000",
"*	c #396639",
"=	c #1C9D1C",
"-	c #0E860E",
";	c #006400",
">	c #004600",
",	c #7B857B",
"'	c #057305",
")	c #005C00",
"!	c #004000",
"~	c #516451",
"{	c #004A00",
"]	c #002E00",
"^	c #707970",
"/	c #233D23",
"               ",
"               ",
"               ",
"               ",
"      .+@      ",
"     #$%&*     ",
"    .$=-;>,    ",
"    +%-')!~    ",
"    @&;){]^    ",
"     *>!]/     ",
"      ,~^      ",
"               ",
"               ",
"               ",
"               "};
