/* XPM */
static char * private_xpm[] = {
"10 13 7 1",
" 	c None",
".	c #DDDDDD",
"+	c #C0C0C0",
"@	c #878787",
"#	c #C5DBC5",
"$	c #8DD38D",
"%	c #729972",
"   .+     ",
"   .@     ",
"  .+@     ",
"  .@      ",
"  .@  ### ",
"  .@ #.$$%",
" .+@ #$$$%",
" .@  #$$$%",
" .@   %%% ",
" .@       ",
".+@       ",
" @......  ",
"  @@@@@@@ "};
