/* XPM */
static char * bothmsg_xpm[] = {
"20 24 245 2",
"  	c None",
". 	c #222224",
"+ 	c #1E1E1E",
"@ 	c #1C1C1C",
"# 	c #212122",
"$ 	c #121312",
"% 	c #103F11",
"& 	c #1A621B",
"* 	c #071708",
"= 	c #1D1D1E",
"- 	c #09320A",
"; 	c #9AED9A",
"> 	c #58FC58",
", 	c #029B04",
"' 	c #0A0B09",
") 	c #1A1A19",
"! 	c #0A1309",
"~ 	c #0A250A",
"{ 	c #0C0F0D",
"] 	c #10150F",
"^ 	c #062407",
"/ 	c #091D09",
"( 	c #141615",
"_ 	c #101210",
": 	c #46A646",
"< 	c #DCFEDC",
"[ 	c #1CDD1D",
"} 	c #01CE03",
"| 	c #041606",
"1 	c #0D2C0D",
"2 	c #7FC37F",
"3 	c #74F676",
"4 	c #039F04",
"5 	c #0A0E09",
"6 	c #1E1E1D",
"7 	c #181917",
"8 	c #1D5F1E",
"9 	c #AEF2AE",
"0 	c #80E080",
"a 	c #055B06",
"b 	c #031904",
"c 	c #8ED490",
"d 	c #4E4542",
"e 	c #780700",
"f 	c #9B0000",
"g 	c #130E02",
"h 	c #7FC980",
"i 	c #8AFE8A",
"j 	c #0AFE0C",
"k 	c #02CD04",
"l 	c #060E07",
"m 	c #1A1A18",
"n 	c #52A854",
"o 	c #EFFEF0",
"p 	c #54FE54",
"q 	c #02F104",
"r 	c #024B04",
"s 	c #2B612B",
"t 	c #AD0A0A",
"u 	c #FF0000",
"v 	c #420C06",
"w 	c #A8FEA8",
"x 	c #11FE12",
"y 	c #02D304",
"z 	c #032A04",
"A 	c #0E0F0D",
"B 	c #1B1B19",
"C 	c #131413",
"D 	c #136214",
"E 	c #6FBC6F",
"F 	c #157F16",
"G 	c #017F02",
"H 	c #013802",
"I 	c #0A0300",
"J 	c #7B0000",
"K 	c #7F0000",
"L 	c #24120F",
"M 	c #307F30",
"N 	c #017302",
"O 	c #031A05",
"P 	c #0F1010",
"Q 	c #0B270B",
"R 	c #2C632C",
"S 	c #0F390F",
"T 	c #544A1B",
"U 	c #C8AF3E",
"V 	c #CCAF3C",
"W 	c #CBAC38",
"X 	c #CAAA34",
"Y 	c #CAA731",
"Z 	c #CBA42E",
"` 	c #CAA12B",
" .	c #C99D27",
"..	c #876818",
"+.	c #0C0C0D",
"@.	c #171917",
"#.	c #2C7E2E",
"$.	c #DFFEE0",
"%.	c #5CAC5C",
"&.	c #191607",
"*.	c #A08B2F",
"=.	c #F8D346",
"-.	c #FED543",
";.	c #FDD23F",
">.	c #FDCE3A",
",.	c #FECB36",
"'.	c #FCC632",
").	c #C99C25",
"!.	c #281F06",
"~.	c #051A05",
"{.	c #0D100D",
"].	c #202021",
"^.	c #0C320B",
"/.	c #9AE79A",
"(.	c #8AB18B",
"_.	c #6E5E1F",
":.	c #8D7927",
"<.	c #A0872A",
"[.	c #F6CC3D",
"}.	c #FECE3B",
"|.	c #FEC832",
"1.	c #BD9223",
"2.	c #6E5211",
"3.	c #B0841B",
"4.	c #047C05",
"5.	c #027E04",
"6.	c #111511",
"7.	c #0C420E",
"8.	c #245C24",
"9.	c #6E5D1E",
"0.	c #372E0E",
"a.	c #907521",
"b.	c #FECB37",
"c.	c #B88F22",
"d.	c #241B05",
"e.	c #E4A922",
"f.	c #B08218",
"g.	c #048305",
"h.	c #02F904",
"i.	c #025E04",
"j.	c #0F100F",
"k.	c #202020",
"l.	c #082307",
"m.	c #519852",
"n.	c #49864A",
"o.	c #6E5C1C",
"p.	c #977E26",
"q.	c #937721",
"r.	c #977820",
"s.	c #5D4913",
"t.	c #5D4811",
"u.	c #886615",
"v.	c #9D7417",
"w.	c #785810",
"x.	c #B08015",
"y.	c #02EB04",
"z.	c #027604",
"A.	c #090A09",
"B.	c #1C1C1B",
"C.	c #151615",
"D.	c #318E32",
"E.	c #E5FEE6",
"F.	c #4EB14E",
"G.	c #151205",
"H.	c #8D7320",
"I.	c #EBBC33",
"J.	c #EEBB30",
"K.	c #C29522",
"L.	c #C2921F",
"M.	c #E2A822",
"N.	c #F3B221",
"O.	c #B38115",
"P.	c #221903",
"Q.	c #051905",
"R.	c #051C06",
"S.	c #090B09",
"T.	c #141513",
"U.	c #1F1F1F",
"V.	c #131414",
"W.	c #39A73A",
"X.	c #E7FEE8",
"Y.	c #28BB28",
"Z.	c #061806",
"`.	c #1F1D13",
" +	c #292415",
".+	c #292414",
"++	c #282313",
"@+	c #292314",
"#+	c #292213",
"$+	c #252012",
"%+	c #101010",
"&+	c #0E0E0F",
"*+	c #121311",
"=+	c #1A1D1B",
"-+	c #074B08",
";+	c #43B244",
">+	c #167716",
",+	c #031B04",
"'+	c #010402",
")+	c #D00000",
"!+	c #BB0000",
"~+	c #075B01",
"{+	c #020A04",
"]+	c #48AB47",
"^+	c #ACFEAC",
"/+	c #02FE04",
"(+	c #02B204",
"_+	c #080F0A",
":+	c #0C0D0C",
"<+	c #0E0F0E",
"[+	c #0A0F09",
"}+	c #180300",
"|+	c #FB0000",
"1+	c #061001",
"2+	c #050E05",
"3+	c #0B4B0C",
"4+	c #B7F6B8",
"5+	c #72FE72",
"6+	c #06FE08",
"7+	c #02D504",
"8+	c #051706",
"9+	c #191917",
"0+	c #0E130F",
"a+	c #355835",
"b+	c #620000",
"c+	c #4D0200",
"d+	c #080404",
"e+	c #0C130D",
"f+	c #175418",
"g+	c #83DA84",
"h+	c #2DED2E",
"i+	c #035604",
"j+	c #0B0D0B",
"k+	c #121811",
"l+	c #559356",
"m+	c #1E771D",
"n+	c #041305",
"o+	c #111112",
"p+	c #151715",
"q+	c #090F09",
"r+	c #071307",
"s+	c #0C0E0B",
"t+	c #171716",
"u+	c #0A0E0C",
"v+	c #1D1D1D",
". . . . . . . . . + @ # . . . . . . . . ",
". . . . . . . . $ % & * @ . . # . . . . ",
". . . . . . . = - ; > , ' ) ! ~ { = . . ",
". . # ] ^ / ( _ : < [ } | 1 2 3 4 5 6 . ",
". . 7 8 9 0 a b c d e f g h i j k l m . ",
". . $ n o p q r s t u u v w x y z A B . ",
". . C D E F G H I J K K L M N O P ) # . ",
". + Q R S T U V W X Y Z `  ...+.) # . . ",
". @.#.$.%.&.*.=.-.;.>.,.'.).!.~.{.].. . ",
". + ^./.(._.:.<.[.}.,.|.1.2.3.4.5.{ 6 . ",
". . 6.7.8.9.-.0.a.b.|.c.d.e.f.g.h.i.j.k.",
". + l.m.n.o.p.q.r.s.t.u.v.w.x.4.y.z.A.B.",
". C.D.E.F.G.H.I.J.K.L.M.N.O.P.Q.R.S.T.U.",
". V.W.X.Y.Z.`. + +.+++@+#+$+%+&+*+B U.. ",
". =+-+;+>+,+'+)+!+~+{+]+^+j /+(+_+B.. . ",
". # C :+<+[+}+u |+1+2+3+4+5+6+7+8+9+. . ",
". . . k.k.0+a+b+c+d+C e+f+g+h+i+j+B . . ",
". . . . . k+l+m+n+o+B . p+q+r+s+t+# . . ",
". . . . . + e+u+C ) # . . k.v+v+# . . . ",
". . . . . . # k.k.. . . . . . . . . . . ",
". . . . . . . . . . . . . . . . . . . . ",
". . . . . . . . . . . . . . . . . . . . ",
". . . . . . . . . . . . . . . . . . . . ",
". . . . . . . . . . . . . . . . . . . . "};
