/* XPM */
static char * 2MenuDown_xpm[] = {
"59 16 198 2",
"  	c None",
". 	c #464949",
"+ 	c #393B3B",
"@ 	c #363838",
"# 	c #363737",
"$ 	c #353737",
"% 	c #353636",
"& 	c #343636",
"* 	c #333535",
"= 	c #333434",
"- 	c #323434",
"; 	c #323333",
"> 	c #313333",
", 	c #313232",
"' 	c #303131",
") 	c #2F3131",
"! 	c #2F3030",
"~ 	c #2F2F2F",
"{ 	c #2E2F2F",
"] 	c #2E2E2E",
"^ 	c #2D2E2E",
"/ 	c #2C2E2E",
"( 	c #2C2D2D",
"_ 	c #2C2C2C",
": 	c #2B2C2C",
"< 	c #2B2B2B",
"[ 	c #2A2B2B",
"} 	c #2A2A2A",
"| 	c #292A2A",
"1 	c #292929",
"2 	c #282828",
"3 	c #3A3A3A",
"4 	c #434343",
"5 	c #2D2F2F",
"6 	c #303232",
"7 	c #282929",
"8 	c #3F3F3F",
"9 	c #484848",
"0 	c #363939",
"a 	c #5D6161",
"b 	c #5D6060",
"c 	c #5C6060",
"d 	c #5C5F5F",
"e 	c #5B5F5F",
"f 	c #5B5E5E",
"g 	c #5A5E5E",
"h 	c #5A5D5D",
"i 	c #595D5D",
"j 	c #595C5C",
"k 	c #585B5B",
"l 	c #575A5A",
"m 	c #565959",
"n 	c #565858",
"o 	c #555858",
"p 	c #555757",
"q 	c #545757",
"r 	c #545656",
"s 	c #535656",
"t 	c #535555",
"u 	c #525555",
"v 	c #525454",
"w 	c #515353",
"x 	c #505252",
"y 	c #4F5151",
"z 	c #4F5050",
"A 	c #4E5050",
"B 	c #4E4F4F",
"C 	c #4D4F4F",
"D 	c #4D4E4E",
"E 	c #4C4E4E",
"F 	c #4C4D4D",
"G 	c #4B4C4C",
"H 	c #4A4B4B",
"I 	c #494A4A",
"J 	c #484949",
"K 	c #474848",
"L 	c #474747",
"M 	c #464747",
"N 	c #464646",
"O 	c #545555",
"P 	c #545454",
"Q 	c #7E8485",
"R 	c #7E8384",
"S 	c #585C5C",
"T 	c #4B4D4D",
"U 	c #919798",
"V 	c #909798",
"W 	c #ABB3B5",
"X 	c #8F9697",
"Y 	c #585A5A",
"Z 	c #A1A8AA",
"` 	c #979D9F",
" .	c #828889",
"..	c #8D9294",
"+.	c #A0A7A9",
"@.	c #969C9E",
"#.	c #8B9193",
"$.	c #6C6F70",
"%.	c #8B9192",
"&.	c #8B9092",
"*.	c #4A4A4A",
"=.	c #494949",
"-.	c #696C6D",
";.	c #99A0A2",
">.	c #7F8485",
",.	c #757B7B",
"'.	c #99A0A1",
").	c #98A0A1",
"!.	c #75797A",
"~.	c #7D8383",
"{.	c #989FA1",
"].	c #858A8B",
"^.	c #727677",
"/.	c #717677",
"(.	c #717576",
"_.	c #717575",
":.	c #707575",
"<.	c #707475",
"[.	c #969D9E",
"}.	c #787C7D",
"|.	c #6E7172",
"1.	c #6D7172",
"2.	c #6D7171",
"3.	c #818687",
"4.	c #767B7C",
"5.	c #909698",
"6.	c #747979",
"7.	c #6A6E6E",
"8.	c #737778",
"9.	c #6E7273",
"0.	c #454646",
"a.	c #8F9597",
"b.	c #515454",
"c.	c #535454",
"d.	c #767B7B",
"e.	c #909697",
"f.	c #575959",
"g.	c #505151",
"h.	c #696B6C",
"i.	c #454545",
"j.	c #535353",
"k.	c #8E9496",
"l.	c #8D9395",
"m.	c #8D9394",
"n.	c #6A6D6E",
"o.	c #696D6D",
"p.	c #949B9C",
"q.	c #6B7071",
"r.	c #6B6F70",
"s.	c #8E9596",
"t.	c #A0A8AA",
"u.	c #6B6E6F",
"v.	c #959B9D",
"w.	c #8A8F90",
"x.	c #4A4C4C",
"y.	c #4D5050",
"z.	c #535757",
"A.	c #6F7474",
"B.	c #6F7373",
"C.	c #6E7373",
"D.	c #6E7272",
"E.	c #6D7272",
"F.	c #6C7171",
"G.	c #6C6F6F",
"H.	c #6B6E6E",
"I.	c #686C6C",
"J.	c #686B6B",
"K.	c #676B6B",
"L.	c #676969",
"M.	c #666969",
"N.	c #666868",
"O.	c #656868",
"P.	c #656767",
"Q.	c #636767",
"R.	c #636666",
"S.	c #626565",
"T.	c #616363",
"U.	c #606262",
"V.	c #606161",
"W.	c #5F6161",
"X.	c #5F6060",
"Y.	c #5D5F5F",
"Z.	c #5C5D5D",
"`.	c #5B5D5D",
" +	c #5B5C5C",
".+	c #5A5B5B",
"++	c #595A5A",
"@+	c #575757",
"#+	c #565757",
"$+	c #565656",
"%+	c #555656",
"&+	c #555555",
"*+	c #5B5B5B",
"=+	c #606565",
"-+	c #6B6F6F",
";+	c #626666",
">+	c #5A5C5C",
",+	c #515151",
". + @ @ # $ $ $ % % & & * * * * = - ; ; ; > , , , , ' ' ) ) ! ! ~ { { { ] ^ ^ / ( ( _ _ : : < < < [ } } } | 1 1 2 3 4 ",
"+ 5 @ @ # $ $ $ % & & & * * * * - - ; ; ; > , , , 6 ' ' ) ) ! ! { { { { ] ^ ^ / ( ( _ _ : : < < [ [ } } } | 1 7 2 8 9 ",
"0 0 a a b c d e f g h i j j k k l l m m n o p q r s t u v v w w x x y y z A B C D E F F G G H H I I J J 9 K L M N O P ",
"0 0 a a c c d Q R g h i j S k k l l m m o o p q r s t u v v w w x x y y A A B C D E F T G G H H I I J J K K L M N O P ",
"0 @ a U V W W W W W W X X k k Y l Z W W W W W W W W ` v v w  ...+.W W W W @.#.$.D F %.&.G H H *.I =.-.W K L M N N P P ",
"0 @ a W ;.>.,.'.).!.~.{.W k k l l W ].^./.(.(._.:.<.<.v v w W [.}.|.1.2.2.3.+.%.E F %.&.G H H I I =.-.W K L M N N P P ",
"0 @ a W 4.d e 5.5.h i 6.W k 7.8.8.W ].^./.(.(._.:.t u v v w W 9.x y y z A B #.%.E F %.&.G H H I I J -.W K L M N 0.P P ",
"0 @ a W 4.d e 5.5.h i 6.W k a.W W W W W W W W W W t u v b.w W 9.x y y A A B #.%.E F %.&.G H H I I J -.W K L M N 0.P c.",
"@ @ b W d.e f 5.e.h j 6.W k l l f.W ^.o p q r r t t v v w w W 9.g.y z A B C %.%.F F &.&.H H *.I =.J h.W L M N N i.P j.",
"@ @ b W d.e f 5.e.h j 6.W k l l f.W k./.(.(._.:.<.l.m.v w w W 9.g.y z A B C %.%.F F &.+.>.n.o.o.-.8.p.W L M N 0.i.P j.",
"@ @ c W d.e f q.r.i j 6.W k l l m s.Z W W W W W W t.m.v w w W 9.y y z A B C %.%.F T u.&.v.W W W W W w.R L M N 0.i.P j.",
"@ @ c c d e f g h i j S k k l l m m o o p q r s t u v b.w w x x y y A A B C D E F T G x.H H I I J J K K L M N 0.i.c.j.",
"@ # c d e f f h h j j k k l l f.m n o p q r r t t v v w w x x g.y z A B C D D F F G G H H *.I =.J 9 K L M N N i.i.j.j.",
"@ # c d e f g h h j j k k l l m m n o p q r s t t v v w w x x g.y z A B C D E F F G G H H I I =.J 9 K L M N 0.i.i.j.j.",
"y.z.A.B.C.D.E.2.F.G.G.H.H.o.o.I.I.J.K.L.M.N.O.P.Q.R.R.S.S.T.T.U.U.V.W.X.b Y.d Z.`. + +.+.+++++f.f.@+#+$+%+&+O P c.*+@+",
"e =+A.C.C.D.E.2.F.G.-+H.H.o.o.I.I.K.K.L.M.N.O.P.Q.R.;+S.S.T.T.U.U.W.W.X.b Y.d Z.`. +>+.+.+++++f.f.#+#+$+%+&+O P c.@+,+"};
