/* XPM */
static const char * beep_xpm[] = {
"14 12 37 1",
" 	c None",
".	c #4F4F4F",
"+	c #000000",
"@	c #F9F286",
"#	c #F8F184",
"$	c #F5ED79",
"%	c #F8F082",
"&	c #F4EC77",
"*	c #F1E86D",
"=	c #FAF48B",
"-	c #F7F080",
";	c #F4EC76",
">	c #F0E86B",
",	c #EDE460",
"'	c #FAF389",
")	c #F6EF7E",
"!	c #F3EB74",
"~	c #F0E769",
"{	c #ECE35E",
"]	c #E9DF54",
"^	c #F6EE7D",
"/	c #F2EA72",
"(	c #EFE667",
"_	c #EBE25C",
":	c #E8DE52",
"<	c #E5DA47",
"[	c #EEE665",
"}	c #EBE25B",
"|	c #E7DE50",
"1	c #E4DA45",
"2	c #E1D63B",
"3	c #E3D943",
"4	c #E0D539",
"5	c #DCD12E",
"6	c #DCD02C",
"7	c #D8CC21",
"8	c #D4C815",
"      ..  +   ",
"     .@.+  +  ",
"    .#$. +  + ",
"  ..%&*.  +  +",
" .=-;>,.+  + +",
".')!~{]. + + +",
".^/(_:<. + + +",
" .[}|12.+  + +",
"  ..345.  +  +",
"    .67. +  + ",
"     .8.+  +  ",
"      ..  +   "};
