/* XPM */
static const char * bgcolor_xpm[] = {
"14 14 49 1",
" 	c None",
".	c #FE7272",
"+	c #FA6A6A",
"@	c #F66262",
"#	c #F25A5A",
"$	c #EE5252",
"%	c #EA4A4A",
"&	c #E64242",
"*	c #6E8EFE",
"=	c #6A86FA",
"-	c #6282F6",
";	c #5A7EF2",
">	c #5276EE",
",	c #4A72EE",
"'	c #426EEA",
")	c #E23A3A",
"!	c #3A66E6",
"~	c #DE3232",
"{	c #3262E2",
"]	c #DA2A2A",
"^	c #2A5EDE",
"/	c #D62222",
"(	c #1A52D6",
"_	c #D21A1A",
":	c #225ADA",
"<	c #CE1212",
"[	c #124ED2",
"}	c #75FB71",
"|	c #6AF666",
"1	c #62F25E",
"2	c #56EA4A",
"3	c #4EE642",
"4	c #FBF791",
"5	c #F6F282",
"6	c #F2EE76",
"7	c #EEEA6E",
"8	c #EAE662",
"9	c #E6E256",
"0	c #5EEE56",
"a	c #46E23A",
"b	c #E2DE4A",
"c	c #3EDA32",
"d	c #DEDA42",
"e	c #34D427",
"f	c #DAD636",
"g	c #D4D027",
"h	c #2ACE1A",
"i	c #22CA12",
"j	c #CECA16",
".+@#$%&*=-;>,'",
"+@#$%&)=-;>,'!",
"@#$%&)~->>''!{",
"#$%&~~];>,'{{^",
"$%&)~//,,'!{^(",
"%&)~]/_,'!{^:(",
"&)]]/_<'!{::([",
"}}|12334456789",
"}|1023a456789b",
"|122aac56789bd",
"1023ace6789bdf",
"02aacce889bdfg",
"33aceeh89bdfgg",
"3acceii9bdffgj"};
