/* XPM */
static const char * encoding_xpm[] = {
"15 10 3 1",
" 	c None",
".	c #000000",
"+	c #DCDCDC",
" ..+       .+  ",
" ..+      .+.+ ",
"               ",
" ..+ ...+  ..+ ",
".+ .+.+ .+.+ .+",
".+ .+.+ .+.+   ",
"....+...+ .+   ",
".+ .+.+ .+.+   ",
".+ .+.+ .+.+ .+",
".+ .+...+  ..+ "};
