/* XPM */
static const char * ignore_xpm[] = {
"14 14 20 1",
" 	c None",
".	c #F45252",
"+	c #F14E4E",
"@	c #EF4B4B",
"#	c #EC4747",
"$	c #E94444",
"%	c #E74141",
"&	c #E43D3D",
"*	c #E13A3A",
"=	c #DF3636",
"-	c #DC3333",
";	c #DA2F2F",
">	c #D72C2C",
",	c #D42929",
"'	c #D22525",
")	c #CF2222",
"!	c #CC1E1E",
"~	c #CA1B1B",
"{	c #C71717",
"]	c #C41414",
"    .+@#$%    ",
"   .+@#$%&*   ",
"  .+@    *=-  ",
" .+      =-;> ",
".+@     =-;>,'",
"+@     =-;  ')",
"@#    =-;   )!",
"#$   =-;    !~",
"$%  =-;     ~{",
"%&*=-;     ~{]",
" *=-;      {] ",
"  -;>    ~{]  ",
"   >,')!~{]   ",
"    ')!~{]    "};
