/* XPM */
static const char * menu_xpm[] = {
"12 16 18 1",
" 	c None",
".	c #006FBF",
"+	c #F8FBFE",
"@	c #F0F6FC",
"#	c #E8F1FA",
"$	c #E0ECF8",
"%	c #D8E7F6",
"&	c #D0E2F4",
"*	c #C8DDF2",
"=	c #C0D8F0",
"-	c #B8D3EE",
";	c #B0CEEC",
">	c #A8C9EA",
",	c #A0C4E8",
"'	c #98BFE6",
")	c #90BAE4",
"!	c #88B5E2",
"~	c #7FAFDF",
".......     ",
".++@##.     ",
".@@##$.     ",
"............",
".#$$%&&**==.",
".$......=--.",
".%%&**==--;.",
".&..*...;.>.",
".**==--;;>,.",
".*.=...>>,,.",
".=--;;>,,''.",
".-...>..'').",
".;;>>,''))!.",
".>..,....!~.",
".>,''))!!~~.",
"............"};
