/* XPM */
static const char * multiplerec_xpm[] = {
/* columns rows colors chars-per-pixel */
"16 16 14 1",
"  c #006FBF",
". c #7F9DDF",
"X c #8EA9E3",
"o c #90AAE4",
"O c #9CB4E7",
"+ c #A0B6E8",
"@ c #ABBFEB",
"# c #B0C3EC",
"$ c #B9C9EE",
"% c #C0CFF0",
"& c #C7D4F2",
"* c #D5DFF5",
"= c gray100",
"- c None",
/* pixels */
"----------------",
"----------------",
"---   ----------",
"-- *&& ---------",
"- *&&$@ --------",
"- &&$@@ ---   --",
"- $$@OO --- % --",
"- $@OOX -   #   ",
"-- OOX -- %##+o ",
"---   ---   +   ",
"-- &$@ ---- o --",
"- *&$@O ---   --",
" *&$@OXX -------",
" & $@O . -------",
" & @OX . -------",
"----------------"
};
