/* XPM */
static const char * strikethrough_xpm[] = {
"11 11 3 1",
" 	c None",
".	c #000000",
"+	c #4C4C4C",
"   .... .  ",
"  . +++..+ ",
"  .+    .+ ",
"  .+     + ",
"   ...     ",
".......... ",
" +++++++.++",
"  .     .+ ",
"  ..    .+ ",
"  .+.... + ",
"   + ++++  "};
