/* XPM */
static const char * textcolor_xpm[] = {
"16 16 49 1",
" 	c None",
".	c #020202",
"+	c #06FE06",
"@	c #FE0202",
"#	c #0206FE",
"$	c #02C2FE",
"%	c #B602FE",
"&	c #FECA02",
"*	c #DEFE02",
"=	c #02FEBA",
"-	c #0282FE",
";	c #92FE02",
">	c #6E02FE",
",	c #FE024A",
"'	c #46FE02",
")	c #02FE72",
"!	c #0242FE",
"~	c #FE027E",
"{	c #3A02FE",
"]	c #2EFE02",
"^	c #FA02FE",
"/	c #FE02C4",
"(	c #02FE3E",
"_	c #022AFE",
":	c #02FEF2",
"<	c #FE023E",
"[	c #02DAFE",
"}	c #2202FE",
"|	c #7A02FE",
"1	c #C602FE",
"2	c #62FE02",
"3	c #AAFE02",
"4	c #02FEDA",
"5	c #16FE02",
"6	c #FE02E2",
"7	c #02FE1E",
"8	c #02CEFE",
"9	c #FED602",
"0	c #028EFE",
"a	c #FE0296",
"b	c #8602FE",
"c	c #EAFE02",
"d	c #4602FE",
"e	c #3AFE02",
"f	c #D202FE",
"g	c #02FE4E",
"h	c #02FE12",
"i	c #0A02FE",
"j	c #FE028A",
"                ",
"                ",
"  ......        ",
" .@,a6fb.       ",
" .<j.... .....  ",
" .~/.   .0[4=(. ",
" ./^....-8..g+. ",
" .^%>}_.$:..he. ",
" .1|....:=)7].  ",
" .b{.  .=)...   ",
" .d#.  .)(523.  ",
" .i!.  .(+..c&. ",
"  ..    .';*9.  ",
"         ....   ",
"                ",
"                "};
