/* XPM */
static const char * underline_xpm[] = {
"9 11 3 1",
" 	c None",
".	c #000000",
"+	c #4C4C4C",
"...  ... ",
" .++  .++",
" .+   .+ ",
" .+   .+ ",
" .+   .+ ",
" .+   .+ ",
" .+   .+ ",
"  .... + ",
"   ++++  ",
"........ ",
" ++++++++"};
