/* XPM */
static const char * urgent_xpm[] = {
"7 16 15 1",
" 	c None",
".	c #000000",
"+	c #FFD2D2",
"@	c #FFBABA",
"#	c #FFA3A3",
"$	c #FF8C8C",
"%	c #7F7F7F",
"&	c #FF7575",
"*	c #FF5E5E",
"=	c #FF4646",
"-	c #FF2F2F",
";	c #FF1818",
">	c #FF8080",
",	c #FF4141",
"'	c #FF0000",
"  ..   ",
" .+@.  ",
".+@##. ",
".@##$.%",
".#$$&.%",
".$$&*.%",
" .&*.%%",
" .*=.% ",
" .==.% ",
" .--.% ",
" .-;.% ",
"  ..%% ",
"  ..%  ",
" .>,.  ",
" .,'.% ",
"  ..%% "};
