/* XPM */
static char * nomsg_mask2_xpm[] = {
"40 48 4 1",
" 	c None",
"@	c #FFFFFF",
"+	c #00CCFF",
".	c #000000",
"                                        ",
"                                        ",
"                                        ",
"                                        ",
"                                        ",
"                                        ",
"                                        ",
"                                        ",
"                                        ",
"                                        ",
"                                        ",
"                                        ",
"                                        ",
"                                        ",
"                                        ",
"                                        ",
"                                        ",
"                                        ",
"                                        ",
"                                        ",
"                                        ",
"                                        ",
"                                        ",
"                                        ",
"                                        ",
"                                        ",
"                                        ",
"                                        ",
"                                        ",
"                                        ",
"                                        ",
"                                        ",
"                                        ",
"                                        ",
"                                        ",
"                                        ",
"                                        ",
"                                        ",
"                                        ",
"      ............................      ",
"     .@@@@@@@@@@@@@@@@@@@@@@@@@@@@.     ",
"     .@@@@@@@@@@........@@@@@@@@@@.     ",
"     .@@@@@@@@..@++.+++@..@@@@@@@@.     ",
"     .@@@@@@@.@@@++..++@@@.@@@@@@@.     ",
"     .@@@@@@@@..@@++++@@..@@@@@@@@.     ",
"     .@@@@@@@@@@........@@@@@@@@@@.     ",
"     .@@@@@@@@@@@@@@@@@@@@@@@@@@@@.     ",
"      ............................      "};
