/* XPM */
static char * regmsg_xpm[] = {
"40 48 400 2",
"  	c None",
". 	c #222224",
"+ 	c #1E1E1C",
"@ 	c #161614",
"# 	c #121214",
"$ 	c #040604",
"% 	c #021604",
"& 	c #032604",
"* 	c #034604",
"= 	c #389A38",
"- 	c #50B650",
"; 	c #169614",
"> 	c #033A04",
", 	c #030A04",
"' 	c #0A0A0C",
") 	c #36C634",
"! 	c #B4FAB4",
"~ 	c #A3FEA4",
"{ 	c #1EFA1C",
"] 	c #02C204",
"^ 	c #022A04",
"/ 	c #0C0E0B",
"( 	c #1A1A1B",
"_ 	c #168E14",
": 	c #96F694",
"< 	c #EAFEEC",
"[ 	c #8EFC8C",
"} 	c #13FE14",
"| 	c #02FA04",
"1 	c #028604",
"2 	c #020204",
"3 	c #022204",
"4 	c #104E10",
"5 	c #032E04",
"6 	c #030E04",
"7 	c #0C120B",
"8 	c #56D654",
"9 	c #DDFEDC",
"0 	c #53FE54",
"a 	c #02FE04",
"b 	c #02DD04",
"c 	c #82DA84",
"d 	c #BAF2BC",
"e 	c #5AEA5C",
"f 	c #06AA04",
"g 	c #114A11",
"h 	c #123A14",
"i 	c #031A04",
"j 	c #1E861C",
"k 	c #A4F6A4",
"l 	c #F4FEF4",
"m 	c #C5FEC4",
"n 	c #23FE24",
"o 	c #023604",
"p 	c #227624",
"q 	c #8EE68C",
"r 	c #93FE94",
"s 	c #2AFE2C",
"t 	c #02A604",
"u 	c #126214",
"v 	c #5AD25C",
"w 	c #7EE67C",
"x 	c #36A234",
"y 	c #034204",
"z 	c #021E04",
"A 	c #4AAE4C",
"B 	c #D4FED4",
"C 	c #FEFEFC",
"D 	c #ACFEAC",
"E 	c #024E04",
"F 	c #226A24",
"G 	c #8EE28C",
"H 	c #02D404",
"I 	c #5ED45C",
"J 	c #72FA74",
"K 	c #0ECA0C",
"L 	c #025604",
"M 	c #043E04",
"N 	c #62D264",
"O 	c #E2FEE4",
"P 	c #0CFE0C",
"Q 	c #02F404",
"R 	c #033204",
"S 	c #7ADA7C",
"T 	c #9EFE9C",
"U 	c #02EB04",
"V 	c #037A04",
"W 	c #0A5E0C",
"X 	c #9AEA9C",
"Y 	c #37FE36",
"Z 	c #58DA58",
"` 	c #B4FEB4",
" .	c #1DFE1C",
"..	c #02A204",
"+.	c #3EB23C",
"@.	c #0D6A0C",
"#.	c #9AEE9C",
"$.	c #62FE64",
"%.	c #028204",
"&.	c #3AB63C",
"*.	c #BDFEBC",
"=.	c #4BFE4C",
"-.	c #044A04",
";.	c #92F294",
">.	c #5CFE5C",
",.	c #041204",
"'.	c #42D644",
").	c #6EEA6C",
"!.	c #82FE84",
"~.	c #02BE04",
"{.	c #2E8E2C",
"].	c #CBFECC",
"^.	c #025D04",
"/.	c #056E04",
"(.	c #2AAA2C",
"_.	c #1A501B",
":.	c #000000",
"<.	c #001501",
"[.	c #0A0903",
"}.	c #7A6C27",
"|.	c #988730",
"1.	c #99852F",
"2.	c #99842E",
"3.	c #99832D",
"4.	c #99822B",
"5.	c #988029",
"6.	c #988128",
"7.	c #987F27",
"8.	c #987F26",
"9.	c #987D24",
"0.	c #987B23",
"a.	c #997B22",
"b.	c #987A21",
"c.	c #987920",
"d.	c #98781E",
"e.	c #98761D",
"f.	c #98751B",
"g.	c #3C2E0A",
"h.	c #050505",
"i.	c #1C6E1C",
"j.	c #4EAE4C",
"k.	c #5EB25C",
"l.	c #011D01",
"m.	c #0F0E05",
"n.	c #BEA83D",
"o.	c #F1D54C",
"p.	c #FFDE4E",
"q.	c #FFDC4C",
"r.	c #FFDB4B",
"s.	c #FFD948",
"t.	c #FDD745",
"u.	c #FDD543",
"v.	c #FDD341",
"w.	c #FDD23F",
"x.	c #FDD03D",
"y.	c #FDCE3B",
"z.	c #FFCD39",
"A.	c #FDCA36",
"B.	c #FDC935",
"C.	c #FDC732",
"D.	c #F9C230",
"E.	c #ECB62B",
"F.	c #5E4810",
"G.	c #080808",
"H.	c #5ACA5C",
"I.	c #0A570B",
"J.	c #030301",
"K.	c #28240D",
"L.	c #685A1F",
"M.	c #FFDA4A",
"N.	c #FFD746",
"O.	c #FDD340",
"P.	c #FDD13E",
"Q.	c #FDCE3A",
"R.	c #FDCC38",
"S.	c #FFCB37",
"T.	c #FDC834",
"U.	c #FDC530",
"V.	c #C79A25",
"W.	c #312708",
"X.	c #130F03",
"Y.	c #070807",
"Z.	c #52CA54",
"`.	c #0E650E",
" +	c #040301",
".+	c #362E10",
"++	c #62561C",
"@+	c #BAA137",
"#+	c #E3C241",
"$+	c #FFD846",
"%+	c #FFD644",
"&+	c #FDD441",
"*+	c #FDCF3C",
"=+	c #FDCD38",
"-+	c #FDCC37",
";+	c #FFCA35",
">+	c #F9C331",
",+	c #C79B26",
"'+	c #9B771C",
")+	c #44320A",
"!+	c #1A1404",
"~+	c #035204",
"{+	c #1E7E1C",
"]+	c #9BF29C",
"^+	c #246524",
"/+	c #110E05",
"(+	c #CCB03C",
"_+	c #B9A136",
":+	c #998129",
"<+	c #FFD441",
"[+	c #FED03D",
"}+	c #FECF3B",
"|+	c #FECD38",
"1+	c #FECB36",
"2+	c #FECA34",
"3+	c #FFC833",
"4+	c #ECB72C",
"5+	c #322709",
"6+	c #FDBE28",
"7+	c #644C0F",
"8+	c #02E504",
"9+	c #36B234",
"0+	c #A4FAA4",
"a+	c #416541",
"b+	c #110E04",
"c+	c #CCAE3A",
"d+	c #E2C240",
"e+	c #7A6721",
"f+	c #705E1D",
"g+	c #E0B938",
"h+	c #FECD39",
"i+	c #FEC934",
"j+	c #FEC832",
"k+	c #FFC631",
"l+	c #A27D1E",
"m+	c #695113",
"n+	c #8E6B17",
"o+	c #B4861C",
"p+	c #FDBD27",
"q+	c #644B0E",
"r+	c #027E04",
"s+	c #64D664",
"t+	c #255424",
"u+	c #CCAD39",
"v+	c #FDD845",
"w+	c #65551B",
"x+	c #0F0D03",
"y+	c #BE9C2E",
"z+	c #F1C539",
"A+	c #FECB37",
"B+	c #FECA35",
"C+	c #FAC330",
"D+	c #EDB72C",
"E+	c #110C02",
"F+	c #CC9820",
"G+	c #FDBB25",
"H+	c #026604",
"I+	c #041404",
"J+	c #CCAC37",
"K+	c #65551A",
"L+	c #030200",
"M+	c #282109",
"N+	c #695417",
"O+	c #FEC935",
"P+	c #FEC630",
"Q+	c #C89B25",
"R+	c #CB961E",
"S+	c #FDB922",
"T+	c #644A0C",
"U+	c #1A5E1C",
"V+	c #228224",
"W+	c #063506",
"X+	c #CCAB36",
"Y+	c #EBC53D",
"Z+	c #BA9B2F",
"`+	c #735F1C",
" @	c #44360F",
".@	c #44360E",
"+@	c #634F15",
"@@	c #BA9428",
"#@	c #BA9326",
"$@	c #BA9224",
"%@	c #BA9022",
"&@	c #9B771B",
"*@	c #433109",
"=@	c #4A370B",
"-@	c #A27818",
";@	c #CC961D",
">@	c #FDB821",
",@	c #64490C",
"'@	c #5EE25C",
")@	c #2B652B",
"!@	c #CCA934",
"~@	c #B99B2E",
"{@	c #B99327",
"]@	c #443209",
"^@	c #FFBF29",
"/@	c #FDBC26",
"(@	c #ECAE22",
"_@	c #312506",
":@	c #433007",
"<@	c #FDB61D",
"[@	c #64490B",
"}@	c #42C644",
"|@	c #166515",
"1@	c #060501",
"2@	c #514314",
"3@	c #725F1B",
"4@	c #D6AB2F",
"5@	c #FFC935",
"6@	c #E2B22D",
"7@	c #98741A",
"8@	c #987319",
"9@	c #987118",
"0@	c #B3851B",
"a@	c #FFBD27",
"b@	c #F7B421",
"c@	c #AC7C15",
"d@	c #8A630F",
"e@	c #64480B",
"f@	c #271D04",
"g@	c #0E540C",
"h@	c #72F274",
"i@	c #6DFE6C",
"j@	c #046504",
"k@	c #3E330D",
"l@	c #EDC036",
"m@	c #EDBE34",
"n@	c #EDBD33",
"o@	c #EDBB30",
"p@	c #ECB92E",
"q@	c #ECB52A",
"r@	c #ECB328",
"s@	c #ECB126",
"t@	c #ECB024",
"u@	c #EDAF23",
"v@	c #ECAD21",
"w@	c #ECAC1F",
"x@	c #ECAB1C",
"y@	c #AD7C14",
"z@	c #070707",
"A@	c #125E14",
"B@	c #7AF67C",
"C@	c #44FE44",
"D@	c #006501",
"E@	c #0C0A03",
"F@	c #32290B",
"G@	c #32280B",
"H@	c #32280A",
"I@	c #32270A",
"J@	c #312709",
"K@	c #312607",
"L@	c #322608",
"M@	c #322507",
"N@	c #322406",
"O@	c #312405",
"P@	c #241A04",
"Q@	c #56F654",
"R@	c #018E02",
"S@	c #023E02",
"T@	c #192319",
"U@	c #202120",
"V@	c #212121",
"W@	c #202020",
"X@	c #272827",
"Y@	c #0A160C",
"Z@	c #12BE14",
"`@	c #66F264",
" #	c #4EE64C",
".#	c #04BA04",
"+#	c #108610",
"@#	c #9EF69C",
"##	c #037204",
"$#	c #0A740C",
"%#	c #1A7A1C",
"&#	c #02B204",
"*#	c #6EE66C",
"=#	c #26BA24",
"-#	c #76FE74",
";#	c #02C604",
">#	c #0A3E0C",
",#	c #AEEEAC",
"'#	c #0A1A08",
")#	c #5EDE5C",
"!#	c #029D04",
"~#	c #CCF6CC",
"{#	c #0A4E0C",
"]#	c #4ECE4C",
"^#	c #02CE04",
"/#	c #4A924C",
"(#	c #DEFADC",
"_#	c #229424",
":#	c #6EDA6C",
"<#	c #52EE54",
"[#	c #06CA04",
"}#	c #1A1E1C",
"|#	c #368234",
"1#	c #5EF25C",
"2#	c #52A254",
"3#	c #2E862C",
". . . . . . . . . . . . . . . . . . . . . . . . . . . . . . . . . . . . . . . . ",
". . . . . . . . . . . . . . . . . . + @ @ @ + . . . . . . . . . . . . . . . . . ",
". . . . . . . . . . . . . . . . + # $ % & % $ # + . . . . . . . . . . . . . . . ",
". . . . . . . . . . . . . . . . @ $ * = - ; > , # + . . . . + . . . . . . . . . ",
". . . . . . . . . . . . . . . + ' & ) ! ~ { ] ^ $ @ + + @ / ' / # ( . . . . . . ",
". . . . . . . . . . . . . . . # , _ : < [ } | 1 2 / ( # $ 3 4 5 , $ # + . . . . ",
". . . . . . + @ 6 , 6 7 ( . + ' * 8 9 9 0 a a b 6 ' 7 6 4 c d e f 5 $ @ + . . . ",
". . . . . + 7 6 5 g h i , # @ , j k l m n a a a o , i p q 9 r s a t 6 / ( + . . ",
". . . . . @ 6 u v [ w x y , $ z A B C D } a a a E 6 F G B r n a a H % ' @ + . . ",
". . . . + / > I 9 l 9 J K L 2 M N O C ~ P a a Q R g S B T n a a U V , / @ + . . ",
". . . . + ' W X l l D Y a H y y Z B C `  .a a ..i +.m D Y a a U V % $ # @ + . . ",
". . . . + $ @.#.l O $.P a Q %.& &.*.l B =.a | -.h ;.B >.P a U V ,.$ / @ ( + . . ",
". . . . + ' M '.! m 0 a a a ] z @.).O < !.P ~.z {.].T n | H ^.2 $ # @ ( + . . . ",
". . . . ( / $ /.(._.:.:.:.:.:.:.:.:.:.:.:.:.:.:.:.:.:.:.:.:.:.' # @ ( + . . . . ",
". . . + / , ,.i i <.[.}.|.1.2.3.4.5.6.7.8.9.0.a.b.c.d.e.f.g.h.# @ ( + . . . . . ",
". . . @ % i.j.k.= l.m.n.o.p.q.r.s.t.u.v.w.x.y.z.A.B.C.D.E.F.G.# ( + . . . . . . ",
". . . 7 R H.].O k I.J.K.L.q.M.s.N.u.O.P.x.Q.R.S.T.C.U.V.W.X.Y.$ / + . . . . . . ",
". . . / R Z.B C ` `. +.+++@+#+$+%+&+O.P.*+=+-+;+C.>+,+'+)+!+Y.~+, ' ( . . . . . ",
". . . @ ,.{+]+l O ^+/+(+_+:.:+%+<+O.[+}+|+1+2+3+U.4+5+)+6+7+Y.8+V % ' ( + . . . ",
". . . + / ^ 9+0+O a+b+c+d+:+e+f+g+P.}+h+1+i+j+k+l+m+n+o+p+q+Y.a U r+6 ' ( + . . ",
". . . . ( 6 > (.s+t+b+u+v+%+w+x+y+z+h+A+B+j+C+D+F.E+F+p+G+q+Y.a a U H+2 / ( + . ",
". . . . + / $ z R I+b+J+u.<+K+L+M+N+A+O+j+P+Q+5+X.E+R+G+S+T+Y.a a a b o $ # + . ",
". . . + / $ 3 U+V+W+b+X+Y+Z+`+ @.@+@@@#@$@%@&@)+*@=@-@;@>@,@Y.a a a Q ^.2 / ( + ",
". . . @ 6 @.'@].B )@b+!@~@:.a.z.S.{@:.:.:.:.]@^@/@(@_@:@<@[@Y.8+b H %.$ $ # ( + ",
". . . / 5 }@m l ` |@1@2@3@a.4@S.5@6@f.7@8@9@0@a@G+b@c@d@e@f@Y.~+M 3 $ $ / @ ( . ",
". . . $ g@h@< l i@j@:.:.k@l@m@n@o@p@4+q@r@s@t@u@v@w@x@y@:.:.z@$ $ ' / # @ ( + . ",
". . . $ A@B@< < C@D@:.:.E@F@G@H@H@I@5+J@K@K@L@M@M@N@O@P@:.:.z@' # @ @ ( ( + . . ",
". . . $ ~+Q@B l >.R@S@T@U@V@V@V@V@V@V@U@U@W@V@V@V@V@U@U@U@U@X@2 / @ + + . . . . ",
". . . Y@5 Z@`@]+ #.#~+6 2 % - O ].C@a H z 2 +#@#9 =.a a a a b E $ # ( . . . . . ",
". . . ( $ > ##$#o $ $ $ $ %#*.9 $.P | &#2 $ -.*#< T n a a a | t i ' @ + . . . . ",
". . . + # $ $ $ $ ' 7 , % s+< T  .a | ^.$ ,.z =#].O -#} a a a ;#R $ @ + . . . . ",
". . . . + ( @ # @ @ @ , >#,#B =.a a ;#,.$ '#,.y )#B B i@} a Q !#i ' @ ( . . . . ",
". . . . . . + + + + ( , i.~#r } a U * 2 / @ Y@, {#]#` ].>.a ^#> $ / @ + . . . . ",
". . . . . . . . . . ( 6 /#(#$.a U $#, ' # ( ( 7 $ 5 _#:#<#[#-.$ / # ( + . . . . ",
". . . . . . . . . . }#,.|#~#1#H /.,.' # @ + . . @ , $ % z 6 $ ' # @ + . . . . . ",
". . . . . . . . . . + 7 R 2#3#M , ' # @ ( + . . . ( # / / 7 7 @ @ + . . . . . . ",
". . . . . . . . . . . @ , % , , / # @ ( + . . . . . + + ( ( ( ( + . . . . . . . ",
". . . . . . . . . . . + ( # # # @ ( ( + . . . . . . . . . + + . . . . . . . . . ",
". . . . . . . . . . . . . + + + + + . . . . . . . . . . . . . . . . . . . . . . ",
". . . . . . . . . . . . . . . . . . . . . . . . . . . . . . . . . . . . . . . . ",
". . . . . . . . . . . . . . . . . . . . . . . . . . . . . . . . . . . . . . . . ",
". . . . . . . . . . . . . . . . . . . . . . . . . . . . . . . . . . . . . . . . ",
". . . . . . . . . . . . . . . . . . . . . . . . . . . . . . . . . . . . . . . . ",
". . . . . . . . . . . . . . . . . . . . . . . . . . . . . . . . . . . . . . . . ",
". . . . . . . . . . . . . . . . . . . . . . . . . . . . . . . . . . . . . . . . ",
". . . . . . . . . . . . . . . . . . . . . . . . . . . . . . . . . . . . . . . . ",
". . . . . . . . . . . . . . . . . . . . . . . . . . . . . . . . . . . . . . . . ",
". . . . . . . . . . . . . . . . . . . . . . . . . . . . . . . . . . . . . . . . "};
