/* XPM */
static char * occ_xpm[] = {
"16 16 7 1",
" 	c None",
".	c #F8FCF8",
"+	c #000000",
"@	c #F8FCF8",
"#	c #00FC00",
"$	c #808080",
"%	c #F80000",
"       ++       ",
"      +@#+ +++  ",
"  ++ +@+#+++@#+ ",
" +@++++$+++@##+ ",
" +@#+++@++@##+  ",
"  +@+++@+++++   ",
"++++%%+@+%%%++  ",
"++%%+++@+++++%+ ",
" +++%%++@@$+%++ ",
" ++++++@@@@@++++",
"++@##++@@++@+@+ ",
"+@##+++$@+@@+@+ ",
"+@@++@#+@+++$@+ ",
" ++ +@#+@@@+@$+ ",
"    +@++$@@@@+  ",
"    +++ ++++++  "};
