/* XPM */
static const char * mobile_xpm[] = {
"7 16 6 1",
" 	c None",
".	c #000000",
"+	c #808080",
"@	c #FFFFFF",
"#	c #FFFF00",
"$	c #C0C0C0",
"     . ",
"     . ",
"     . ",
" +.... ",
"......+",
".@@@@.+",
".####.+",
"......+",
".@+@+.+",
".+@+@.+",
".@+@+.+",
".+@+@.+",
".@+@+.+",
".+@+@.+",
".$++$.+",
"......+"};
