/* XPM */
static char * lock_xpm[] = {
"15 15 150 2",
"  	c None",
". 	c #838383",
"+ 	c #848283",
"@ 	c #868686",
"# 	c #808080",
"$ 	c #999999",
"% 	c #C7C7C7",
"& 	c #C6C7C7",
"* 	c #E5E5E5",
"= 	c #949494",
"- 	c #101010",
"; 	c #8F8F90",
"> 	c #FDFDFD",
", 	c #EAE9ED",
"' 	c #CECED6",
") 	c #CDCDDB",
"! 	c #CCCDDE",
"~ 	c #CCCDDF",
"{ 	c #CCCDDD",
"] 	c #CECDD8",
"^ 	c #E7E7EC",
"/ 	c #9C9C9F",
"( 	c #7F7F7F",
"_ 	c #8F8F8F",
": 	c #F3F3F5",
"< 	c #8E8EA2",
"[ 	c #01012F",
"} 	c #04044E",
"| 	c #030363",
"1 	c #03036A",
"2 	c #030360",
"3 	c #02023D",
"4 	c #82849D",
"5 	c #8E8F98",
"6 	c #7F7F80",
"7 	c #F2F3F7",
"8 	c #8D8EAD",
"9 	c #050551",
"0 	c #0E0E8F",
"a 	c #090AB1",
"b 	c #0809BC",
"c 	c #0B0BAB",
"d 	c #01010E",
"e 	c #101016",
"f 	c #8E8D9E",
"g 	c #7F7F81",
"h 	c #F2F2F8",
"i 	c #8D8DB3",
"j 	c #040460",
"k 	c #0B0BA7",
"l 	c #0606CF",
"m 	c #00001C",
"n 	c #6F6F88",
"o 	c #DEDEEE",
"p 	c #EEEEF6",
"q 	c #808083",
"r 	c #F3F3F6",
"s 	c #8E8EAA",
"t 	c #030349",
"u 	c #09097F",
"v 	c #05059D",
"w 	c #6E6F84",
"x 	c #DEDEF1",
"y 	c #00000D",
"z 	c #101017",
"A 	c #F0F0F2",
"B 	c #F3F3F3",
"C 	c #A7A6B3",
"D 	c #605F82",
"E 	c #606099",
"F 	c #0C0C15",
"G 	c #EAEAF4",
"H 	c #7A7B81",
"I 	c #838387",
"J 	c #121213",
"K 	c #EEEEEE",
"L 	c #020202",
"M 	c #868586",
"N 	c #B2B1B1",
"O 	c #9B9AA0",
"P 	c #9A99A7",
"Q 	c #131316",
"R 	c #131317",
"S 	c #131315",
"T 	c #111112",
"U 	c #080809",
"V 	c #080808",
"W 	c #000000",
"X 	c #312F30",
"Y 	c #302F30",
"Z 	c #313031",
"` 	c #302F32",
" .	c #060606",
"..	c #D2C417",
"+.	c #CFC21B",
"@.	c #CBBE1F",
"#.	c #C9BB24",
"$.	c #C5B728",
"%.	c #C3B42C",
"&.	c #C2B434",
"*.	c #C6B73D",
"=.	c #5D5D5E",
"-.	c #B0AFAF",
";.	c #AFAFAF",
">.	c #161616",
",.	c #DFD12B",
"'.	c #858585",
").	c #C3B443",
"!.	c #010101",
"~.	c #878789",
"{.	c #F6F9F7",
"].	c #CAD3CA",
"^.	c #CAD2CB",
"/.	c #CDD0CE",
"(.	c #1A1A1A",
"_.	c #D8CA2C",
":.	c #CABC26",
"<.	c #C7B92B",
"[.	c #C4B62E",
"}.	c #C1B232",
"|.	c #CCBD45",
"1.	c #C4B645",
"2.	c #C0B148",
"3.	c #878787",
"4.	c #EFF9EF",
"5.	c #A6C6A6",
"6.	c #97B197",
"7.	c #BAC2BB",
"8.	c #181818",
"9.	c #D8CA35",
"0.	c #828282",
"a.	c #7E7E7E",
"b.	c #BCAE4D",
"c.	c #859485",
"d.	c #719571",
"e.	c #729072",
"f.	c #828A82",
"g.	c #111111",
"h.	c #D0C234",
"i.	c #CCBE38",
"j.	c #CABB3D",
"k.	c #C5B740",
"l.	c #C3B445",
"m.	c #C0B149",
"n.	c #BCAD4D",
"o.	c #AC9D45",
"p.	c #070B07",
"q.	c #070E07",
"r.	c #070D07",
"s.	c #080908",
"      . + + . . . . . @ #     ",
"    $ % % % % & % % % * = -   ",
"  ; > , ' ) ! ~ { ] ^ / ( -   ",
"  _ : < [ } | 1 2 3 4 5 6 -   ",
"  _ 7 8 9 0 a b c d e f g -   ",
"  _ h i j k l m n o p q - -   ",
"  _ r s t u v w x y z A ( -   ",
"  _ B C D E F G F H I J K L   ",
"  M N O P Q R R R Q S T U V W ",
"  X Y Z `  ...+.@.#.$.%.&.*.W ",
"=.-.-.;.;.>.,.'.'.'.'.'.# ).!.",
"~.{.].^./.(._.:.<.[.}.|.1.2.!.",
"3.4.5.6.7.8.9.0.0.a.# @ # b.!.",
"# c.d.e.f.g.h.i.j.k.l.m.n.o.W ",
"  p.q.r.s.!.!.!.!.!.!.!.!.W W "};
