/* XPM */
static const char * licq_xpm[] = {
"24 24 244 2",
"  	c None",
". 	c #599450",
"+ 	c #5A9350",
"@ 	c #5B9150",
"# 	c #5C9153",
"$ 	c #5D9055",
"% 	c #589152",
"& 	c #599152",
"* 	c #5B9151",
"= 	c #5C9252",
"- 	c #5D9252",
"; 	c #5D9E4D",
"> 	c #5D9D4C",
", 	c #5D9C4D",
"' 	c #5D9D4F",
") 	c #5D9D50",
"! 	c #619E52",
"~ 	c #609E51",
"{ 	c #5D9C4E",
"] 	c #5B9B4D",
"^ 	c #5B8F52",
"/ 	c #61A34A",
"( 	c #6BC83A",
"_ 	c #69CE3A",
": 	c #63CF3D",
"< 	c #60DB3C",
"[ 	c #5BC442",
"} 	c #5A974E",
"| 	c #7CC74E",
"1 	c #81DF49",
"2 	c #64D03E",
"3 	c #56CC37",
"4 	c #52C238",
"5 	c #59A14A",
"6 	c #5C8F54",
"7 	c #578E4F",
"8 	c #67A650",
"9 	c #8FE553",
"0 	c #8EF34B",
"a 	c #7BEE41",
"b 	c #6AF639",
"c 	c #5CCB3F",
"d 	c #5B974E",
"e 	c #91D560",
"f 	c #A9FF61",
"g 	c #84F149",
"h 	c #6FEA36",
"i 	c #63D631",
"j 	c #5CA34A",
"k 	c #5A8E53",
"l 	c #4F8A4A",
"m 	c #71AA5C",
"n 	c #C0F587",
"o 	c #BEFF75",
"p 	c #9BF953",
"q 	c #79F244",
"r 	c #5FC642",
"s 	c #5C964E",
"t 	c #A8D780",
"u 	c #CEFF8F",
"v 	c #AFFD65",
"w 	c #97F444",
"x 	c #7FDC35",
"y 	c #63A44A",
"z 	c #588D53",
"A 	c #5E8F54",
"B 	c #5D8F54",
"C 	c #5C9055",
"D 	c #50884C",
"E 	c #7CA969",
"F 	c #EBFBB0",
"G 	c #DBFF92",
"H 	c #A2F75A",
"I 	c #86F84A",
"J 	c #68CC44",
"K 	c #5D9651",
"L 	c #BFD499",
"M 	c #EDFFAD",
"N 	c #BBFE6E",
"O 	c #98F846",
"P 	c #79E136",
"Q 	c #5FA34C",
"R 	c #578956",
"S 	c #5D8E54",
"T 	c #5B9055",
"U 	c #5D9E49",
"V 	c #5C9E49",
"W 	c #5B9E49",
"X 	c #509942",
"Y 	c #74AC5E",
"Z 	c #D1DEA3",
"` 	c #D1F493",
" .	c #ADFA67",
"..	c #91FA4E",
"+.	c #6ECD45",
"@.	c #5D9652",
"#.	c #BFD396",
"$.	c #F1FFAD",
"%.	c #C4FF79",
"&.	c #92EB52",
"*.	c #69CB3C",
"=.	c #61AB47",
"-.	c #609E4B",
";.	c #61A049",
">.	c #5DA048",
",.	c #5AA049",
"'.	c #5C9353",
").	c #5C9A4D",
"!.	c #5CBA35",
"~.	c #5BC42C",
"{.	c #59BF2D",
"].	c #51C229",
"^.	c #53B635",
"/.	c #649B55",
"(.	c #9BCF73",
"_.	c #C0FF7B",
":.	c #97F651",
"<.	c #6EC643",
"[.	c #5B9650",
"}.	c #A3D670",
"|.	c #D4FF87",
"1.	c #CAFF8B",
"2.	c #8DCA6C",
"3.	c #579748",
"4.	c #6DC038",
"5.	c #73D031",
"6.	c #69CB2F",
"7.	c #5ECA2B",
"8.	c #58BC32",
"9.	c #5B994C",
"0.	c #5A924E",
"a.	c #5E9C4D",
"b.	c #78CE48",
"c.	c #79DC37",
"d.	c #67CC23",
"e.	c #62CE24",
"f.	c #5AC429",
"g.	c #4BA82D",
"h.	c #6DB352",
"i.	c #8ECA6A",
"j.	c #7ADD41",
"k.	c #5FBD3B",
"l.	c #509052",
"m.	c #95DE65",
"n.	c #B5FF6F",
"o.	c #8FC96C",
"p.	c #81BD69",
"q.	c #7DC55C",
"r.	c #7DDB37",
"s.	c #70DF28",
"t.	c #5CD42A",
"u.	c #59D028",
"v.	c #59BD33",
"w.	c #57924A",
"x.	c #619E4D",
"y.	c #96DB5E",
"z.	c #9CEA50",
"A.	c #82D630",
"B.	c #82D635",
"C.	c #7AD736",
"D.	c #66D32C",
"E.	c #5BB03C",
"F.	c #57984A",
"G.	c #59BD35",
"H.	c #5DB737",
"I.	c #679E4C",
"J.	c #8EDC5E",
"K.	c #92E660",
"L.	c #649C4F",
"M.	c #86C762",
"N.	c #AEFF6E",
"O.	c #96F245",
"P.	c #76E332",
"Q.	c #5BD533",
"R.	c #5BCB31",
"S.	c #5EB839",
"T.	c #5B9B4E",
"U.	c #56914E",
"V.	c #619D50",
"W.	c #99DC5B",
"X.	c #B3F65F",
"Y.	c #B2F05F",
"Z.	c #B6F365",
"`.	c #B6F667",
" +	c #AFF963",
".+	c #85E442",
"++	c #5AC32A",
"@+	c #4A9C46",
"#+	c #86B144",
"$+	c #DBE332",
"%+	c #8AB848",
"&+	c #66AD5E",
"*+	c #A5E16B",
"=+	c #BEF975",
"-+	c #C4FF77",
";+	c #C0FB6A",
">+	c #AAF35B",
",+	c #8BE94A",
"'+	c #78D737",
")+	c #69BB37",
"!+	c #5D994E",
"~+	c #569150",
"{+	c #619C51",
"]+	c #83C156",
"^+	c #91CD5C",
"/+	c #99CF64",
"(+	c #9CD267",
"_+	c #9ED569",
":+	c #9ED869",
"<+	c #7BCD4B",
"[+	c #62BF31",
"}+	c #83B340",
"|+	c #C6D138",
"1+	c #FFFD26",
"2+	c #BECC33",
"3+	c #8DB44A",
"4+	c #9DD665",
"5+	c #9DD96B",
"6+	c #9CD268",
"7+	c #9FD269",
"8+	c #96D061",
"9+	c #82CA52",
"0+	c #72BD42",
"a+	c #67AE3E",
"b+	c #5E984E",
"c+	c #5C9552",
"d+	c #5C9551",
"e+	c #5B954F",
"f+	c #5B964D",
"g+	c #528F52",
"h+	c #6A9C4B",
"i+	c #D8E42E",
"j+	c #FFFF22",
"k+	c #F8F625",
"l+	c #FFFC24",
"m+	c #DBE130",
"n+	c #689C4D",
"o+	c #518E52",
"p+	c #5A9650",
"q+	c #599650",
"r+	c #5A954D",
"s+	c #5A954C",
"t+	c #106050",
"u+	c #FFFFFF",
"              . + @ # $   % & * = -             ",
"              ; > , ' )   ! ~ { ] ]             ",
"          ^ / ( _ : < [ } | 1 2 3 4 5 6         ",
"          7 8 9 0 a b c d e f g h i j k         ",
"          l m n o p q r s t u v w x y z         ",
"    A B C D E F G H I J K L M N O P Q R S 6 T   ",
"    U V W X Y Z `  ...+.@.#.$.%.&.*.=.-.;.>.,.  ",
"'.).!.~.{.].^./.(._.:.<.[.}.|.1.2.3.4.5.6.7.8.9.",
"0.a.b.c.d.e.f.g.h.i.j.k.l.m.n.o.p.q.r.s.t.u.v.] ",
"w.x.y.z.A.B.C.D.E.F.G.H.I.J.K.L.M.N.O.P.Q.R.S.T.",
"U.V.W.X.Y.Z.`. +.+++@+#+$+%+&+*+=+-+;+>+,+'+)+!+",
"~+{+]+^+/+(+_+:+<+[+}+|+1+2+3+4+5+6+7+8+9+0+a+b+",
"    c+d+e+f+f+[.g+h+i+j+k+l+m+n+o+e+[.p+q+r+s+  ",
"                                                ",
"  t+          t+      t+t+t+t+      t+t+t+t+    ",
"t+u+t+      t+u+t+  t+u+u+u+u+t+  t+u+u+u+u+t+  ",
"t+u+t+      t+u+t+t+u+t+t+t+t+  t+u+t+t+t+t+u+t+",
"t+u+t+      t+u+t+t+u+t+        t+u+t+    t+u+t+",
"t+u+t+      t+u+t+t+u+t+        t+u+t+    t+u+t+",
"t+u+t+      t+u+t+t+u+t+        t+u+t+    t+u+t+",
"t+u+t+t+t+t+t+u+t+t+u+t+t+t+t+  t+u+t+t+t+t+u+t+",
"t+u+u+u+u+u+t+u+t+  t+u+u+u+u+t+  t+u+u+u+u+t+  ",
"  t+t+t+t+t+  t+      t+t+t+t+      t+t+t+u+t+  ",
"                                          t+    "};
