/* XPM */
static char * cross_xpm[] = {
"15 15 158 2",
"  	c None",
". 	c #838383",
"+ 	c #848283",
"@ 	c #868686",
"# 	c #808080",
"$ 	c #999999",
"% 	c #C7C7C7",
"& 	c #C6C7C7",
"* 	c #E5E5E5",
"= 	c #949494",
"- 	c #101010",
"; 	c #8F8F90",
"> 	c #FDFDFD",
", 	c #EAE9ED",
"' 	c #CECED6",
") 	c #CDCDDB",
"! 	c #CCCDDE",
"~ 	c #CCCDDF",
"{ 	c #CCCDDD",
"] 	c #CECDD8",
"^ 	c #E7E7EC",
"/ 	c #9C9C9F",
"( 	c #7F7F7F",
"_ 	c #8F8F8F",
": 	c #F3F3F5",
"< 	c #8E8EA2",
"[ 	c #01012F",
"} 	c #04044E",
"| 	c #030363",
"1 	c #03036A",
"2 	c #030360",
"3 	c #02023D",
"4 	c #82849D",
"5 	c #8E8F98",
"6 	c #C04A4A",
"7 	c #F2F3F7",
"8 	c #8D8EAD",
"9 	c #C41E28",
"0 	c #C32334",
"a 	c #6F6F85",
"b 	c #0809BC",
"c 	c #0B0BAB",
"d 	c #08086E",
"e 	c #8383B1",
"f 	c #C24B4E",
"g 	c #BD4D4D",
"h 	c #AC4343",
"i 	c #F2F2F8",
"j 	c #8D8DB3",
"k 	c #040460",
"l 	c #C0253A",
"m 	c #BD2944",
"n 	c #6E6E8B",
"o 	c #0707C8",
"p 	c #050682",
"q 	c #C14950",
"r 	c #C04E51",
"s 	c #BA5051",
"t 	c #A94545",
"u 	c #BC5252",
"v 	c #F3F3F6",
"w 	c #8E8EAA",
"x 	c #030349",
"y 	c #09097F",
"z 	c #BA2C40",
"A 	c #B73045",
"B 	c #B43447",
"C 	c #B13845",
"D 	c #BE4C52",
"E 	c #BD5154",
"F 	c #B95353",
"G 	c #020202",
"H 	c #000000",
"I 	c #F3F3F3",
"J 	c #A7A6B3",
"K 	c #605F82",
"L 	c #606099",
"M 	c #5E5EA7",
"N 	c #C03F49",
"O 	c #BD434C",
"P 	c #BB474E",
"Q 	c #C05357",
"R 	c #BB5557",
"S 	c #868586",
"T 	c #B2B1B1",
"U 	c #9B9AA0",
"V 	c #9A99A7",
"W 	c #9998AE",
"X 	c #9998B3",
"Y 	c #C6494D",
"Z 	c #C34E51",
"` 	c #BF5154",
" .	c #BD5657",
"..	c #111112",
"+.	c #454546",
"@.	c #454545",
"#.	c #312F30",
"$.	c #302F30",
"%.	c #313031",
"&.	c #302F32",
"*.	c #2F2F33",
"=.	c #B93B3B",
"-.	c #B53F40",
";.	c #B34243",
">.	c #B04747",
",.	c #AC4A4B",
"'.	c #AA4F4F",
").	c #49494A",
"!.	c #797979",
"~.	c #B0AFAF",
"{.	c #AFAFAF",
"].	c #C74F4F",
"^.	c #C45353",
"/.	c #161616",
"(.	c #AFAFAE",
"_.	c #BC5F5E",
":.	c #B86262",
"<.	c #B06161",
"[.	c #080808",
"}.	c #878789",
"|.	c #F6F9F7",
"1.	c #CAD3CA",
"2.	c #CAD2CB",
"3.	c #CDD0CE",
"4.	c #CC5252",
"5.	c #C04E4E",
"6.	c #404040",
"7.	c #40403F",
"8.	c #B56565",
"9.	c #AF6666",
"0.	c #AA6767",
"a.	c #878787",
"b.	c #EFF9EF",
"c.	c #A6C6A6",
"d.	c #97B197",
"e.	c #BAC2BB",
"f.	c #C75454",
"g.	c #9B9B9B",
"h.	c #7B7B7A",
"i.	c #8B8B89",
"j.	c #B6B6B6",
"k.	c #AC6868",
"l.	c #A76B6B",
"m.	c #6F6F6F",
"n.	c #859485",
"o.	c #719571",
"p.	c #729072",
"q.	c #C04C4B",
"r.	c #111111",
"s.	c #828281",
"t.	c #848482",
"u.	c #878786",
"v.	c #986060",
"w.	c #070B07",
"x.	c #070E07",
"y.	c #070D07",
"z.	c #010101",
"A.	c #080908",
"      . + + . . . . . @ #     ",
"    $ % % % % & % % % * = -   ",
"  ; > , ' ) ! ~ { ] ^ / ( -   ",
"  _ : < [ } | 1 2 3 4 5 6 -   ",
"  _ 7 8 9 0 a b c d e f g h   ",
"  _ i j k l m n o p q r s t u ",
"  _ v w x y z A B C D E F G H ",
"  _ I J K L M N O P Q R - -   ",
"  S T U V W X Y Z `  ...+.@.  ",
"  #.$.%.&.*.=.-.;.>.,.'.).!.  ",
"  ~.~.{.{.{.].^./.(._.:.<.( [.",
"}.|.1.2.3.4.5.[.6.7.7.8.9.0.[.",
"a.b.c.d.e.f./.g.g.h.i.j.k.l.m.",
"# n.o.p.q.r.a.a.a.s.t.u.# v.H ",
"  w.x.y.z.[.[.[.A.[.[.[.[.  H "};
