/* XPM */
static char * file_xpm[] = {
"11 14 52 1",
" 	c None",
".	c #000000",
"+	c #CFCFCF",
"@	c #C5C5C5",
"#	c #BBBBBB",
"$	c #B2B2B2",
"%	c #A8A8A8",
"&	c #C6C6C6",
"*	c #FFFFFF",
"=	c #9F9F9F",
"-	c #969696",
";	c #BDBDBD",
">	c #B3B3B3",
",	c #A9A9A9",
"'	c #B4B4B4",
")	c #838383",
"!	c #7F7F7F",
"~	c #ABABAB",
"{	c #A1A1A1",
"]	c #979797",
"^	c #8D8D8D",
"/	c #848484",
"(	c #7A7A7A",
"_	c #707070",
":	c #666666",
"<	c #A2A2A2",
"[	c #5D5D5D",
"}	c #989898",
"|	c #8F8F8F",
"1	c #858585",
"2	c #7B7B7B",
"3	c #717171",
"4	c #686868",
"5	c #5E5E5E",
"6	c #545454",
"7	c #4B4B4B",
"8	c #868686",
"9	c #7D7D7D",
"0	c #737373",
"a	c #696969",
"b	c #5F5F5F",
"c	c #555555",
"d	c #4C4C4C",
"e	c #424242",
"f	c #393939",
"g	c #747474",
"h	c #6A6A6A",
"i	c #616161",
"j	c #575757",
"k	c #4D4D4D",
"l	c #434343",
"m	c #303030",
".......    ",
".+@#$%..   ",
".&***=.-.  ",
".;>,=-.... ",
".'****)**.!",
".~{]^/(_:.!",
".<******[.!",
".}|123456.!",
".|******7.!",
".890abcde.!",
".9******f.!",
".ghijklfm.!",
"..........!",
" !!!!!!!!!!"};
