/* XPM */
static char * online_xpm[] = {
"15 15 139 2",
"  	c None",
". 	c #838383",
"+ 	c #848283",
"@ 	c #868686",
"# 	c #808080",
"$ 	c #999999",
"% 	c #C7C7C7",
"& 	c #C6C7C7",
"* 	c #E5E5E5",
"= 	c #949494",
"- 	c #101010",
"; 	c #8F8F90",
"> 	c #FDFDFD",
", 	c #EAE9ED",
"' 	c #CECED6",
") 	c #CDCDDB",
"! 	c #CCCDDE",
"~ 	c #CCCDDF",
"{ 	c #CCCDDD",
"] 	c #CECDD8",
"^ 	c #E7E7EC",
"/ 	c #9C9C9F",
"( 	c #7F7F7F",
"_ 	c #8F8F8F",
": 	c #F3F3F5",
"< 	c #8E8EA2",
"[ 	c #01012F",
"} 	c #04044E",
"| 	c #030363",
"1 	c #03036A",
"2 	c #030360",
"3 	c #02023D",
"4 	c #82849D",
"5 	c #8E8F98",
"6 	c #7F7F80",
"7 	c #F2F3F7",
"8 	c #8D8EAD",
"9 	c #050551",
"0 	c #0E0E8F",
"a 	c #090AB1",
"b 	c #0809BC",
"c 	c #0B0BAB",
"d 	c #08086E",
"e 	c #8383B1",
"f 	c #8E8D9E",
"g 	c #7F7F81",
"h 	c #F2F2F8",
"i 	c #8D8DB3",
"j 	c #040460",
"k 	c #0B0BA7",
"l 	c #0606CF",
"m 	c #0405DD",
"n 	c #0707C8",
"o 	c #050682",
"p 	c #8281BA",
"q 	c #8D8CA1",
"r 	c #F3F3F6",
"s 	c #8E8EAA",
"t 	c #030349",
"u 	c #09097F",
"v 	c #05059D",
"w 	c #0304A8",
"x 	c #05069A",
"y 	c #050669",
"z 	c #8282B2",
"A 	c #8D8D9F",
"B 	c #F3F3F3",
"C 	c #A7A6B3",
"D 	c #605F82",
"E 	c #606099",
"F 	c #5E5EA7",
"G 	c #5D5DAC",
"H 	c #606195",
"I 	c #9FA0BE",
"J 	c #8D8E9A",
"K 	c #868586",
"L 	c #B2B1B1",
"M 	c #9B9AA0",
"N 	c #9A99A7",
"O 	c #9998AE",
"P 	c #9998B3",
"Q 	c #9898B5",
"R 	c #9898B4",
"S 	c #9898AE",
"T 	c #999AA7",
"U 	c #85868B",
"V 	c #454546",
"W 	c #454545",
"X 	c #312F30",
"Y 	c #302F30",
"Z 	c #313031",
"` 	c #302F32",
" .	c #2F2F33",
"..	c #2F2F34",
"+.	c #2F2F35",
"@.	c #2F3032",
"#.	c #303031",
"$.	c #49494A",
"%.	c #797979",
"&.	c #080808",
"*.	c #5D5D5E",
"=.	c #B0AFAF",
"-.	c #AFAFAF",
";.	c #AFAFAE",
">.	c #888888",
",.	c #878789",
"'.	c #F6F9F7",
").	c #CAD3CA",
"!.	c #CAD2CB",
"~.	c #CDD0CE",
"{.	c #CFCFCF",
"].	c #919191",
"^.	c #404040",
"/.	c #40403F",
"(.	c #ABABAB",
"_.	c #8E8E8E",
":.	c #878787",
"<.	c #EFF9EF",
"[.	c #A6C6A6",
"}.	c #97B197",
"|.	c #BAC2BB",
"1.	c #BEBEBE",
"2.	c #9B9B9B",
"3.	c #7B7B7A",
"4.	c #8B8B89",
"5.	c #B6B6B6",
"6.	c #8B8B8B",
"7.	c #859485",
"8.	c #719571",
"9.	c #729072",
"0.	c #828A82",
"a.	c #828281",
"b.	c #848482",
"c.	c #878786",
"d.	c #1E1E1E",
"e.	c #070B07",
"f.	c #070E07",
"g.	c #070D07",
"h.	c #080908",
"      . + + . . . . . @ #     ",
"    $ % % % % & % % % * = -   ",
"  ; > , ' ) ! ~ { ] ^ / ( -   ",
"  _ : < [ } | 1 2 3 4 5 6 -   ",
"  _ 7 8 9 0 a b c d e f g -   ",
"  _ h i j k l m n o p q g -   ",
"  _ r s t u v w x y z A g -   ",
"  _ B C D E F G F H I J g -   ",
"  K L M N O P Q R S T U V W   ",
"  X Y Z `  ...+... .@.#.$.%.&.",
"*.=.=.-.-.-.-.-.-.;.;.-.>.( &.",
",.'.).!.~.{.].^.^././.(._.( &.",
":.<.[.}.|.1.-.2.2.3.4.5.6.( &.",
"# 7.8.9.0.:.:.:.:.a.b.c.# d.  ",
"  e.f.g.h.&.&.&.h.&.&.&.&.    "};
