/* XPM */
static char * private_xpm[] = {
"15 15 157 2",
"  	c None",
". 	c #838383",
"+ 	c #848283",
"@ 	c #868686",
"# 	c #808080",
"$ 	c #999999",
"% 	c #C7C7C7",
"& 	c #C6C7C7",
"* 	c #E5E5E5",
"= 	c #949494",
"- 	c #101010",
"; 	c #8F8F90",
"> 	c #FDFDFD",
", 	c #EAE9ED",
"' 	c #CECED6",
") 	c #CDCDDB",
"! 	c #CCCDDE",
"~ 	c #CCCDDF",
"{ 	c #CCCDDD",
"] 	c #CECDD8",
"^ 	c #E7E7EC",
"/ 	c #9C9C9F",
"( 	c #7F7F7F",
"_ 	c #8F8F8F",
": 	c #F3F3F5",
"< 	c #8E8EA2",
"[ 	c #01012F",
"} 	c #04044E",
"| 	c #030363",
"1 	c #03036A",
"2 	c #1C1C2D",
"3 	c #1D1D28",
"4 	c #35363A",
"5 	c #8E8F98",
"6 	c #7F7F80",
"7 	c #F2F3F7",
"8 	c #8D8EAD",
"9 	c #050551",
"0 	c #0E0E8F",
"a 	c #090AB1",
"b 	c #2E2E4F",
"c 	c #C8C8E6",
"d 	c #D0D0E3",
"e 	c #E7E7F0",
"f 	c #848487",
"g 	c #7F7F81",
"h 	c #F2F2F8",
"i 	c #8D8DB3",
"j 	c #040460",
"k 	c #0B0BA7",
"l 	c #010126",
"m 	c #9B9CC4",
"n 	c #D0D0F4",
"o 	c #D0D0E7",
"p 	c #E7E7F2",
"q 	c #E9E9ED",
"r 	c #313132",
"s 	c #F3F3F6",
"t 	c #8E8EAA",
"u 	c #030349",
"v 	c #09097F",
"w 	c #00001D",
"x 	c #9B9BBA",
"y 	c #70708C",
"z 	c #D0D0E2",
"A 	c #ACACB5",
"B 	c #C4C4C7",
"C 	c #030303",
"D 	c #F3F3F3",
"E 	c #A7A6B3",
"F 	c #605F82",
"G 	c #494953",
"H 	c #A5A5B3",
"I 	c #D2D2E0",
"J 	c #383846",
"K 	c #E1E1EB",
"L 	c #85858A",
"M 	c #A8A8AB",
"N 	c #3A3A3B",
"O 	c #969696",
"P 	c #666666",
"Q 	c #868586",
"R 	c #B2B1B1",
"S 	c #9B9AA0",
"T 	c #9A99A7",
"U 	c #6A6A6E",
"V 	c #EBEBF0",
"W 	c #EBEBF1",
"X 	c #D3D3D8",
"Y 	c #EBEBEF",
"Z 	c #DDDDDF",
"` 	c #DFDFE0",
" .	c #C3C3C3",
"..	c #DCDCDC",
"+.	c #312F30",
"@.	c #302F30",
"#.	c #313031",
"$.	c #302F32",
"%.	c #2F2F33",
"&.	c #6C6C6D",
"*.	c #D0D0D1",
"=.	c #D8D8D8",
"-.	c #DBDBDB",
";.	c #9B9B9B",
">.	c #080808",
",.	c #5D5D5E",
"'.	c #B0AFAF",
").	c #AFAFAF",
"!.	c #202020",
"~.	c #BCBCBC",
"{.	c #F0F0F0",
"].	c #F0F0EF",
"^.	c #171717",
"/.	c #878789",
"(.	c #F6F9F7",
"_.	c #CAD3CA",
":.	c #CAD2CB",
"<.	c #CDD0CE",
"[.	c #CFCFCF",
"}.	c #1B1B1B",
"|.	c #A7A7A7",
"1.	c #EFEFEF",
"2.	c #878787",
"3.	c #EFF9EF",
"4.	c #A6C6A6",
"5.	c #97B197",
"6.	c #BAC2BB",
"7.	c #BEBEBE",
"8.	c #636363",
"9.	c #D6D6D6",
"0.	c #ECECEC",
"a.	c #E6E6E6",
"b.	c #E9E9E8",
"c.	c #F1F1F1",
"d.	c #E3E3E3",
"e.	c #707070",
"f.	c #859485",
"g.	c #719571",
"h.	c #729072",
"i.	c #828A82",
"j.	c #505050",
"k.	c #CECECE",
"l.	c #E8E8E8",
"m.	c #E7E7E7",
"n.	c #828282",
"o.	c #D4D4D4",
"p.	c #C6C6C6",
"q.	c #070B07",
"r.	c #070E07",
"s.	c #070D07",
"t.	c #080908",
"u.	c #1E1E1E",
"v.	c #1D1D1D",
"w.	c #0A0A0A",
"x.	c #ABABAB",
"y.	c #242424",
"z.	c #141414",
"      . + + . . . . . @ #     ",
"    $ % % % % & % % % * = -   ",
"  ; > , ' ) ! ~ { ] ^ / ( -   ",
"  _ : < [ } | 1 2 3 4 5 6 -   ",
"  _ 7 8 9 0 a b c d e f g -   ",
"  _ h i j k l m n o p q r -   ",
"  _ s t u v w x y z A B r C   ",
"  _ D E F G H I J K L M N O P ",
"  Q R S T U V W X Y Z `  ..._ ",
"  +.@.#.$.%.&.*.=.=.=.=.-.;.>.",
",.'.'.).).).!.~.{.].].{.-.^.>.",
"/.(._.:.<.[.}.|.-.-.-.1...^.>.",
"2.3.4.5.6.7.8.9.0.a.b.c.d.e.>.",
"# f.g.h.i.j.k.l.e.m.m.n.o.p.P ",
"  q.r.s.t.>.u.u.v.$ u.w.x.y.z."};
