/* XPM */
static char * url_xpm[] = {
"15 15 110 2",
"  	c None",
". 	c #0E1086",
"+ 	c #0E0E88",
"@ 	c #0C0C88",
"# 	c #181A8D",
"$ 	c #4D7493",
"% 	c #BFFFBF",
"& 	c #C3DFDF",
"* 	c #A6B1ED",
"= 	c #3E3EB2",
"- 	c #00008D",
"; 	c #272DAC",
"> 	c #9AC7CF",
", 	c #60F860",
"' 	c #00FF00",
") 	c #00DF00",
"! 	c #006858",
"~ 	c #00159C",
"{ 	c #0004E0",
"] 	c #0000B2",
"^ 	c #00277E",
"/ 	c #0020DF",
"( 	c #009458",
"_ 	c #00D200",
": 	c #00EF00",
"< 	c #00D800",
"[ 	c #00B700",
"} 	c #00601E",
"| 	c #000FBE",
"1 	c #0000FF",
"2 	c #001870",
"3 	c #009C30",
"4 	c #0016DF",
"5 	c #007858",
"6 	c #00C000",
"7 	c #00B600",
"8 	c #007D22",
"9 	c #00219B",
"0 	c #0000F1",
"a 	c #000090",
"b 	c #002D46",
"c 	c #0000EB",
"d 	c #002D80",
"e 	c #00A20F",
"f 	c #008818",
"g 	c #00238E",
"h 	c #0000F0",
"i 	c #0000A5",
"j 	c #000478",
"k 	c #004607",
"l 	c #00585D",
"m 	c #001DCC",
"n 	c #007739",
"o 	c #00A400",
"p 	c #00524E",
"q 	c #0000D4",
"r 	c #0000C8",
"s 	c #000084",
"t 	c #00027E",
"u 	c #001C6C",
"v 	c #0000CB",
"w 	c #0014EB",
"x 	c #004C78",
"y 	c #006E00",
"z 	c #006030",
"A 	c #002E72",
"B 	c #000CCF",
"C 	c #0000C3",
"D 	c #0000E2",
"E 	c #000AD5",
"F 	c #003851",
"G 	c #009200",
"H 	c #00B800",
"I 	c #006D46",
"J 	c #0017D2",
"K 	c #00009D",
"L 	c #0000C4",
"M 	c #0000E1",
"N 	c #006450",
"O 	c #00C600",
"P 	c #00BA00",
"Q 	c #005042",
"R 	c #000ABA",
"S 	c #000088",
"T 	c #0000C0",
"U 	c #0000C5",
"V 	c #0000E4",
"W 	c #002A80",
"X 	c #009100",
"Y 	c #00A500",
"Z 	c #007800",
"` 	c #001B6F",
" .	c #0000B8",
"..	c #000099",
"+.	c #0000C6",
"@.	c #0000D0",
"#.	c #000898",
"$.	c #003D2A",
"%.	c #007400",
"&.	c #005F00",
"*.	c #001484",
"=.	c #000096",
"-.	c #0000BA",
";.	c #000789",
">.	c #003427",
",.	c #00206B",
"'.	c #000390",
").	c #0000BC",
"!.	c #00058B",
"~.	c #000380",
"            . + @             ",
"        # $ % & * = -         ",
"      ; > , ' ) ! ~ { ]       ",
"    ^ / ( _ : < [ } | 1 ]     ",
"  2 3 4 5 6 6 7 8 9 0 1 1 a   ",
"  b 3 c d e 6 f g h 1 1 1 i   ",
"j k l 1 m n o p q 1 1 1 1 r s ",
"t u v 1 w x y z A B 1 1 1 r s ",
"s C D 1 1 E F G H I J 1 D C s ",
"  K L M 1 1 E N O P Q R L K   ",
"  S T U q V 1 W X Y Z `  .S   ",
"    ..T T +.@.#.$.%.&.*.=.    ",
"      ..T T T -.;.>.,.'.      ",
"        S K T T ).!.~.        ",
"            s s s             "};
