/* XPM */
static char * na_xpm[] = {
"20 24 5 1",
" 	c None",
".	c #000000",
"+	c #FFFFFF",
"@	c #BFBFBF",
"#	c #7F7F7F",
"                    ",
"                    ",
"                    ",
"                    ",
"                    ",
"                    ",
"                    ",
"                    ",
"                    ",
"                    ",
"                    ",
"                    ",
"                    ",
"                    ",
"                    ",
"                    ",
"                    ",
"                    ",
"                    ",
"   ..............   ",
"  .+++@+@+++#++++.  ",
"  .+++######+#+++.  ",
"  .+++#+#++###+++.  ",
"   ##############   "};
