/* XPM */
static char * nomsg_xpm[] = {
"20 24 241 2",
"  	c None",
". 	c #222224",
"+ 	c #1E1E1E",
"@ 	c #1C1C1C",
"# 	c #212122",
"$ 	c #121312",
"% 	c #103F11",
"& 	c #1A621B",
"* 	c #071708",
"= 	c #1D1D1E",
"- 	c #09320A",
"; 	c #9AED9A",
"> 	c #58FC58",
", 	c #029B04",
"' 	c #0A0B09",
") 	c #1A1A19",
"! 	c #0A1309",
"~ 	c #0A250A",
"{ 	c #0C0F0D",
"] 	c #10150F",
"^ 	c #062407",
"/ 	c #091D09",
"( 	c #141615",
"_ 	c #101210",
": 	c #46A646",
"< 	c #DCFEDC",
"[ 	c #1EFE20",
"} 	c #02F504",
"| 	c #041606",
"1 	c #0D2C0D",
"2 	c #7FC37F",
"3 	c #74F676",
"4 	c #039F04",
"5 	c #0A0E09",
"6 	c #1E1E1D",
"7 	c #181917",
"8 	c #1D5F1E",
"9 	c #AEF2AE",
"0 	c #80E080",
"a 	c #055B06",
"b 	c #031904",
"c 	c #98DF9A",
"d 	c #D2FED2",
"e 	c #08FE0A",
"f 	c #02FB04",
"g 	c #063607",
"h 	c #7FC980",
"i 	c #8AFE8A",
"j 	c #0AFE0C",
"k 	c #02CD04",
"l 	c #060E07",
"m 	c #1A1A18",
"n 	c #52A854",
"o 	c #EFFEF0",
"p 	c #54FE54",
"q 	c #02F104",
"r 	c #024B04",
"s 	c #88E389",
"t 	c #DEFEDE",
"u 	c #1BFE1C",
"v 	c #02B904",
"w 	c #397E3A",
"x 	c #A8FEA8",
"y 	c #11FE12",
"z 	c #02D304",
"A 	c #032A04",
"B 	c #0E0F0D",
"C 	c #1B1B19",
"D 	c #131413",
"E 	c #136214",
"F 	c #79DB7A",
"G 	c #1DFA1E",
"H 	c #02FE04",
"I 	c #028C04",
"J 	c #278028",
"K 	c #D0FAD2",
"L 	c #4DFE4E",
"M 	c #026104",
"N 	c #83D983",
"O 	c #49FA4A",
"P 	c #02AC04",
"Q 	c #041A06",
"R 	c #0F1010",
"S 	c #0B270B",
"T 	c #2C632C",
"U 	c #104D11",
"V 	c #026804",
"W 	c #02D704",
"X 	c #02EC04",
"Y 	c #024304",
"Z 	c #1F5D20",
"` 	c #116612",
" .	c #022B04",
"..	c #34A635",
"+.	c #08560A",
"@.	c #020B04",
"#.	c #0E0F0F",
"$.	c #171917",
"%.	c #2C7E2E",
"&.	c #DFFEE0",
"*.	c #65F366",
"=.	c #02A904",
"-.	c #025804",
";.	c #293E09",
">.	c #B3B636",
",.	c #C9CC16",
"'.	c #5D5F09",
").	c #105312",
"!.	c #52B852",
"~.	c #17A018",
"{.	c #034D04",
"].	c #0D100D",
"^.	c #202021",
"/.	c #0C320B",
"(.	c #9AE79A",
"_.	c #B0FEB2",
":.	c #027B04",
"<.	c #9D9D33",
"[.	c #FEFEB6",
"}.	c #FEFE0F",
"|.	c #AFB208",
"1.	c #4A894A",
"2.	c #EBFEEC",
"3.	c #31FE32",
"4.	c #02F704",
"5.	c #027E04",
"6.	c #111511",
"7.	c #0C420E",
"8.	c #338334",
"9.	c #068108",
"0.	c #028904",
"a.	c #024604",
"b.	c #9C9C37",
"c.	c #FEFEB0",
"d.	c #FEFE09",
"e.	c #B3B406",
"f.	c #378A38",
"g.	c #28FE2A",
"h.	c #02F904",
"i.	c #025E04",
"j.	c #0F100F",
"k.	c #202020",
"l.	c #082307",
"m.	c #519852",
"n.	c #5CC15D",
"o.	c #04CC06",
"p.	c #02A504",
"q.	c #1F2E0D",
"r.	c #9DA42A",
"s.	c #DBDE0D",
"t.	c #535804",
"u.	c #053606",
"v.	c #24A526",
"w.	c #0AED0C",
"x.	c #02F304",
"y.	c #02EB04",
"z.	c #027604",
"A.	c #090A09",
"B.	c #1C1C1B",
"C.	c #151615",
"D.	c #318E32",
"E.	c #E5FEE6",
"F.	c #59FE58",
"G.	c #027304",
"H.	c #2B712A",
"I.	c #247424",
"J.	c #052305",
"K.	c #39893A",
"L.	c #5AD35A",
"M.	c #035604",
"N.	c #022804",
"O.	c #033304",
"P.	c #051C06",
"Q.	c #090B09",
"R.	c #141513",
"S.	c #1F1F1F",
"T.	c #131414",
"U.	c #39A73A",
"V.	c #E7FEE8",
"W.	c #29FE2A",
"X.	c #02E704",
"Y.	c #036604",
"Z.	c #285E28",
"`.	c #C9F5CA",
" +	c #42EF44",
".+	c #023704",
"++	c #82DE82",
"@+	c #90FE90",
"#+	c #029E04",
"$+	c #041206",
"%+	c #121311",
"&+	c #1A1D1B",
"*+	c #074B08",
"=+	c #43B244",
"-+	c #167716",
";+	c #031B04",
">+	c #08260A",
",+	c #B3ECB3",
"'+	c #5FFE60",
")+	c #02DF04",
"!+	c #020A04",
"~+	c #48AB47",
"{+	c #ACFEAC",
"]+	c #02B204",
"^+	c #080F0A",
"/+	c #0C0D0C",
"(+	c #0E0F0E",
"_+	c #0A0F09",
":+	c #478648",
"<+	c #A9FEAA",
"[+	c #028B04",
"}+	c #050E05",
"|+	c #0B4B0C",
"1+	c #B7F6B8",
"2+	c #72FE72",
"3+	c #06FE08",
"4+	c #02D504",
"5+	c #051706",
"6+	c #191917",
"7+	c #0E130F",
"8+	c #84BC84",
"9+	c #42FE44",
"0+	c #04D206",
"a+	c #041706",
"b+	c #0C130D",
"c+	c #175418",
"d+	c #83DA84",
"e+	c #2DED2E",
"f+	c #0B0D0B",
"g+	c #121811",
"h+	c #559356",
"i+	c #24A224",
"j+	c #052506",
"k+	c #111112",
"l+	c #151715",
"m+	c #090F09",
"n+	c #071307",
"o+	c #0C0E0B",
"p+	c #171716",
"q+	c #0A0E0C",
"r+	c #1D1D1D",
". . . . . . . . . + @ # . . . . . . . . ",
". . . . . . . . $ % & * @ . . # . . . . ",
". . . . . . . = - ; > , ' ) ! ~ { = . . ",
". . # ] ^ / ( _ : < [ } | 1 2 3 4 5 6 . ",
". . 7 8 9 0 a b c d e f g h i j k l m . ",
". . $ n o p q r s t u v w x y z A B C . ",
". . D E F G H I J K L M N O P Q R ) # . ",
". + S T U V W X Y Z `  ...+.@.#.) # . . ",
". $.%.&.*.=.Y -.;.>.,.'.).!.~.{.].^.. . ",
". + /.(._.e f :.<.[.}.|.1.2.3.4.5.{ 6 . ",
". . 6.7.8.9.0.a.b.c.d.e.f.< g.H h.i.j.k.",
". + l.m.n.o.k p.q.r.s.t.u.v.w.x.y.z.A.B.",
". C.D.E.F.H h.G.H.I.J.K.L.M.N.O.P.Q.R.S.",
". T.U.V.W.X.Y.Z.`. +.+++@+4.#+$+%+C S.. ",
". &+*+=+-+;+>+,+'+)+!+~+{+j H ]+^+B.. . ",
". # D /+(+_+:+<+e [+}+|+1+2+3+4+5+6+. . ",
". . . k.k.7+8+9+0+a+D b+c+d+e+M.f+C . . ",
". . . . . g+h+i+j+k+C . l+m+n+o+p+# . . ",
". . . . . + b+q+D ) # . . k.r+r+# . . . ",
". . . . . . # k.k.. . . . . . . . . . . ",
". . . . . . . . . . . . . . . . . . . . ",
". . . . . . . . . . . . . . . . . . . . ",
". . . . . . . . . . . . . . . . . . . . ",
". . . . . . . . . . . . . . . . . . . . "};
