/* XPM */
static char * regmsg_xpm[] = {
"20 24 247 2",
"  	c None",
". 	c #222224",
"+ 	c #1E1E1E",
"@ 	c #1C1C1C",
"# 	c #212122",
"$ 	c #121312",
"% 	c #103F11",
"& 	c #1A621B",
"* 	c #071708",
"= 	c #1D1D1E",
"- 	c #09320A",
"; 	c #9AED9A",
"> 	c #58FC58",
", 	c #029B04",
"' 	c #0A0B09",
") 	c #1A1A19",
"! 	c #0A1309",
"~ 	c #0A250A",
"{ 	c #0C0F0D",
"] 	c #10150F",
"^ 	c #062407",
"/ 	c #091D09",
"( 	c #141615",
"_ 	c #101210",
": 	c #46A646",
"< 	c #DCFEDC",
"[ 	c #1EFE20",
"} 	c #02F504",
"| 	c #041606",
"1 	c #0D2C0D",
"2 	c #7FC37F",
"3 	c #74F676",
"4 	c #039F04",
"5 	c #0A0E09",
"6 	c #1E1E1D",
"7 	c #181917",
"8 	c #1D5F1E",
"9 	c #AEF2AE",
"0 	c #80E080",
"a 	c #055B06",
"b 	c #031904",
"c 	c #98DF9A",
"d 	c #D2FED2",
"e 	c #08FE0A",
"f 	c #02FB04",
"g 	c #063607",
"h 	c #7FC980",
"i 	c #8AFE8A",
"j 	c #0AFE0C",
"k 	c #02CD04",
"l 	c #060E07",
"m 	c #1A1A18",
"n 	c #52A854",
"o 	c #EFFEF0",
"p 	c #54FE54",
"q 	c #02F104",
"r 	c #024B04",
"s 	c #88E389",
"t 	c #DEFEDE",
"u 	c #1BFE1C",
"v 	c #02B904",
"w 	c #397E3A",
"x 	c #A8FEA8",
"y 	c #11FE12",
"z 	c #02D304",
"A 	c #032A04",
"B 	c #0E0F0D",
"C 	c #1B1B19",
"D 	c #131413",
"E 	c #136214",
"F 	c #6FBC6F",
"G 	c #157F16",
"H 	c #017F02",
"I 	c #013802",
"J 	c #1E551E",
"K 	c #737F74",
"L 	c #237F24",
"M 	c #013702",
"N 	c #3E633E",
"O 	c #307F30",
"P 	c #017302",
"Q 	c #031A05",
"R 	c #0F1010",
"S 	c #0B270B",
"T 	c #2C632C",
"U 	c #0F390F",
"V 	c #544A1B",
"W 	c #C8AF3E",
"X 	c #CCAF3C",
"Y 	c #CBAC38",
"Z 	c #CAAA34",
"` 	c #CAA731",
" .	c #CBA42E",
"..	c #CAA12B",
"+.	c #C99D27",
"@.	c #876818",
"#.	c #0C0C0D",
"$.	c #171917",
"%.	c #2C7E2E",
"&.	c #DFFEE0",
"*.	c #5CAC5C",
"=.	c #191607",
"-.	c #A08B2F",
";.	c #F8D346",
">.	c #FED543",
",.	c #FDD23F",
"'.	c #FDCE3A",
").	c #FECB36",
"!.	c #FCC632",
"~.	c #C99C25",
"{.	c #281F06",
"].	c #051A05",
"^.	c #0D100D",
"/.	c #202021",
"(.	c #0C320B",
"_.	c #9AE79A",
":.	c #8AB18B",
"<.	c #6E5E1F",
"[.	c #8D7927",
"}.	c #A0872A",
"|.	c #F6CC3D",
"1.	c #FECE3B",
"2.	c #FEC832",
"3.	c #BD9223",
"4.	c #6E5211",
"5.	c #B0841B",
"6.	c #047C05",
"7.	c #027E04",
"8.	c #111511",
"9.	c #0C420E",
"0.	c #245C24",
"a.	c #6E5D1E",
"b.	c #372E0E",
"c.	c #907521",
"d.	c #FECB37",
"e.	c #B88F22",
"f.	c #241B05",
"g.	c #E4A922",
"h.	c #B08218",
"i.	c #048305",
"j.	c #02F904",
"k.	c #025E04",
"l.	c #0F100F",
"m.	c #202020",
"n.	c #082307",
"o.	c #519852",
"p.	c #49864A",
"q.	c #6E5C1C",
"r.	c #977E26",
"s.	c #937721",
"t.	c #977820",
"u.	c #5D4913",
"v.	c #5D4811",
"w.	c #886615",
"x.	c #9D7417",
"y.	c #785810",
"z.	c #B08015",
"A.	c #02EB04",
"B.	c #027604",
"C.	c #090A09",
"D.	c #1C1C1B",
"E.	c #151615",
"F.	c #318E32",
"G.	c #E5FEE6",
"H.	c #4EB14E",
"I.	c #151205",
"J.	c #8D7320",
"K.	c #EBBC33",
"L.	c #EEBB30",
"M.	c #C29522",
"N.	c #C2921F",
"O.	c #E2A822",
"P.	c #F3B221",
"Q.	c #B38115",
"R.	c #221903",
"S.	c #051905",
"T.	c #051C06",
"U.	c #090B09",
"V.	c #141513",
"W.	c #1F1F1F",
"X.	c #131414",
"Y.	c #39A73A",
"Z.	c #E7FEE8",
"`.	c #28BB28",
" +	c #061806",
".+	c #1F1D13",
"++	c #292415",
"@+	c #292414",
"#+	c #282313",
"$+	c #292314",
"%+	c #292213",
"&+	c #252012",
"*+	c #101010",
"=+	c #0E0E0F",
"-+	c #121311",
";+	c #1A1D1B",
">+	c #074B08",
",+	c #43B244",
"'+	c #167716",
")+	c #031B04",
"!+	c #08260A",
"~+	c #B3ECB3",
"{+	c #5FFE60",
"]+	c #02DF04",
"^+	c #020A04",
"/+	c #48AB47",
"(+	c #ACFEAC",
"_+	c #02FE04",
":+	c #02B204",
"<+	c #080F0A",
"[+	c #0C0D0C",
"}+	c #0E0F0E",
"|+	c #0A0F09",
"1+	c #478648",
"2+	c #A9FEAA",
"3+	c #028B04",
"4+	c #050E05",
"5+	c #0B4B0C",
"6+	c #B7F6B8",
"7+	c #72FE72",
"8+	c #06FE08",
"9+	c #02D504",
"0+	c #051706",
"a+	c #191917",
"b+	c #0E130F",
"c+	c #84BC84",
"d+	c #42FE44",
"e+	c #04D206",
"f+	c #041706",
"g+	c #0C130D",
"h+	c #175418",
"i+	c #83DA84",
"j+	c #2DED2E",
"k+	c #035604",
"l+	c #0B0D0B",
"m+	c #121811",
"n+	c #559356",
"o+	c #24A224",
"p+	c #052506",
"q+	c #111112",
"r+	c #151715",
"s+	c #090F09",
"t+	c #071307",
"u+	c #0C0E0B",
"v+	c #171716",
"w+	c #0A0E0C",
"x+	c #1D1D1D",
". . . . . . . . . + @ # . . . . . . . . ",
". . . . . . . . $ % & * @ . . # . . . . ",
". . . . . . . = - ; > , ' ) ! ~ { = . . ",
". . # ] ^ / ( _ : < [ } | 1 2 3 4 5 6 . ",
". . 7 8 9 0 a b c d e f g h i j k l m . ",
". . $ n o p q r s t u v w x y z A B C . ",
". . D E F G H I J K L M N O P Q R ) # . ",
". + S T U V W X Y Z `  ...+.@.#.) # . . ",
". $.%.&.*.=.-.;.>.,.'.).!.~.{.].^./.. . ",
". + (._.:.<.[.}.|.1.).2.3.4.5.6.7.{ 6 . ",
". . 8.9.0.a.>.b.c.d.2.e.f.g.h.i.j.k.l.m.",
". + n.o.p.q.r.s.t.u.v.w.x.y.z.6.A.B.C.D.",
". E.F.G.H.I.J.K.L.M.N.O.P.Q.R.S.T.U.V.W.",
". X.Y.Z.`. +.+++++@+#+$+%+&+*+=+-+C W.. ",
". ;+>+,+'+)+!+~+{+]+^+/+(+j _+:+<+D.. . ",
". # D [+}+|+1+2+e 3+4+5+6+7+8+9+0+a+. . ",
". . . m.m.b+c+d+e+f+D g+h+i+j+k+l+C . . ",
". . . . . m+n+o+p+q+C . r+s+t+u+v+# . . ",
". . . . . + g+w+D ) # . . m.x+x+# . . . ",
". . . . . . # m.m.. . . . . . . . . . . ",
". . . . . . . . . . . . . . . . . . . . ",
". . . . . . . . . . . . . . . . . . . . ",
". . . . . . . . . . . . . . . . . . . . ",
". . . . . . . . . . . . . . . . . . . . "};
