/* XPM */
static char * statusmask_xpm[] = {
"20 24 5 1",
" 	c None",
".	c #FFFFFF",
"+	c #7F7F7F",
"@	c #000000",
"#	c #BFBFBF",
"....................",
"....................",
"....................",
"....................",
"....................",
"....................",
"....................",
"....................",
"....................",
"....................",
"....................",
"....................",
"....................",
"....................",
"....................",
"....................",
"....................",
"....................",
"....................",
"...++++++++++++++...",
"..+@@@@@@@@@@@@@@+..",
"..+@@@@@@@@@@@@@@+..",
"..+@@@@@@@@@@@@@@+..",
"..#@@@@@@@@@@@@@@#.."};
