/* XPM */
static char * sysmsg_xpm[] = {
"20 24 233 2",
"  	c None",
". 	c #222224",
"+ 	c #1E1E1E",
"@ 	c #1C1C1C",
"# 	c #212122",
"$ 	c #121312",
"% 	c #103F11",
"& 	c #1A621B",
"* 	c #071708",
"= 	c #1D1D1E",
"- 	c #09320A",
"; 	c #9AED9A",
"> 	c #58FC58",
", 	c #029B04",
"' 	c #0A0B09",
") 	c #1A1A19",
"! 	c #0A1309",
"~ 	c #0A250A",
"{ 	c #0C0F0D",
"] 	c #10150F",
"^ 	c #062407",
"/ 	c #091D09",
"( 	c #141615",
"_ 	c #101210",
": 	c #46A646",
"< 	c #DCFEDC",
"[ 	c #1CDD1D",
"} 	c #01CE03",
"| 	c #041606",
"1 	c #0D2C0D",
"2 	c #7FC37F",
"3 	c #74F676",
"4 	c #039F04",
"5 	c #0A0E09",
"6 	c #1E1E1D",
"7 	c #181917",
"8 	c #1D5F1E",
"9 	c #AEF2AE",
"0 	c #80E080",
"a 	c #055B06",
"b 	c #031904",
"c 	c #8ED490",
"d 	c #4E4542",
"e 	c #780700",
"f 	c #9B0000",
"g 	c #130E02",
"h 	c #7FC980",
"i 	c #8AFE8A",
"j 	c #0AFE0C",
"k 	c #02CD04",
"l 	c #060E07",
"m 	c #1A1A18",
"n 	c #52A854",
"o 	c #EFFEF0",
"p 	c #54FE54",
"q 	c #02F104",
"r 	c #024B04",
"s 	c #2B612B",
"t 	c #AD0A0A",
"u 	c #FF0000",
"v 	c #420C06",
"w 	c #A8FEA8",
"x 	c #11FE12",
"y 	c #02D304",
"z 	c #032A04",
"A 	c #0E0F0D",
"B 	c #1B1B19",
"C 	c #131413",
"D 	c #136214",
"E 	c #79DB7A",
"F 	c #1DFA1E",
"G 	c #02FE04",
"H 	c #018503",
"I 	c #3E0300",
"J 	c #FB0000",
"K 	c #40281F",
"L 	c #49FA4A",
"M 	c #02AC04",
"N 	c #041A06",
"O 	c #0F1010",
"P 	c #0B270B",
"Q 	c #2C632C",
"R 	c #104D11",
"S 	c #026804",
"T 	c #02D704",
"U 	c #01A702",
"V 	c #910200",
"W 	c #133313",
"X 	c #08560A",
"Y 	c #020B04",
"Z 	c #0E0F0F",
"` 	c #171917",
" .	c #2C7E2E",
"..	c #DFFEE0",
"+.	c #65F366",
"@.	c #02A904",
"#.	c #024304",
"$.	c #012B02",
"%.	c #CF0000",
"&.	c #8F0000",
"*.	c #0F4C10",
"=.	c #52B852",
"-.	c #17A018",
";.	c #034D04",
">.	c #0D100D",
",.	c #202021",
"'.	c #0C320B",
").	c #9AE79A",
"!.	c #B0FEB2",
"~.	c #08FE0A",
"{.	c #02FB04",
"].	c #016002",
"^.	c #CE0000",
"/.	c #F70000",
"(.	c #2B1100",
"_.	c #498849",
":.	c #EBFEEC",
"<.	c #31FE32",
"[.	c #02F704",
"}.	c #027E04",
"|.	c #111511",
"1.	c #0C420E",
"2.	c #338334",
"3.	c #068108",
"4.	c #028904",
"5.	c #013902",
"6.	c #A30000",
"7.	c #780200",
"8.	c #676803",
"9.	c #378A38",
"0.	c #28FE2A",
"a.	c #02F904",
"b.	c #025E04",
"c.	c #0F100F",
"d.	c #202020",
"e.	c #082307",
"f.	c #519852",
"g.	c #5CC15D",
"h.	c #04CC06",
"i.	c #02A504",
"j.	c #0C0800",
"k.	c #720300",
"l.	c #4A4B02",
"m.	c #535804",
"n.	c #053606",
"o.	c #24A526",
"p.	c #0AED0C",
"q.	c #02F304",
"r.	c #02EB04",
"s.	c #027604",
"t.	c #090A09",
"u.	c #1C1C1B",
"v.	c #151615",
"w.	c #318E32",
"x.	c #E5FEE6",
"y.	c #59FE58",
"z.	c #027304",
"A.	c #2A7029",
"B.	c #226922",
"C.	c #042204",
"D.	c #39893A",
"E.	c #5AD35A",
"F.	c #035604",
"G.	c #022804",
"H.	c #033304",
"I.	c #051C06",
"J.	c #090B09",
"K.	c #141513",
"L.	c #1F1F1F",
"M.	c #131414",
"N.	c #39A73A",
"O.	c #E7FEE8",
"P.	c #29FE2A",
"Q.	c #02E704",
"R.	c #036503",
"S.	c #092109",
"T.	c #4E5F4E",
"U.	c #3FE440",
"V.	c #023704",
"W.	c #82DE82",
"X.	c #90FE90",
"Y.	c #029E04",
"Z.	c #041206",
"`.	c #121311",
" +	c #1A1D1B",
".+	c #074B08",
"++	c #43B244",
"@+	c #167716",
"#+	c #031B04",
"$+	c #010402",
"%+	c #D00000",
"&+	c #BB0000",
"*+	c #075B01",
"=+	c #020A04",
"-+	c #48AB47",
";+	c #ACFEAC",
">+	c #02B204",
",+	c #080F0A",
"'+	c #0C0D0C",
")+	c #0E0F0E",
"!+	c #0A0F09",
"~+	c #180300",
"{+	c #061001",
"]+	c #050E05",
"^+	c #0B4B0C",
"/+	c #B7F6B8",
"(+	c #72FE72",
"_+	c #06FE08",
":+	c #02D504",
"<+	c #051706",
"[+	c #191917",
"}+	c #0E130F",
"|+	c #355835",
"1+	c #620000",
"2+	c #4D0200",
"3+	c #080404",
"4+	c #0C130D",
"5+	c #175418",
"6+	c #83DA84",
"7+	c #2DED2E",
"8+	c #0B0D0B",
"9+	c #121811",
"0+	c #559356",
"a+	c #1E771D",
"b+	c #041305",
"c+	c #111112",
"d+	c #151715",
"e+	c #090F09",
"f+	c #071307",
"g+	c #0C0E0B",
"h+	c #171716",
"i+	c #0A0E0C",
"j+	c #1D1D1D",
". . . . . . . . . + @ # . . . . . . . . ",
". . . . . . . . $ % & * @ . . # . . . . ",
". . . . . . . = - ; > , ' ) ! ~ { = . . ",
". . # ] ^ / ( _ : < [ } | 1 2 3 4 5 6 . ",
". . 7 8 9 0 a b c d e f g h i j k l m . ",
". . $ n o p q r s t u u v w x y z A B . ",
". . C D E F G H I J u u K L M N O ) # . ",
". + P Q R S T U V u u u W X Y Z ) # . . ",
". `  ...+.@.#.$.%.u u &.*.=.-.;.>.,.. . ",
". + '.).!.~.{.].^.u /.(._.:.<.[.}.{ 6 . ",
". . |.1.2.3.4.5.6.u 7.8.9.< 0.G a.b.c.d.",
". + e.f.g.h.k i.j.k.l.m.n.o.p.q.r.s.t.u.",
". v.w.x.y.G a.z.A.B.C.D.E.F.G.H.I.J.K.L.",
". M.N.O.P.Q.R.S.T.U.V.W.X.[.Y.Z.`.B L.. ",
".  +.+++@+#+$+%+&+*+=+-+;+j G >+,+u.. . ",
". # C '+)+!+~+u J {+]+^+/+(+_+:+<+[+. . ",
". . . d.d.}+|+1+2+3+C 4+5+6+7+F.8+B . . ",
". . . . . 9+0+a+b+c+B . d+e+f+g+h+# . . ",
". . . . . + 4+i+C ) # . . d.j+j+# . . . ",
". . . . . . # d.d.. . . . . . . . . . . ",
". . . . . . . . . . . . . . . . . . . . ",
". . . . . . . . . . . . . . . . . . . . ",
". . . . . . . . . . . . . . . . . . . . ",
". . . . . . . . . . . . . . . . . . . . "};
