/* XPM */
static char * nomsg_mask2_xpm[] = {
"40 48 3 1",
" 	c None",
"@	c #FFFFFF",
".	c #000000",
"                                        ",
"                                        ",
"                                        ",
"                                        ",
"                                        ",
"                                        ",
"                                        ",
"                                        ",
"                                        ",
"                                        ",
"                                        ",
"                                        ",
"                                        ",
"                                        ",
"                                        ",
"                                        ",
"                                        ",
"                                        ",
"                                        ",
"                                        ",
"                                        ",
"                                        ",
"                                        ",
"                                        ",
"                                        ",
"                                        ",
"                                        ",
"                                        ",
"                                        ",
"                                        ",
"                                        ",
"                                        ",
"                                        ",
"                                        ",
"                                        ",
"                                        ",
"                                        ",
"                                        ",
"                                        ",
"      ............................      ",
"     .@@@@@@@@@@@@@@@@@@@@@@@@@@@@.     ",
"     .@@@@@@@....@....@@...@@@@@@@.     ",
"     .@@@@@@@.@@@@.@@@@.@@@@@@@@@@.     ",
"     .@@@@@@@.@@@@.@@@@.@@@@@@@@@@.     ",
"     .@@@@@@@..@@@..@@@.@@@@@@@@@@.     ",
"     .@@@@@@@.@@@@.@@@@@...@@@@@@@.     ",
"     .@@@@@@@@@@@@@@@@@@@@@@@@@@@@.     ",
"      ............................      "};
