/* XPM */
static char * file_xpm[] = {
"16 16 7 1",
" 	c None",
".	c #000000",
"+	c #808000",
"@	c #FFFFFF",
"#	c #FFFF00",
"$	c #808080",
"%	c #008000",
"  .........     ",
"  .+@#@#@.@.    ",
"  .$#@#@#.#@.   ",
"  .+@#@#@.@#@.  ",
"  .$#@#@#.....  ",
"  .+@#@#@+$+$.  ",
"  .$#@#@#@#@#.  ",
"  .+@#@#@#@#@.  ",
"  .$#@#@#@#@#.  ",
"  .+@#@#@#@#@.  ",
"  .$#@#@#@#@#.  ",
"  .+@#@#@#@#@.  ",
"  .$#@#@#@#@#.  ",
"  .+@#@#@#@#@.  ",
"  .$+$%$+$+$+.  ",
"  ............  "};
