/* XPM */
static char * pixICQphoneActive_xpm[] = {
"9 11 3 1",
" 	c None",
".	c #000000",
"+	c #FFFF00",
"  ... ...",
" .++.    ",
".+++. .. ",
".+.+.    ",
".+..  .  ",
".+.      ",
".+.      ",
".+...    ",
".++++.   ",
" .+++.   ",
"  ...    "};
