/* XPM */
static char * pixPhone_xpm[] = {
"16 14 4 1",
" 	c None",
".	c #000000",
"+	c #FFFF00",
"@	c #FFFFFF",
"  ...........   ",
"  .+@+@+@+@+@.  ",
" .@@..@+@..@+@. ",
".@++.+...+.+@+@.",
".+@.+@+@+@+.+@+.",
"...+@.@.@.@+....",
"  .@.@.@.@.@+.  ",
" .@+@.@.@.@+@+. ",
" .+@.@.@.@.@+@. ",
".+@+@+@+@+@+@+@.",
".@+@+@+@+@+@+@+.",
".+@+@+@+@+@+@+@.",
".@+@+@+@+@+@+@+.",
"................"};
