/* XPM */
static char * pixSharedFiles_xpm[] = {
"12 11 6 1",
" 	c None",
".	c #000000",
"+	c #FFFFFF",
"@	c #EFD6C6",
"#	c #FFFFCC",
"$	c #000080",
"  ....      ",
" .++@@.     ",
"............",
".++++++++++.",
".+@@@@@@@#@.",
".+$$$@$@@$#.",
".+$@$@$$@$@.",
".+$@$@$@$$#.",
".+$$$@$#@$@.",
".+@@@@#@#@#.",
"............"};
