/* XPM */
static char * msnoffline_xpm[] = {
"15 16 39 1",
" 	c None",
".	c #BF6464",
"+	c #A54445",
"@	c #803535",
"#	c #985C5A",
"$	c #D59898",
"%	c #C36D6D",
"&	c #371717",
"*	c #7C3A3A",
"=	c #BA5656",
"-	c #E6B9B7",
";	c #E8C6C6",
">	c #CC8282",
",	c #AB4646",
"'	c #8D3A3A",
")	c #4D2020",
"!	c #BB5959",
"~	c #DFB1B1",
"{	c #DBA6A6",
"]	c #C57171",
"^	c #B64B4B",
"/	c #943D3D",
"(	c #914444",
"_	c #652A2A",
":	c #7A3232",
"<	c #5D2727",
"[	c #874847",
"}	c #CF8A8A",
"|	c #DDACAC",
"1	c #D18F8F",
"2	c #6E2D2D",
"3	c #CCBCB6",
"4	c #732F2F",
"5	c #CBB2AA",
"6	c #993F3F",
"7	c #ECD2D2",
"8	c #C97B7B",
"9	c #C2A19B",
"0	c #763131",
"      .+@#     ",
"     .$%+&*    ",
"    =-;>,')    ",
"    !~{]^+@    ",
"    /%%=!!/    ",
"    (_+,^^:    ",
"     <<:/@     ",
"      ^^'[     ",
"     }|1.2[    ",
"   3>|-1.+<4   ",
"  5;1;~}.,@62  ",
"  ;{>7~>.^@6^) ",
" {{+{;{8.^64]' ",
" {.6~;1].^+:,%@",
"9]^^{|>].^,@'8/",
"''20++6/'@_<</0"};
