/* XPM */
static char * private_xpm[] = {
"10 13 6 1",
" 	c None",
".	c #DDDDDD",
"+	c #878787",
"@	c #C5DBC5",
"#	c #8DD38D",
"$	c #729972",
"   .      ",
"   .+     ",
"  . +     ",
"  .+      ",
"  .+  @@@ ",
"  .+ @.##$",
" . + @###$",
" .+  @###$",
" .+   $$$ ",
" .+       ",
". +       ",
" +......  ",
"  +++++++ "};
