/* XPM */
static char * MenuButtonDown_xpm[] = {
"51 21 82 1",
" 	c None",
".	c #000000",
"+	c #151515",
"@	c #161616",
"#	c #171717",
"$	c #181818",
"%	c #191919",
"&	c #1A1A1A",
"*	c #1B1B1B",
"=	c #1C1C1C",
"-	c #1D1D1D",
";	c #1E1E1E",
">	c #1F1F1F",
",	c #202020",
"'	c #212121",
")	c #222222",
"!	c #232323",
"~	c #242424",
"{	c #252525",
"]	c #262626",
"^	c #272727",
"/	c #282828",
"(	c #292929",
"_	c #2A2A2A",
":	c #2B2B2B",
"<	c #2C2C2C",
"[	c #2D2D2D",
"}	c #2E2E2E",
"|	c #2F2F2F",
"1	c #303030",
"2	c #313131",
"3	c #323232",
"4	c #333333",
"5	c #343434",
"6	c #353535",
"7	c #363636",
"8	c #373737",
"9	c #383838",
"0	c #131313",
"a	c #3C3C3C",
"b	c #4B4B4B",
"c	c #818181",
"d	c #676767",
"e	c #F6F6F6",
"f	c #DEDEDE",
"g	c #7B7B7B",
"h	c #BCBCBC",
"i	c #B8B8B8",
"j	c #D4D4D4",
"k	c #464646",
"l	c #B2B2B2",
"m	c #0F0F0F",
"n	c #6A6A6A",
"o	c #7E7E7E",
"p	c #3F3F3F",
"q	c #787878",
"r	c #C3C3C3",
"s	c #474747",
"t	c #424242",
"u	c #0A0A0A",
"v	c #444444",
"w	c #D2D2D2",
"x	c #B5B5B5",
"y	c #979797",
"z	c #CACACA",
"A	c #484848",
"B	c #5C5C5C",
"C	c #838383",
"D	c #040404",
"E	c #4E4E4E",
"F	c #505050",
"G	c #545454",
"H	c #3A3A3A",
"I	c #3B3B3B",
"J	c #3D3D3D",
"K	c #3E3E3E",
"L	c #404040",
"M	c #414141",
"N	c #434343",
"O	c #454545",
"P	c #494949",
"Q	c #4A4A4A",
"...................................................",
".++@##$%&**=--;>,,')!!~{]^^/((_:<[[}|1123445677899.",
".0}}}}}}}}}}}}}}}}}}}}}}}}}}}}}}}}[[[[[[[[[[}}}}}5.",
".+}}}}}}}}}}}}}}}}}}}}}}}}}}}}}}}}}}[[[[[[[[[[}}}a.",
".#}}}}}}}}}}}}}}}}}}}}}}}}}}}}}}}}}}}}}}}}}}}[}}}6.",
".&}}}}}bcccccccccd}}dccccccd}ccccccb}bcc[[bcc[}}}9.",
".=}}}}}ceeeeeeeeefg}heeeeeei!eeeeeejkcee;[cee;}}}a.",
".;}}}}}cefffffffffl;heffffflmeffffffnoef.[cef.}}}p.",
".,}}}}}cef..efd.lflmhel.....mefd..efdqef.[cef.}}}p.",
".!}}}}}cef.}efd;hflmhelm}}}}}efd;}efdqef.[cef.}}}p.",
".{}}}}}cef.}efd;hflmheeeeefh}efd;}efdqef.[cef.}}}p.",
".^}}}}}cef.}efd;hflmheffffflmefd;}efdqef.[cef.}}}p.",
".(}}}}}cef.}efd;hflmherddddsmefd;}efdqef.[cef.}}}t.",
".:}}}}}cef.}efd;hflmhelu;;;;!efd;}efdqef.[cef.}}}v.",
".[}}}}}cef.}efd;hflmhewxhhhy}efd;}efdqeflhzff.}}}A.",
".1}}}}}cef.}efd;hflmhefffffx%efd;}efdBefffffw.}}}b.",
".3}}}}}dil.}hls;yxCmyxlllllCmhls;}hls;glllll{D}}}E.",
".5}}}}}}!mm}}mm!}%m%}%mmmmmm%}mm!}}mm![;mmmmm/}}}F.",
".7}}}}}}}}}}}}}}}}}}}}}}}}}}}}}}}[[[[[[[[[[}}}}}}G.",
".9<15822345678999999999999999HHIaJKppLMtNvOkksAPQb.",
"..................................................."};
