/* XPM */
static const char * pstn_xpm[] = {
"15 13 7 1",
" 	c None",
".	c #000000",
"+	c #FFFFFF",
"@	c #FFFF00",
"#	c #808080",
"$	c #808000",
"%	c #00FF00",
"  ..........   ",
" .+@#@@@@#$$.  ",
".+@@@....@@$$. ",
".+@@@.##.@@@$..",
".....@+@$......",
"  .+@+@++$$.  .",
" .+@+@..@+$$. .",
".+@+@.@%.+@$$..",
".++@+.%%.@+$$. ",
".+@+@+..@+@$$. ",
".++@+@+@+@+$$. ",
".+@+@+@+@+$$$. ",
"$............$ "};
