/* XPM */
static char * itemCollapsed_xpm[] = {
"15 14 18 1",
" 	c None",
".	c #297BCE",
"+	c #B9DDFA",
"@	c #AFD6F7",
"#	c #A3CEF3",
"$	c #A5CFF4",
"%	c #99C7F0",
"&	c #8DBFEC",
"*	c #9AC7F0",
"=	c #8EBFED",
"-	c #83B7E9",
";	c #77AFE5",
">	c #90C0ED",
",	c #84B8E9",
"'	c #78B0E6",
")	c #85B9EA",
"!	c #7AB2E6",
"~	c #7BB3E7",
"               ",
"               ",
"               ",
"       .       ",
"       ..      ",
"       .+.     ",
"       .@#.    ",
"       .$%&.   ",
"       .*=-;.  ",
"       .>,'.   ",
"       .)!.    ",
"       .~.     ",
"       ..      ",
"       .       "};
