/* XPM */
static char * pixCellular_xpm[] = {
"16 16 32 1",
" 	c None",
".	c #0069C4",
"+	c #B9DCFD",
"@	c #AAD2F8",
"#	c #9FC9F4",
"$	c #8DBEEE",
"%	c #C7E6FF",
"&	c #96C3F1",
"*	c #87BAEC",
"=	c #79B0E7",
"-	c #6AA7E2",
";	c #87BBED",
">	c #79B1E8",
",	c #5F9EDE",
"'	c #7CB2E8",
")	c #6DA8E3",
"!	c #5FA0DF",
"~	c #5096DA",
"{	c #70AAE4",
"]	c #62A0DF",
"^	c #5397DB",
"/	c #458DD6",
"(	c #62A1E0",
"_	c #5699DB",
":	c #478FD6",
"<	c #3985D1",
"[	c #4790D7",
"}	c #3986D2",
"|	c #2A7CCD",
"1	c #3C88D3",
"2	c #2D7ECE",
"3	c #2076CA",
"          .     ",
"          .     ",
"          .     ",
"          .     ",
"      .....     ",
"     .+@#$.     ",
"     .@%%%.     ",
"     .%%%%.     ",
"     .&*=-.     ",
"     .;>-,.     ",
"     .')!~.     ",
"     .{]^/.     ",
"     .(_:<.     ",
"     ._[}|.     ",
"     .[123.     ",
"      ....      "};
