/* XPM */
static char * pixCustomAR_xpm[] = {
"16 16 60 1",
" 	c None",
".	c #0069C4",
"+	c #C7E6FF",
"@	c #C1E2FD",
"#	c #C0E1FD",
"$	c #B9DDFA",
"%	c #68A6E0",
"&	c #B9DCFA",
"*	c #B2D7F8",
"=	c #B8DCFA",
"-	c #B1D7F8",
";	c #AAD2F6",
">	c #A3CEF3",
",	c #C5E5FE",
"'	c #BEE0FC",
")	c #B7DBFA",
"!	c #B0D7F7",
"~	c #AAD2F5",
"{	c #A3CDF3",
"]	c #9CC9F1",
"^	c #95C4EF",
"/	c #8EBFED",
"(	c #87BAEA",
"_	c #B7DBF9",
":	c #B0D6F7",
"<	c #A9D1F5",
"[	c #A2CDF3",
"}	c #9BC8F1",
"|	c #94C3EF",
"1	c #8DBFEC",
"2	c #86BAEA",
"3	c #7FB5E8",
"4	c #AFD6F7",
"5	c #A8D1F5",
"6	c #A1CCF3",
"7	c #9AC8F0",
"8	c #93C3EE",
"9	c #8DBEEC",
"0	c #A1CCF2",
"a	c #9AC7F0",
"b	c #8CBEEC",
"c	c #85B9EA",
"d	c #7EB4E7",
"e	c #99C7F0",
"f	c #92C2EE",
"g	c #8BBDEC",
"h	c #84B9E9",
"i	c #7DB4E7",
"j	c #76AFE5",
"k	c #98C6F0",
"l	c #6FAAE3",
"m	c #91C1EE",
"n	c #8ABDEB",
"o	c #67A5E0",
"p	c #60A0DE",
"q	c #599CDC",
"r	c #90C1ED",
"s	c #89BCEB",
"t	c #599BDC",
"u	c #5297D9",
"       ..       ",
"      .++.      ",
"      .+@.      ",
"      .#$.      ",
"     .%&*%.     ",
" .....=-;>..... ",
" .%,')!~{]^/(%. ",
" ..'_:<[}|123.. ",
"   .45678923.   ",
"   .%0a8bcd%.   ",
"   .%efghij%.   ",
"   .kfg..jl%.   ",
"  .%mn.  .opq.  ",
"  .rs.    .tu.  ",
"  ...      ...  ",
"                "};
