/* XPM */
static char * pixGPGKeyDisabled_xpm[] = {
"20 16 62 1",
" 	c None",
".	c #CE0000",
"+	c #FA7474",
"@	c #FA6968",
"#	c #F95E5E",
"$	c #F95352",
"%	c #B0203C",
"&	c #FFFFFF",
"*	c #F95253",
"=	c #D4D4D5",
"-	c #F83C3B",
";	c #0069C4",
">	c #FA6969",
",	c #F95D5D",
"'	c #E3E3E2",
")	c #D4D5D4",
"!	c #F83C3C",
"~	c #F73130",
"{	c #B7DBFA",
"]	c #79B0E7",
"^	c #F95353",
"/	c #D5D5D5",
"(	c #C6C6C6",
"_	c #F83131",
":	c #F82626",
"<	c #F95252",
"[	c #D5D4D4",
"}	c #AAAAAA",
"|	c #F71A1A",
"1	c #F83B3C",
"2	c #F83030",
"3	c #F82525",
"4	c #F71A1B",
"5	c #B7DAFA",
"6	c #B1D7F9",
"7	c #ACD3F7",
"8	c #A6D0F5",
"9	c #A1CCF3",
"0	c #9BC9F2",
"a	c #82B6EA",
"b	c #B6D9F9",
"c	c #B0D6F8",
"d	c #ABD2F6",
"e	c #A5CFF4",
"f	c #A0CBF3",
"g	c #9BC8F1",
"h	c #96C3EF",
"i	c #90C0EE",
"j	c #8ABCED",
"k	c #85B9EB",
"l	c #80B5E9",
"m	c #B4D9F9",
"n	c #AFD5F8",
"o	c #AAD2F6",
"p	c #A4CDF5",
"q	c #9ECAF2",
"r	c #99C6F1",
"s	c #94C3EF",
"t	c #8EBFEE",
"u	c #89BBEC",
"v	c #84B8EB",
"w	c #B3D9F8",
"              ....  ",
"             .+@#$. ",
"            %+&#*=-.",
"  ;;;;;;    .>,')!~.",
" ;;{{{{];   .,^/(_:.",
";;{{{{{{];;;%<[!_}|.",
";{{{{{{{{]]]].1234.;",
";{];]{{{567890....a;",
";{; ;{{{bcdefghijkl;",
";{];]{{{mnopqrstuv;;",
";{{{{{{{w];];];];]  ",
";;{{{{{{;; ; ; ; ;  ",
" ;;{{{{;            ",
"   ;;;;             ",
"                    ",
"                    "};
