/* XPM */
static char * pixGPGKeyEnabled_xpm[] = {
"20 16 39 1",
" 	c None",
".	c #009100",
"+	c #00FF00",
"@	c #00DE00",
"#	c #0069C4",
"$	c #B7DBFA",
"%	c #79B0E7",
"&	c #B7DAFA",
"*	c #B1D7F9",
"=	c #ACD3F7",
"-	c #A6D0F5",
";	c #A1CCF3",
">	c #9BC9F2",
",	c #91C0EE",
"'	c #8CBEED",
")	c #87B9EB",
"!	c #82B6EA",
"~	c #B6D9F9",
"{	c #B0D6F8",
"]	c #ABD2F6",
"^	c #A5CFF4",
"/	c #A0CBF3",
"(	c #9BC8F1",
"_	c #96C3EF",
":	c #90C0EE",
"<	c #8ABCED",
"[	c #85B9EB",
"}	c #80B5E9",
"|	c #B4D9F9",
"1	c #AFD5F8",
"2	c #AAD2F6",
"3	c #A4CDF5",
"4	c #9ECAF2",
"5	c #99C6F1",
"6	c #94C3EF",
"7	c #8EBFEE",
"8	c #89BBEC",
"9	c #84B8EB",
"0	c #B3D9F8",
"                  ..",
"                 .+.",
"                .+@.",
"  ######    .. .+@. ",
" ##$$$$%#   .+.+@.  ",
"##$$$$$$%###.@+@.## ",
"#$$$$$$$$%%%%.@.%%%#",
"#$%#%$$$&*=-;>.,')!#",
"#$# #$$$~{]^/(_:<[}#",
"#$%#%$$$|123456789##",
"#$$$$$$$0%#%#%#%#%  ",
"##$$$$$$## # # # #  ",
" ##$$$$#            ",
"   ####             ",
"                    ",
"                    "};
