/* XPM */
static char * pixICQphoneActive_xpm[] = {
"13 16 21 1",
" 	c None",
".	c #0069C4",
"+	c #3D8DD5",
"@	c #3D8ED5",
"#	c #4D93D9",
"$	c #569ADC",
"%	c #589ADD",
"&	c #60A0DF",
"*	c #61A1E0",
"=	c #6BA8E3",
"-	c #74AEE6",
";	c #7AB2E6",
">	c #7FB6EA",
",	c #8BBDEE",
"'	c #96C5F1",
")	c #A2CDF5",
"!	c #A5CFF6",
"~	c #ADD4F9",
"{	c #AFD6FA",
"]	c #B1D7FB",
"^	c #B8DCFD",
"             ",
"             ",
"    ... .@;  ",
"   .^^.      ",
"  .^^]. .+   ",
"  .^{!.      ",
"  .~..  .    ",
"  .).        ",
"  .'.        ",
"  .,.        ",
"  .>...      ",
"  .-=*%.     ",
"   .&$#.     ",
"    ...      ",
"             ",
"             "};
