/* XPM */
static char * pixICQphoneBusy_xpm[] = {
"13 16 46 1",
" 	c None",
".	c #CE0000",
"+	c #B0203C",
"@	c #0069C4",
"#	c #F71A1A",
"$	c #F71A1B",
"%	c #F82525",
"&	c #F82626",
"*	c #F83030",
"=	c #F73130",
"-	c #F83131",
";	c #F83B3C",
">	c #F83C3B",
",	c #F83C3C",
"'	c #3D8DD5",
")	c #3D8ED5",
"!	c #F95252",
"~	c #F95253",
"{	c #F95352",
"]	c #F95353",
"^	c #F95D5D",
"/	c #F95E5E",
"(	c #60A0DF",
"_	c #FA6968",
":	c #FA6969",
"<	c #6BA8E3",
"[	c #FA7474",
"}	c #74AEE6",
"|	c #7AB2E6",
"1	c #AAAAAA",
"2	c #7FB6EA",
"3	c #8BBDEE",
"4	c #96C5F1",
"5	c #A2CDF5",
"6	c #C6C6C6",
"7	c #A5CFF6",
"8	c #ADD4F9",
"9	c #AFD6FA",
"0	c #B1D7FB",
"a	c #D4D4D5",
"b	c #D5D4D4",
"c	c #D4D5D4",
"d	c #B8DCFD",
"e	c #D5D5D5",
"f	c #E3E3E2",
"g	c #FFFFFF",
"             ",
"             ",
"    @@@ @)|  ",
"   @dd@      ",
"  @dd0@ @'   ",
"  @d97@      ",
"  @8@@  @    ",
"  @5@        ",
"  @4@  ....  ",
"  @3@ .[_/{. ",
"  @2@+[g/~a>.",
"  @}<.:^fc,=.",
"   @(.^]e6-&.",
"    @+!b,-1#.",
"      .;*%$. ",
"       ....  "};
