/* XPM */
static char * pixInvisible_xpm[] = {
"16 14 4 1",
" 	c None",
".	c #0069C4",
"+	c #BDDEFF",
"@	c #297BCE",
"                ",
"                ",
"                ",
"                ",
"    .......     ",
"  ...........   ",
"...++@@@@@++... ",
".++++@@+@@++++. ",
".++++@@+@@++++. ",
" .+++@@@@@+++.  ",
" ...++@@@++...  ",
"    .......     ",
"                ",
"                "};
