/* XPM */
static char * pixPhoneFollowMeBusy_xpm[] = {
"12 16 61 1",
" 	c None",
".	c #CE0000",
"+	c #8E203C",
"@	c #CF0A0A",
"#	c #793666",
"$	c #0069C4",
"%	c #F71A1A",
"&	c #F71A1B",
"*	c #F82525",
"=	c #F82626",
"-	c #F83030",
";	c #F73130",
">	c #F83131",
",	c #F83B3C",
"'	c #F83C3B",
")	c #F83C3C",
"!	c #458ED6",
"~	c #4A91D7",
"{	c #F95252",
"]	c #F95253",
"^	c #F95352",
"/	c #F95353",
"(	c #4F94D9",
"_	c #F95D5D",
":	c #F95E5E",
"<	c #5C9EDE",
"[	c #FA6968",
"}	c #FA6969",
"|	c #69A7E3",
"1	c #FA7474",
"2	c #6EAAE4",
"3	c #77B0E7",
"4	c #7CB3E9",
"5	c #AAAAAA",
"6	c #85BAEC",
"7	c #8ABCED",
"8	c #8ABDED",
"9	c #8FC0EF",
"0	c #93C3F0",
"a	c #95C4F1",
"b	c #96C4F1",
"c	c #95C5F1",
"d	c #98C6F2",
"e	c #9CC9F4",
"f	c #A1CCF5",
"g	c #A1CDF5",
"h	c #C6C6C6",
"i	c #A6CFF7",
"j	c #AAD2F8",
"k	c #ADD4F9",
"l	c #ACD5F9",
"m	c #ADD5F9",
"n	c #AFD6F9",
"o	c #B3D9FB",
"p	c #D4D4D5",
"q	c #D5D4D4",
"r	c #D4D5D4",
"s	c #B8DCFD",
"t	c #D5D5D5",
"u	c #E3E3E2",
"v	c #FFFFFF",
"            ",
"            ",
"            ",
"   $$$$$$   ",
" $$oid742$$ ",
"$sng063|<(!$",
"$je9$$$$~!!$",
"$d8$skfc$!!$",
" $$sk$+..+$ ",
" $sl$@1[:^. ",
" $mf#1v:]p'.",
" $fb.}_ur);.",
" $a8._/th>=.",
"  $$#{q)>5%.",
"     .,-*&. ",
"      ....  "};
