/* XPM */
static char * pixSharedFiles_xpm[] = {
"12 16 35 1",
" 	c None",
".	c #000080",
"+	c #0069C4",
"@	c #2075CA",
"#	c #4B92D7",
"$	c #4D93D8",
"%	c #5699DA",
"&	c #5E9EDD",
"*	c #64A3DF",
"=	c #65A4DF",
"-	c #68A6E1",
";	c #6EAAE2",
">	c #6FAAE3",
",	c #70ABE3",
"'	c #77B0E5",
")	c #79B1E6",
"!	c #80B6E8",
"~	c #81B7E8",
"{	c #84B8E9",
"]	c #88BBEB",
"^	c #89BCEB",
"/	c #8BBEEC",
"(	c #90C1ED",
"_	c #92C2EE",
":	c #93C3EE",
"<	c #9AC8F0",
"[	c #9AC8F1",
"}	c #9CC9F1",
"|	c #A3CEF4",
"1	c #A4CEF4",
"2	c #A5CFF4",
"3	c #ABD3F6",
"4	c #ADD4F7",
"5	c #ADD5F7",
"6	c #B5DAFA",
"            ",
"            ",
"            ",
"+++++++++   ",
"+3333333##  ",
"+364|[(3#(# ",
"+351<_]3####",
"+32}:^!';*@+",
"+3...~.>=.@+",
"+3./.)..&.@+",
"+3.{.,.&..@+",
"+3...-.%$.@+",
"+@@@@@@@@@@+",
"++++++++++++",
"            ",
"            "};
