/* XPM */
static char * b1_xpm[] = {
"55 17 198 2",
"  	c None",
". 	c #BCBCBC",
"+ 	c #AFAFAF",
"@ 	c #AEAEAE",
"# 	c #ADADAD",
"$ 	c #ACACAC",
"% 	c #AAAAAA",
"& 	c #A9A9A9",
"* 	c #A8A8A8",
"= 	c #A7A7A7",
"- 	c #A5A5A5",
"; 	c #A3A3A3",
"> 	c #A2A2A2",
", 	c #A0A0A0",
"' 	c #9F9F9F",
") 	c #9E9E9E",
"! 	c #9D9D9D",
"~ 	c #9B9B9B",
"{ 	c #9A9A9A",
"] 	c #999999",
"^ 	c #989898",
"/ 	c #969696",
"( 	c #959595",
"_ 	c #949494",
": 	c #939393",
"< 	c #929292",
"[ 	c #909090",
"} 	c #8F8F8F",
"| 	c #8E8E8E",
"1 	c #8D8D8D",
"2 	c #8B8B8B",
"3 	c #8A8A8A",
"4 	c #898989",
"5 	c #888888",
"6 	c #868686",
"7 	c #848484",
"8 	c #838383",
"9 	c #818181",
"0 	c #7F7F7F",
"a 	c #7E7E7E",
"b 	c #7C7C7C",
"c 	c #4B4B4B",
"d 	c #FFFFFF",
"e 	c #FEFEFE",
"f 	c #FCFCFC",
"g 	c #F9F9F9",
"h 	c #F8F8F8",
"i 	c #F5F5F5",
"j 	c #F3F3F3",
"k 	c #F1F1F1",
"l 	c #EFEFEF",
"m 	c #ECECEC",
"n 	c #EBEBEB",
"o 	c #E8E8E8",
"p 	c #E6E6E6",
"q 	c #E3E3E3",
"r 	c #E1E1E1",
"s 	c #DFDFDF",
"t 	c #DDDDDD",
"u 	c #DADADA",
"v 	c #C0C0C0",
"w 	c #BEBEBE",
"x 	c #FDFDFD",
"y 	c #D5D5D5",
"z 	c #B4B4B4",
"A 	c #D1D1D1",
"B 	c #F7F7F7",
"C 	c #F4F4F4",
"D 	c #F0F0F0",
"E 	c #EEEEEE",
"F 	c #EAEAEA",
"G 	c #E5E5E5",
"H 	c #DEDEDE",
"I 	c #DBDBDB",
"J 	c #D9D9D9",
"K 	c #D6D6D6",
"L 	c #C8C8C8",
"M 	c #606060",
"N 	c #000000",
"O 	c #B0B0B0",
"P 	c #535353",
"Q 	c #525252",
"R 	c #F6F6F6",
"S 	c #EDEDED",
"T 	c #E7E7E7",
"U 	c #E2E2E2",
"V 	c #E0E0E0",
"W 	c #D4D4D4",
"X 	c #D2D2D2",
"Y 	c #D0D0D0",
"Z 	c #CECECE",
"` 	c #CCCCCC",
" .	c #CACACA",
"..	c #C9C9C9",
"+.	c #C6C6C6",
"@.	c #C4C4C4",
"#.	c #BDBDBD",
"$.	c #A6A6A6",
"%.	c #3B3B3B",
"&.	c #FBFBFB",
"*.	c #A1A1A1",
"=.	c #B5B5B5",
"-.	c #B3B3B3",
";.	c #E4E4E4",
">.	c #DCDCDC",
",.	c #D7D7D7",
"'.	c #CFCFCF",
").	c #CDCDCD",
"!.	c #C7C7C7",
"~.	c #C5C5C5",
"{.	c #C3C3C3",
"].	c #C2C2C2",
"^.	c #BBBBBB",
"/.	c #BABABA",
"(.	c #B9B9B9",
"_.	c #B7B7B7",
":.	c #B1B1B1",
"<.	c #A4A4A4",
"[.	c #2F2F2F",
"}.	c #8C8C8C",
"|.	c #434343",
"1.	c #424242",
"2.	c #585858",
"3.	c #555555",
"4.	c #3E3E3E",
"5.	c #3D3D3D",
"6.	c #7A7A7A",
"7.	c #ABABAB",
"8.	c #2D2D2D",
"9.	c #E9E9E9",
"0.	c #414141",
"a.	c #282828",
"b.	c #131313",
"c.	c #272727",
"d.	c #2C2C2C",
"e.	c #575757",
"f.	c #141414",
"g.	c #BFBFBF",
"h.	c #3C3C3C",
"i.	c #2B2B2B",
"j.	c #D8D8D8",
"k.	c #404040",
"l.	c #2A2A2A",
"m.	c #B2B2B2",
"n.	c #979797",
"o.	c #777777",
"p.	c #D3D3D3",
"q.	c #3F3F3F",
"r.	c #B6B6B6",
"s.	c #747474",
"t.	c #292929",
"u.	c #656565",
"v.	c #262626",
"w.	c #5C5C5C",
"x.	c #9C9C9C",
"y.	c #919191",
"z.	c #727272",
"A.	c #636363",
"B.	c #767676",
"C.	c #757575",
"D.	c #5F5F5F",
"E.	c #111111",
"F.	c #4A4A4A",
"G.	c #363636",
"H.	c #6F6F6F",
"I.	c #121212",
"J.	c #858585",
"K.	c #6A6A6A",
"L.	c #6D6D6D",
"M.	c #FAFAFA",
"N.	c #C1C1C1",
"O.	c #B8B8B8",
"P.	c #707070",
"Q.	c #6E6E6E",
"R.	c #878787",
"S.	c #797979",
"T.	c #828282",
"U.	c #808080",
"V.	c #676767",
"W.	c #252525",
"X.	c #7D7D7D",
"Y.	c #7B7B7B",
"Z.	c #787878",
"`.	c #6B6B6B",
" +	c #696969",
".+	c #686868",
"++	c #666666",
"@+	c #646464",
"#+	c #626262",
"$+	c #616161",
"%+	c #242424",
"&+	c #181818",
"*+	c #171717",
"=+	c #161616",
"-+	c #151515",
";+	c #101010",
">+	c #0F0F0F",
",+	c #030303",
". . . . . . . . + + + @ @ @ # $ % & * = - - ; > , ' ) ! ~ { ] ^ / ( _ : < [ } | 1 2 3 4 5 6 6 7 8 9 9 0 a b c ",
". d d d d d d d d d d d d d d d d d d d d d d d d d d d d d d d d d d d d e f g h i j k l m n o p q r s t u ~ ",
". d d d d d d d d d d d d d d v w x d d d d y z A d d d d d d d x f h B C j D E n F o G q r s H I J K y A L M ",
". d d d d d d d d d d d d d d N N O d d d d P N Q g R i j k l S n o T G U V s t u J y W X Y Z `  ...+.@.#.$.%.",
". d d d d d d d d d d e f &.g N N *.k l E n =.{ -.;.q s H >.u J ,.y X Y '.).`  .!.~.{.].v w ^./.(._.=.:.<.2 [.",
". d d d f k k D l S m F o p G N N _ H >.u J = }.<.X Y 5 |.1.2.O ~.{./ 3.4.4.5.6._.=.-.:.O @ $ 7.* = $., _ 0 8.",
". d d d h S F 9.p G q U V H >.N N | K W X Y |.N 1. .0.N N N N a = a.N b.%.c.N N + @ $ 7.* = - ; > , ) { } b d.",
". d d d R n T G ;.U V s t I u N N }.X A '.).1.N 0.e.N f./ g.* = h.N %.=.-.:.N N $ % & = - <.> , ) ! ~ / }.6.i.",
". d d d i o ;.U V H t I J j.K N N 3 Y Z `  .0.N k.l.N 0 w . ^.(.N N ' m.O @ N N & = $.<.> , ' ! ~ ] n.: 4 o.l.",
"z d d d k G V H t I J j.K W p.N N 5 `  ...!.k.N q.N N b ^.(._.r.N N O @ # n.N N - <.> , ' ) ~ { ^ / ( [ 6 s.t.",
"z d d &.l U t I u j.K y p.A '.N N 6 ..!.~.@.q.N 4.5.N u._.r.z m.v.N 6 $ % w.N N ; *.' ! x.{ ^ n.( : y.1 8 z.t.",
"z d d g m s u J ,.y p.A Y Z ` N N i.k.k.q.4.4.N 5.[ N N A.B.C.5 D.N E.F.G.N N N ' ) x.{ ] n.( : < [ | 4 0 H.c.",
"z x e i T >.K y p.A Y Z `  ...N N N N N N N 5.N h.r.o.I.N N N J.% F.N N E.K.N N x.~ ] n.( : < [ | 1 2 6 a L.c.",
"z M.&.k U W Z `  .L !.~.@.{.N.g.#.. /.O._.=.-.m.O @ # 7.P.Q.- <.; *., 2 x.~ N N ( : < [ | }.2 4 R.6 7 8 S.K.v.",
"z R R T '.w (.O.r.=.z :.O @ # $ % * $.- <.> *.' ! ! ~ { ^ / ( : < [ | 1 }.3 N N J.7 T.U.0 a b 6.S.o.B.C.s.V.W.",
"z j o +.= ~ { ] n./ _ : < y.} | 1 }.2 4 5 6 6 7 8 T.U.0 X.X.Y.6.Z.o.B.s.s.z.N N Q.L.`.`. +.+++u.@+#+$+D.M M %+",
"z 0.0.0.0.0.0.&+&+&+*+*+*+*+*+=+=+=+=+=+-+-+-+-+f.f.f.f.f.f.b.b.b.b.I.I.I.I.I.E.E.E.E.E.;+;+;+;+>+>+>+>+>+;+,+"};
