/* XPM */
static char * pixInvisible_xpm[] = {
"15 8 4 1",
" 	c None",
".	c #0069C4",
"+	c #BDDEFF",
"@	c #297BCE",
"    .......    ",
"  ...........  ",
"...++@@@@@++...",
".++++@@+@@++++.",
".++++@@+@@++++.",
" .+++@@@@@+++. ",
" ...++@@@++... ",
"    .......    "};
