/* XPM */
static char * msnonline_xpm[] = {
"16 16 121 2",
"  	c None",
". 	c #81A879",
"+ 	c #718D5C",
"@ 	c #59684B",
"# 	c #A2A59A",
"$ 	c #6EBA79",
"% 	c #C4DB91",
"& 	c #A6B17F",
"* 	c #6C7F69",
"= 	c #1B2F33",
"- 	c #6B6F71",
"; 	c #5BB68D",
"> 	c #B1F2BB",
", 	c #D0EFC1",
"' 	c #97B5A4",
") 	c #608191",
"! 	c #3F5A85",
"~ 	c #122857",
"{ 	c #60B596",
"] 	c #A7ECCB",
"^ 	c #A4DACF",
"/ 	c #76A5BE",
"( 	c #4976B9",
"_ 	c #375DB0",
": 	c #264892",
"< 	c #428E7B",
"[ 	c #76BCAF",
"} 	c #71ACBE",
"| 	c #4D8CC4",
"1 	c #3B73D8",
"2 	c #3768DE",
"3 	c #234EAF",
"4 	c #6B8983",
"5 	c #2B6667",
"6 	c #4A7F9C",
"7 	c #4070B0",
"8 	c #3969CE",
"9 	c #2B5DD2",
"0 	c #174394",
"a 	c #405155",
"b 	c #213C63",
"c 	c #284084",
"d 	c #2A4BA0",
"e 	c #1D3F9A",
"f 	c #649665",
"g 	c #769470",
"h 	c #52725E",
"i 	c #868E82",
"j 	c #83CF95",
"k 	c #C7EE9F",
"l 	c #B4CE91",
"m 	c #86A17D",
"n 	c #3D5950",
"o 	c #DDE7DF",
"p 	c #A3E2B0",
"q 	c #C9F1B8",
"r 	c #A6BF9D",
"s 	c #83A091",
"t 	c #5B7B83",
"u 	c #2B455F",
"v 	c #475B51",
"w 	c #C8E5CD",
"x 	c #87D3AC",
"y 	c #C8DDB4",
"z 	c #9DBEA7",
"A 	c #83A2A1",
"B 	c #5D8091",
"C 	c #3D5377",
"D 	c #446F95",
"E 	c #395763",
"F 	c #9FD2D8",
"G 	c #C9F3C8",
"H 	c #BFDCC0",
"I 	c #96B7AE",
"J 	c #7A9FA4",
"K 	c #5C829D",
"L 	c #3C577E",
"M 	c #455D98",
"N 	c #457FBD",
"O 	c #22374F",
"P 	c #9AE4AC",
"Q 	c #3F84AA",
"R 	c #AED4BF",
"S 	c #8FB4B2",
"T 	c #779DAC",
"U 	c #5C83A5",
"V 	c #416398",
"W 	c #2F4471",
"X 	c #5594E0",
"Y 	c #24549F",
"Z 	c #517CCE",
"` 	c #458A93",
" .	c #BFDFC9",
"..	c #98BFBC",
"+.	c #87ACB4",
"@.	c #7096AD",
"#.	c #5984AE",
"$.	c #4066A3",
"%.	c #30447D",
"&.	c #4975A7",
"*.	c #4B8CE6",
"=.	c #7BBCBE",
"-.	c #5EA97E",
";.	c #7FA5B5",
">.	c #6C97B2",
",.	c #5680B3",
"'.	c #4369AE",
").	c #2D478F",
"!.	c #45677E",
"~.	c #66A6DE",
"{.	c #406884",
"].	c #3E6B4D",
"^.	c #658579",
"/.	c #57727F",
"(.	c #4A6681",
"_.	c #3F6181",
":.	c #315484",
"<.	c #183978",
"[.	c #1D3167",
"}.	c #2E4152",
"|.	c #517980",
"            . + @ #             ",
"          $ % & * = -           ",
"        ; > , ' ) ! ~           ",
"        { ] ^ / ( _ :           ",
"        < [ } | 1 2 3           ",
"        4 5 6 7 8 9 0           ",
"          a b c d e             ",
"            f g h i             ",
"          j k l m n i           ",
"      o j p q r s t u v         ",
"    w q x q y z A B C D E       ",
"    > F x G H I J K L M N O     ",
"  P F Q P G R S T U V W X Y     ",
"  P Z ` p  ...+.@.#.$.%.&.*.L   ",
" .=.9 -.p R ..;.>.,.'.).!.~.d   ",
"h {.c ].^.^./.(._.:.<.[.}.|.c   "};
