/* XPM */
static char * sms_xpm[] = {
"16 16 9 1",
" 	c None",
".	c #0E0E0E",
"+	c #4A4A4A",
"@	c #323232",
"#	c #000000",
"$	c #FFFF00",
"%	c #FFFFFF",
"&	c #808080",
"*	c #C0C0C0",
"              . ",
"              . ",
"              . ",
"          +@... ",
".............#.+",
"#$%$%$%$%#%%%%#+",
"#%$%$%$%$#$$$$#+",
"#$%$%$%$%######+",
"#%$%$%$%$#%&%&#+",
"#$%&&$&&%#&%&%#+",
"#%$%$%$%$#%&%&#+",
"#$%&&&%&&#&%&%#+",
"#%$%$%$%$#%&%&#+",
"#$%$%$%$%#&%&%#+",
"##########*&&*#+",
"         ######+"};
