/* XPM */
static char * butMenuDown_xpm[] = {
"51 21 135 2",
"  	c None",
". 	c #000000",
"+ 	c #280F01",
"@ 	c #290F01",
"# 	c #2B0F02",
"$ 	c #2C1002",
"% 	c #2D1002",
"& 	c #2F1102",
"* 	c #301103",
"= 	c #311203",
"- 	c #331203",
"; 	c #341303",
"> 	c #351304",
", 	c #371404",
"' 	c #381404",
") 	c #391504",
"! 	c #3B1505",
"~ 	c #3C1605",
"{ 	c #3D1605",
"] 	c #3F1705",
"^ 	c #401806",
"/ 	c #411806",
"( 	c #431806",
"_ 	c #441906",
": 	c #451907",
"< 	c #471A07",
"[ 	c #481B07",
"} 	c #491B08",
"| 	c #4A1C08",
"1 	c #4C1C08",
"2 	c #4D1C08",
"3 	c #4E1D09",
"4 	c #501E09",
"5 	c #511E09",
"6 	c #521F09",
"7 	c #541F0A",
"8 	c #551F0A",
"9 	c #56200A",
"0 	c #58210A",
"a 	c #59210B",
"b 	c #5A210B",
"c 	c #5C220B",
"d 	c #5D230B",
"e 	c #5E230C",
"f 	c #60230C",
"g 	c #61240C",
"h 	c #62250C",
"i 	c #64250D",
"j 	c #65250D",
"k 	c #66260D",
"l 	c #67270D",
"m 	c #250D00",
"n 	c #5E1B03",
"o 	c #5D1B03",
"p 	c #572713",
"q 	c #5F2F1B",
"r 	c #61250D",
"s 	c #773B22",
"t 	c #A5755A",
"u 	c #8F593F",
"v 	c #763B22",
"w 	c #632810",
"x 	c #FFF3EC",
"y 	c #FDD8AE",
"z 	c #9A7159",
"A 	c #DBB493",
"B 	c #D4B293",
"C 	c #491502",
"D 	c #F2CEA9",
"E 	c #6D3821",
"F 	c #3E1202",
"G 	c #662C14",
"H 	c #C7AE93",
"I 	c #1F0901",
"J 	c #776758",
"K 	c #9F7359",
"L 	c #692F16",
"M 	c #726658",
"N 	c #FFF4ED",
"O 	c #947059",
"P 	c #DCBF9F",
"Q 	c #4F463D",
"R 	c #6C3219",
"S 	c #150600",
"T 	c #6E351C",
"U 	c #EECDA9",
"V 	c #CEB093",
"W 	c #B98C70",
"X 	c #E8C39F",
"Y 	c #71391F",
"Z 	c #340F01",
"` 	c #79533E",
" .	c #743C22",
"..	c #91816F",
"+.	c #292520",
"@.	c #0A0300",
"#.	c #773F25",
"$.	c #60240C",
"%.	c #481502",
"&.	c #521802",
"*.	c #794228",
"=.	c #7C462B",
"-.	c #501F0B",
";.	c #54230F",
">.	c #5A2B15",
",.	c #5E1F08",
"'.	c #5E2009",
").	c #5F210A",
"!.	c #60220B",
"~.	c #60230B",
"{.	c #62250D",
"].	c #63260E",
"^.	c #64270F",
"/.	c #642810",
"(.	c #662910",
"_.	c #662A11",
":.	c #672B12",
"<.	c #682C13",
"[.	c #692D14",
"}.	c #6A2D15",
"|.	c #6A2F16",
"1.	c #6B2F17",
"2.	c #6B3017",
"3.	c #6C3119",
"4.	c #6D3219",
"5.	c #6E341A",
"6.	c #6E351B",
"7.	c #6F351C",
"8.	c #70361D",
"9.	c #71371D",
"0.	c #71381E",
"a.	c #73391F",
"b.	c #743A20",
"c.	c #753B21",
"d.	c #763C22",
". . . . . . . . . . . . . . . . . . . . . . . . . . . . . . . . . . . . . . . . . . . . . . . . . . . ",
". + @ # $ % & * = - ; > , ' ) ! ~ { ] ^ / ( _ : < [ } | 1 2 3 4 5 6 7 8 9 0 a b c d e f g h i j k l . ",
". m n n n n n n n n n n n n n n n n n n n n n n n n n n n n n n n n o o o o o o o o o o n n n n n p . ",
". @ n n n n n n n n n n n n n n n n n n n n n n n n n n n n n n n n n n o o o o o o o o o o n n n q . ",
". % n n n n n n n n n n n n n n n n n n n n n n n n n n n n n n n n n n n n n n n n n n n o n n n r . ",
". = n n n n n s t t t t t t t t t u n n u t t t t t t u n t t t t t t s n v t t o o v t t o n n n w . ",
". > n n n n n t x x x x x x x x x y z n A x x x x x x B C x x x x x x D E t x x F o t x x F n n n G . ",
". ) n n n n n t x y y y y y y y y y H F A x y y y y y H I x y y y y y y J K x y . o t x y . n n n L . ",
". { n n n n n t x y . . x y M . H y H I A x H . . . . . I x y M . . N y M O x y . o t x y . n n n L . ",
". / n n n n n t x y . n x y M F A y H I A x H I n n n n n x y M F n N y M O x y . o t x y . n n n L . ",
". : n n n n n t x y . n x y M F A y H I A x x x x x y A n x y M F n N y M O x y . o t x y . n n n L . ",
". [ n n n n n t x y . n x y M F A y H I A x y y y y y H I x y M F n N y M O x y . o t x y . n n n L . ",
". 1 n n n n n t x y . n x y M F A y H I A x P M M M M Q I x y M F n N y M O x y . o t x y . n n n R . ",
". 4 n n n n n t x y . n x y M F A y H I A x H S F F F F C x y M F n N y M O x y . o t x y . n n n T . ",
". 7 n n n n n t x y . n x y M F A y H I A x U V A A A W n x y M F n N y M O x y H A X y y . n n n Y . ",
". 0 n n n n n t x y . n x y M F A y H I A x y y y y y V Z x y M F n N y M ` x y y y y y U . n n n  .. ",
". c n n n n n u B H . n A H Q F W V ..I W V H H H H H ..I A H Q F n A H Q F z H H H H H +.@.n n n #.. ",
". $.n n n n n n C I I n n I I C n Z I Z n Z I I I I I I Z n I I C n n I I %.o F I I I I I &.n n n *.. ",
". i n n n n n n n n n n n n n n n n n n n n n n n n n n n n n n n o o o o o o o o o o n n n n n n =.. ",
". l -.;.p >.,.'.).!.~.g {.].^././././././././././././././.(._.:.<.[.}.|.1.2.3.4.5.6.7.8.9.0.a.b.c.d.. ",
". . . . . . . . . . . . . . . . . . . . . . . . . . . . . . . . . . . . . . . . . . . . . . . . . . . "};
