/* XPM */
static char * away_xpm[] = {
"15 11 30 1",
" 	c None",
".	c #333333",
"+	c #EAEAEA",
"@	c #454545",
"#	c #6F6F6F",
"$	c #BCBCBC",
"%	c #606060",
"&	c #C8C8C8",
"*	c #5E5E5E",
"=	c #888888",
"-	c #838383",
";	c #D3D3D3",
">	c #A5A5A5",
",	c #4F4F4F",
"'	c #8F8F8F",
")	c #5B5B5B",
"!	c #494949",
"~	c #777777",
"{	c #6C6C6C",
"]	c #444444",
"^	c #DFDFDF",
"/	c #ABABAB",
"(	c #585858",
"_	c #545454",
":	c #474747",
"<	c #ACACAC",
"[	c #747474",
"}	c #7D7D7D",
"|	c #7E7E7E",
"1	c #BFBFBF",
" ............. ",
".+++++++++++++.",
".+@#+$%&*$&.$+.",
".+=&.++-&+-&%+.",
".++;;;;+++;;++.",
".+.>>,')!~{]>+.",
".++++$^&+++/;+.",
".+=($%$$_:<[-+.",
".+}-+$%++}|1&+.",
".+++++++++++++.",
" ............. "};
