/* XPM */
static char * dnd_xpm[] = {
"13 13 4 1",
" 	c None",
".	c #FFFFFF",
"+	c #7F7F7F",
"@	c #FF0000",
"...       ...",
"+@@.     .@@+",
"+@@@.   .@@@+",
" +@@@. .@@@+ ",
"  +@@@.@@@+  ",
"   +@@@@@+   ",
"    +@@@+    ",
"   .@@@@@.   ",
"  .@@@+@@@.  ",
" .@@@+ +@@@. ",
".@@@+   +@@@.",
".@@+     +@@.",
".++       ++."};
