/* XPM */
static char * occupied_xpm[] = {
"11 11 29 1",
" 	c None",
".	c #5E5C5E",
"+	c #5E5D5E",
"@	c #F9F8F9",
"#	c #C5C2C5",
"$	c #F9F9F9",
"%	c #C4C1C4",
"&	c #F6F7F6",
"*	c #6F986F",
"=	c #F5F7F5",
"-	c #C2C0C2",
";	c #C5C1C5",
">	c #F1F6F1",
",	c #007B00",
"'	c #ECF3EC",
")	c #006000",
"!	c #F0F3F0",
"~	c #C0BEC0",
"{	c #EDF7ED",
"]	c #0E860E",
"^	c #004600",
"/	c #F4F5F4",
"(	c #005C00",
"_	c #ECF0EC",
":	c #516451",
"<	c #002E00",
"[	c #F3F4F3",
"}	c #EEF0EE",
"|	c #BBB9BB",
"..++.....++",
".@#$%@%@%$+",
".%@%&*=-@;.",
".@%>,')!~$+",
".%&,{]'^/#+",
".@*']'(_:$+",
"+;=)'(_<[#+",
".@-!^_<}|$+",
".%@~/:[|@#+",
"+@#$%@%@%$+",
"..++.....++"};
