/* XPM */
static char * butMenu_xpm[] = {
"15 12 55 1",
" 	c None",
".	c #262626",
"+	c #242424",
"@	c #272727",
"#	c #1D1D1D",
"$	c #1B1B1B",
"%	c #171717",
"&	c #151515",
"*	c #212121",
"=	c #2C2C2C",
"-	c #2A2A2A",
";	c #989898",
">	c #9D9D9D",
",	c #9E9E9E",
"'	c #959595",
")	c #8D8D8D",
"!	c #8C8C8C",
"~	c #898989",
"{	c #929292",
"]	c #AFAFAF",
"^	c #ACACAC",
"/	c #A4A4A4",
"(	c #969696",
"_	c #909090",
":	c #202020",
"<	c #1F1F1F",
"[	c #282828",
"}	c #2D2D2D",
"|	c #222222",
"1	c #1C1C1C",
"2	c #919191",
"3	c #8E8E8E",
"4	c #9B9B9B",
"5	c #A1A1A1",
"6	c #A6A6A6",
"7	c #A3A3A3",
"8	c #AAAAAA",
"9	c #999999",
"0	c #252525",
"a	c #2B2B2B",
"b	c #292929",
"c	c #A0A0A0",
"d	c #9A9A9A",
"e	c #A7A7A7",
"f	c #9F9F9F",
"g	c #2F2F2F",
"h	c #A5A5A5",
"i	c #949494",
"j	c #A9A9A9",
"k	c #323232",
"l	c #232323",
"m	c #1E1E1E",
"n	c #303030",
"o	c #2E2E2E",
"p	c #000000",
".+@#$%$&*=-@*++",
";>,')!~{{]^/;(_",
"*:.<<<#+*==[}|1",
"{_>>,2345675892",
"<0|a..|[}=b@=b+",
">c7dd74;7e7fc7e",
"=g+*0+<0@=@-+.+",
"he5(4id4cc75j/>",
"k[+l#<#+*+@.[=|",
"7,idi_i'd;5fh/7",
"**:0#*m*+00@nko",
"4{;)'2!d,74/84j"};
