/* XPM */
static char * 2MenuUpNoFocus_xpm[] = {
"59 16 194 2",
"  	c None",
". 	c #717676",
"+ 	c #787D7D",
"@ 	c #727575",
"# 	c #717575",
"$ 	c #717474",
"% 	c #6F7474",
"& 	c #6F7373",
"* 	c #6E7373",
"= 	c #6E7272",
"- 	c #6D7171",
"; 	c #6C6F6F",
"> 	c #6B6E6E",
", 	c #6B6D6D",
"' 	c #696D6D",
") 	c #696C6C",
"! 	c #686C6C",
"~ 	c #686B6B",
"{ 	c #676B6B",
"] 	c #676969",
"^ 	c #666969",
"/ 	c #666868",
"( 	c #656767",
"_ 	c #636666",
": 	c #626565",
"< 	c #626363",
"[ 	c #616363",
"} 	c #616262",
"| 	c #606262",
"1 	c #606161",
"2 	c #5F6161",
"3 	c #5F6060",
"4 	c #5D6060",
"5 	c #5D5F5F",
"6 	c #5C5D5D",
"7 	c #5B5C5C",
"8 	c #5A5B5B",
"9 	c #5A5A5A",
"0 	c #595A5A",
"a 	c #595959",
"b 	c #575959",
"c 	c #575757",
"d 	c #565757",
"e 	c #565656",
"f 	c #555555",
"g 	c #4A4A4A",
"h 	c #434343",
"i 	c #7D8383",
"j 	c #6D7272",
"k 	c #656868",
"l 	c #5C5F5F",
"m 	c #555656",
"n 	c #3F3F3F",
"o 	c #393939",
"p 	c #727777",
"q 	c #5D6161",
"r 	c #5C6060",
"s 	c #5B5F5F",
"t 	c #5B5E5E",
"u 	c #5A5E5E",
"v 	c #5A5D5D",
"w 	c #595D5D",
"x 	c #595C5C",
"y 	c #585B5B",
"z 	c #575A5A",
"A 	c #565959",
"B 	c #565858",
"C 	c #555858",
"D 	c #555757",
"E 	c #545757",
"F 	c #545656",
"G 	c #535656",
"H 	c #535555",
"I 	c #525555",
"J 	c #525454",
"K 	c #515353",
"L 	c #505252",
"M 	c #4F5151",
"N 	c #4F5050",
"O 	c #4E5050",
"P 	c #4E4F4F",
"Q 	c #4D4F4F",
"R 	c #4D4E4E",
"S 	c #4C4E4E",
"T 	c #4C4D4D",
"U 	c #4B4C4C",
"V 	c #4A4B4B",
"W 	c #494A4A",
"X 	c #484949",
"Y 	c #484848",
"Z 	c #474848",
"` 	c #474747",
" .	c #464747",
"..	c #464646",
"+.	c #282828",
"@.	c #7E8485",
"#.	c #7E8384",
"$.	c #585C5C",
"%.	c #4B4D4D",
"&.	c #919798",
"*.	c #909798",
"=.	c #ABB3B5",
"-.	c #8F9697",
";.	c #585A5A",
">.	c #A1A8AA",
",.	c #979D9F",
"'.	c #828889",
").	c #8D9294",
"!.	c #A0A7A9",
"~.	c #969C9E",
"{.	c #8B9193",
"].	c #6C6F70",
"^.	c #8B9192",
"/.	c #8B9092",
"(.	c #494949",
"_.	c #696C6D",
":.	c #99A0A2",
"<.	c #7F8485",
"[.	c #757B7B",
"}.	c #99A0A1",
"|.	c #98A0A1",
"1.	c #75797A",
"2.	c #989FA1",
"3.	c #858A8B",
"4.	c #727677",
"5.	c #717677",
"6.	c #717576",
"7.	c #707575",
"8.	c #707475",
"9.	c #969D9E",
"0.	c #787C7D",
"a.	c #6E7172",
"b.	c #6D7172",
"c.	c #818687",
"d.	c #767B7C",
"e.	c #909698",
"f.	c #747979",
"g.	c #6A6E6E",
"h.	c #737778",
"i.	c #6E7273",
"j.	c #454646",
"k.	c #8F9597",
"l.	c #515454",
"m.	c #272828",
"n.	c #767B7B",
"o.	c #909697",
"p.	c #505151",
"q.	c #696B6C",
"r.	c #454545",
"s.	c #272727",
"t.	c #8E9496",
"u.	c #8D9395",
"v.	c #8D9394",
"w.	c #6A6D6E",
"x.	c #949B9C",
"y.	c #6B7071",
"z.	c #6B6F70",
"A.	c #8E9596",
"B.	c #A0A8AA",
"C.	c #6B6E6F",
"D.	c #959B9D",
"E.	c #8A8F90",
"F.	c #4A4C4C",
"G.	c #626666",
"H.	c #535757",
"I.	c #353737",
"J.	c #353636",
"K.	c #343636",
"L.	c #333636",
"M.	c #333535",
"N.	c #323434",
"O.	c #323333",
"P.	c #313333",
"Q.	c #313232",
"R.	c #303232",
"S.	c #303131",
"T.	c #2F3131",
"U.	c #2F3030",
"V.	c #2E2F2F",
"W.	c #2E2E2E",
"X.	c #2D2E2E",
"Y.	c #2C2E2E",
"Z.	c #2C2D2D",
"`.	c #2C2C2C",
" +	c #2B2C2C",
".+	c #2B2B2B",
"++	c #2A2B2B",
"@+	c #2A2A2A",
"#+	c #292A2A",
"$+	c #292929",
"%+	c #282929",
"&+	c #202020",
"*+	c #4C4F4F",
"=+	c #323232",
". + @ # $ % & * = = - - ; ; > > , ' ) ! ~ { ] ^ / / ( ( _ _ : : < [ } | 1 2 3 4 5 5 6 6 7 7 8 8 9 0 a b c d e e f g h ",
"+ i @ # $ % & * = j - - ; ; > > ' ' ) ! ~ { ] ^ / k ( ( _ _ : : [ [ } | 1 2 3 4 5 l 6 6 7 7 8 8 0 0 a b c d e m f n o ",
"p p q q 4 r l s t u v w x x y y z z A A B C D E F G H I J J K K L L M M N O P Q R S T T U U V V W W X X Y Z `  ...+.+.",
"p p q q r r l @.#.u v w x $.y y z z A A C C D E F G H I J J K K L L M M O O P Q R S T %.U U V V W W X X Z Z `  ...+.+.",
"p @ q &.*.=.=.=.=.=.=.-.-.y y ;.z >.=.=.=.=.=.=.=.=.,.J J K '.).!.=.=.=.=.~.{.].R T ^./.U V V g W (._.=.Z `  .....+.+.",
"p # q =.:.<.[.}.|.1.i 2.=.y y z z =.3.4.5.6.6.# 7.8.8.J J K =.9.0.a.b.- - c.!.^.S T ^./.U V V W W (._.=.Z `  .....+.+.",
"p # q =.d.l s e.e.v w f.=.y g.h.h.=.3.4.5.6.6.# 7.H I J J K =.i.L M M N O P {.^.S T ^./.U V V W W X _.=.Z `  ...j.+.+.",
"p # q =.d.l s e.e.v w f.=.y k.=.=.=.=.=.=.=.=.=.=.H I J l.K =.i.L M M O O P {.^.S T ^./.U V V W W X _.=.Z `  ...j.+.m.",
"@ # 4 =.n.s t e.o.v x f.=.y z z b =.4.C D E F F H H J J K K =.i.p.M N O P Q ^.^.T T /./.V V g W (.X q.=.`  .....r.+.s.",
"# # 4 =.n.s t e.o.v x f.=.y z z b =.t.5.6.6.# 7.8.u.v.J K K =.i.p.M N O P Q ^.^.T T /.!.<.w.' ' _.h.x.=.`  ...j.r.+.s.",
"# # r =.n.s t y.z.w x f.=.y z z A A.>.=.=.=.=.=.=.B.v.J K K =.i.M M N O P Q ^.^.T %.C./.D.=.=.=.=.=.E.#.`  ...j.r.+.s.",
"# # r r l s t u v w x $.y y z z A A C C D E F G H I J l.K K L L M M O O P Q R S T %.U F.V V W W X X Z Z `  ...j.r.m.s.",
"# $ r l s t t v v x x y y z z b A B C D E F F H H J J K K L L p.M N O P Q R R T T U U V V g W (.X Y Z `  .....r.r.s.s.",
"# $ r l s t u v v x x y y z z A A B C D E F G H H J J K K L L p.M N O P Q R S T T U U V V W W (.X Y Z `  ...j.r.r.s.s.",
"G.H.I.I.I.J.K.K.L.M.M.M.M.N.N.O.O.O.P.Q.Q.Q.R.S.T.T.T.U.U.V.V.V.V.W.X.X.Y.Z.Z.`. + + +.+.+++++@+@+@+#+$+%++.+.+.m.&+$+",
"s *+I.I.I.J.K.K.L.M.M.M.M.N.N.O.O.P.P.Q.Q.Q.R.S.T.T.T.U.U.V.V.V.V.X.X.X.Y.Z.Z.`. + + +.+.+++++@+@+#+#+$+%++.+.+.m.$+=+"};
