/* XPM */
static char * 2MenuUpFocus_xpm[] = {
"59 16 195 2",
"  	c None",
". 	c #717676",
"+ 	c #787D7D",
"@ 	c #727575",
"# 	c #717575",
"$ 	c #717474",
"% 	c #6F7474",
"& 	c #6F7373",
"* 	c #6E7373",
"= 	c #6E7272",
"- 	c #6D7171",
"; 	c #6C6F6F",
"> 	c #6B6E6E",
", 	c #6B6D6D",
"' 	c #696D6D",
") 	c #696C6C",
"! 	c #686C6C",
"~ 	c #686B6B",
"{ 	c #676B6B",
"] 	c #676969",
"^ 	c #666969",
"/ 	c #666868",
"( 	c #656767",
"_ 	c #636666",
": 	c #626565",
"< 	c #626363",
"[ 	c #616363",
"} 	c #616262",
"| 	c #606262",
"1 	c #606161",
"2 	c #5F6161",
"3 	c #5F6060",
"4 	c #5D6060",
"5 	c #5D5F5F",
"6 	c #5C5D5D",
"7 	c #5B5C5C",
"8 	c #5A5B5B",
"9 	c #5A5A5A",
"0 	c #595A5A",
"a 	c #595959",
"b 	c #575959",
"c 	c #575757",
"d 	c #565757",
"e 	c #565656",
"f 	c #555555",
"g 	c #4A4A4A",
"h 	c #434343",
"i 	c #7D8383",
"j 	c #6D7272",
"k 	c #656868",
"l 	c #5C5F5F",
"m 	c #555656",
"n 	c #3F3F3F",
"o 	c #393939",
"p 	c #727777",
"q 	c #5D6161",
"r 	c #5C6060",
"s 	c #5B5F5F",
"t 	c #5B5E5E",
"u 	c #5A5E5E",
"v 	c #5A5D5D",
"w 	c #595D5D",
"x 	c #595C5C",
"y 	c #585B5B",
"z 	c #575A5A",
"A 	c #565959",
"B 	c #565858",
"C 	c #555858",
"D 	c #555757",
"E 	c #545757",
"F 	c #545656",
"G 	c #535656",
"H 	c #535555",
"I 	c #525555",
"J 	c #525454",
"K 	c #515353",
"L 	c #505252",
"M 	c #4F5151",
"N 	c #4F5050",
"O 	c #4E5050",
"P 	c #4E4F4F",
"Q 	c #4D4F4F",
"R 	c #4D4E4E",
"S 	c #4C4E4E",
"T 	c #4C4D4D",
"U 	c #4B4C4C",
"V 	c #4A4B4B",
"W 	c #494A4A",
"X 	c #484949",
"Y 	c #484848",
"Z 	c #474848",
"` 	c #474747",
" .	c #464747",
"..	c #464646",
"+.	c #282828",
"@.	c #7E7B37",
"#.	c #7E7A37",
"$.	c #585C5C",
"%.	c #4B4D4D",
"&.	c #908A24",
"*.	c #AA9F06",
"=.	c #8F8822",
"-.	c #585A5A",
";.	c #A0970F",
">.	c #968E17",
",.	c #827D28",
"'.	c #8C851F",
").	c #9F960E",
"!.	c #958D16",
"~.	c #8B841E",
"{.	c #6C6936",
"].	c #8A831D",
"^.	c #494949",
"/.	c #686532",
"(.	c #98901A",
"_.	c #757441",
":.	c #989019",
"<.	c #747340",
"[.	c #7D7A36",
"}.	c #979019",
"|.	c #847F2B",
"1.	c #726F3C",
"2.	c #716F3C",
"3.	c #706F3C",
"4.	c #706E3B",
"5.	c #706D3A",
"6.	c #777430",
"7.	c #6E6B38",
"8.	c #6D6B38",
"9.	c #6D6A37",
"0.	c #6C6A37",
"a.	c #807B26",
"b.	c #9F950E",
"c.	c #767542",
"d.	c #8F8923",
"e.	c #74723F",
"f.	c #6A6948",
"g.	c #72713E",
"h.	c #454646",
"i.	c #8E8822",
"j.	c #515454",
"k.	c #272828",
"l.	c #767441",
"m.	c #505151",
"n.	c #454545",
"o.	c #272727",
"p.	c #8E8721",
"q.	c #8D8620",
"r.	c #8C8620",
"s.	c #8A841E",
"t.	c #9F950D",
"u.	c #7F7924",
"v.	c #6A6734",
"w.	c #696633",
"x.	c #696532",
"y.	c #736F2B",
"z.	c #948B14",
"A.	c #6B6C4A",
"B.	c #6B6B49",
"C.	c #A0960F",
"D.	c #948C15",
"E.	c #89821C",
"F.	c #7D7823",
"G.	c #4A4C4C",
"H.	c #626666",
"I.	c #535757",
"J.	c #353737",
"K.	c #353636",
"L.	c #343636",
"M.	c #333636",
"N.	c #333535",
"O.	c #323434",
"P.	c #323333",
"Q.	c #313333",
"R.	c #313232",
"S.	c #303232",
"T.	c #303131",
"U.	c #2F3131",
"V.	c #2F3030",
"W.	c #2E2F2F",
"X.	c #2E2E2E",
"Y.	c #2D2E2E",
"Z.	c #2C2E2E",
"`.	c #2C2D2D",
" +	c #2C2C2C",
".+	c #2B2C2C",
"++	c #2B2B2B",
"@+	c #2A2B2B",
"#+	c #2A2A2A",
"$+	c #292A2A",
"%+	c #292929",
"&+	c #282929",
"*+	c #202020",
"=+	c #4C4F4F",
"-+	c #323232",
". + @ # $ % & * = = - - ; ; > > , ' ) ! ~ { ] ^ / / ( ( _ _ : : < [ } | 1 2 3 4 5 5 6 6 7 7 8 8 9 0 a b c d e e f g h ",
"+ i @ # $ % & * = j - - ; ; > > ' ' ) ! ~ { ] ^ / k ( ( _ _ : : [ [ } | 1 2 3 4 5 l 6 6 7 7 8 8 0 0 a b c d e m f n o ",
"p p q q 4 r l s t u v w x x y y z z A A B C D E F G H I J J K K L L M M N O P Q R S T T U U V V W W X X Y Z `  ...+.+.",
"p p q q r r l @.#.u v w x $.y y z z A A C C D E F G H I J J K K L L M M O O P Q R S T %.U U V V W W X X Z Z `  ...+.+.",
"p @ q &.&.*.*.*.*.*.*.=.=.y y -.z ;.*.*.*.*.*.*.*.*.>.J J K ,.'.).*.*.*.*.!.~.{.R T ].].U V V g W ^./.*.Z `  .....+.+.",
"p # q *.(.@._.:.:.<.[.}.*.y y z z *.|.1.2.2.3.4.4.5.5.J J K *.!.6.7.8.9.0.a.b.~.S T ].].U V V W W ^./.*.Z `  .....+.+.",
"p # q *.c.l s d.d.v w e.*.y f.g.g.*.|.1.2.2.3.4.4.H I J J K *.7.L M M N O P ~.~.S T ].].U V V W W X /.*.Z `  ...h.+.+.",
"p # q *.c.l s d.d.v w e.*.y i.*.*.*.*.*.*.*.*.*.*.H I J j.K *.7.L M M O O P ~.~.S T ].].U V V W W X /.*.Z `  ...h.+.k.",
"@ # 4 *.l.s t d.d.v x e.*.y z z b *.1.C D E F F H H J J K K *.7.m.M N O P Q ~.~.T T ].].V V g W ^.X /.*.`  .....n.+.o.",
"# # 4 *.l.s t d.d.v x e.*.y z z b *.p.2.2.3.4.4.5.q.r.J K K *.7.m.M N O P Q ~.s.T T ].t.u.v.w.w.x.y.z.*.`  ...h.n.+.o.",
"# # r *.l.s t A.B.w x e.*.y z z A p.C.*.*.*.*.*.*.).r.J K K *.7.M M N O P Q ~.s.T %.v.].D.*.*.*.*.*.E.F.`  ...h.n.+.o.",
"# # r r l s t u v w x $.y y z z A A C C D E F G H I J j.K K L L M M O O P Q R S T %.U G.V V W W X X Z Z `  ...h.n.k.o.",
"# $ r l s t t v v x x y y z z b A B C D E F F H H J J K K L L m.M N O P Q R R T T U U V V g W ^.X Y Z `  .....n.n.o.o.",
"# $ r l s t u v v x x y y z z A A B C D E F G H H J J K K L L m.M N O P Q R S T T U U V V W W ^.X Y Z `  ...h.n.n.o.o.",
"H.I.J.J.J.K.L.L.M.N.N.N.N.O.O.P.P.P.Q.R.R.R.S.T.U.U.U.V.V.W.W.W.W.X.Y.Y.Z.`.`. +.+.+.+++++@+@+#+#+#+$+%+&++.+.+.k.*+%+",
"s =+J.J.J.K.L.L.M.N.N.N.N.O.O.P.P.Q.Q.R.R.R.S.T.U.U.U.V.V.W.W.W.W.Y.Y.Y.Z.`.`. +.+.+.+++++@+@+#+#+$+$+%+&++.+.+.k.%+-+"};
