/* XPM */
static char *butMenu[] = {
/* width height num_colors chars_per_pixel */
"    44    22       64            1",
/* colors */
". c #767674",
"# c #66666c",
"a c #626264",
"b c #666664",
"c c #6e6e74",
"d c #727274",
"e c #76767c",
"f c #6a6a6c",
"g c #6e6e6c",
"h c #5a5a5c",
"i c #5e5e64",
"j c #828284",
"k c #7a7a7c",
"l c #7e7e84",
"m c #a2a2a4",
"n c #6e7274",
"o c #9e9ea4",
"p c #e2e2e4",
"q c #dedee4",
"r c #dededc",
"s c #dadadc",
"t c #dedadc",
"u c #d6d6d4",
"v c #e6e6e4",
"w c #e2e6e4",
"x c #b6b6b4",
"y c #dee2e4",
"z c #bababc",
"A c #b2b2b4",
"B c #e6e6ec",
"C c #aeaeb4",
"D c #d6d6dc",
"E c #e2dee4",
"F c #b6b6bc",
"G c #dadedc",
"H c #000000",
"I c #aeaeac",
"J c #babec4",
"K c #666a6c",
"L c #72727c",
"M c #cacecc",
"N c #d6dadc",
"O c #c2c2c4",
"P c #bebebc",
"Q c #aeb2b4",
"R c #babac4",
"S c #bebec4",
"T c #e6eaec",
"U c #86868c",
"V c #eaeaec",
"W c #a6a6ac",
"X c #aaaaac",
"Y c #a2a6ac",
"Z c #969a9c",
"0 c #bec2c4",
"1 c #c6c6cc",
"2 c #b6babc",
"3 c #c2c6c4",
"4 c #aeaaac",
"5 c #b2b6b4",
"6 c #9a9a9c",
"7 c #c6cacc",
"8 c #d2d2d4",
"9 c #a6aaac",
/* pixels */
".#abc.cdecdecfdgcbhifejdc#fegekdfde.dcc.dlmm",
"fhafgfdc.cnlk#ddg#hie.fcgfckjkf#cdkfcledd.om",
"fdpqrqrsstspprppprprpsurrppppppppqqrqppqvwxx",
"lkqtqrppssspyppprpprssqsrppqrppppppqrrqpqpzA",
"knwpBrpryrqtrrsqpvsusrpqpprqrrppppprqrprprCx",
"cfqvwyyrtsrrpppprDsrrprprrrpprpppppqpvspEsAF",
"dnqpptsypGpqvrprssrurwqrqrrpvrprrvprpvqsrGAx",
"cfBpqssHsEypBrsHGrGqrEyppyrrrprspppprqrystIJ",
"KLqrpppHHrrrsuHHqppqsupytqpGqqprppyssGtrGyxM",
"kcrDqpvHHrsDNsHHpppHHHrEyHrHHvvwHvppHEprrEOM",
".eqGqrrHBHstqHqHErHpprHtGHHppHvpHEppHppprvOO",
"kkpEyqsHtHrqvHpHypHrpyHrEHppvHpvHvrpHprEprPP",
"enwptptHtGHpHpqHrrHHHHHypHqEpHprHvpEHpyyrsxQ",
"kfrrGsyHGsHpHppHrqHspyppEHryrHrpHpvwHvEppqOP",
".crssrsHtrrHttGHqEHqpEHwpHrqqHpyHsvHHpppvvRS",
"ffuspppHGstHsGEHGGpHHHvpwHqrvHrspHHpHprpqpOS",
"b#srrpvvpGtNsGGsrpEEprpppyrpqsppspppGqGTvqSS",
"dUprrVvpVvwrssssrryyEqrEtErNryrpEppppppBpqzz",
"ljpppppppppprtsGsstyrrrrGssrpwpyprrqpppvppRC",
"UjwBBpppyppEvwEtGsGprqNstsrpppwwwyGrqppEppWX",
"YZ01zO0OO22PAxPxAA1J3SIYo4CA0O11zAXIC4IFC55I",
"66SzF0705FJFIJXCAP8OFzFXAz4PSFO1SCX9m952IPRA"
};
