/* XPM */
static char * status_xpm[] = {
"122 22 101 2",
"  	c None",
". 	c #242424",
"+ 	c #8E9294",
"@ 	c #565A5C",
"# 	c #C6CACC",
"$ 	c #71767B",
"% 	c #A9AEB2",
"& 	c #81868B",
"* 	c #3D3E3C",
"= 	c #E5E6E4",
"- 	c #9EA2A4",
"; 	c #666A6C",
"> 	c #B9BEC4",
", 	c #D6DADC",
"' 	c #4A4E4D",
") 	c #7E7A7E",
"! 	c #9A969C",
"~ 	c #B6B2B4",
"{ 	c #636264",
"] 	c #8E8A8E",
"^ 	c #6E6A6E",
"/ 	c #D3D2D4",
"( 	c #797E83",
"_ 	c #ACB6BC",
": 	c #5E6265",
"< 	c #424644",
"[ 	c #A6A2A6",
"} 	c #C3C2C6",
"| 	c #313334",
"1 	c #898E93",
"2 	c #DEDADC",
"3 	c #535254",
"4 	c #969A9D",
"5 	c #9B9A9A",
"6 	c #777678",
"7 	c #F2FAFC",
"8 	c #818284",
"9 	c #5B5A5C",
"0 	c #AEAEB0",
"a 	c #878688",
"b 	c #717275",
"c 	c #A29E9E",
"d 	c #939295",
"e 	c #CED2D7",
"f 	c #E9EEF1",
"g 	c #A9AAAC",
"h 	c #3B3A3C",
"i 	c #423E3C",
"j 	c #B9BABD",
"k 	c #65666B",
"l 	c #C5C6CD",
"m 	c #E1E2E4",
"n 	c #2D2D2C",
"o 	c #BEC6CC",
"p 	c #4B494C",
"q 	c #A2AAAC",
"r 	c #6A7274",
"s 	c #4E5654",
"t 	c #363A3C",
"u 	c #55565B",
"v 	c #EEEFF6",
"w 	c #CBCCD0",
"x 	c #FEFEFC",
"y 	c #BEBFC4",
"z 	c #968E94",
"A 	c #DAD6D7",
"B 	c #EAEAEC",
"C 	c #A2A3A6",
"D 	c #6A6B70",
"E 	c #DADBDC",
"F 	c #4E4F51",
"G 	c #B2B6BC",
"H 	c #46474C",
"I 	c #36363B",
"J 	c #727A7C",
"K 	c #828A8C",
"L 	c #BAC2C4",
"M 	c #7F7E84",
"N 	c #B7B6BD",
"O 	c #8F8E95",
"P 	c #6F6E75",
"Q 	c #D5D6D5",
"R 	c #A7A6AC",
"S 	c #DEDEDD",
"T 	c #9D9EA2",
"U 	c #797A7C",
"V 	c #5D5E63",
"W 	c #B1B2B4",
"X 	c #898A8C",
"Y 	c #95969C",
"Z 	c #434245",
"` 	c #868284",
" .	c #767274",
"..	c #BEBABC",
"+.	c #6A666C",
"@.	c #8E969C",
"#.	c #565E64",
"$.	c #C5CED4",
"%.	c #AAB2B4",
"&.	c #3E4244",
"*.	c #E6EAEC",
"V +.P M { k k D U 8 8 8 8 8 O ` M 6 8 X M U 8 ( 8 k ) D b D { +.& X b b $ 6 8 M U ; P M M b ^ b b P M ^ { P 9 P b ; D ; D P P P b P ; D : : P k { { 9 @ V ; 6 D { : { P D ^ $ P +.; ; { @ 9 V k V D  .b b M P k 9 { u V 9 9 V V { V : V V u u k a O ",
"P k U b V k V k P b M 6 M 6 X a 6 ( U M 8 8 U M M U D ; P k P ; U $ 8 U U P b M 8 M U & P 6 a  .b U b P D @ @ +.k u k P P P b P r { k r b k P +.: { u V k D { : k V k b U  .D k k b b V 9 k V { V : P P k 6 k k { 9 9 : u 9 V V k V +.u 3 3 3 V O 1 ",
"P ; S 2 S 2 S E A S S S S S E , S S E S m = m = = S m 2 m m E 2 2 S m m = = m m m = m m m S S S S S E A E E , E S S S E Q S S S S E , m E , m S , S S m , E / E E E S S E S S E S S Q , 2 E 2 E S m S E 2 S E E E / / Q E A A E E S A A , A A Q c T ",
"D P S E S m S E S S 2 E S E S S S 2 E S 2 S m m m m S m m m E Q S S A S S E S S S S A S S 2 2 E S S E Q Q Q / , m = S S S E m S , S 2 S S S 2 E Q 2 S E Q , E E S S S , E , E S 2 S 2 E , S Q E , E E S Q E E Q Q E E E E Q Q A / E E / E 2 E Q T 5 ",
"M 6 E 2 S S m S m S m = m = = m m = m m 2 A S S E / E S m S S 2 , E E E S S S E A S m S E m m m 2 E E 2 / A A Q , Q S E m S m E 2 S S E , S E E S S Q A / E E E S S , , E E S m , S E A A A A Q E A A Q , E A E E Q Q E A E E A A E S 2 S S E , C C ",
"6 D S Q m E 2 = m S m m m m m m m m m m S S 2 S E 2 2 S S m S S S , , S , S S Q m m m m = = = 2 S S Q Q S m m S A Q Q S m S S E Q E E E m S S E A Q E , S 2 E E , E A S S , S E E 2 S E m m Q A Q , E S 2 Q , A Q Q 2 w / E E / / E E , E Q A E T T ",
"^  .m = m S S S S m = m = m S = m m = S S m S A 2 m S 2 2 m S E S E S = = m = = = m m m m m S S = m = m = = m = S S E A Q w E S E E S E m 2 S , / Q E / S S S E 2 Q , S E Q 2 E S m S E , S , Q Q , Q Q , E , , / Q 2 Q , , , E E A Q Q S E E A - % ",
"8 6 m m m m m S S = m = m = m S m B m m m m S m E S S S m m m m S m S m = S m m m = = m m m m S m m m m m 2 E S S 2 = S Q w w E E S S m m S Q Q Q 2 A E , E A E E S E E E m E E S E E S Q Q Q Q / Q Q E A A E A E E Q S A Q Q S , , A Q E E E , C R ",
"J ; m m m = m 2 m = S S S S m = m m = m m A S m E 2 S 2 S S m S m m m m = 2 m = B m S S m = m S m m m m m m S S E S S E m 2 Q Q Q Q S S E A E E Q m S A / / S 2 Q E S E A E S E S m 2 E / A 2 A Q Q A m S E , Q E Q Q , E e E 2 Q Q E 2 E Q E A - 4 ",
"6  .S m S S m S S m S S S S m = m m m = = m E S S S S S 2 E m = S S = S m = m S m m S S = E m m S S m S m m m m m S m E 2 m m E Q Q / e / Q Q / E , 2 Q E , E E 2 A Q S , S S S S S E E E Q A Q / Q , 2 , E S Q Q A , Q Q E Q E e / E , S E E E [ T ",
"8 D 2 m S S m m S S S m S m S m m = m = m m 2 E m , E E S A m S S m m S = B = m 2 m m m = E S S m S m 2 S S S = S S S S , 2 E 2 S Q e w / / / / E E Q E S E S , A E A S S S S S S , 2 E 2 Q Q E Q A E E / Q , E S Q E A Q Q , Q / Q Q A E 2 S E g [ ",
"U b m S S S S m S m = m = m S S m = m m m m m m E E S S S S 2 S = m m = m 2 m = = m 2 S S m m S m m S m A E S m m S m S S , S E E S A Q Q / Q / Q E S S S E Q , , S 2 , E m S S S S Q / E E Q / / , A E 2 S Q / Q / / / / E / 2 A E A Q Q S A Q R C ",
"P P S 2 S S S m S m m = m = m m m = m m = = S m S S E E E m m m S S m = S A = m m m S S 2 2 m S S S 2 , m S S m m E S S E E 2 m S E 2 Q Q E Q / Q A , S , Q E Q E E E S Q , , Q E m E Q S E Q A Q Q E S m S E / / / e e / Q Q E Q S E Q E E Q / C 0 ",
"k P S m A m 2 m B = m S m m m m m m m m m S m m S m S S Q S m m m m m m m m m m S S S m S m S E 2 S m m S , m S S E 2 2 2 S = S , Q Q S Q / E Q / , Q Q A E E 2 E , , / A E E S , S S , A E Q A E / A 2 A 2 E 2 Q , w Q A E E , E Q E E Q e / / 4 + ",
"{ { 2 S S S 2 m m m m m m m B = S m m m m m S S S m S S , S m m S m 2 m = m m S S m S S m m S m S E S E A S S S S A S E S S E A A A / Q Q Q Q Q E 2 Q E E E E E E E A E , Q 2 E E , S E A A Q Q , S , Q E A Q S Q , 2 Q , S E A E Q S , / / / w d d ",
"V ; m S 2 2 2 A S S 2 m 2 m B = m m S S m m m S S S S S S S m m m m m S m m E S S m m m 2 2 m m S m S E S m S E S m Q m m S E S , , S E E / A / / E S E E S E E A / , Q 2 , S A E E Q Q Q E Q E Q S S S , , Q Q Q E E E 2 / E Q e Q , Q Q A Q A Y Y ",
"{ b m m S S 2 S S 2 m m m m S 2 = m S S m 2 m S m m S S m m m m m m m S m S S S 2 = m m S m 2 S E m m m E S E , E S E S e E S S m E E / E E / / e 2 E E E E Q S , Q / , E Q S S / A , E e Q / m S Q S E E , Q E / E E E 2 S S A Q A / / S E E 2 Y d ",
"U U S S S 2 m m S S S 2 2 S S 2 S m = S m S S m S E S m m = m S S S S m S m m m S m m E S m m m m S S E S S S S S S , Q E m S E E m S S E Q / / Q e / A A E Q E E 2 E A Q A Q E Q Q E E A 2 2 S S 2 S E A 2 A S E E Q Q E E / Q E A E Q E , 2 Q W g ",
"k M m m = S 2 S S S 2 2 2 2 E 2 S m m m m S 2 E S S 2 = m m m 2 2 S m m S m m E S m m m m m S m m m m , Q S m m m E E A 2 A Q E E E 2 E A A Q A / / e Q / S 2 , , Q Q A E S Q E E w / Q , E S E E , S , S S S Q Q S m , / e Q S E A E / S S E E % g ",
"6 M m m = m S S S m = S = S E 2 / 2 m S S S S S 2 2 S S m S m S m m S m m m S S m m m m S m m S 2 m m 2 S E E S S S A , S E A Q / E Q Q E E S E Q Q Q , Q Q e / E Q Q , S E A E A A / / Q , E S E S , Q E E , E S E 2 w Q E , , S Q , E / , m S [ - ",
"g c N N g } ..N j N N > N y W N ~ % R N N W g W j 0 0 g 0 0 N ..j } N g j } j N g N N N } y } N ~ N N C [ R R g N C R g - % 0 0 R c - C 5 T 0 0 g C g d T 5 + O + d T C R g W W T Y O d c - g W 0 g W % C C g g y ! a C R R g R C [ q % [ R T % % g ",
"Y 5 g C l } G W l } y ..y j j } # N N % R c C j 0 0 N 5 R g W N ~ W W N j G W j N y g N y L } l y g C - g R C g C g R C 4 [ % R R R % g C W C W 0 g N g 5 Y Y O O Y 8 5 g R G W T O 4 Y 5 C 0 G R W 0 g g g W g O 5 0 0 C [ 0 % C C T g _ R 0 g T Y "};
