/* XPM */
static char * authorize_xpm[] = {
"16 16 48 1",
" 	c None",
".	c #009100",
"+	c #00F400",
"@	c #00E800",
"#	c #00DE00",
"$	c #0069C4",
"%	c #79B0E7",
"&	c #00FF00",
"*	c #B7DBFA",
"=	c #B4D9F8",
"-	c #B0D6F7",
";	c #ABD3F6",
">	c #95C4EF",
",	c #AFD5F7",
"'	c #94C3EE",
")	c #90C1ED",
"!	c #00AB00",
"~	c #93C2EE",
"{	c #8FC0ED",
"]	c #8BBDEC",
"^	c #00AC00",
"/	c #91C2EE",
"(	c #8DBFEC",
"_	c #8ABCEB",
":	c #86BAEA",
"<	c #00AD00",
"[	c #8CBEEC",
"}	c #88BCEB",
"|	c #85B9EA",
"1	c #81B6E8",
"2	c #A6CFF4",
"3	c #A2CDF3",
"4	c #00BA00",
"5	c #00D300",
"6	c #00A800",
"7	c #87BBEA",
"8	c #83B8E9",
"9	c #80B6E8",
"0	c #7CB3E7",
"a	c #A1CCF3",
"b	c #9DC9F1",
"c	c #99C7F0",
"d	c #00B100",
"e	c #00A900",
"f	c #82B7E9",
"g	c #7EB5E8",
"h	c #7BB2E6",
"i	c #77B0E5",
"             .. ",
"            .+@.",
"           .+@#.",
"$$$$$$$$$$.+@#.$",
"$..%%%%%%.+@#.%$",
"$.&.*=-;.+@#.>%$",
"$.&&.,;.+@#.')%$",
"$.&&&..+@#!~{]%$",
"$%.&&&+@#^/(_:%$",
"$%;.&+@#<)[}|1%$",
"$%234@#56]7890%$",
"$%abcd5e_:fghi%$",
"$%%%%%e%%%%%%%%$",
"$$$$$$$$$$$$$$$$",
"                ",
"                "};
