/* XPM */
static char * away_xpm[] = {
"16 16 94 2",
"  	c None",
". 	c #037400",
"+ 	c #0069C4",
"@ 	c #52CF30",
"# 	c #89FC4F",
"$ 	c #B9D7F2",
"% 	c #59C343",
"& 	c #8BF25B",
"* 	c #4BC031",
"= 	c #057A00",
"- 	c #4BFB01",
"; 	c #BDD9F3",
"> 	c #ADCFEF",
", 	c #77FF35",
"' 	c #4EFF00",
") 	c #52FE07",
"! 	c #21B50A",
"~ 	c #C1DCF4",
"{ 	c #B1D1F0",
"] 	c #A1C7EB",
"^ 	c #36DE06",
"/ 	c #37BD1E",
"( 	c #0A7208",
"_ 	c #49F503",
": 	c #4DFE00",
"< 	c #C5DEF5",
"[ 	c #B5D4F1",
"} 	c #A5CAEC",
"| 	c #95BFE8",
"1 	c #84B5E4",
"2 	c #29D403",
"3 	c #128D0D",
"4 	c #D9EBFA",
"5 	c #C9E1F6",
"6 	c #A9CCEE",
"7 	c #99C2E9",
"8 	c #89B8E5",
"9 	c #78ADE1",
"0 	c #1DBB03",
"a 	c #036202",
"b 	c #E9F6FF",
"c 	c #DDEEFB",
"d 	c #CDE3F7",
"e 	c #9DC4EA",
"f 	c #8DBAE6",
"g 	c #7CB0E2",
"h 	c #6CA6DE",
"i 	c #5C9BD9",
"j 	c #E1F0FC",
"k 	c #D1E6F8",
"l 	c #91BDE7",
"m 	c #80B2E3",
"n 	c #70A8DF",
"o 	c #609EDA",
"p 	c #5093D6",
"q 	c #015500",
"r 	c #E5F3FD",
"s 	c #D5E9F9",
"t 	c #74ABE0",
"u 	c #64A0DC",
"v 	c #5496D7",
"w 	c #448CD3",
"x 	c #3481CF",
"y 	c #68A3DD",
"z 	c #5899D8",
"A 	c #488ED4",
"B 	c #049301",
"C 	c #218319",
"D 	c #048100",
"E 	c #027700",
"F 	c #005300",
"G 	c #4DB43A",
"H 	c #11C000",
"I 	c #0CBB00",
"J 	c #07AE00",
"K 	c #004A00",
"L 	c #46C32A",
"M 	c #15C400",
"N 	c #057E00",
"O 	c #0BB700",
"P 	c #07B500",
"Q 	c #02B000",
"R 	c #007C00",
"S 	c #14C300",
"T 	c #0FBE00",
"U 	c #025700",
"V 	c #027D00",
"W 	c #02A400",
"X 	c #019601",
"Y 	c #006100",
"Z 	c #038601",
"` 	c #079D01",
" .	c #048400",
"..	c #0C9A00",
"              . . . +           ",
"      . . . . @ # + $ +         ",
"    . % & * = - + ; > + . . .   ",
"    . , ' ) ! + ~ { ] + ^ / ( . ",
"    . _ : + + < [ } | 1 + 2 3 . ",
"  . . + + 4 5 $ 6 7 8 9 + 0 a . ",
". + + b c d ; > e f g h i + .   ",
"+ b b j k ~ { ] l m n o p + q . ",
". + r s < [ } | 1 t u v w x + . ",
"  + 4 5 $ 6 7 8 9 y z A + + B . ",
". C + ; > e f g h i + + D E F . ",
". G + { ] l m n + + H I J K .   ",
". . L + | 1 t + M N O P Q R .   ",
"  . . + 8 + + S T U V W X Y .   ",
"        + . Z `  . .... . .     ",
"            . . . .             "};
