/* XPM */
static char * chat_xpm[] = {
"16 16 45 1",
" 	c None",
".	c #0069C4",
"+	c #BCBCBC",
"@	c #B6B6B6",
"#	c #B1B1B1",
"$	c #ABABAB",
"%	c #FFF97B",
"&	c #FFF373",
"*	c #FFED6B",
"=	c #FFE763",
"-	c #A1A1A1",
";	c #9B9B9B",
">	c #C7E6FF",
",	c #FFFF84",
"'	c #FFE15A",
")	c #FFDB52",
"!	c #FFD54A",
"~	c #919191",
"{	c #7AB2E6",
"]	c #C0E1FC",
"^	c #000080",
"/	c #FFCF42",
"(	c #8B8B8B",
"_	c #73ADE4",
":	c #6CA8E2",
"<	c #FFCA39",
"[	c #FFC431",
"}	c #808080",
"|	c #65A4E0",
"1	c #B9DCFA",
"2	c #FFBE29",
"3	c #7B7B7B",
"4	c #5E9FDD",
"5	c #B2D7F8",
"6	c #FFB821",
"7	c #767676",
"8	c #579ADB",
"9	c #ABD3F6",
"0	c #FFB218",
"a	c #707070",
"b	c #5095D9",
"c	c #9DC9F1",
"d	c #FFAC10",
"e	c #6B6B6B",
"f	c #4991D7",
"                ",
"    ..+@#$..    ",
"  ..++%&*=-;..  ",
" .>+,%&*=')!~{. ",
".>]+%&^='^!/(_:.",
".]+%&*^')^/<[}|.",
".1@&*=')!/<[234.",
".5#*=')!/<[2678.",
".9$='^!/<[^60ab.",
" .c-)!^^^^60ab. ",
"  .;!/<[260de.  ",
"    ~([260ae    ",
"      }37a.     ",
"        .bf.    ",
"         ....   ",
"                "};
