/* XPM */
static char * message_xpm[] = {
"16 16 62 1",
" 	c None",
".	c #0069C4",
"+	c #ADD4F7",
"@	c #9BC8F1",
"#	c #89BCEB",
"$	c #79B0E7",
"%	c #76AFE5",
"&	c #BFE0FC",
"*	c #BBDEFB",
"=	c #B7DBFA",
"-	c #B4D9F8",
";	c #B0D6F7",
">	c #64A3DF",
",	c #9DC9F1",
"'	c #99C7F0",
")	c #95C4EF",
"!	c #BADDFB",
"~	c #B6DAF9",
"{	c #B2D8F8",
"]	c #AFD5F7",
"^	c #ABD3F6",
"/	c #98C6F0",
"(	c #94C3EE",
"_	c #90C1ED",
":	c #B5DAF9",
"<	c #B1D7F8",
"[	c #AAD2F5",
"}	c #A6CFF4",
"|	c #A2CDF3",
"1	c #93C2EE",
"2	c #8FC0ED",
"3	c #8BBDEC",
"4	c #ACD4F6",
"5	c #A8D1F5",
"6	c #A4CEF4",
"7	c #A1CCF2",
"8	c #91C2EE",
"9	c #8DBFEC",
"0	c #8ABCEB",
"a	c #86BAEA",
"b	c #A7D0F5",
"c	c #A3CEF3",
"d	c #9FCBF2",
"e	c #9CC8F1",
"f	c #8CBEEC",
"g	c #88BCEB",
"h	c #85B9EA",
"i	c #81B6E8",
"j	c #9ECAF2",
"k	c #9AC8F1",
"l	c #97C5EF",
"m	c #87BBEA",
"n	c #83B8E9",
"o	c #80B6E8",
"p	c #7CB3E7",
"q	c #A1CCF3",
"r	c #92C2EE",
"s	c #8EBFEC",
"t	c #82B7E9",
"u	c #7EB5E8",
"v	c #7BB2E6",
"w	c #77B0E5",
"       ...      ",
"      ..+.      ",
"      ..@.      ",
"........#.......",
".$$$$$$.%.$$$$$.",
".$&*=-;.>.$,')$.",
".$!~{]^...$/(_$.",
".$:<+[}|$$$123$.",
".$;4567,')890a$.",
".$^bcde/(_fghi$.",
".$}|jkl123mnop$.",
".$q,')rs0atuvw$.",
".$$$$$$$$$$$$$$.",
"................",
"                ",
"                "};
