/* XPM */
static char * secureon_xpm[] = {
"16 16 88 1",
" 	c None",
".	c #FFFFFF",
"+	c #FFFFF7",
"@	c #FFFFEF",
"#	c #FFFFE7",
"$	c #FFFFDF",
"%	c #FFFFD7",
"&	c #FFFFCF",
"*	c #FFFFBF",
"=	c #0069C4",
"-	c #FFFFAF",
";	c #FFFFF6",
">	c #C7E6FF",
",	c #B9DCFA",
"'	c #A8D1F5",
")	c #98C6F0",
"!	c #88BBEB",
"~	c #77B0E5",
"{	c #FFFFAE",
"]	c #FFFFF5",
"^	c #FFFFEE",
"/	c #BCDEFB",
"(	c #ABD3F6",
"_	c #7AB2E6",
":	c #69A7E1",
"<	c #FFFFA6",
"[	c #FFFF9E",
"}	c #FFFFE5",
"|	c #AED5F7",
"1	c #FFFFC5",
"2	c #FFFFBD",
"3	c #5C9DDD",
"4	c #FFFF9D",
"5	c #FFFF8E",
"6	c #FFFFDD",
"7	c #A0CCF2",
"8	c #FFFFB5",
"9	c #4E94D8",
"0	c #FFFF95",
"a	c #FFFF8D",
"b	c #FFFFE4",
"c	c #FFFFDC",
"d	c #FFFF85",
"e	c #FFFF7D",
"f	c #FFFFE3",
"g	c #76AFE5",
"h	c #91C1EE",
"i	c #84B8E9",
"j	c #FFFF74",
"k	c #FFFF6C",
"l	c #FFFFD3",
"m	c #BCDFFB",
"n	c #AFD6F7",
"o	c #A2CDF3",
"p	c #94C4EF",
"q	c #87BBEA",
"r	c #FFFFD2",
"s	c #FFFFCB",
"t	c #69A6E1",
"u	c #7DB4E7",
"v	c #70ABE3",
"w	c #FFFF63",
"x	c #FFFF5B",
"y	c #FFFFC2",
"z	c #C3E3FD",
"A	c #B6DAF9",
"B	c #9BC8F1",
"C	c #8EBFEC",
"D	c #80B6E8",
"E	c #73ADE4",
"F	c #66A4E0",
"G	c #FFFFBA",
"H	c #FFFF52",
"I	c #FFFF4A",
"J	c #FFFFB1",
"K	c #FFFFA1",
"L	c #FFFF49",
"M	c #FFFFA0",
"N	c #FFFF90",
"O	c #FFFF88",
"P	c #FFFF80",
"Q	c #FFFF78",
"R	c #FFFF70",
"S	c #FFFF68",
"T	c #FFFF61",
"U	c #FFFF59",
"V	c #FFFF51",
"W	c #FFFF39",
"                ",
"   . +@#$%& *   ",
"  . +======* -  ",
"   ;=>,')!~={   ",
"  ]^=/(==_:=<[  ",
" ] }=|=12=3=4 5 ",
"  }6=7=28=9=0a  ",
" bc==========de ",
"fc=ggggggghig=jk",
" l=g>>mnopq_g=k ",
"rs=gttttttuvg=wx",
" y=gzA'BCDEFg=x ",
"yG=gttttttt3g=HI",
" J=gggggggggg=I ",
"  K==========L  ",
" M NOPQRSTUVL W "};
