/* XPM */
static char * chess_xpm[] = {
"15 15 145 2",
"  	c None",
". 	c #838383",
"+ 	c #848283",
"@ 	c #868686",
"# 	c #808080",
"$ 	c #999999",
"% 	c #C7C7C7",
"& 	c #C6C7C7",
"* 	c #E5E5E5",
"= 	c #949494",
"- 	c #101010",
"; 	c #8F8F90",
"> 	c #FDFDFD",
", 	c #EAE9ED",
"' 	c #CECED6",
") 	c #CDCDDB",
"! 	c #CCCDDE",
"~ 	c #303034",
"{ 	c #303032",
"] 	c #363637",
"^ 	c #858586",
"/ 	c #7F7F7F",
"( 	c #8F8F8F",
"_ 	c #F3F3F5",
": 	c #8E8EA2",
"< 	c #01012F",
"[ 	c #04044E",
"} 	c #000017",
"| 	c #C3C3DB",
"1 	c #C3C3D9",
"2 	c #A6A6B4",
"3 	c #7F8086",
"4 	c #212123",
"5 	c #F2F3F7",
"6 	c #8D8EAD",
"7 	c #050551",
"8 	c #030321",
"9 	c #C5C5EC",
"0 	c #01022C",
"a 	c #C5C5EB",
"b 	c #C4C4DC",
"c 	c #E1E1EC",
"d 	c #C7C7CB",
"e 	c #1D1D1E",
"f 	c #646464",
"g 	c #F2F2F8",
"h 	c #8D8DB3",
"i 	c #000016",
"j 	c #C5C5EA",
"k 	c #C4C4F3",
"l 	c #C3C4F6",
"m 	c #C4C4F2",
"n 	c #C4C4E1",
"o 	c #E1E1EE",
"p 	c #E4E3E8",
"q 	c #030303",
"r 	c #F3F3F6",
"s 	c #828289",
"t 	c #000011",
"u 	c #C5C5E0",
"v 	c #010124",
"w 	c #000027",
"x 	c #C4C4E7",
"y 	c #C4C4DB",
"z 	c #E4E4E8",
"A 	c #C3C3C4",
"B 	c #F3F3F3",
"C 	c #A7A6B3",
"D 	c #16161E",
"E 	c #161624",
"F 	c #161627",
"G 	c #5D5DAC",
"H 	c #D9D9E6",
"I 	c #E8E8EF",
"J 	c #E4E4E7",
"K 	c #868586",
"L 	c #B2B1B1",
"M 	c #9B9AA0",
"N 	c #9A99A7",
"O 	c #9998AE",
"P 	c #9998B3",
"Q 	c #9898B5",
"R 	c #23232A",
"S 	c #E6E6EB",
"T 	c #E6E7EA",
"U 	c #E2E2E3",
"V 	c #717171",
"W 	c #312F30",
"X 	c #302F30",
"Y 	c #313031",
"Z 	c #302F32",
"` 	c #2F2F33",
" .	c #2F2F34",
"..	c #2F2F35",
"+.	c #0B0B0C",
"@.	c #CECECE",
"#.	c #B1B1B1",
"$.	c #111111",
"%.	c #7D7D7D",
"&.	c #080808",
"*.	c #5D5D5E",
"=.	c #B0AFAF",
"-.	c #AFAFAF",
";.	c #292929",
">.	c #ECECEC",
",.	c #ECECEB",
"'.	c #CFCFCF",
").	c #202020",
"!.	c #878789",
"~.	c #F6F9F7",
"{.	c #CAD3CA",
"].	c #CAD2CB",
"^.	c #CDD0CE",
"/.	c #222222",
"(.	c #D2D2D2",
"_.	c #D2D2D1",
":.	c #B4B4B4",
"<.	c #898989",
"[.	c #212121",
"}.	c #878787",
"|.	c #EFF9EF",
"1.	c #A6C6A6",
"2.	c #97B197",
"3.	c #BAC2BB",
"4.	c #2C2C2C",
"5.	c #8A8A8A",
"6.	c #858585",
"7.	c #7E7E7D",
"8.	c #2A2A2A",
"9.	c #1D1D1D",
"0.	c #859485",
"a.	c #719571",
"b.	c #729072",
"c.	c #1E201E",
"d.	c #E2E2E2",
"e.	c #E1E1E1",
"f.	c #E2E2E1",
"g.	c #C5C5C5",
"h.	c #686868",
"i.	c #000000",
"j.	c #070B07",
"k.	c #070E07",
"l.	c #070D07",
"m.	c #010201",
"n.	c #010101",
"      . + + . . . . . @ #     ",
"    $ % % % % & % % % * = -   ",
"  ; > , ' ) ! ~ ~ { ] ^ / -   ",
"  ( _ : < [ } | 1 2 3 4 / -   ",
"  ( 5 6 7 8 9 0 a b c d e f   ",
"  ( g h i j k l m n o p / q / ",
"  ( r s t u v w x y c z A q / ",
"  ( B C D E F G F H I J / q / ",
"  K L M N O P Q R S T U - V / ",
"  W X Y Z `  ...+.@.@.#.$.%.&.",
"*.=.=.-.-.-.-.;.>.,.,.'.)./ &.",
"!.~.{.].^.'./.(.(._.:.<.[./ &.",
"}.|.1.2.3.4.5.6.6.7.).8.).9.&.",
"# 0.a.b.c.d.d.d.d.e.f.g./ h.i.",
"  j.k.l.m.n.n.n.m.n.n.n.n.i.i."};
