/* XPM */
static char * message_xpm[] = {
"15 15 19 1",
" 	c None",
".	c #000000",
"+	c #FFE253",
"@	c #FFDF4F",
"#	c #FFDC4C",
"$	c #FFD948",
"%	c #FFD745",
"&	c #FFD441",
"*	c #FFD13E",
"=	c #FFCE3A",
"-	c #FFCB37",
";	c #FFC833",
">	c #FFC530",
",	c #7F7F7F",
"'	c #FFBF29",
")	c #FFBC26",
"!	c #FFB922",
"~	c #FFB71F",
"{	c #FFC22D",
"               ",
"               ",
"               ",
" ............. ",
" .+@#$%&*=-;>.,",
" ..#$%&*=-;>..,",
" .#.%&*=-;>.'.,",
" .$%.*=-;>.').,",
" .%&..-;>..)!.,",
" .&.=-...').~.,",
" ..=-;>{')!~..,",
" .............,",
"  ,,,,,,,,,,,,,",
"               ",
"               "};
