/* XPM */
static char * nomsg_xpm[] = {
"64 64 256 2",
"  	c None",
". 	c #7E7E7C",
"+ 	c #FEFEFC",
"@ 	c #020204",
"# 	c #222224",
"$ 	c #1E1E1C",
"% 	c #161614",
"& 	c #121214",
"* 	c #040604",
"= 	c #021604",
"- 	c #032604",
"; 	c #034604",
"> 	c #389A38",
", 	c #50B650",
"' 	c #169614",
") 	c #033A04",
"! 	c #030A04",
"~ 	c #0A0A0C",
"{ 	c #36C634",
"] 	c #B4FAB4",
"^ 	c #A3FEA4",
"/ 	c #1EFA1C",
"( 	c #02C204",
"_ 	c #022A04",
": 	c #0C0E0B",
"< 	c #1A1A1B",
"[ 	c #168E14",
"} 	c #96F694",
"| 	c #EAFEEC",
"1 	c #8EFC8C",
"2 	c #13FE14",
"3 	c #02FA04",
"4 	c #028604",
"5 	c #022204",
"6 	c #104E10",
"7 	c #032E04",
"8 	c #030E04",
"9 	c #0C120B",
"0 	c #56D654",
"a 	c #DDFEDC",
"b 	c #53FE54",
"c 	c #02FE04",
"d 	c #02DD04",
"e 	c #82DA84",
"f 	c #BAF2BC",
"g 	c #5AEA5C",
"h 	c #06AA04",
"i 	c #114A11",
"j 	c #123A14",
"k 	c #031A04",
"l 	c #1E861C",
"m 	c #A4F6A4",
"n 	c #F4FEF4",
"o 	c #C5FEC4",
"p 	c #23FE24",
"q 	c #023604",
"r 	c #227624",
"s 	c #8EE68C",
"t 	c #93FE94",
"u 	c #2AFE2C",
"v 	c #02A604",
"w 	c #126214",
"x 	c #5AD25C",
"y 	c #7EE67C",
"z 	c #36A234",
"A 	c #034204",
"B 	c #021E04",
"C 	c #4AAE4C",
"D 	c #D4FED4",
"E 	c #ACFEAC",
"F 	c #024E04",
"G 	c #226A24",
"H 	c #8EE28C",
"I 	c #02D404",
"J 	c #5ED45C",
"K 	c #72FA74",
"L 	c #0ECA0C",
"M 	c #025604",
"N 	c #043E04",
"O 	c #62D264",
"P 	c #E2FEE4",
"Q 	c #0CFE0C",
"R 	c #02F404",
"S 	c #033204",
"T 	c #7ADA7C",
"U 	c #9EFE9C",
"V 	c #02EB04",
"W 	c #037A04",
"X 	c #0A5E0C",
"Y 	c #9AEA9C",
"Z 	c #37FE36",
"` 	c #58DA58",
" .	c #B4FEB4",
"..	c #1DFE1C",
"+.	c #02A204",
"@.	c #3EB23C",
"#.	c #0D6A0C",
"$.	c #9AEE9C",
"%.	c #62FE64",
"&.	c #028204",
"*.	c #3AB63C",
"=.	c #BDFEBC",
"-.	c #4BFE4C",
";.	c #044A04",
">.	c #92F294",
",.	c #5CFE5C",
"'.	c #041204",
").	c #42D644",
"!.	c #6EEA6C",
"~.	c #82FE84",
"{.	c #02BE04",
"].	c #2E8E2C",
"^.	c #CBFECC",
"/.	c #025D04",
"(.	c #056E04",
"_.	c #2AAA2C",
":.	c #42CA44",
"<.	c #1EEE1C",
"[.	c #026604",
"}.	c #228E24",
"|.	c #028C04",
"1.	c #0AEE0C",
"2.	c #03AE04",
"3.	c #027E04",
"4.	c #02CE04",
"5.	c #02C604",
"6.	c #56AE54",
"7.	c #3EAA3C",
"8.	c #4EF44C",
"9.	c #62E264",
"0.	c #1AB61C",
"a.	c #037204",
"b.	c #1C6E1C",
"c.	c #4EAE4C",
"d.	c #5EB25C",
"e.	c #02E504",
"f.	c #029404",
"g.	c #127A14",
"h.	c #5ACA5C",
"i.	c #1ADA1C",
"j.	c #02B204",
"k.	c #50560C",
"l.	c #989A04",
"m.	c #9A9E04",
"n.	c #5A5E0C",
"o.	c #0A7E0C",
"p.	c #52CA54",
"q.	c #8A8A0C",
"r.	c #EEEE4C",
"s.	c #F6FA7C",
"t.	c #FAFE3C",
"u.	c #FAFA14",
"v.	c #E2E20C",
"w.	c #2C2E04",
"x.	c #3AE83C",
"y.	c #96FA94",
"z.	c #A4FAA4",
"A.	c #0AF60C",
"B.	c #035204",
"C.	c #1E7E1C",
"D.	c #9BF29C",
"E.	c #029D04",
"F.	c #4A4A0C",
"G.	c #DADA4C",
"H.	c #FEFECC",
"I.	c #FEFEA4",
"J.	c #FEFE24",
"K.	c #FEFE09",
"L.	c #0E230C",
"M.	c #82F284",
"N.	c #6DFE6C",
"O.	c #36B234",
"P.	c #666604",
"Q.	c #EAEA70",
"R.	c #FEFEE4",
"S.	c #FEFE84",
"T.	c #727604",
"U.	c #8AEE8C",
"V.	c #64D664",
"W.	c #12D214",
"X.	c #7A7A04",
"Y.	c #7AEE7C",
"Z.	c #0A320C",
"`.	c #46461C",
" +	c #FEFEBC",
".+	c #FEFE9C",
"++	c #565A04",
"@+	c #52F254",
"#+	c #1A5E1C",
"$+	c #228224",
"%+	c #108610",
"&+	c #6A7224",
"*+	c #DEE23C",
"=+	c #F6FA64",
"-+	c #D6DA04",
";+	c #0E820C",
">+	c #52FA54",
",+	c #5EE25C",
"'+	c #1A2604",
")+	c #868E04",
"!+	c #C2CA04",
"~+	c #AEB204",
"{+	c #464604",
"]+	c #42C644",
"^+	c #0E540C",
"/+	c #0E460C",
"(+	c #0A1A08",
"_+	c #267A24",
":+	c #3EDA3C",
"<+	c #168214",
"[+	c #026204",
"}+	c #72F274",
"|+	c #027604",
"1+	c #267224",
"2+	c #76E274",
"3+	c #72DA74",
"4+	c #0E960C",
"5+	c #229424",
"6+	c #04BA04",
"7+	c #125E14",
"8+	c #7AF67C",
"9+	c #44FE44",
"0+	c #1E5A1C",
"a+	c #8EDA8C",
"b+	c #12E614",
"c+	c #42C244",
"d+	c #56F654",
"e+	c #0E360C",
"f+	c #72CE74",
"g+	c #2EBA2C",
"h+	c #0A160C",
"i+	c #12BE14",
"j+	c #66F264",
"k+	c #4EE64C",
"l+	c #9EF69C",
"m+	c #0A740C",
"n+	c #1A7A1C",
"o+	c #6EE66C",
"p+	c #26BA24",
"q+	c #76FE74",
"r+	c #0A3E0C",
"s+	c #AEEEAC",
"t+	c #5EDE5C",
"u+	c #CCF6CC",
"v+	c #0A4E0C",
"w+	c #4ECE4C",
"x+	c #4A924C",
"y+	c #DEFADC",
"z+	c #6EDA6C",
"A+	c #52EE54",
"B+	c #06CA04",
"C+	c #1A1E1C",
"D+	c #368234",
"E+	c #5EF25C",
"F+	c #52A254",
"G+	c #2E862C",
"                                                                                                                                ",
"                                                                                                                                ",
"                                                                                                                                ",
"                                                                                                                                ",
"                                                                                                                                ",
"          . . . . . . . . . . . . . . . . . . . . . . . . . . . . . . . . . . . . . . . . . . . . . . . . . . . . . +           ",
"          . @ @ @ @ @ @ @ @ @ @ @ @ @ @ @ @ @ @ @ @ @ @ @ @ @ @ @ @ @ @ @ @ @ @ @ @ @ @ @ @ @ @ @ @ @ @ @ @ @ @ @ @ +           ",
"          . @ # # # # # # # # # # # # # # # # # # # # # # # # # # # # # # # # # # # # # # # # # # # # # # # # # # # +           ",
"          . @ # # # # # # # # # # # # # # # # # # # # # # # # # # # # # $ % % % $ # # # # # # # # # # # # # # # # # +           ",
"          . @ # # # # # # # # # # # # # # # # # # # # # # # # # # # $ & * = - = * & $ # # # # # # # # # # # # # # # +           ",
"          . @ # # # # # # # # # # # # # # # # # # # # # # # # # # # % * ; > , ' ) ! & $ # # # # $ # # # # # # # # # +           ",
"          . @ # # # # # # # # # # # # # # # # # # # # # # # # # # $ ~ - { ] ^ / ( _ * % $ $ % : ~ : & < # # # # # # +           ",
"          . @ # # # # # # # # # # # # # # # # # # # # # # # # # # & ! [ } | 1 2 3 4 @ : < & * 5 6 7 ! * & $ # # # # +           ",
"          . @ # # # # # # # # # # # # # # # # # $ % 8 ! 8 9 < # $ ~ ; 0 a a b c c d 8 ~ 9 8 6 e f g h 7 * % $ # # # +           ",
"          . @ # # # # # # # # # # # # # # # # $ 9 8 7 i j k ! & % ! l m n o p c c c q ! k r s a t u c v 8 : < $ # # +           ",
"          . @ # # # # # # # # # # # # # # # # % 8 w x 1 y z A ! * B C D + E 2 c c c F 8 G H D t p c c I = ~ % $ # # +           ",
"          . @ # # # # # # # # # # # # # # # $ : ) J a n a K L M @ N O P + ^ Q c c R S i T D U p c c V W ! : % $ # # +           ",
"          . @ # # # # # # # # # # # # # # # $ ~ X Y n n E Z c I A A ` D +  ...c c +.k @.o E Z c c V W = * & % $ # # +           ",
"          . @ # # # # # # # # # # # # # # # $ * #.$.n P %.Q c R &.- *.=.n D -.c 3 ;.j >.D ,.Q c V W '.* : % < $ # # +           ",
"          . @ # # # # # # # # # # # # # # # $ ~ N ).] o b c c c ( B #.!.P | ~.Q {.B ].^.U p 3 I /.@ * & % < $ # # # +           ",
"          . @ # # # # # # # # # # # # # # # < : * (._.:.<.c c c V [.B }.$.a t 2 |.B ` =.,.1.2.q @ ~ & % < $ # # # # +           ",
"          . @ # # # # # # # # # # # # # # $ : ! '.k k q 3.4.R c 3 5.A 5 }.6.7.2.F S 8.9.0.a.5 * : & % < $ # # # # # +           ",
"          . @ # # # # # # # # # # # # # # % = b.c.d.> ;.k ) 4 e.c R f.= = 5 B 5 8 B g.i - ! @ @ ~ & < $ # # # # # # +           ",
"          . @ # # # # # # # # # # # # # # 9 S h.^.P m i.f.S '.q |.j.F 9 k.l.m.l.n.: 8 S (.o./.) 8 * : $ # # # # # # +           ",
"          . @ # # # # # # # # # # # # # # : S p.D +  .p 3 e.f.S = 8 : q.r.s.t.u.v.w.- x.y.z.8.A.4.B.! ~ < # # # # # +           ",
"          . @ # # # # # # # # # # # # # # % '.C.D.n P ,.c c c R E.7 F.G.H.I.J.K.K.k.L.M.n | N.Q c e.W = ~ < $ # # # +           ",
"          . @ # # # # # # # # # # # # # # $ : _ O.z.P ^ ..c c c d ; P.Q.R.S.K.K.K.T.L.U.n a -.c c c V 3.8 ~ < $ # # +           ",
"          . @ # # # # # # # # # # # # # # # < 8 ) _.V.J W.I d d j.S P.Q.R.S.K.K.K.X.L.Y.n a -.c c c c V [.@ : < $ # +           ",
"          . @ # # # # # # # # # # # # # # # $ : * B S Z.7 S q q _ ! `.G. +.+K.K.K.++- @+^.D b c c c c c d q * & $ # +           ",
"          . @ # # # # # # # # # # # # # # $ : * 5 #+$+%+f.+.v f.4 M 9 &+*+=+J.K.-+w.8 ;+x.>+p c c c c c R /.@ : < $ +           ",
"          . @ # # # # # # # # # # # # # # % 8 #.,+^.D N.Q c c c 3 {.7 * '+)+!+~+{+'.S = S &.4.V V e.d I &.* * & < $ +           ",
"          . @ # # # # # # # # # # # # # # : 7 ]+o n  .Z c c c c d /.B ^+/+k (+8 - _+:+<+7 ! - [+a.B.N 5 * * : % < # +           ",
"          . @ # # # # # # # # # # # # # # * ^+}+| n N.Q c c c V |+B 1+2+3+4+;.k 5+D.o @+6+[.= @ @ * * ~ : & % < $ # +           ",
"          . @ # # # # # # # # # # # # # # * 7+8+| | 9+c c c d (.k 0+a+P E b+/.- c+D P b c e.E.- @ ~ & % % < < $ # # +           ",
"          . @ # # # # # # # # # # # # # # * B.d+D n ,.c R 2.A 8 e+f+P D -.d N B g+o D Z c c R ( ) @ : % $ $ # # # # +           ",
"          . @ # # # # # # # # # # # # # # h+7 i+j+D.k+6+B.8 @ = , P ^.9+c I B @ %+l+a -.c c c c d F * & < # # # # # +           ",
"          . @ # # # # # # # # # # # # # # < * ) a.m+q * * * * n+=.a %.Q 3 j.@ * ;.o+| U p c c c 3 v k ~ % $ # # # # +           ",
"          . @ # # # # # # # # # # # # # # $ & * * * * ~ 9 ! = V.| U ..c 3 /.* '.B p+^.P q+2 c c c 5.S * % $ # # # # +           ",
"          . @ # # # # # # # # # # # # # # # $ < % & % % % ! r+s+D -.c c 5.'.* (+'.A t+D D N.2 c R E.k ~ % < # # # # +           ",
"          . @ # # # # # # # # # # # # # # # # # $ $ $ $ < ! b.u+t 2 c V ; @ : % h+! v+w+ .^.,.c 4.) * : % $ # # # # +           ",
"          . @ # # # # # # # # # # # # # # # # # # # # # < 8 x+y+%.c V m+! ~ & < < 9 * 7 5+z+A+B+;.* : & < $ # # # # +           ",
"          . @ # # # # # # # # # # # # # # # # # # # # # C+'.D+u+E+I (.'.~ & % $ # # % ! * = B 8 * ~ & % $ # # # # # +           ",
"          . @ # # # # # # # # # # # # # # # # # # # # # $ 9 S F+G+N ! ~ & % < $ # # # < & : : 9 9 % % $ # # # # # # +           ",
"          . @ # # # # # # # # # # # # # # # # # # # # # # % ! = ! ! : & % < $ # # # # # $ $ < < < < $ # # # # # # # +           ",
"          . @ # # # # # # # # # # # # # # # # # # # # # # $ < & & & % < < $ # # # # # # # # # $ $ # # # # # # # # # +           ",
"          . @ # # # # # # # # # # # # # # # # # # # # # # # # $ $ $ $ $ # # # # # # # # # # # # # # # # # # # # # # +           ",
"          . @ # # # # # # # # # # # # # # # # # # # # # # # # # # # # # # # # # # # # # # # # # # # # # # # # # # # +           ",
"          . @ # # # # # # # # # # # # # # # # # # # # # # # # # # # # # # # # # # # # # # # # # # # # # # # # # # # +           ",
"          . @ # # # # # # # # # # # # # # # # # # # # # # # # # # # # # # # # # # # # # # # # # # # # # # # # # # # +           ",
"          . @ # # # # # # # # # # # # # # # # # # # # # # # # # # # # # # # # # # # # # # # # # # # # # # # # # # # +           ",
"          . @ # # # # # # # # # # # # # # # # # # # # # # # # # # # # # # # # # # # # # # # # # # # # # # # # # # # +           ",
"          . @ # # # # # # # # # # # # # # # # # # # # # # # # # # # # # # # # # # # # # # # # # # # # # # # # # # # +           ",
"          . @ # # # # # # # # # # # # # # # # # # # # # # # # # # # # # # # # # # # # # # # # # # # # # # # # # # # +           ",
"          . @ # # # # # # # # # # # # # # # # # # # # # # # # # # # # # # # # # # # # # # # # # # # # # # # # # # # +           ",
"          . @ # # # # # # # # # # # # # # # # # # # # # # # # # # # # # # # # # # # # # # # # # # # # # # # # # # # +           ",
"          . @ # # # # # # # # # # # # # # # # # # # # # # # # # # # # # # # # # # # # # # # # # # # # # # # # # # # +           ",
"          . @ # # # # # # # # # # # # # # # # # # # # # # # # # # # # # # # # # # # # # # # # # # # # # # # # # # # +           ",
"          . @ # # # # # # # # # # # # # # # # # # # # # # # # # # # # # # # # # # # # # # # # # # # # # # # # # # # +           ",
"          + + + + + + + + + + + + + + + + + + + + + + + + + + + + + + + + + + + + + + + + + + + + + + + + + + + + + +           ",
"                                                                                                                                ",
"                                                                                                                                ",
"                                                                                                                                ",
"                                                                                                                                ",
"                                                                                                                                "};
