/* XPM */
static char * regmsg_xpm[] = {
"64 64 258 2",
"  	c None",
". 	c #7E7E7C",
"+ 	c #FEFEFC",
"@ 	c #020204",
"# 	c #222224",
"$ 	c #1E1E1C",
"% 	c #161614",
"& 	c #121214",
"* 	c #040604",
"= 	c #021604",
"- 	c #032604",
"; 	c #DDD468",
"> 	c #3F3D23",
", 	c #034604",
"' 	c #389A38",
") 	c #50B650",
"! 	c #169614",
"~ 	c #033A04",
"{ 	c #030A04",
"] 	c #0A0A0C",
"^ 	c #36C634",
"/ 	c #B4FAB4",
"( 	c #A3FEA4",
"_ 	c #1EFA1C",
": 	c #02C204",
"< 	c #022A04",
"[ 	c #0C0E0B",
"} 	c #1A1A1B",
"| 	c #168E14",
"1 	c #96F694",
"2 	c #EAFEEC",
"3 	c #8EFC8C",
"4 	c #13FE14",
"5 	c #02FA04",
"6 	c #028604",
"7 	c #022204",
"8 	c #104E10",
"9 	c #032E04",
"0 	c #030E04",
"a 	c #0C120B",
"b 	c #56D654",
"c 	c #DDFEDC",
"d 	c #53FE54",
"e 	c #02FE04",
"f 	c #02DD04",
"g 	c #82DA84",
"h 	c #BAF2BC",
"i 	c #5AEA5C",
"j 	c #06AA04",
"k 	c #114A11",
"l 	c #123A14",
"m 	c #031A04",
"n 	c #1E861C",
"o 	c #A4F6A4",
"p 	c #F4FEF4",
"q 	c #C5FEC4",
"r 	c #23FE24",
"s 	c #023604",
"t 	c #227624",
"u 	c #8EE68C",
"v 	c #93FE94",
"w 	c #2AFE2C",
"x 	c #02A604",
"y 	c #126214",
"z 	c #5AD25C",
"A 	c #7EE67C",
"B 	c #36A234",
"C 	c #034204",
"D 	c #021E04",
"E 	c #4AAE4C",
"F 	c #D4FED4",
"G 	c #ACFEAC",
"H 	c #024E04",
"I 	c #226A24",
"J 	c #8EE28C",
"K 	c #02D404",
"L 	c #5ED45C",
"M 	c #72FA74",
"N 	c #0ECA0C",
"O 	c #025604",
"P 	c #043E04",
"Q 	c #62D264",
"R 	c #E2FEE4",
"S 	c #0CFE0C",
"T 	c #02F404",
"U 	c #033204",
"V 	c #7ADA7C",
"W 	c #9EFE9C",
"X 	c #02EB04",
"Y 	c #037A04",
"Z 	c #0A5E0C",
"` 	c #9AEA9C",
" .	c #37FE36",
"..	c #58DA58",
"+.	c #B4FEB4",
"@.	c #1DFE1C",
"#.	c #02A204",
"$.	c #3EB23C",
"%.	c #0D6A0C",
"&.	c #9AEE9C",
"*.	c #62FE64",
"=.	c #028204",
"-.	c #3AB63C",
";.	c #BDFEBC",
">.	c #4BFE4C",
",.	c #044A04",
"'.	c #92F294",
").	c #5CFE5C",
"!.	c #041204",
"~.	c #42D644",
"{.	c #6EEA6C",
"].	c #82FE84",
"^.	c #02BE04",
"/.	c #2E8E2C",
"(.	c #CBFECC",
"_.	c #025D04",
":.	c #056E04",
"<.	c #2AAA2C",
"[.	c #42CA44",
"}.	c #1EEE1C",
"|.	c #026604",
"1.	c #228E24",
"2.	c #028C04",
"3.	c #0AEE0C",
"4.	c #03AE04",
"5.	c #027E04",
"6.	c #02CE04",
"7.	c #02C604",
"8.	c #56AE54",
"9.	c #3EAA3C",
"0.	c #4EF44C",
"a.	c #62E264",
"b.	c #1AB61C",
"c.	c #037204",
"d.	c #1C6E1C",
"e.	c #4EAE4C",
"f.	c #5EB25C",
"g.	c #02E504",
"h.	c #029404",
"i.	c #127A14",
"j.	c #5ACA5C",
"k.	c #1ADA1C",
"l.	c #02B204",
"m.	c #50560C",
"n.	c #989A04",
"o.	c #9A9E04",
"p.	c #5A5E0C",
"q.	c #0A7E0C",
"r.	c #52CA54",
"s.	c #8A8A0C",
"t.	c #EEEE4C",
"u.	c #F6FA7C",
"v.	c #FAFE3C",
"w.	c #FAFA14",
"x.	c #E2E20C",
"y.	c #2C2E04",
"z.	c #3AE83C",
"A.	c #96FA94",
"B.	c #A4FAA4",
"C.	c #0AF60C",
"D.	c #035204",
"E.	c #1E7E1C",
"F.	c #9BF29C",
"G.	c #029D04",
"H.	c #4A4A0C",
"I.	c #DADA4C",
"J.	c #FEFECC",
"K.	c #FEFEA4",
"L.	c #FEFE24",
"M.	c #FEFE09",
"N.	c #0E230C",
"O.	c #82F284",
"P.	c #6DFE6C",
"Q.	c #36B234",
"R.	c #666604",
"S.	c #EAEA70",
"T.	c #FEFEE4",
"U.	c #FEFE84",
"V.	c #727604",
"W.	c #8AEE8C",
"X.	c #64D664",
"Y.	c #12D214",
"Z.	c #7A7A04",
"`.	c #7AEE7C",
" +	c #0A320C",
".+	c #46461C",
"++	c #FEFEBC",
"@+	c #FEFE9C",
"#+	c #565A04",
"$+	c #52F254",
"%+	c #1A5E1C",
"&+	c #228224",
"*+	c #108610",
"=+	c #6A7224",
"-+	c #DEE23C",
";+	c #F6FA64",
">+	c #D6DA04",
",+	c #0E820C",
"'+	c #52FA54",
")+	c #5EE25C",
"!+	c #1A2604",
"~+	c #868E04",
"{+	c #C2CA04",
"]+	c #AEB204",
"^+	c #464604",
"/+	c #42C644",
"(+	c #0E540C",
"_+	c #0E460C",
":+	c #0A1A08",
"<+	c #267A24",
"[+	c #3EDA3C",
"}+	c #168214",
"|+	c #026204",
"1+	c #72F274",
"2+	c #027604",
"3+	c #267224",
"4+	c #76E274",
"5+	c #72DA74",
"6+	c #0E960C",
"7+	c #229424",
"8+	c #04BA04",
"9+	c #125E14",
"0+	c #7AF67C",
"a+	c #44FE44",
"b+	c #1E5A1C",
"c+	c #8EDA8C",
"d+	c #12E614",
"e+	c #42C244",
"f+	c #56F654",
"g+	c #0E360C",
"h+	c #72CE74",
"i+	c #2EBA2C",
"j+	c #0A160C",
"k+	c #12BE14",
"l+	c #66F264",
"m+	c #4EE64C",
"n+	c #9EF69C",
"o+	c #0A740C",
"p+	c #1A7A1C",
"q+	c #6EE66C",
"r+	c #26BA24",
"s+	c #76FE74",
"t+	c #0A3E0C",
"u+	c #AEEEAC",
"v+	c #5EDE5C",
"w+	c #CCF6CC",
"x+	c #0A4E0C",
"y+	c #4ECE4C",
"z+	c #4A924C",
"A+	c #DEFADC",
"B+	c #6EDA6C",
"C+	c #52EE54",
"D+	c #06CA04",
"E+	c #1A1E1C",
"F+	c #368234",
"G+	c #5EF25C",
"H+	c #52A254",
"I+	c #2E862C",
"                                                                                                                                ",
"                                                                                                                                ",
"                                                                                                                                ",
"                                                                                                                                ",
"                                                                                                                                ",
"          . . . . . . . . . . . . . . . . . . . . . . . . . . . . . . . . . . . . . . . . . . . . . . . . . . . . . +           ",
"          . @ @ @ @ @ @ @ @ @ @ @ @ @ @ @ @ @ @ @ @ @ @ @ @ @ @ @ @ @ @ @ @ @ @ @ @ @ @ @ @ @ @ @ @ @ @ @ @ @ @ @ @ +           ",
"          . @ # # # # # # # # # # # # # # # # # # # # # # # # # # # # # # # # # # # # # # # # # # # # # # # # # # # +           ",
"          . @ # # # # # # # # # # # # # # # # # # # # # # # # # # # # # $ % % % $ # # # # # # # # # # # # # # # # # +           ",
"          . @ # # # # # # # # # # # # # # # # # # # # # # # # # # # $ & * = - = * & $ # # # # # # # # # # # # # # # +           ",
"          . @ # # ; ; ; ; ; > ; # # # # # # # # # # # # # # # # # # % * , ' ) ! ~ { & $ # # # # $ # # # # # # # # # +           ",
"          . @ # # ; ; ; ; ; > ; ; # # # # # # # # # # # # # # # # $ ] - ^ / ( _ : < * % $ $ % [ ] [ & } # # # # # # +           ",
"          . @ # # ; ; ; ; ; > ; ; ; # # # # # # # # # # # # # # # & { | 1 2 3 4 5 6 @ [ } & * 7 8 9 { * & $ # # # # +           ",
"          . @ # # ; ; ; ; ; > > > > # # # # # # $ % 0 { 0 a } # $ ] , b c c d e e f 0 ] a 0 8 g h i j 9 * % $ # # # +           ",
"          . @ # # ; ; ; ; ; ; ; ; ; # # # # # $ a 0 9 k l m { & % { n o p q r e e e s { m t u c v w e x 0 [ } $ # # +           ",
"          . @ # # ; ; ; ; ; ; ; ; ; # # # # # % 0 y z 3 A B C { * D E F + G 4 e e e H 0 I J F v r e e K = ] % $ # # +           ",
"          . @ # # ; ; ; ; ; ; ; ; ; # # # # $ [ ~ L c p c M N O @ P Q R + ( S e e T U k V F W r e e X Y { [ % $ # # +           ",
"          . @ # # ; ; ; ; ; ; ; ; ; # # # # $ ] Z ` p p G  .e K C C ..F + +.@.e e #.m $.q G  .e e X Y = * & % $ # # +           ",
"          . @ # # ; ; ; ; ; ; ; ; ; # # # # $ * %.&.p R *.S e T =.- -.;.p F >.e 5 ,.l '.F ).S e X Y !.* [ % } $ # # +           ",
"          . @ # # ; ; ; ; ; ; ; ; ; # # # # $ ] P ~./ q d e e e : D %.{.R 2 ].S ^.D /.(.W r 5 K _.@ * & % } $ # # # +           ",
"          . @ # # ; ; ; ; ; ; ; ; ; # # # # } [ * :.<.[.}.e e e X |.D 1.&.c v 4 2.D ..;.).3.4.s @ ] & % } $ # # # # +           ",
"          . @ # # # # # # # # # # # # # # $ [ { !.m m s 5.6.T e 5 7.C 7 1.8.9.4.H U 0.a.b.c.7 * [ & % } $ # # # # # +           ",
"          . @ # # # # # # # # # # # # # # % = d.e.f.' ,.m ~ 6 g.e T h.= = 7 D 7 0 D i.k - { @ @ ] & } $ # # # # # # +           ",
"          . @ # # # # # # # # # # # # # # a U j.(.R o k.h.U !.s 2.l.H a m.n.o.n.p.[ 0 U :.q._.~ 0 * [ $ # # # # # # +           ",
"          . @ # # # # # # # # # # # # # # [ U r.F + +.r 5 g.h.U = 0 [ s.t.u.v.w.x.y.- z.A.B.0.C.6.D.{ ] } # # # # # +           ",
"          . @ # # # # # # # # # # # # # # % !.E.F.p R ).e e e T G.9 H.I.J.K.L.M.M.m.N.O.p 2 P.S e g.Y = ] } $ # # # +           ",
"          . @ # # # # # # # # # # # # # # $ [ < Q.B.R ( @.e e e f , R.S.T.U.M.M.M.V.N.W.p c >.e e e X 5.0 ] } $ # # +           ",
"          . @ # # # # # # # # # # # # # # # } 0 ~ <.X.L Y.K f f l.U R.S.T.U.M.M.M.Z.N.`.p c >.e e e e X |.@ [ } $ # +           ",
"          . @ # # # # # # # # # # # # # # # $ [ * D U  +9 U s s < { .+I.++@+M.M.M.#+- $+(.F d e e e e e f s * & $ # +           ",
"          . @ # # # # # # # # # # # # # # $ [ * 7 %+&+*+h.#.x h.6 O a =+-+;+L.M.>+y.0 ,+z.'+r e e e e e T _.@ [ } $ +           ",
"          . @ # # # # # # # # # # # # # # % 0 %.)+(.F P.S e e e 5 ^.9 * !+~+{+]+^+!.U = U =.6.X X g.f K =.* * & } $ +           ",
"          . @ # # # # # # # # # # # # # # [ 9 /+q p +. .e e e e f _.D (+_+m :+0 - <+[+}+9 { - |+c.D.P 7 * * [ % } # +           ",
"          . @ # # # # # # # # # # # # # # * (+1+2 p P.S e e e X 2+D 3+4+5+6+,.m 7+F.q $+8+|.= @ @ * * ] [ & % } $ # +           ",
"          . @ # # # # # # # # # # # # # # * 9+0+2 2 a+e e e f :.m b+c+R G d+_.- e+F R d e g.G.- @ ] & % % } } $ # # +           ",
"          . @ # # # # # # # # # # # # # # * D.f+F p ).e T 4.C 0 g+h+R F >.f P D i+q F  .e e T : ~ @ [ % $ $ # # # # +           ",
"          . @ # # # # # # # # # # # # # # j+9 k+l+F.m+8+D.0 @ = ) R (.a+e K D @ *+n+c >.e e e e f H * & } # # # # # +           ",
"          . @ # # # # # # # # # # # # # # } * ~ c.o+s * * * * p+;.c *.S 5 l.@ * ,.q+2 W r e e e 5 x m ] % $ # # # # +           ",
"          . @ # # # # # # # # # # # # # # $ & * * * * ] a { = X.2 W @.e 5 _.* !.D r+(.R s+4 e e e 7.U * % $ # # # # +           ",
"          . @ # # # # # # # # # # # # # # # $ } % & % % % { t+u+F >.e e 7.!.* :+!.C v+F F P.4 e T G.m ] % } # # # # +           ",
"          . @ # # # # # # # # # # # # # # # # # $ $ $ $ } { d.w+v 4 e X , @ [ % j+{ x+y++.(.).e 6.~ * [ % $ # # # # +           ",
"          . @ # # # # # # # # # # # # # # # # # # # # # } 0 z+A+*.e X o+{ ] & } } a * 9 7+B+C+D+,.* [ & } $ # # # # +           ",
"          . @ # # # # # # # # # # # # # # # # # # # # # E+!.F+w+G+K :.!.] & % $ # # % { * = D 0 * ] & % $ # # # # # +           ",
"          . @ # # # # # # # # # # # # # # # # # # # # # $ a U H+I+P { ] & % } $ # # # } & [ [ a a % % $ # # # # # # +           ",
"          . @ # # # # # # # # # # # # # # # # # # # # # # % { = { { [ & % } $ # # # # # $ $ } } } } $ # # # # # # # +           ",
"          . @ # # # # # # # # # # # # # # # # # # # # # # $ } & & & % } } $ # # # # # # # # # $ $ # # # # # # # # # +           ",
"          . @ # # # # # # # # # # # # # # # # # # # # # # # # $ $ $ $ $ # # # # # # # # # # # # # # # # # # # # # # +           ",
"          . @ # # # # # # # # # # # # # # # # # # # # # # # # # # # # # # # # # # # # # # # # # # # # # # # # # # # +           ",
"          . @ # # # # # # # # # # # # # # # # # # # # # # # # # # # # # # # # # # # # # # # # # # # # # # # # # # # +           ",
"          . @ # # # # # # # # # # # # # # # # # # # # # # # # # # # # # # # # # # # # # # # # # # # # # # # # # # # +           ",
"          . @ # # # # # # # # # # # # # # # # # # # # # # # # # # # # # # # # # # # # # # # # # # # # # # # # # # # +           ",
"          . @ # # # # # # # # # # # # # # # # # # # # # # # # # # # # # # # # # # # # # # # # # # # # # # # # # # # +           ",
"          . @ # # # # # # # # # # # # # # # # # # # # # # # # # # # # # # # # # # # # # # # # # # # # # # # # # # # +           ",
"          . @ # # # # # # # # # # # # # # # # # # # # # # # # # # # # # # # # # # # # # # # # # # # # # # # # # # # +           ",
"          . @ # # # # # # # # # # # # # # # # # # # # # # # # # # # # # # # # # # # # # # # # # # # # # # # # # # # +           ",
"          . @ # # # # # # # # # # # # # # # # # # # # # # # # # # # # # # # # # # # # # # # # # # # # # # # # # # # +           ",
"          . @ # # # # # # # # # # # # # # # # # # # # # # # # # # # # # # # # # # # # # # # # # # # # # # # # # # # +           ",
"          . @ # # # # # # # # # # # # # # # # # # # # # # # # # # # # # # # # # # # # # # # # # # # # # # # # # # # +           ",
"          . @ # # # # # # # # # # # # # # # # # # # # # # # # # # # # # # # # # # # # # # # # # # # # # # # # # # # +           ",
"          + + + + + + + + + + + + + + + + + + + + + + + + + + + + + + + + + + + + + + + + + + + + + + + + + + + + + +           ",
"                                                                                                                                ",
"                                                                                                                                ",
"                                                                                                                                ",
"                                                                                                                                ",
"                                                                                                                                "};
