/* XPM */
static char * away_xpm[] = {
"11 10 56 1",
" 	c None",
".	c #998661",
"+	c #000000",
"@	c #969696",
"#	c #C8BEB1",
"$	c #C5BAAC",
"%	c #C2B6A6",
"&	c #BFB2A1",
"*	c #BBAE9B",
"=	c #B8AB96",
"-	c #B5A790",
";	c #B2A38B",
">	c #AE9F85",
",	c #AB9B80",
"'	c #A8987B",
")	c #C7BCAF",
"!	c #C4B8A9",
"~	c #C0B4A4",
"{	c #BDB19E",
"]	c #BAAD99",
"^	c #B7A993",
"/	c #B3A58E",
"(	c #B0A188",
"_	c #AD9E83",
":	c #AA9A7D",
"<	c #A69678",
"[	c #C2B6A7",
"}	c #BFB3A1",
"|	c #BCAF9C",
"1	c #B5A791",
"2	c #AFA086",
"3	c #AB9C80",
"4	c #A59475",
"5	c #C1B5A4",
"6	c #BDB19F",
"7	c #B7A994",
"8	c #B4A58E",
"9	c #B0A289",
"0	c #AA9A7E",
"a	c #A79678",
"b	c #A39273",
"c	c #C2B7A7",
"d	c #BFB3A2",
"e	c #B9AB97",
"f	c #B2A48C",
"g	c #AC9C81",
"h	c #A59476",
"i	c #A29170",
"j	c #BEB19F",
"k	c #BAAD9A",
"l	c #B4A68F",
"m	c #B1A289",
"n	c #AD9E84",
"o	c #A79679",
"p	c #A49373",
"q	c #A08F6E",
"    .+.    ",
"   .@+@.   ",
"  .     .  ",
" .       . ",
"#$%&*=-;>,'",
")!~{]^/(_:<",
"$[}|=1;23'4",
"!56]789_0ab",
"cd|e1f2g'hi",
"5jk7lmn0opq"};
