/* XPM */
static char * ffc_xpm[] = {
"13 13 23 1",
" 	c None",
".	c #02F303",
"+	c #02F103",
"@	c #03EE03",
"#	c #04EB02",
"$	c #04E802",
"%	c #01F603",
"&	c #05E602",
"*	c #05E302",
"=	c #06E002",
"-	c #06DD02",
";	c #07DB01",
">	c #18AF0A",
",	c #08D801",
"'	c #000000",
")	c #08D501",
"!	c #09D201",
"~	c #09CF01",
"{	c #0ACD01",
"]	c #0ACA01",
"^	c #0BC700",
"/	c #118906",
"(	c #0CC400",
"    .+@#$    ",
"  %.+@#$&*=  ",
" %.+@#$&*=-; ",
" .+@>$&*>-;, ",
".+@>'>*>'>,)!",
"+@#$>*=->,)!~",
"@#$&*=-;,)!~{",
"#$&*=-;,)!~{]",
"$&*'-;,)!'{]^",
" *=/>,)!>/]^ ",
" =-;>'''>]^( ",
"  ;,)!~{]^(  ",
"    !~{]^    "};
