/* XPM */
static char * file_xpm[] = {
"13 11 100 2",
"  	c None",
". 	c #D8DC94",
"+ 	c #D4D890",
"@ 	c #D1D58D",
"# 	c #CED189",
"$ 	c #CBCD86",
"% 	c #D8DD94",
"& 	c #D5D991",
"* 	c #D2D58D",
"= 	c #CFD18A",
"- 	c #CBCE86",
"; 	c #C8CA83",
"> 	c #C5C67F",
", 	c #E8F0A7",
"' 	c #E5ECA3",
") 	c #E2E99F",
"! 	c #DFE59C",
"~ 	c #DCE198",
"{ 	c #D8DD95",
"] 	c #D5DA91",
"^ 	c #D2D68E",
"/ 	c #CFD28A",
"( 	c #CCCE87",
"_ 	c #C9CA83",
": 	c #C6C780",
"< 	c #C3C37C",
"[ 	c #E6EDA4",
"} 	c #E2E9A0",
"| 	c #DCE299",
"1 	c #D9DE95",
"2 	c #D6DA92",
"3 	c #D3D68E",
"4 	c #D0D38B",
"5 	c #CCCF87",
"6 	c #C9CB84",
"7 	c #C3C47D",
"8 	c #C0C079",
"9 	c #E3EAA1",
"0 	c #E0E69D",
"a 	c #DDE299",
"b 	c #D9DE96",
"c 	c #D6DB92",
"d 	c #D3D78F",
"e 	c #CDCF88",
"f 	c #CACC84",
"g 	c #C7C881",
"h 	c #C4C47D",
"i 	c #C0C07A",
"j 	c #BDBD76",
"k 	c #E0E79E",
"l 	c #DDE39A",
"m 	c #DADF96",
"n 	c #D7DB93",
"o 	c #D4D88F",
"p 	c #D1D48C",
"q 	c #CDD088",
"r 	c #CACC85",
"s 	c #C4C57E",
"t 	c #C1C17A",
"u 	c #BEBD77",
"v 	c #BBB973",
"w 	c #DEE39B",
"x 	c #DAE097",
"y 	c #D7DC93",
"z 	c #CBCD85",
"A 	c #C8C982",
"B 	c #C1C17B",
"C 	c #BEBE77",
"D 	c #BBBA74",
"E 	c #B8B670",
"F 	c #DBE098",
"G 	c #D5D990",
"H 	c #C8CA82",
"I 	c #C2C27B",
"J 	c #BFBE78",
"K 	c #BCBB74",
"L 	c #B8B771",
"M 	c #B5B36D",
"N 	c #CCCE86",
"O 	c #C2C37C",
"P 	c #BFBF78",
"Q 	c #BCBB75",
"R 	c #B9B771",
"S 	c #B6B46E",
"T 	c #B3B06A",
"U 	c #C9CB83",
"V 	c #C0BF79",
"W 	c #BDBC75",
"X 	c #B9B872",
"Y 	c #B3B06B",
"Z 	c #B0AD67",
"` 	c #CDCF87",
" .	c #CACB84",
"..	c #C6C880",
"+.	c #BDBC76",
"@.	c #BAB972",
"#.	c #B7B56F",
"$.	c #B4B16B",
"%.	c #B0AD68",
"&.	c #ADA964",
"              . + @ # $   ",
"            % & * = - ; > ",
", ' ) ! ~ { ] ^ / ( _ : < ",
"[ } ! | 1 2 3 4 5 6 : 7 8 ",
"9 0 a b c d 4 e f g h i j ",
"k l m n o p q r g s t u v ",
"w x y + p # z A s B C D E ",
"F . G @ # $ H > I J K L M ",
"{ & * / N _ > O P Q R S T ",
"2 ^ / 5 U : < V W X S Y Z ",
"d 4 `  ...7 8 +.@.#.$.%.&."};
