/* XPM */
static char * message_xpm[] = {
"15 11 81 1",
" 	c None",
".	c #FFFFFF",
"+	c #FFFCC8",
"@	c #FFFBBE",
"#	c #FFFBB4",
"$	c #FFFBA9",
"%	c #FFFB9F",
"&	c #FFFB94",
"*	c #FFFB8A",
"=	c #FFFB7F",
"-	c #FFFB75",
";	c #FFFB6A",
">	c #FFFA60",
",	c #FFFA56",
"'	c #FFFA4B",
")	c #828282",
"!	c #FFFBC1",
"~	c #000000",
"{	c #FFFB97",
"]	c #FFFA59",
"^	c #FFFA44",
"/	c #FFFBBA",
"(	c #FFFBB0",
"_	c #FFFBA5",
":	c #FFFB9B",
"<	c #FFFB90",
"[	c #FFFB86",
"}	c #FFFB7B",
"|	c #FFFB71",
"1	c #FFFB66",
"2	c #FFFA5C",
"3	c #FFFA52",
"4	c #FFFA47",
"5	c #FFFA3D",
"6	c #FFFBB3",
"7	c #FFFBA8",
"8	c #FFFB74",
"9	c #FFFA35",
"0	c #FFFBAC",
"a	c #FFFBA1",
"b	c #FFFB8C",
"c	c #FFFB82",
"d	c #FFFB77",
"e	c #FFFB6D",
"f	c #FFFA62",
"g	c #FFFA58",
"h	c #FFFA4D",
"i	c #FFFA43",
"j	c #FFFA39",
"k	c #FFFA2E",
"l	c #FFFBA4",
"m	c #FFFA46",
"n	c #FFFA27",
"o	c #FFFB9D",
"p	c #FFFB93",
"q	c #FFFB88",
"r	c #FFFB7E",
"s	c #FFFB73",
"t	c #FFFB69",
"u	c #FFFA5E",
"v	c #FFFA54",
"w	c #FFFA49",
"x	c #FFFA3F",
"y	c #FFFA2A",
"z	c #FFFA20",
"A	c #FFFB96",
"B	c #FFFB76",
"C	c #FFFA18",
"D	c #FFFB8F",
"E	c #FFFB84",
"F	c #FFFB7A",
"G	c #FFFB6F",
"H	c #FFFB65",
"I	c #FFFA5A",
"J	c #FFFA50",
"K	c #FFFA45",
"L	c #FFFA3B",
"M	c #FFFA31",
"N	c #FFFA26",
"O	c #FFFA1C",
"P	c #FFFA11",
"...............",
".+@#$%&*=-;>,')",
".!~~~{~~~~~]~^)",
"./(_:<[}|12345)",
".67~~~~8;~~~~9)",
".0a{bcdefghijk)",
".l~~~~~1~~m~~n)",
".opqrstuvwx9yz)",
".A~~B~~~h~~~~C)",
".DEFGHIJKLMNOP)",
".))))))))))))))"};
