/* XPM */
static char * na_xpm[] = {
"13 9 73 1",
" 	c None",
".	c #FF0000",
"+	c #FA0000",
"@	c #F60000",
"#	c #F20000",
"$	c #ED0000",
"%	c #E90000",
"&	c #E50000",
"*	c #E10000",
"=	c #DC0000",
"-	c #D80000",
";	c #D40000",
">	c #D00000",
",	c #CB0000",
"'	c #FC0000",
")	c #F6F6F6",
"!	c #EBEBEB",
"~	c #E6E6E6",
"{	c #E1E1E1",
"]	c #DCDCDC",
"^	c #D7D7D7",
"/	c #D1D1D1",
"(	c #CCCCCC",
"_	c #C7C7C7",
":	c #C2C2C2",
"<	c #C80000",
"[	c #F90000",
"}	c #F2F2F2",
"|	c #000000",
"1	c #E8E8E8",
"2	c #E3E3E3",
"3	c #D8D8D8",
"4	c #D3D3D3",
"5	c #C4C4C4",
"6	c #BEBEBE",
"7	c #C50000",
"8	c #EFEFEF",
"9	c #DFDFDF",
"0	c #D5D5D5",
"a	c #CBCBCB",
"b	c #C5C5C5",
"c	c #BBBBBB",
"d	c #C20000",
"e	c #F30000",
"f	c #B8B8B8",
"g	c #C00000",
"h	c #F00000",
"i	c #DEDEDE",
"j	c #CECECE",
"k	c #B4B4B4",
"l	c #BD0000",
"m	c #E5E5E5",
"n	c #DADADA",
"o	c #C0C0C0",
"p	c #B1B1B1",
"q	c #BA0000",
"r	c #EA0000",
"s	c #BDBDBD",
"t	c #B2B2B2",
"u	c #ADADAD",
"v	c #B70000",
"w	c #E70000",
"x	c #E30000",
"y	c #DE0000",
"z	c #DA0000",
"A	c #D60000",
"B	c #D20000",
"C	c #CD0000",
"D	c #C90000",
"E	c #C10000",
"F	c #BC0000",
"G	c #B80000",
"H	c #B40000",
".+@#$%&*=-;>,",
"')!!~{]^/(_:<",
"[}|12|34||567",
"@8||9|0|ab|cd",
"e!|{||/||||fg",
"h1|i3|j|56|kl",
"$m|n0|a|oc|pq",
"r{]^/(_:sftuv",
"wxyzABCD7EFGH"};
