/* XPM */
static char * occupied_xpm[] = {
"9 9 16 1",
" 	c None",
".	c #54BCF5",
"+	c #4EB0F6",
"@	c #48A5F6",
"#	c #4299F7",
"$	c #3C8DF8",
"%	c #4178E6",
"&	c #4862D1",
"*	c #FFFFFF",
"=	c #3682F8",
"-	c #2A6AFA",
";	c #245FFA",
">	c #1E53FB",
",	c #1847FC",
"'	c #123CFC",
")	c #0C30FD",
"  .+@#$  ",
" .+@#$%& ",
".+*#$=*-;",
"+@#*%*-;>",
"@#$=*-;>,",
"#$%*-*>,'",
"$%*-;>*')",
" &-;>,') ",
"  ;>,')  "};
