/* XPM */
static const char * xpmIconNewMsg[] = {
"48 48 256 2",
"  	c None",
". 	c #050204",
"+ 	c #96824C",
"@ 	c #564224",
"# 	c #62624C",
"$ 	c #DAC264",
"% 	c #2E2214",
"& 	c #CE8634",
"* 	c #724614",
"= 	c #946224",
"- 	c #4A2E0C",
"; 	c #DEA244",
"> 	c #76562C",
", 	c #967244",
"' 	c #FEE264",
") 	c #9EA25C",
"! 	c #5A5A1C",
"~ 	c #161208",
"{ 	c #36322C",
"] 	c #5E421C",
"^ 	c #4E3A1B",
"/ 	c #EABA54",
"( 	c #8D5A24",
"_ 	c #AE723A",
": 	c #AE824C",
"< 	c #3A2204",
"[ 	c #825624",
"} 	c #D6D664",
"| 	c #CD9654",
"1 	c #2A1A08",
"2 	c #664A27",
"3 	c #724E20",
"4 	c #EEA24C",
"5 	c #966A33",
"6 	c #AE8E3C",
"7 	c #E6E6E4",
"8 	c #7A6234",
"9 	c #9E7A4C",
"0 	c #1E1A0C",
"a 	c #6E4212",
"b 	c #5E3A14",
"c 	c #7E4E1C",
"d 	c #7A724C",
"e 	c #56320C",
"f 	c #7D5E34",
"g 	c #A67234",
"h 	c #BE8242",
"i 	c #9E6A32",
"j 	c #FEC254",
"k 	c #2B2A1C",
"l 	c #DE923C",
"m 	c #FEF654",
"n 	c #25160B",
"o 	c #3E2A14",
"p 	c #F2AA54",
"q 	c #0E0A04",
"r 	c #7E5627",
"s 	c #AE7A3C",
"t 	c #876233",
"u 	c #7A4E28",
"v 	c #BF8A49",
"w 	c #FEFE8A",
"x 	c #D68E34",
"y 	c #B6BA4C",
"z 	c #1E120B",
"A 	c #5E4224",
"B 	c #563A1C",
"C 	c #865E2B",
"D 	c #FED24C",
"E 	c #DE9644",
"F 	c #504A28",
"G 	c #35220C",
"H 	c #4E361C",
"I 	c #E4A250",
"J 	c #F6B25C",
"K 	c #A4723C",
"L 	c #A66A24",
"M 	c #462A14",
"N 	c #8E6A3C",
"O 	c #865A27",
"P 	c #FECE5C",
"Q 	c #FDAA44",
"R 	c #BE7E3C",
"S 	c #8E622C",
"T 	c #FEBA54",
"U 	c #9E621C",
"V 	c #4E3217",
"W 	c #785A34",
"X 	c #16160F",
"Y 	c #3A3A1C",
"Z 	c #664218",
"` 	c #361E0C",
" .	c #6E4A21",
"..	c #765224",
"+.	c #BF8E4F",
"@.	c #FEFEBC",
"#.	c #6E461C",
"$.	c #5E3E1C",
"%.	c #C68644",
"&.	c #FEFA5C",
"*.	c #120A04",
"=.	c #B67A3A",
"-.	c #0C0604",
";.	c #8E8E4C",
">.	c #D6C6B4",
",.	c #764A25",
"'.	c #DEAA54",
").	c #9E7240",
"!.	c #C6AE54",
"~.	c #965E1C",
"{.	c #D69E54",
"].	c #2E1E0C",
"^.	c #724E2C",
"/.	c #FEA63C",
"(.	c #9A6A2C",
"_.	c #86521C",
":.	c #563614",
"<.	c #BF8641",
"[.	c #9E6E32",
"}.	c #FEC264",
"|.	c #7E5A2C",
"1.	c #CE8E44",
"2.	c #573E1D",
"3.	c #FEDA5C",
"4.	c #4A4A4C",
"5.	c #352614",
"6.	c #A6763F",
"7.	c #452E16",
"8.	c #C68E54",
"9.	c #CED2B4",
"0.	c #72723C",
"a.	c #B6BA8C",
"b.	c #DEDE9C",
"c.	c #BAAEA4",
"d.	c #A6A6A4",
"e.	c #8E763C",
"f.	c #6E522B",
"g.	c #DECA6C",
"h.	c #FEFEFC",
"i.	c #EE9E3C",
"j.	c #8E8E5C",
"k.	c #46321B",
"l.	c #C2B6A4",
"m.	c #FEF27C",
"n.	c #C6BA54",
"o.	c #D6A264",
"p.	c #DE9E4C",
"q.	c #7E766C",
"r.	c #FAFAA4",
"s.	c #362A1C",
"t.	c #FEFE7C",
"u.	c #E8922C",
"v.	c #D68A34",
"w.	c #B6762C",
"x.	c #D2964C",
"y.	c #F6A23C",
"z.	c #AA7624",
"A.	c #F6AA54",
"B.	c #FEB24C",
"C.	c #FEDA6C",
"D.	c #262224",
"E.	c #F6BA6C",
"F.	c #FECA74",
"G.	c #9E6634",
"H.	c #FEFEDC",
"I.	c #625624",
"J.	c #B68244",
"K.	c #A67A44",
"L.	c #261A0C",
"M.	c #663A0C",
"N.	c #664624",
"O.	c #DEA25C",
"P.	c #A6A65C",
"Q.	c #966634",
"R.	c #3E260C",
"S.	c #956E3C",
"T.	c #EEAE64",
"U.	c #E6A65C",
"V.	c #92923C",
"W.	c #4E4E3C",
"X.	c #C68A3C",
"Y.	c #CE8A34",
"Z.	c #7E5224",
"`.	c #A66E33",
" +	c #8E6636",
".+	c #B67E3E",
"++	c #DECE7C",
"@+	c #FEB659",
"#+	c #764A15",
"$+	c #8E5E27",
"%+	c #CE9A5C",
"&+	c #6D4614",
"*+	c #2E2E24",
"=+	c #3E2E1C",
"-+	c #D5923C",
";+	c #4E4E2C",
">+	c #FEAE3C",
",+	c #3E3E24",
"'+	c #FADE54",
")+	c #FEFE9C",
"!+	c #060604",
"~+	c #62461C",
"{+	c #0E0E04",
"]+	c #160E04",
"^+	c #76763C",
"/+	c #FEE27C",
"(+	c #CED2CC",
"_+	c #826234",
":+	c #FEBA64",
"<+	c #AE763C",
"[+	c #1E1E14",
"}+	c #FEC658",
"|+	c #AE7E44",
"1+	c #7A5227",
"2+	c #1E160C",
"3+	c #5E462C",
"4+	c #DE9A4C",
"5+	c #66461C",
"6+	c #6E4E24",
"7+	c #9E7643",
"8+	c #FEC66C",
"9+	c #CE924C",
"0+	c #C6924C",
"a+	c #FEF674",
"b+	c #F6A644",
"c+	c #F6AE5C",
"d+	c #B6864C",
"e+	c #A67E4C",
"f+	c #663E14",
"g+	c #EEA64C",
"h+	c #E6EAE4",
"i+	c #D6A664",
"j+	c #966234",
"k+	c #765634",
"l+	c #4E3A24",
"m+	c #82562C",
"n+	c #86623C",
"o+	c #56361C",
"p+	c #4A2E1C",
"q+	c #FEF664",
"r+	c #FED25C",
"s+	c #FEFECC",
"t+	c #7E5A34",
"u+	c #DECA7C",
"v+	c #8E8E6C",
"w+	c #CE8A44",
"x+	c #7E522C",
"y+	c #5A4220",
"z+	c #7A5628",
"A+	c #1A1205",
"B+	c #523A1C",
"C+	c #865621",
"D+	c #2E1A0C",
"E+	c #6A4A24",
"F+	c #764E1F",
"G+	c #7E623C",
"k.B 7.7.7.k.B B V 7.H 2.2.2.B V V V V V :.] $.:.V e B ] :.B 2 2.V B+2.H B B 2.2.B+k.V H H k.7.5.",
"3+#.5+] ~+#...f z+3 3 W C t O 1+#+#+#+#+1+t C [ c 1+O t [ C ).[ 1+S |.r C C _+C 3 #...z+f.&+2.V ",
"B+2 5+N.Z ~+#.y+5.H V H $.2 C z+3 #+ .#+F+$+$+[ H :.D+q . o 5 3 r C r W |.C _+..#.6+> 6+5+] B+R.",
"k.~+2 ~+y+y+] k.. . . . . . . . . . . . . . . . . . . . . G C #+O |.1+|.O f 1+~+E+f.6+~+$.:.V ].",
"7.y+E+2 ] ] y+:.].% -.-.q !+q !+q !+q -.q !+q !+q !+~ G ].f.1+3 C 1+..W W r E+~+6+6+~+2.:.V V ].",
"o $.Z ~+2 5+2.Z ] 6+W 0 -.{+q q {+q -.{+q q {+q -.{+..[ O , 3 z+|.Z.|.C C 6+ .F+f.~+f+B e H ^ R.",
"7.b $.Z 5+6+E+5+~+&+> o ]+{+]+]+{+{+]+{+{+]+{+]+]+{+$+O S 5 c S f O _+t W E+..t+6+] 2.:.b 2.y+=+",
"7.b 2.2.f+~+..6+E+E+F+y+z z A+z z z z z z z z A+z L.(.C ).= ( Q.C S Q. +r 1+C ..E+f+b 2.~+2 2 k.",
"o b $.2.$.] E+r ..3 F+2.n z n z z n z z n z n A+n o g ~.J.C 5 N = [.).C r S W F+Z $.Z 6+..> f.k.",
"V b $.b $.f+5+3 C |.1+r n 0 n 0 n 0 n 0 n 0 n n 0 V s (.v = z.(.6.6.5 O  +S 1+&+Z E+z+W f f f.k.",
"H Z f+2.$.f+Z E+1+S C O ].D+].D+].D+].D+].D+].D+].:..+=.J.[.s z.|+e+= (.S.O 3 &+c |._+ +G+W f.=+",
"B 6+ .M.2.f+Z &+3 O 5 Q.7.% ` % ` % ` % ` % ` % ` 2.h 9+=.%.=.<.v g ).6.= _.3 O  +5 ,  +_+k+E+=+",
"y+z+> F+~+Z Z &+#+1+C [.2.G 5.5.G 5.G 5.G 5.G 5.G O & p =.-+X.0+<.z.<.(.C 1+= S.e.7+N n+W ..~+o ",
"2 C C z+..3  .&+3 c [ = ] o R.R.s.R.o R.s.R.o R.o g -+J -+-+{.U.=.9+s = $+[.e+d+K., N f r 6+~+o ",
"3+f _+_+C O |.1+c ..C+$+&+o o =+o o o M o o o o o h i.b+@+g+J -+4+<.[.L .+6 8.: 7+5 C W ..E+y+R.",
"B+r C C _+t  + +S ( [ ~.1+V 7.7.k.7.k.7.k.7.V 7.k.0+}+b+T j B.g+4+=.w.9+{.%+v K.[.S O Z.3 ~+b G ",
"7.f+#+.._+S 5 e.g ).[.= 1+V V H V V k.V V k.V V k.!.t.D P /+B.J Y.Y.U./ O.+..+).Q.C z+F+N.f+b G ",
"e Z b M.Z 3 $+[.z.: <.J.= k.:.:.H H :.:.:.B k.:.H n.t.a+t.}+3.b+4 8+F.T.| h 6.(.C _.#+&+a $.b 5.",
"2 _+=+n 2+z G &+S s <.@ 5.A+2+].L.~ ~ ~ ]+z ~ ]+~ Y ! 0.;+;+k.^ F + J | y+o y+( Z G 2+n 2+5.Z o ",
"E+ +k.!+. . . R.&+c U k.q . q % z . . . !+-.-.q !+!+X W.k !+. . *+f p.[.. . 1 c ~+].q . -.o E+7.",
"~+S t :.. . . {+2 ).[.U L.. o f+V n . . 2+7.- V 7.D.X ;.y k . . 6 Q v.:.. . {+~+(.Q.o . k.> ..k.",
"$.z+f E+. . !+. ~ f.X.p.H . V ~+&+s.. . % 2.~+~+] 0.4.) 7 # . . z.u.u.A+. . . H g ).=+{+|. +C l+",
"6+S  +3 . A+5.. . {+E+X.2.. H E+ .o . . A+o o o o+c.9.h+@.;.q . I./ +.. 0 . . s.6.S.L.5.....~+o ",
"6+ +N f . 5._+% . . A+ +@ !+H 3 ,.=+. . . . . . ].>.h.w @.a.*+. [+$ f.-. .A+. q :.:.*.- 5+&+f+R.",
"2.z+O ~+. ].t 6+].. . A+].. 2.k+1+o . . A+=+=+7.2.l.(+h+H.b.;+. . e.0 ` <.] . . k.=+*.E+C z+6+7.",
"] O O E+. ].= G.z+].. . . -.B 1+x+k.. . 5. .r 1+3 q.4.d.h.r.0.!+. 0 . ..9+= !+. *.q ]...O ..6+7.",
"y+z+z+] . 1 O $+= z+L.. . !+A [ m+7.. . o F+O m+z+{ X j.@.s+) X . . . <.-+Z.L.. . . H z+|...E+o ",
"b F+:.]+. {+2.5 d+9+S.~ . . Z ,.].!+. . -.*.~ A+{+!+{+v+w t.} ,+. . ].p I |.k.. . q ~+O r ..&+7.",
"~+ +5.. . . 5., | o.i+, q !+~+F+n . . . . . . . . . X ;.w t.'+F . . f p 1.C #.q . 0 1+S W 1+E+=+",
"f., 7+, K.e+: d++.+.0+-+d+Q.j+Q.S j+=  +j+S j+= S g.r.m t.t.3.j Q E.4 E J.j+j+[.[.i 5  +t |.6+7.",
"W 9 K.7+7+9 7+K.K.s : X.J.G.Q.G.G.N G.Q.G.N G.G.Q.++&.m D '+3.J Q v..+g Q.Q.i s 6.[.t O O > ..k.",
"k+S.e.S.N  +N 5 ).s s =.s [.(.[.(.i (.`.(.i 5 (.S.++D m.>+; '.v g (.i (.[.(.(.5 5 [.S.S |.3 2 7.",
"6+ +W B 2.2.] ~+..(.[.K w.`.`.`.`.`.`.`.`.j+E+ .E+r t > [.g [.[.`.[.`.`.j+2.G 5.7.~+C t _+|.6+7.",
"~+f ..A+. . . q E+S (.6.J.)._ K _ K _ E+{+. . . . . . = z.g _ _ g _ K V . . . . . . ].1+> ..6+k.",
"A W f ].. . . ].O Q.[.d+h <+<+<+<+<+A . . . . . . . n <+s _ <+z.=.<+R.. . . . . . . . 0 ..E+~+=+",
"A r r k.. . . 0 t 5 : d+<+s s s s ... . . . . . . . o s =.=.s =.=.C . . . . . . . . . . y+6+~+R.",
"$.....V . . . ]. +K.K.$+=.R R R R ]+. . . 5.[..+R H x+R R R R R R 0 . . . 5.= z+5.. . . {+ .~+o ",
"B+6+3 =+. . . H , 5 [ S s h R J.j+. . . {+h R <.R Q.j+J.R J.R J.R . . . 0 h g 1+1+{+. . . 2.2.o ",
"B+E+ .k.. . . 2 _+3 O 5 =.%.%.<.[ . . . o <.%.<.<.<.%.<.%.<.%.<.%.. . . o %.<+F+F+0 . . . $.:.G ",
"V E+6+k.. . . 2.E+z+t c w+w+w+w+|.. . . M w+w+w+& =.w+w+w+w+w+w+w+. . . A+=..+z+&+-.. . . 2.H G ",
":.6+6+^ . . . 1 F+C 3 a X.w+& w+G.. . . . s & w+%.,.,.w+& w+& w+%.o . . . {+Z V q . . . ]+2.B+G ",
"^ f.W ^ . . . 0 |.E+f+C w+& w+w+w+{+. . . ]+,.O |.{+. s <.w+<.X.Y.G.. . . . . . . . . . :.B B G ",
"2.z+8 7.. . . 0 _ [.=.w+w+<.w+<.w+[ . . . . . . . . . ]+s %.w+%.w+w+r . . . . . . . . . ].7.:.% ",
"y+G+> X . . . D+w+w+w+X.w+<.w+& w+w+^ . . . . . . . . . ` w+<.w+& w+w+(.1 . . . . {+. . ` ^ H G ",
"3+6+G -.. . . . 2._ i j+j+5 ,.5+3 a a H !+. . . . . % W #.,. . .C j+C $+w+<.|.B+Z 2.!+y+] H V ].",
"^ 2.2.2.3+2.:.V ] E+2 6+k+F+A N.#.B Z 3 F+@ V H ^ |.t t ..a Z a  .6+ .2.( %.%.Z.2.H B y+~+^ V ].",
"7.b 2.y+:.=+7.H 2.A y+~+2 ] B+2.B e 2.Z 5+f+~+E+E+F+k+k+E+$.b 2.2.5+Z B+b =.=.c :.H :.^ 2.B+H ].",
"G V 5.].0 n n ].% % G 5.% D+].` D+0 G % % % G G 5.5.s.=+5.% ].].].% G ].0 n 1 n 0 0 1 0 ].0 ].0 "};
