/* XPM */
static const char * iconMsg_xpm[] = {
"64 64 5 1",
" 	c None",
".	c #202020",
"+	c #004941",
"@	c #CCCCCC",
"#	c #20B2AE",
"                                                                ",
"                                                                ",
"                                                                ",
"                                                                ",
"                                                                ",
"                                                                ",
"                                                                ",
"                                                                ",
"                                                                ",
"                                                                ",
"                                                                ",
"                                                                ",
"                                                                ",
"                                                                ",
"                                                                ",
"                                                                ",
"                                                                ",
"                                                                ",
"    ........................................................    ",
"    .++++++++++++++++++++++++++++++++++++++++++++++++++++++@    ",
"    .+###+#++#++##++##++#+++#+###+#++#++###++++++++++++++++@    ",
"    .++#++##+#+#+++#++#+##+##++#++##+#+#+++++++++++++++++++@    ",
"    .++#++#+##+#+++#++#+#+#+#++#++#+##+#+##++++++++++++++++@    ",
"    .++#++#++#+#+++#++#+#+++#++#++#++#+#++#++++++++++++++++@    ",
"    .+###+#++#++##++##++#+++#+###+#++#++###++++++++++++++++@    ",
"    .++++++++++++++++++++++++++++++++++++++++++++++++++++++@    ",
"    .+#+++#+####++###++###++##+++###+####++++++++++++++++++@    ",
"    .+##+##+#++++#++++#++++#++#+#++++#+++++++++++++++++++++@    ",
"    .+#+#+#+###+++##+++##++####+#+##+###+++++++++++++++++++@    ",
"    .+#+++#+#+++++++#++++#+#++#+#++#+#+++++++++++++++++++++@    ",
"    .+#+++#+####+###++###++#++#++###+####+##+##+##+++++++++@    ",
"    .++++++++++++++++++++++++++++++++++++++++++++++++++++++@    ",
"    .++++++++++++++++++++++++++++++++++++++++++++++++++++++@    ",
"    .++++++++++++++++++++++++++++++++++++++++++++++++++++++@    ",
"    .++++++++++++++++++++++++++++++++++++++++++++++++++++++@    ",
"    .++++++++++++++++++++++++++++++++++++++++++++++++++++++@    ",
"    .++++++++++++++++++++++++++++++++++++++++++++++++++++++@    ",
"    .++++++++++++++++++++++++++++++++++++++++++++++++++++++@    ",
"    .++++++++++++++++++++++++++++++++++++++++++++++++++++++@    ",
"    .++++++++++++++++++++++++++++++++++++++++++++++++++++++@    ",
"    .++++++++++++++++++++++++++++++++++++++++++++++++++++++@    ",
"    .++++++++++++++++++++++++++++++++++++++++++++++++++++++@    ",
"    .++++++++++++++++++++++++++++++++++++++++++++++++++++++@    ",
"    .++++++++++++++++++++++++++++++++++++++++++++++++++++++@    ",
"    .++++++++++++++++++++++++++++++++++++++++++++++++++++++@    ",
"    @@@@@@@@@@@@@@@@@@@@@@@@@@@@@@@@@@@@@@@@@@@@@@@@@@@@@@@@    ",
"                                                                ",
"                                                                ",
"                                                                ",
"                                                                ",
"                                                                ",
"                                                                ",
"                                                                ",
"                                                                ",
"                                                                ",
"                                                                ",
"                                                                ",
"                                                                ",
"                                                                ",
"                                                                ",
"                                                                ",
"                                                                ",
"                                                                ",
"                                                                "};
