/* XPM */
static char * contact_xpm[] = {
"16 16 41 1",
" 	c None",
".	c #0069C4",
"+	c #79B0E7",
"@	c #BFE0FC",
"#	c #BBDEFB",
"$	c #B7DBFA",
"%	c #B4D9F8",
"&	c #B0D6F7",
"*	c #ABD3F6",
"=	c #A6CFF4",
"-	c #FFF87A",
";	c #FFF170",
">	c #FFEA67",
",	c #FFE35D",
"'	c #95C4EF",
")	c #BADDFB",
"!	c #AFD5F7",
"~	c #000080",
"{	c #FFD549",
"]	c #B5DAF9",
"^	c #B1D7F8",
"/	c #AAD2F5",
"(	c #A2CDF3",
"_	c #FFDC53",
":	c #FFCE40",
"<	c #A1CCF2",
"[	c #9DC9F1",
"}	c #FFC736",
"|	c #A7D0F5",
"1	c #9CC8F1",
"2	c #98C6F0",
"3	c #FFC02C",
"4	c #8FC0ED",
"5	c #7CB3E7",
"6	c #A1CCF3",
"7	c #8ABCEB",
"8	c #86BAEA",
"9	c #82B7E9",
"0	c #7EB5E8",
"a	c #7BB2E6",
"b	c #77B0E5",
"                ",
"                ",
"                ",
"................",
".++++++++++++++.",
".+@#$%&*=-;>,'+.",
".+)..!*=-~>,~{+.",
".+]^+/=(;>,_{:+.",
".+&...<[>~_{~}+.",
".+*|++12,_~~}3+.",
".+=.....4{:}35+.",
".+6[++++7890ab+.",
".++++++++++++++.",
"................",
"                ",
"                "};
