/* XPM */
static char * gpgkey_xpm[] = {
"20 16 37 1",
" 	c None",
".	c #0069C4",
"+	c #B7DBFA",
"@	c #79B0E7",
"#	c #B7DAFA",
"$	c #B1D7F9",
"%	c #ACD3F7",
"&	c #A6D0F5",
"*	c #A1CCF3",
"=	c #9BC9F2",
"-	c #96C5F0",
";	c #91C0EE",
">	c #8CBEED",
",	c #87B9EB",
"'	c #82B6EA",
")	c #B6D9F9",
"!	c #B0D6F8",
"~	c #ABD2F6",
"{	c #A5CFF4",
"]	c #A0CBF3",
"^	c #9BC8F1",
"/	c #96C3EF",
"(	c #90C0EE",
"_	c #8ABCED",
":	c #85B9EB",
"<	c #80B5E9",
"[	c #B4D9F9",
"}	c #AFD5F8",
"|	c #AAD2F6",
"1	c #A4CDF5",
"2	c #9ECAF2",
"3	c #99C6F1",
"4	c #94C3EF",
"5	c #8EBFEE",
"6	c #89BBEC",
"7	c #84B8EB",
"8	c #B3D9F8",
"                    ",
"                    ",
"                    ",
"  ......            ",
" ..++++@.           ",
"..++++++@.......... ",
".++++++++@@@@@@@@@@.",
".+@.@+++#$%&*=-;>,'.",
".+. .+++)!~{]^/(_:<.",
".+@.@+++[}|1234567..",
".+++++++8@.@.@.@.@  ",
"..++++++.. . . . .  ",
" ..++++.            ",
"   ....             ",
"                    ",
"                    "};
