/* XPM */
static char * history_xpm[] = {
"16 16 20 1",
" 	c None",
".	c #0069C4",
"+	c #FFFA1F",
"@	c #87BAEC",
"#	c #FFFEFE",
"$	c #FFFEEF",
"%	c #FFFEDF",
"&	c #FFFECF",
"*	c #FFFDBF",
"=	c #FFFC8F",
"-	c #FFFC7F",
";	c #FFFDAF",
">	c #FFFD9F",
",	c #FFFB4F",
"'	c #FFFEE0",
")	c #FFFDCB",
"!	c #FFFDB6",
"~	c #FFFCA1",
"{	c #FFFC8B",
"]	c #FFFB3F",
"    .........   ",
"    .+++++++..@ ",
"   .+##$%&+.++.@",
"   .+#$%&*+.=-.@",
"   .+$%...+...@ ",
"   .+%&*;>+.@@  ",
"   .+&...=+.@   ",
"   .+*;>=-+.@   ",
"   .+..=-.+.@   ",
"   .+++++++.@   ",
"  .......,+.@   ",
" .+++++++.+.@   ",
" .+')!~{].+.@   ",
"  .+++++++.@    ",
"   .......@     ",
"   @@@@@@@      "};
