/* XPM */
static char * msnaway_xpm[] = {
"16 16 33 1",
" 	c None",
".	c #0069C7",
"+	c #1E5ED4",
"@	c #3061D2",
"#	c #3567D1",
"$	c #396ED2",
"%	c #426ACF",
"&	c #4173D2",
"*	c #4B77CF",
"=	c #5380CE",
"-	c #5A89CE",
";	c #628ECD",
">	c #6B94CE",
",	c #6C98CB",
"'	c #77A2CB",
")	c #81A7C8",
"!	c #A0A19F",
"~	c #8AB0C8",
"{	c #ADAEAB",
"]	c #91B9C7",
"^	c #99BEC6",
"/	c #B8B9B7",
"(	c #A2C7C5",
"_	c #C2C2C1",
":	c #ACCDC3",
"<	c #B1D6C5",
"[	c #CCCCCB",
"}	c #C0E0C2",
"|	c #D7D6D7",
"1	c #C3E8C3",
"2	c #DFE1E0",
"3	c #D1F0BE",
"4	c #ECEEEB",
"      ++@@      ",
"     +33<^@.    ",
"    @33<^)._.   ",
"    @3<^).[_.   ",
"    @<^'.[_/.   ",
"    #^..[[_/{.  ",
"    ..22[[//!.  ",
"  ..442|[_/{!!. ",
" .4442||__/{!!. ",
"  .442||_/{!!!!.",
"  .442[[_/{!!.. ",
"  &.|||_//!..=  ",
" &1.2|[//$.=$=  ",
" &}*.|_/.-=-#+- ",
"*}*(.[..;=&#-+- ",
"*<*^~.,;=&%+-+; "};
