/* XPM */
static char * msnoccupied_xpm[] = {
"16 16 33 1",
" 	c None",
".	c #FF0000",
"+	c #245FD3",
"@	c #3567D1",
"#	c #3B6ED2",
"$	c #4871D0",
"%	c #4676D0",
"&	c #517DCF",
"*	c #5986CE",
"=	c #628ECD",
"-	c #FF5E5C",
";	c #6B96CC",
">	c #77A2CB",
",	c #FF706F",
"'	c #81A7C8",
")	c #86AEC9",
"!	c #FF8180",
"~	c #90B6C7",
"{	c #FF8E8C",
"]	c #9ABFC6",
"^	c #FF9595",
"/	c #A5C9C5",
"(	c #FFA3A3",
"_	c #ADCEC4",
":	c #FFACA9",
"<	c #B1D7C5",
"[	c #FFB5B5",
"}	c #C0E0C2",
"|	c #C3E8C3",
"1	c #FFCCCB",
"2	c #D1F0BE",
"3	c #FFE0DF",
"4	c #FDF7F6",
"      ++++      ",
"     +22<]@     ",
"  ..+22<]'=@..  ",
" .44.2<]>=%.[:. ",
" .443.]'=%.[:(. ",
"  .333.=%.[:(.  ",
"   .311..[:(.   ",
"    .11[[:(.    ",
"     .[[:(.     ",
"    #.[:(^.&    ",
"   $.[:((^{.&   ",
"  $.[:(..{{!.*  ",
" #.[:(.)>.!,,.  ",
" .[[(.)>;=.,,-. ",
"%.:(.)>;=&%.--. ",
"%_..)';=&%@+..= "};
