/* XPM */
static char * online_xpm[] = {
"16 16 149 2",
"  	c None",
". 	c #037400",
"+ 	c #52CF30",
"@ 	c #89FC4F",
"# 	c #83E65B",
"$ 	c #59C343",
"% 	c #8BF25B",
"& 	c #4BC031",
"* 	c #057A00",
"= 	c #4BFB01",
"- 	c #49FA00",
"; 	c #4CF508",
"> 	c #2C951F",
", 	c #77FF35",
"' 	c #4EFF00",
") 	c #52FE07",
"! 	c #21B50A",
"~ 	c #47F700",
"{ 	c #45F600",
"] 	c #41F001",
"^ 	c #109108",
"/ 	c #1FBD00",
"( 	c #36DE06",
"_ 	c #37BD1E",
": 	c #0A7208",
"< 	c #49F503",
"[ 	c #4DFE00",
"} 	c #4AFB00",
"| 	c #35DC00",
"1 	c #2DD100",
"2 	c #40F100",
"3 	c #2DD000",
"4 	c #21C000",
"5 	c #32E200",
"6 	c #2EDE00",
"7 	c #29D403",
"8 	c #128D0D",
"9 	c #12A700",
"0 	c #45F400",
"a 	c #46F600",
"b 	c #41F100",
"c 	c #1CB400",
"d 	c #3BEB00",
"e 	c #16AA00",
"f 	c #31E000",
"g 	c #2DDD00",
"h 	c #29D800",
"i 	c #1DBB03",
"j 	c #036202",
"k 	c #7FE259",
"l 	c #69FD25",
"m 	c #45E80A",
"n 	c #36DE00",
"o 	c #58E007",
"p 	c #A3B216",
"q 	c #ADBB16",
"r 	c #4DBB0A",
"s 	c #2BDA00",
"t 	c #1FC000",
"u 	c #0F9500",
"v 	c #014200",
"w 	c #8AFD50",
"x 	c #48F900",
"y 	c #45F500",
"z 	c #3FEF00",
"A 	c #22BC00",
"B 	c #C9BA18",
"C 	c #FFFE01",
"D 	c #FFFB00",
"E 	c #B69915",
"F 	c #149A02",
"G 	c #11A300",
"H 	c #10A400",
"I 	c #0B9400",
"J 	c #015500",
"K 	c #44BD27",
"L 	c #3EEA00",
"M 	c #39E400",
"N 	c #24C000",
"O 	c #1FAF01",
"P 	c #E0C516",
"Q 	c #FFF500",
"R 	c #FFD400",
"S 	c #C18610",
"T 	c #22AD04",
"U 	c #1DCC00",
"V 	c #18C700",
"W 	c #14C200",
"X 	c #079D01",
"Y 	c #097F05",
"Z 	c #1FB601",
"` 	c #2FD800",
" .	c #33E200",
"..	c #66AA11",
"+.	c #BE9011",
"@.	c #C48410",
"#.	c #5A8912",
"$.	c #12A900",
"%.	c #0B9500",
"&.	c #12BE00",
"*.	c #0EBC00",
"=.	c #049301",
"-.	c #218319",
";.	c #43E111",
">.	c #36E600",
",.	c #119B00",
"'.	c #29C703",
").	c #1B9B03",
"!.	c #17BD00",
"~.	c #17C600",
"{.	c #10B600",
"].	c #048100",
"^.	c #027700",
"/.	c #005300",
"(.	c #4DB43A",
"_.	c #39E406",
":.	c #31E100",
"<.	c #17A800",
"[.	c #17AF00",
"}.	c #1FCE00",
"|.	c #17BC00",
"1.	c #0C9A00",
"2.	c #11C000",
"3.	c #0CBB00",
"4.	c #07AE00",
"5.	c #004A00",
"6.	c #46C32A",
"7.	c #2DD007",
"8.	c #139800",
"9.	c #026201",
"0.	c #1DC901",
"a.	c #1AC900",
"b.	c #15C400",
"c.	c #057E00",
"d.	c #0BB700",
"e.	c #07B500",
"f.	c #02B000",
"g.	c #007C00",
"h.	c #025A01",
"i.	c #16C000",
"j.	c #14C300",
"k.	c #0FBE00",
"l.	c #025700",
"m.	c #027D00",
"n.	c #02A400",
"o.	c #019601",
"p.	c #006100",
"q.	c #038601",
"r.	c #048400",
"              . . .             ",
"      . . . . + @ # .           ",
"    . $ % & * = - ; > . . . .   ",
"    . , ' ) ! ~ { ] ^ / ( _ : . ",
"    . < [ } | 1 2 3 4 5 6 7 8 . ",
"  . . 9 0 a b c d e f g h i j . ",
". k l m c n o p q r s t u v .   ",
". w x y z A B C D E F G H I J . ",
". K L M N O P Q R S T U V W X . ",
"  . Y Z `  ...+.@.#.$.%.&.*.=.. ",
". -.;.>.5 g ,.'.).!.~.{.].^./.. ",
". (._.:.g <.[.}.|.1.2.3.4.5..   ",
". . 6.7.8.9.0.a.b.c.d.e.f.g..   ",
"  . . . . h.i.j.k.l.m.n.o.p..   ",
"          . q.X r.r.1.. . .     ",
"            . . . .             "};
