/* XPM */
static char * remove_xpm[] = {
"16 16 21 1",
" 	c None",
".	c #FF0000",
"+	c #FFEFEF",
"@	c #FFE8E8",
"#	c #FFB3B3",
"$	c #FFACAC",
"%	c #FFE0E0",
"&	c #FFD9D9",
"*	c #FFA4A4",
"=	c #FFD1D1",
"-	c #FFCACA",
";	c #FFC2C2",
">	c #FFBBBB",
",	c #FF9D9D",
"'	c #FF9595",
")	c #FF8E8E",
"!	c #FF8686",
"~	c #FF7F7F",
"{	c #FF7777",
"]	c #FF7070",
"^	c #FF6868",
"                ",
"                ",
"   ..      ..   ",
"  .+@.    .#$.  ",
"  .@%&.  .#$*.  ",
"   .&=-..#$*.   ",
"    .-;>#$*.    ",
"     .>#$*.     ",
"     .#$*,.     ",
"    .#$*,').    ",
"   .#$*..)!~.   ",
"  .#$*.  .~{].  ",
"  .$*.    .]^.  ",
"   ..      ..   ",
"                ",
"                "};
