/* XPM */
static char * regmsg_mask_xpm[] = {
"40 40 20 1",
" 	c None",
".	c #FFFFFF",
"+	c #000000",
"@	c #121212",
"#	c #070707",
"$	c #010101",
"%	c #32290B",
"&	c #32280B",
"*	c #32280A",
"=	c #312609",
"-	c #312608",
";	c #312507",
">	c #322507",
",	c #312406",
"'	c #312305",
")	c #241903",
"!	c #191919",
"~	c #202020",
"{	c #212121",
"]	c #272727",
"........................................",
"........................................",
"........................................",
"..................++++..................",
"..................+++++.................",
".................+++++++......+.........",
"................++++++++....+++++.......",
".........++.....++++++++...+++++++......",
".......++++++...+++++++++.++++++++......",
"......++++++++.+++++++++++++++++++......",
"......+++++++++++++++++++++++++++.......",
"......++++++++++++++++++++++++++........",
"......+++++++++++++++++++++++++.........",
".......+++++++++++++++++++++++@.........",
".........+++++++++++++++++++++#.........",
".....+++++++++++++++++++++++++$.........",
".....+++++++++++++++++++++++++$.........",
".....+++++++++++++++++++++++++++........",
".....++++++++++++++++++++++++++++.......",
"......++++++++++++++++++++++++++++......",
".......++++++++++++++++++++++++++++.....",
".........++++++++++++++++++++++++++.....",
".......+++++++++++++++++++++++++++++....",
".....++++++++++++++++++++++++++++++.....",
".....++++++++++++++++++++++++++++.......",
"....++++++++++++++++++++++++++$.........",
"....+++++++++%&**=--;;;>,'')+$$.........",
"....++++++$!~{{{{~~~~~~{~~~~~~].........",
".....++++++...++++++..++++++++++........",
".....+++.....+++++++..++++++++++........",
".............+++++++...+++++++++........",
".............++++++.....++++++++........",
"............+++++++.....++++++++........",
"............++++++........+++++.........",
"............+++++.......................",
".............+++........................",
"........................................",
"........................................",
"........................................",
"........................................"};
