/* XPM */
static char * nomsg_xpm[] = {
"45 45 748 2",
"  	c None",
". 	c #000000",
"+ 	c #040405",
"@ 	c #17171C",
"# 	c #292932",
"$ 	c #30303D",
"% 	c #2C2C39",
"& 	c #272733",
"* 	c #232330",
"= 	c #14141F",
"- 	c #040406",
"; 	c #24242A",
"> 	c #555467",
", 	c #787692",
"' 	c #8380A2",
") 	c #7A779C",
"! 	c #6F6C94",
"~ 	c #686691",
"{ 	c #4D4C72",
"] 	c #1D1D2C",
"^ 	c #050508",
"/ 	c #000001",
"( 	c #010102",
"_ 	c #070708",
": 	c #0D0D11",
"< 	c #17171F",
"[ 	c #16161E",
"} 	c #0C0C11",
"| 	c #020203",
"1 	c #010101",
"2 	c #030305",
"3 	c #050507",
"4 	c #060608",
"5 	c #050506",
"6 	c #030303",
"7 	c #060607",
"8 	c #141419",
"9 	c #252530",
"0 	c #23232D",
"a 	c #16161A",
"b 	c #1E1E2B",
"c 	c #2E2E42",
"d 	c #282838",
"e 	c #191923",
"f 	c #0B0B0F",
"g 	c #606077",
"h 	c #A49FC4",
"i 	c #C3B7E1",
"j 	c #C6B1DE",
"k 	c #BEA6DA",
"l 	c #B39BD8",
"m 	c #AA96DB",
"n 	c #948ACE",
"o 	c #4F4F7C",
"p 	c #10101A",
"q 	c #020204",
"r 	c #030304",
"s 	c #14141A",
"t 	c #30303C",
"u 	c #454559",
"v 	c #5D5C7B",
"w 	c #575676",
"x 	c #37374B",
"y 	c #15151E",
"z 	c #0A0A0F",
"A 	c #0E0E13",
"B 	c #16161B",
"C 	c #20202A",
"D 	c #2A2A37",
"E 	c #2D2D3D",
"F 	c #252532",
"G 	c #1B1B22",
"H 	c #23232B",
"I 	c #4E4D62",
"J 	c #7D7AA0",
"K 	c #797699",
"L 	c #5A5A71",
"M 	c #6E6C96",
"N 	c #918DC7",
"O 	c #817DB1",
"P 	c #5D5B81",
"Q 	c #36364E",
"R 	c #191926",
"S 	c #030306",
"T 	c #8787AD",
"U 	c #B9ABD6",
"V 	c #CEA4C8",
"W 	c #D08BA7",
"X 	c #CB7795",
"Y 	c #C36C8F",
"Z 	c #B46694",
"` 	c #9F78B8",
" .	c #7474BE",
"..	c #1C1C2E",
"+.	c #050509",
"@.	c #17171D",
"#.	c #59596F",
"$.	c #9C9ABF",
"%.	c #B3AEE1",
"&.	c #B6ACE7",
"*.	c #A9A3DE",
"=.	c #7F7DAD",
"-.	c #4F4F71",
";.	c #3D3D57",
">.	c #4B4B67",
",.	c #5E5E79",
"'.	c #737297",
").	c #8987B1",
"!.	c #928EBD",
"~.	c #7E7BA4",
"{.	c #63627F",
"].	c #686885",
"^.	c #9B96C3",
"/.	c #BBA6DD",
"(.	c #BFA9E1",
"_.	c #B5AFEC",
":.	c #BAABEA",
"<.	c #BB9DD5",
"[.	c #B499D7",
"}.	c #A696D9",
"|.	c #8983C3",
"1.	c #53527F",
"2.	c #151523",
"3.	c #7E7EA4",
"4.	c #B3A2D0",
"5.	c #CC92B6",
"6.	c #D16C7F",
"7.	c #CD4F5E",
"8.	c #C23748",
"9.	c #BA2E3F",
"0.	c #9C5587",
"a.	c #7575C2",
"b.	c #1D1D30",
"c.	c #0F0F13",
"d.	c #535369",
"e.	c #B6B5E0",
"f.	c #CEB8E1",
"g.	c #C89BC2",
"h.	c #C28CBA",
"i.	c #B79BDA",
"j.	c #A9A1E8",
"k.	c #9E9DE4",
"l.	c #9F9DE1",
"m.	c #AFABEF",
"n.	c #B4AFEC",
"o.	c #B8AAE3",
"p.	c #C1A6DD",
"q.	c #C0A0D3",
"r.	c #B89FD4",
"s.	c #AA9FD7",
"t.	c #A6A6E0",
"u.	c #B6A7DE",
"v.	c #CD88AB",
"w.	c #CC7B9D",
"x.	c #C189B5",
"y.	c #C385B5",
"z.	c #C76787",
"A.	c #C05F82",
"B.	c #B2628E",
"C.	c #9A6AA4",
"D.	c #7164A4",
"E.	c #343456",
"F.	c #040407",
"G.	c #5D5D74",
"H.	c #A195C4",
"I.	c #C48CB7",
"J.	c #CC6178",
"K.	c #C53E4D",
"L.	c #AD2031",
"M.	c #AC2133",
"N.	c #944572",
"O.	c #6E68AD",
"P.	c #1E1D31",
"Q.	c #06060A",
"R.	c #1D1D25",
"S.	c #8686A9",
"T.	c #C9C5F6",
"U.	c #D88EA1",
"V.	c #D57181",
"W.	c #C96C8A",
"X.	c #B98CC6",
"Y.	c #AEA4EF",
"Z.	c #AFA0EA",
"`.	c #B988BF",
" +	c #C37CA4",
".+	c #C87997",
"++	c #CB7691",
"@+	c #CF718B",
"#+	c #CD6E86",
"$+	c #C37EA7",
"%+	c #B69AD9",
"&+	c #B2ADF6",
"*+	c #BC9CD3",
"=+	c #CE657A",
"-+	c #CF5462",
";+	c #CC5263",
">+	c #C84E65",
",+	c #C43D51",
"'+	c #BD3243",
")+	c #AC2B3F",
"!+	c #903A5F",
"~+	c #69558F",
"{+	c #363656",
"]+	c #07070A",
"^+	c #3D3D52",
"/+	c #8987C0",
"(+	c #B78AC1",
"_+	c #C7607C",
":+	c #C43A48",
"<+	c #A51929",
"[+	c #A31A2C",
"}+	c #8F3A62",
"|+	c #6B60A0",
"1+	c #25243C",
"2+	c #09090F",
"3+	c #2A2A35",
"4+	c #9393B8",
"5+	c #CBC5F6",
"6+	c #DC7F89",
"7+	c #D66976",
"8+	c #C76D8C",
"9+	c #B78DC9",
"0+	c #AEA4F1",
"a+	c #B593D3",
"b+	c #C7617E",
"c+	c #CE5464",
"d+	c #CE5567",
"e+	c #C36F96",
"f+	c #B594D5",
"g+	c #B1A1E9",
"h+	c #BE7EAD",
"i+	c #CC5165",
"j+	c #CD4958",
"k+	c #CB3F4F",
"l+	c #C33C4F",
"m+	c #B42C3E",
"n+	c #A42032",
"o+	c #941E31",
"p+	c #7C3559",
"q+	c #56548B",
"r+	c #292943",
"s+	c #2A2A3C",
"t+	c #7979AF",
"u+	c #AC8CC8",
"v+	c #C26A8F",
"w+	c #C33E4E",
"x+	c #A91D2C",
"y+	c #A0192A",
"z+	c #8A385F",
"A+	c #6F65A8",
"B+	c #2F2E4E",
"C+	c #13131F",
"D+	c #0D0D12",
"E+	c #34343F",
"F+	c #9292B3",
"G+	c #C9C6F7",
"H+	c #CD9DC1",
"I+	c #BF99CB",
"J+	c #B98ABF",
"K+	c #B495D6",
"L+	c #AFA2ED",
"M+	c #B787C1",
"N+	c #CC4757",
"O+	c #CD4A5A",
"P+	c #CC4F60",
"Q+	c #C8566C",
"R+	c #C95062",
"S+	c #CB4B5D",
"T+	c #C1678C",
"U+	c #B38CCD",
"V+	c #B090D3",
"W+	c #C15F81",
"X+	c #C94253",
"Y+	c #C44B64",
"Z+	c #AB79BA",
"`+	c #A070B0",
" @	c #A33758",
".@	c #9E1E31",
"+@	c #921E32",
"@@	c #79395F",
"#@	c #515087",
"$@	c #23233C",
"%@	c #222232",
"&@	c #6F6EA2",
"*@	c #A48CCC",
"=@	c #BD73A1",
"-@	c #C44154",
";@	c #AE212F",
">@	c #A21A2B",
",@	c #8F385F",
"'@	c #7568AE",
")@	c #43426E",
"!@	c #43436A",
"~@	c #555578",
"{@	c #656584",
"]@	c #767692",
"^@	c #A9A9CF",
"/@	c #C7C4F3",
"(@	c #C79BC4",
"_@	c #C87C9E",
":@	c #C66987",
"<@	c #B982B9",
"[@	c #B094DB",
"}@	c #B879AF",
"|@	c #CB404E",
"1@	c #CA4455",
"2@	c #C45A78",
"3@	c #B380B6",
"4@	c #BA5C81",
"5@	c #C4445B",
"6@	c #BA608A",
"7@	c #A984C7",
"8@	c #A481C7",
"9@	c #B24E73",
"0@	c #BB3346",
"a@	c #B73E59",
"b@	c #A07AC0",
"c@	c #957FCD",
"d@	c #9C3C63",
"e@	c #9A1F33",
"f@	c #89243D",
"g@	c #6D406B",
"h@	c #4B4B7E",
"i@	c #1F1F34",
"j@	c #1A1A24",
"k@	c #62618B",
"l@	c #998ACA",
"m@	c #B87CB1",
"n@	c #C4455A",
"o@	c #B62735",
"p@	c #A71D2D",
"q@	c #98395D",
"r@	c #806EB6",
"s@	c #6664A6",
"t@	c #7972B2",
"u@	c #9285BF",
"v@	c #A495C6",
"w@	c #ADA2CD",
"x@	c #BDB9E7",
"y@	c #C4C0ED",
"z@	c #CE829D",
"A@	c #CF6274",
"B@	c #BA73A5",
"C@	c #AF84C7",
"D@	c #B6699B",
"E@	c #C63746",
"F@	c #C53B4D",
"G@	c #BB5D85",
"H@	c #A592DE",
"I@	c #AA6BA3",
"J@	c #B0547D",
"K@	c #A6679E",
"L@	c #977EC7",
"M@	c #9179C3",
"N@	c #9C4E7B",
"O@	c #AA273B",
"P@	c #AC2C43",
"Q@	c #9B5F99",
"R@	c #8F7BCA",
"S@	c #973B62",
"T@	c #961E31",
"U@	c #812A47",
"V@	c #634676",
"W@	c #454573",
"X@	c #181829",
"Y@	c #101014",
"Z@	c #525070",
"`@	c #8D86C3",
" #	c #B484BF",
".#	c #C54B61",
"+#	c #BE2E3D",
"@#	c #AF2231",
"##	c #A33C5E",
"$#	c #8C76C1",
"%#	c #8A87DA",
"&#	c #9F8BD5",
"*#	c #B488C2",
"=#	c #C28AB7",
"-#	c #C89CC7",
";#	c #C6B7E8",
">#	c #C1BBEA",
",#	c #D66C78",
"'#	c #CA4251",
")#	c #B56899",
"!#	c #A979BB",
"~#	c #AE5D8E",
"{#	c #BD2D3B",
"]#	c #BC3243",
"^#	c #B05683",
"/#	c #9C8BDC",
"(#	c #9D71B3",
"_#	c #9A5E95",
":#	c #9164A2",
"<#	c #8571BA",
"[#	c #7F73BE",
"}#	c #855891",
"|#	c #992740",
"1#	c #A31D2F",
"2#	c #9C3B61",
"3#	c #925E9B",
"4#	c #972F4F",
"5#	c #931A2B",
"6#	c #7D3050",
"7#	c #5F4C80",
"8#	c #40406B",
"9#	c #11111E",
"0#	c #060606",
"a#	c #403F57",
"b#	c #817FB9",
"c#	c #B28CC9",
"d#	c #C6536D",
"e#	c #C43343",
"f#	c #B82A38",
"g#	c #AC4466",
"h#	c #9781CF",
"i#	c #9C9AF3",
"j#	c #AB8BD1",
"k#	c #BE6D97",
"l#	c #CB5B72",
"m#	c #CB6F8B",
"n#	c #C0A0D2",
"o#	c #BBB4EF",
"p#	c #D36B7C",
"q#	c #CB4857",
"r#	c #C13444",
"s#	c #AA5C8B",
"t#	c #9B74B9",
"u#	c #A05C92",
"v#	c #B22532",
"w#	c #B12838",
"x#	c #A44973",
"y#	c #907AC4",
"z#	c #95609A",
"A#	c #90446F",
"B#	c #894776",
"C#	c #7C5995",
"D#	c #716AB1",
"E#	c #7462A3",
"F#	c #87395F",
"G#	c #9C1625",
"H#	c #A12137",
"I#	c #9E2E4D",
"J#	c #9B1E32",
"K#	c #951625",
"L#	c #7E3457",
"M#	c #605188",
"N#	c #3F3F69",
"O#	c #0E0E19",
"P#	c #303044",
"Q#	c #7474A8",
"R#	c #AC90CE",
"S#	c #C26387",
"T#	c #C43647",
"U#	c #BA3041",
"V#	c #B1496F",
"W#	c #9E82D5",
"X#	c #A197EE",
"Y#	c #AC87CC",
"Z#	c #BD6086",
"`#	c #C94251",
" $	c #C45069",
".$	c #B287C2",
"+$	c #A99FEC",
"@$	c #C16485",
"#$	c #BE3344",
"$$	c #B02739",
"%$	c #9A4F7F",
"&$	c #8A72BA",
"*$	c #8E61A1",
"=$	c #A2253C",
"-$	c #A31E2F",
";$	c #9A304E",
">$	c #886296",
",$	c #913656",
"'$	c #922136",
")$	c #892B48",
"!$	c #764777",
"~$	c #655F9E",
"{$	c #6260A0",
"]$	c #6C548B",
"^$	c #901C2D",
"/$	c #9B2036",
"($	c #A12640",
"_$	c #9A2035",
":$	c #961C2F",
"<$	c #83375C",
"[$	c #66528A",
"}$	c #444472",
"|$	c #141422",
"1$	c #252533",
"2$	c #676792",
"3$	c #A391D1",
"4$	c #BB7AAD",
"5$	c #C34A60",
"6$	c #B2415F",
"7$	c #AB4F7C",
"8$	c #A06FB0",
"9$	c #A66BA3",
"0$	c #A65683",
"a$	c #AA4465",
"b$	c #AE384F",
"c$	c #A73D5C",
"d$	c #916BAD",
"e$	c #8783D6",
"f$	c #994A7A",
"g$	c #9D243E",
"h$	c #972844",
"i$	c #874C7F",
"j$	c #7B6AB1",
"k$	c #7D66AA",
"l$	c #8B3D66",
"m$	c #93233B",
"n$	c #8F2742",
"o$	c #8B2F4E",
"p$	c #813051",
"q$	c #7D2F4E",
"r$	c #753558",
"s$	c #674675",
"t$	c #565085",
"u$	c #4B4B7D",
"v$	c #5B5791",
"w$	c #77538B",
"x$	c #895690",
"y$	c #975489",
"z$	c #994067",
"A$	c #943556",
"B$	c #83426F",
"C$	c #705B98",
"D$	c #5C5B99",
"E$	c #303051",
"F$	c #07070C",
"G$	c #16161D",
"H$	c #535175",
"I$	c #928BCD",
"J$	c #AE8CD1",
"K$	c #B2557B",
"L$	c #9A3C5E",
"M$	c #933554",
"N$	c #9A3E63",
"O$	c #973D62",
"P$	c #8D3759",
"Q$	c #873354",
"R$	c #873252",
"S$	c #863B61",
"T$	c #7B60A1",
"U$	c #7673C0",
"V$	c #864B7E",
"W$	c #883152",
"X$	c #883153",
"Y$	c #81497A",
"Z$	c #7962A3",
"`$	c #756AB2",
" %	c #79558F",
".%	c #863153",
"+%	c #822F4F",
"@%	c #7C2F4E",
"#%	c #7D2F4F",
"$%	c #752B48",
"%%	c #6E3355",
"&%	c #60436F",
"*%	c #45416C",
"=%	c #2A2A44",
"-%	c #353558",
";%	c #6666A9",
">%	c #7F7ED0",
",%	c #9363A1",
"'%	c #A04871",
")%	c #9B3E63",
"!%	c #8B4979",
"~%	c #7C60A2",
"{%	c #726DB7",
"]%	c #585894",
"^%	c #212138",
"/%	c #070709",
"(%	c #3F3F5A",
"_%	c #8483C2",
":%	c #A791DC",
"<%	c #AB527C",
"[%	c #933958",
"}%	c #822B46",
"|%	c #813253",
"1%	c #7B2D4B",
"2%	c #792C4A",
"3%	c #7A3152",
"4%	c #773F69",
"5%	c #705E9D",
"6%	c #6E6BB3",
"7%	c #77497A",
"8%	c #7F3254",
"9%	c #79375C",
"0%	c #724A7C",
"a%	c #6A5B98",
"b%	c #6662A3",
"c%	c #695A95",
"d%	c #70416C",
"e%	c #743D65",
"f%	c #703E68",
"g%	c #6E3F6A",
"h%	c #603E67",
"i%	c #59406A",
"j%	c #4D436F",
"k%	c #363659",
"l%	c #161622",
"m%	c #0C0C14",
"n%	c #4D4D7F",
"o%	c #8781D5",
"p%	c #9C639F",
"q%	c #9F446D",
"r%	c #993A5E",
"s%	c #943D63",
"t%	c #8D4A7A",
"u%	c #7E5B99",
"v%	c #6661A3",
"w%	c #333355",
"x%	c #030307",
"y%	c #303046",
"z%	c #7575AC",
"A%	c #9E8ED6",
"B%	c #A05382",
"C%	c #90385C",
"D%	c #7D365A",
"E%	c #763B63",
"F%	c #733E67",
"G%	c #6D416E",
"H%	c #694574",
"I%	c #66497B",
"J%	c #655187",
"K%	c #635D9C",
"L%	c #6462A3",
"M%	c #6F5289",
"N%	c #6F4A7C",
"O%	c #674F84",
"P%	c #60548D",
"Q%	c #4E4A7D",
"R%	c #464574",
"S%	c #555188",
"T%	c #60538A",
"U%	c #615186",
"V%	c #5C5087",
"W%	c #564D80",
"X%	c #504C7E",
"Y%	c #4B4879",
"Z%	c #3B3A60",
"`%	c #202036",
" &	c #08080C",
".&	c #0B0B12",
"+&	c #58588F",
"@&	c #8E83D4",
"#&	c #9E5D96",
"$&	c #973B5F",
"%&	c #94395D",
"&&	c #8F3D64",
"*&	c #7F4878",
"=&	c #62558F",
"-&	c #323254",
";&	c #040408",
">&	c #222234",
",&	c #5D5D90",
"'&	c #8F83CF",
")&	c #94629F",
"!&	c #7C5085",
"~&	c #6B4F83",
"{&	c #654E82",
"]&	c #5F4C7F",
"^&	c #5B4C7F",
"/&	c #574C80",
"(&	c #524B7D",
"_&	c #484370",
":&	c #3A3960",
"<&	c #484776",
"[&	c #625791",
"}&	c #5F538B",
"|&	c #524C7F",
"1&	c #423F6A",
"2&	c #2A2946",
"3&	c #1D1D31",
"4&	c #2B2A47",
"5&	c #43406A",
"6&	c #363453",
"7&	c #292740",
"8&	c #212137",
"9&	c #171727",
"0&	c #0B0B13",
"a&	c #010103",
"b&	c #5E5E9A",
"c&	c #9184D4",
"d&	c #9A5F9B",
"e&	c #9E4670",
"f&	c #973C61",
"g&	c #8E3659",
"h&	c #833659",
"i&	c #763E68",
"j&	c #5C4D82",
"k&	c #101018",
"l&	c #66619E",
"m&	c #7461A0",
"n&	c #60548B",
"o&	c #524D81",
"p&	c #494573",
"q&	c #3C3960",
"r&	c #32304E",
"s&	c #25253E",
"t&	c #1E1E32",
"u&	c #202035",
"v&	c #37365A",
"w&	c #302F4F",
"x&	c #1A1A2C",
"y&	c #0D0D16",
"z&	c #0C0C15",
"A&	c #1B1B2D",
"B&	c #12121C",
"C&	c #0A0A10",
"D&	c #08080D",
"E&	c #43436E",
"F&	c #7D77C2",
"G&	c #876CB2",
"H&	c #895E9A",
"I&	c #84568F",
"J&	c #7B4C7E",
"K&	c #70426E",
"L&	c #64426B",
"M&	c #4D4670",
"N&	c #282843",
"O&	c #020202",
"P&	c #12121B",
"Q&	c #30304D",
"R&	c #414169",
"S&	c #2A2A47",
"T&	c #222239",
"U&	c #151524",
"V&	c #05050A",
"W&	c #19192A",
"X&	c #4D4D80",
"Y&	c #6162A2",
"Z&	c #6262A4",
"`&	c #5F5F9F",
" *	c #5C5690",
".*	c #564B7D",
"+*	c #4C436C",
"@*	c #373756",
"#*	c #010104",
"$*	c #08080A",
"%*	c #2D2D4A",
"&*	c #313153",
"**	c #313152",
"=*	c #2F2F4E",
"-*	c #0A0A11",
";*	c #0C0C16",
". . . . . . . . . . . . . . . . . . . . . . . . . . . . . . . . . . . . . . . . . . . . . ",
". . . . . . . . . . . . . . . . . . . . . . . . . . . . . . . . . . . . . . . . . . . . . ",
". . . . . . . . . . . . . . . . . . . . . . . . . . . . . . . . . . . . . . . . . . . . . ",
". . . . . . . . . . . . . . . . . . . . . . . . . . . . . . . . . . . . . . . . . . . . . ",
". . . . . . . . . . . . . . . . . . . . . . . . . . . . . . . . . . . . . . . . . . . . . ",
". . . . . . . . . . . . . . . . . . . . . . . . . . . . . . . . . . . . . . . . . . . . . ",
". . . . . . . . . . . . . . . . . . . . . . . . . . . . . . . . . . . . . . . . . . . . . ",
". . . . . . . . . . . . . . . . . . . . . . . . . . . . . . . . . . . . . . . . . . . . . ",
". . . . . . . . . . . . . . . . . . . . . . . . . . . . . . . . . . . . . . . . . . . . . ",
". . . . . . . . . . . . . . . . . . . . . . . . . . . . . . . . . . . . . . . . . . . . . ",
". . . . . . . . . . . . . . . . . . . . . . . . . . . . . . . . . . . . . . . . . . . . . ",
". . . . . . . . . . . . . . . . . . . . . . . . . . . . . . . . . . . . . . . . . . . . . ",
". . . . . . . . . . . . . . . . . . . . . . . . . . . . . . . . . . . . . . . . . . . . . ",
". . . . . . . . . . . . . . . . . . . . . . . . . . . . . . . . . . . . . . . . . . . . . ",
". . . . . . . . . . . . . . . . . . . . . . . . . . . . . . . . . . . . . . . . . . . . . ",
". . . . . . . . . . . . . . . . . . . . . . . . . . . . . . . . . . . . . . . . . . . . . ",
". . . . . . . . . . . . . . . . . . . . . . . . . . . . . . . . . . . . . . . . . . . . . ",
". . . . . . . . . . . . . . . . . . . . . . . . . . . . . . . . . . . . . . . . . . . . . ",
". . . . . . . . . . . . . . . . . . . . . . . . . . . . . . . . . . . . . . . . . . . . . ",
". . . . . . . . . . . . . . . . . . . . . . . . . . . . . . . . . . . . . . . . . . . . . ",
"+ @ # $ % & * = - . . . . . . . . . . . . . . . . . . . . . . . . . . . . . . . . . . . . ",
"; > , ' ) ! ~ { ] ^ / . . . . ( _ : < [ } | . . 1 2 3 4 5 6 7 8 9 0 a b c d e f 2 . . . . ",
"g h i j k l m n o p q . . . r s t u v w x y z A B C D E F G H I J K L M N O P Q R S . . . ",
"T U V W X Y Z `  ...+.. . r @.#.$.%.&.*.=.-.;.>.,.'.).!.~.{.].^./.(._.:.<.[.}.|.1.2./ . . ",
"3.4.5.6.7.8.9.0.a.b.+.. . c.d.e.f.g.h.i.j.k.l.m.n.o.p.q.r.s.t.u.v.w.x.y.z.A.B.C.D.E.F.. . ",
"G.H.I.J.K.L.M.N.O.P.Q.. / R.S.T.U.V.W.X.Y.Z.`. +.+++@+#+$+%+&+*+=+-+;+>+,+'+)+!+~+{+]+. . ",
"^+/+(+_+:+<+[+}+|+1+2+. - 3+4+5+6+7+8+9+0+a+b+c+-+-+-+d+e+f+g+h+i+j+k+l+m+n+o+p+q+r+. . . ",
"s+t+u+v+w+x+y+z+A+B+C+D+s E+F+G+H+I+J+K+L+M+N+O+P+Q+R+S+T+U+V+W+X+Y+Z+`+ @.@+@@@#@$@. . . ",
"%@&@*@=@-@;@>@,@'@)@!@~@{@]@^@/@(@_@:@<@[@}@|@1@2@3@4@5@6@7@8@9@0@a@b@c@d@e@f@g@h@i@. . . ",
"j@k@l@m@n@o@p@q@r@s@t@u@v@w@x@y@z@A@P+B@C@D@E@F@G@H@I@J@K@L@M@N@O@P@Q@R@S@T@U@V@W@X@. . . ",
"Y@Z@`@ #.#+#@###$#%#&#*#=#-#;#>#,#-+'#)#!#~#{#]#^#/#(#_#:#<#[#}#|#1#2#3#4#5#6#7#8#9#. . . ",
"0#a#b#c#d#e#f#g#h#i#j#k#l#m#n#o#p#q#r#s#t#u#v#w#x#y#z#A#B#C#D#E#F#G#H#I#J#K#L#M#N#O#. . . ",
". P#Q#R#S#T#U#V#W#X#Y#Z#`# $.$+$@$#$$$%$&$*$=$-$;$>$,$'$)$!$~${$]$^$/$($_$:$<$[$}$|$/ . . ",
". 1$2$3$4$5$6$7$8$9$0$a$b$c$d$e$f$g$h$i$j$k$l$m$n$o$p$q$r$s$t$u$v$w$x$y$z$A$B$C$D$E$F$. . ",
". G$H$I$J$K$L$M$N$O$P$Q$R$S$T$U$V$W$X$Y$Z$`$ %.%+%@%#%$%%%&%*%=%-%;%>%,%'%)%!%~%{%]%^%| | ",
". /%(%_%:%<%[%}%Q$|%1%2%3%4%5%6%7%8%9%0%a%b%c%d%e%f%g%h%i%j%k%l%m%n%o%p%q%r%s%t%u%v%w%x%x%",
". 1 y%z%A%B%C%D%E%F%G%H%I%J%K%L%M%N%O%P%Q%R%S%T%U%V%W%X%Y%Z%`% &.&+&@&#&q%$&%&&&*&=&-&;&;&",
". . >&,&'&)&!&~&{&]&^&/&(&_&:&<&[&}&|&1&2&3&4&1&5&6&7&8&i@9&0&a&.&b&c&d&e&f&g&h&i&j&E$;&;&",
". . k&{+l&m&n&o&p&q&r&=%s&t&|$u&v&w&s&x&y&Q.z&x&A&B&C&Q.+.S ( . D&E&F&G&H&I&J&K&L&M&N&x%x%",
". . O&P&Q&R&E.S&T&U&f 6 . . . 2 z&V&/ . . . . . . . . . . . . . q W&X&Y&Z&`& *.*+*@*W&#*#*",
". . . O&$*A ^ . . . . . . . . . . . . . . . . . . . . . . . . . . a&C+%*&***-&E.=*t&D&. . ",
". . . . . . . . . . . . . . . . . . . . . . . . . . . . . . . . . . . . . . x%-*;*F$. . . ",
". . . . . . . . . . . . . . . . . . . . . . . . . . . . . . . . . . . . . . . . . . . . . ",
". . . . . . . . . . . . . . . . . . . . . . . . . . . . . . . . . . . . . . . . . . . . . ",
". . . . . . . . . . . . . . . . . . . . . . . . . . . . . . . . . . . . . . . . . . . . . "};
