/* XPM */
static char * itemCollapsed_xpm[] = {
"6 11 4 1",
" 	c None",
".	c #000000",
"+	c #C0C0C0",
"@	c #FFFFFF",
".     ",
"..    ",
".+.   ",
".@+.  ",
".+@+. ",
".@+@+.",
".+@+. ",
".@+.  ",
".+.   ",
"..    ",
".     "};
