/* XPM */
static char * pixBirthday_xpm[] = {
"11 16 65 1",
" 	c None",
".	c #0069C4",
"+	c #C4E3FF",
"@	c #B6D9FC",
"#	c #A7D0F7",
"$	c #99C6F2",
"%	c #C7E4FF",
"&	c #B9DAFC",
"*	c #AAD2F8",
"=	c #9CC8F3",
"-	c #8DBEEE",
";	c #7FB5EA",
">	c #C7E6FF",
",	c #B9DCFD",
"'	c #9FC9F4",
")	c #6AA7E2",
"!	c #BCDDFE",
"~	c #ADD3F9",
"{	c #9FCBF4",
"]	c #90C1EF",
"^	c #BFDFFF",
"/	c #B0D5F9",
"(	c #A1CBF4",
"_	c #93C2F0",
":	c #84B8EB",
"<	c #B0D6FA",
"[	c #A1CCF5",
"}	c #96C3F1",
"|	c #87BAEC",
"1	c #79B0E7",
"2	c #428BD4",
"3	c #A4CDF6",
"4	c #87BBED",
"5	c #79B1E8",
"6	c #5F9EDE",
"7	c #5095D9",
"8	c #3382D0",
"9	c #8ABCED",
"0	c #7CB2E8",
"a	c #6DA8E3",
"b	c #5FA0DF",
"c	c #5096DA",
"d	c #428CD5",
"e	c #3683D1",
"f	c #287ACC",
"g	c #7FB4E9",
"h	c #70AAE4",
"i	c #62A0DF",
"j	c #5397DB",
"k	c #458DD6",
"l	c #287BCC",
"m	c #70ABE5",
"n	c #62A1E0",
"o	c #5699DB",
"p	c #478FD6",
"q	c #3985D1",
"r	c #2A7CCD",
"s	c #1D73C9",
"t	c #4790D7",
"u	c #3986D2",
"v	c #2075CA",
"w	c #3C88D3",
"x	c #2D7ECE",
"y	c #2076CA",
"z	c #2376CA",
"    ....   ",
"   .+@#$.  ",
"  .%&*=-;. ",
" .>,*'-**).",
" .!~{]*>>*.",
".^/(_:*>>*.",
".<[}|1)**2.",
".3}45)6728.",
" .90abcdef.",
" .ghijkel. ",
" .mnopqrs. ",
"  .oturv.  ",
"   .wxy.   ",
"    .z.    ",
"     .     ",
"     .     "};
