/* XPM */
static char * pixPhone_xpm[] = {
"16 14 31 1",
" 	c None",
".	c #0069C4",
"+	c #B8DCFD",
"@	c #AAD2F8",
"#	c #9BC8F3",
"$	c #B5D9FB",
"%	c #A6CFF6",
"&	c #97C5F1",
"*	c #88BBEC",
"=	c #A2CDF5",
"-	c #93C3F0",
";	c #84B9EB",
">	c #75AFE6",
",	c #81B6EA",
"'	c #72ACE5",
")	c #63A2E0",
"!	c #7DB4E9",
"~	c #6EAAE4",
"{	c #5FA0DF",
"]	c #5096DA",
"^	c #79B1E7",
"/	c #6AA7E2",
"(	c #5B9DDD",
"_	c #4C93D8",
":	c #66A5E1",
"<	c #579BDC",
"[	c #4991D7",
"}	c #ADD4F9",
"|	c #5498DB",
"1	c #458ED6",
"2	c #8CBEEE",
"            ..  ",
"           .++. ",
"          .++@#.",
"          .$%&*.",
"          .=-;>.",
"           .,').",
"          .!~{] ",
"        ..^/(_. ",
" ....  .;>:<[.  ",
".+++}..,')|1.   ",
".++@#2!~{]..    ",
".$%&*^/(_.      ",
" .-;>:<..       ",
"  .....         "};
