/* XPM */
static char * MenuButtonUp_xpm[] = {
"51 21 117 2",
"  	c None",
". 	c #000000",
"+ 	c #F0F0F0",
"@ 	c #E0E0E0",
"# 	c #DDDDDD",
"$ 	c #D9D9D9",
"% 	c #D5D5D5",
"& 	c #D2D2D2",
"* 	c #CFCFCF",
"= 	c #CBCBCB",
"- 	c #C7C7C7",
"; 	c #C3C3C3",
"> 	c #C0C0C0",
", 	c #BCBCBC",
"' 	c #B9B9B9",
") 	c #B6B6B6",
"! 	c #B2B2B2",
"~ 	c #AEAEAE",
"{ 	c #ABABAB",
"] 	c #A7A7A7",
"^ 	c #A4A4A4",
"/ 	c #A0A0A0",
"( 	c #9C9C9C",
"_ 	c #999999",
": 	c #959595",
"< 	c #919191",
"[ 	c #8E8E8E",
"} 	c #8B8B8B",
"| 	c #878787",
"1 	c #838383",
"2 	c #808080",
"3 	c #7C7C7C",
"4 	c #797979",
"5 	c #757575",
"6 	c #717171",
"7 	c #6E6E6E",
"8 	c #6A6A6A",
"9 	c #666666",
"0 	c #636363",
"a 	c #606060",
"b 	c #5C5C5C",
"c 	c #585858",
"d 	c #545454",
"e 	c #515151",
"f 	c #4E4E4E",
"g 	c #4A4A4A",
"h 	c #464646",
"i 	c #434343",
"j 	c #3F3F3F",
"k 	c #3B3B3B",
"l 	c #2E2E2E",
"m 	c #2D2D2D",
"n 	c #363636",
"o 	c #D4D4D4",
"p 	c #343434",
"q 	c #CACACA",
"r 	c #4B4B4B",
"s 	c #818181",
"t 	c #676767",
"u 	c #323232",
"v 	c #C1C1C1",
"w 	c #F6F6F6",
"x 	c #DEDEDE",
"y 	c #7B7B7B",
"z 	c #B8B8B8",
"A 	c #232323",
"B 	c #1E1E1E",
"C 	c #303030",
"D 	c #B7B7B7",
"E 	c #0F0F0F",
"F 	c #7E7E7E",
"G 	c #ADADAD",
"H 	c #787878",
"I 	c #2B2B2B",
"J 	c #A3A3A3",
"K 	c #292929",
"L 	c #9A9A9A",
"M 	c #272727",
"N 	c #8F8F8F",
"O 	c #252525",
"P 	c #868686",
"Q 	c #474747",
"R 	c #7D7D7D",
"S 	c #0A0A0A",
"T 	c #202020",
"U 	c #727272",
"V 	c #B5B5B5",
"W 	c #979797",
"X 	c #696969",
"Y 	c #191919",
"Z 	c #1C1C1C",
"` 	c #5F5F5F",
" .	c #040404",
"..	c #1A1A1A",
"+.	c #555555",
"@.	c #282828",
"#.	c #171717",
"$.	c #151515",
"%.	c #424242",
"&.	c #131313",
"*.	c #383838",
"=.	c #373737",
"-.	c #353535",
";.	c #333333",
">.	c #313131",
",.	c #2F2F2F",
"'.	c #2C2C2C",
").	c #2A2A2A",
"!.	c #262626",
"~.	c #242424",
"{.	c #222222",
"].	c #212121",
"^.	c #1F1F1F",
"/.	c #1D1D1D",
"(.	c #1B1B1B",
"_.	c #181818",
":.	c #161616",
". . . . . . . . . . . . . . . . . . . . . . . . . . . . . . . . . . . . . . . . . . . . . . . . . . . ",
". + + @ # $ % & * = - ; > , ' ) ! ~ { ] ^ / ( _ : < [ } | 1 2 3 4 5 6 7 8 9 0 a b c d e f g h i j k . ",
". + l l l l l l l l l l l l l l l l l l l l l l l l l l l l l l l l m m m m m m m m m m l l l l l n . ",
". o l l l l l l l l l l l l l l l l l l l l l l l l l l l l l l l l l l m m m m m m m m m m l l l p . ",
". q l l l l r s s s s s s s s s t l l t s s s s s s t l s s s s s s r l r s s m m r s s m m l l l u . ",
". v l l l l s w w w w w w w w w x y l , w w w w w w z A w w w w w w o h s w w B m s w w B m l l l C . ",
". D l l l l s w x x x x x x x x x ! B , w x x x x x ! E w x x x x x x 8 F w x . m s w x . m l l l m . ",
". G l l l l s w x . . w x t . ! x ! E , w ! . . . . . E w x t . . w x t H w x . m s w x . m l l l I . ",
". J l l l l s w x . l w x t B , x ! E , w ! E l l l l l w x t B l w x t H w x . m s w x . m l l l K . ",
". L l l l l s w x . l w x t B , x ! E , w w w w w x , l w x t B l w x t H w x . m s w x . m l l l M . ",
". N l l l l s w x . l w x t B , x ! E , w x x x x x ! E w x t B l w x t H w x . m s w x . m l l l O . ",
". P l l l l s w x . l w x t B , x ! E , w ; t t t t Q E w x t B l w x t H w x . m s w x . m l l l A . ",
". R l l l l s w x . l w x t B , x ! E , w ! S B B B B A w x t B l w x t H w x . m s w x . m l l l T . ",
". U l l l l s w x . l w x t B , x ! E , w & V , , , W l w x t B l w x t H w x ! , q x x . m l l l B . ",
". X l l l l s w x . l w x t B , x ! E , w x x x x x V Y w x t B l w x t b w x x x x x & . m l l l Z . ",
". ` l l l l t z ! . l , ! Q B W V 1 E W V ! ! ! ! ! 1 E , ! Q B l , ! Q B y ! ! ! ! ! O  .m l l l ... ",
". +.l l l l l A E E l l E E A l Y E Y l Y E E E E E E Y l E E A l l E E A m B E E E E E @.m l l l #.. ",
". r l l l l l l l l l l l l l l l l l l l l l l l l l l l l l l l l l l m m m m m m m m m m l l l $.. ",
". %.l l l l l l l l l l l l l l l l l l l l l l l l l l l l l l l m m m m m m m m m m l l l l l l &.. ",
". *.*.=.n n -.p ;.;.u >.C C ,.l m m '.I ).K K @.M M !.O ~.A A {.].T T ^.B /./.Z (.(...Y _.#.#.:.$.$.. ",
". . . . . . . . . . . . . . . . . . . . . . . . . . . . . . . . . . . . . . . . . . . . . . . . . . . "};
