/* XPM */
static char * buttaumsm_xpm[] = {
"51 21 727 2",
"  	c None",
". 	c #4E5E76",
"+ 	c #495A71",
"@ 	c #43536C",
"# 	c #40516A",
"$ 	c #405169",
"% 	c #405069",
"& 	c #41516A",
"* 	c #3F4F68",
"= 	c #3E4F68",
"- 	c #3E4E67",
"; 	c #3D4E67",
"> 	c #3C4D67",
", 	c #3B4C66",
"' 	c #3B4B66",
") 	c #3A4B65",
"! 	c #3A4B66",
"~ 	c #3A4A65",
"{ 	c #394A65",
"] 	c #384A64",
"^ 	c #384964",
"/ 	c #384A63",
"( 	c #384963",
"_ 	c #374962",
": 	c #374862",
"< 	c #364761",
"[ 	c #34455F",
"} 	c #31415C",
"| 	c #2F3F5A",
"1 	c #273954",
"2 	c #4A5B72",
"3 	c #354662",
"4 	c #394966",
"5 	c #3B4C68",
"6 	c #3D4E69",
"7 	c #41516D",
"8 	c #445470",
"9 	c #465671",
"0 	c #475772",
"a 	c #485873",
"b 	c #495974",
"c 	c #4B5B76",
"d 	c #4D5E78",
"e 	c #4E5E79",
"f 	c #4F5F7A",
"g 	c #505F7A",
"h 	c #50607B",
"i 	c #51607B",
"j 	c #51617D",
"k 	c #52627D",
"l 	c #53627D",
"m 	c #53627C",
"n 	c #52627C",
"o 	c #53617D",
"p 	c #52617B",
"q 	c #52617C",
"r 	c #53637D",
"s 	c #53637C",
"t 	c #51627B",
"u 	c #50617A",
"v 	c #50607A",
"w 	c #515F7A",
"x 	c #54637C",
"y 	c #4D5C77",
"z 	c #44546F",
"A 	c #334460",
"B 	c #283956",
"C 	c #172846",
"D 	c #2A3B55",
"E 	c #495A72",
"F 	c #405068",
"G 	c #384965",
"H 	c #3D4D6A",
"I 	c #40516D",
"J 	c #435370",
"K 	c #485874",
"L 	c #4C5D77",
"M 	c #51627D",
"N 	c #54637F",
"O 	c #576681",
"P 	c #596883",
"Q 	c #5D6C86",
"R 	c #5E6D88",
"S 	c #606E89",
"T 	c #606F89",
"U 	c #61708A",
"V 	c #62728B",
"W 	c #64738C",
"X 	c #66758D",
"Y 	c #67758E",
"Z 	c #68758E",
"` 	c #68768F",
" .	c #697790",
"..	c #6A7891",
"+.	c #6B7891",
"@.	c #6C7A92",
"#.	c #6C7B92",
"$.	c #6E7C94",
"%.	c #707E95",
"&.	c #707F95",
"*.	c #6F7F95",
"=.	c #727F96",
"-.	c #728096",
";.	c #738197",
">.	c #768399",
",.	c #7A879C",
"'.	c #7A869C",
").	c #707D95",
"!.	c #5E6D87",
"~.	c #404F6C",
"{.	c #2B3B59",
"].	c #172745",
"^.	c #283851",
"/.	c #3E4E66",
"(.	c #374764",
"_.	c #3B4B68",
":.	c #3E4E6B",
"<.	c #40506D",
"[.	c #455571",
"}.	c #4B5B77",
"|.	c #4E5E7A",
"1.	c #50607C",
"2.	c #556580",
"3.	c #586882",
"4.	c #5A6984",
"5.	c #5B6A85",
"6.	c #5C6B86",
"7.	c #5D6D87",
"8.	c #5F6E88",
"9.	c #63718A",
"0.	c #64728C",
"a.	c #65738D",
"b.	c #66738E",
"c.	c #68758F",
"d.	c #6A7791",
"e.	c #6B7892",
"f.	c #6C7992",
"g.	c #6D7B93",
"h.	c #6D7C94",
"i.	c #6E7D94",
"j.	c #707F96",
"k.	c #728098",
"l.	c #738198",
"m.	c #738298",
"n.	c #748299",
"o.	c #758399",
"p.	c #77849A",
"q.	c #77859B",
"r.	c #78859B",
"s.	c #79879C",
"t.	c #7C899E",
"u.	c #808DA1",
"v.	c #7F8BA0",
"w.	c #76839A",
"x.	c #62718B",
"y.	c #2A3A57",
"z.	c #162643",
"A.	c #26364F",
"B.	c #3C4C64",
"C.	c #334462",
"D.	c #354563",
"E.	c #374664",
"F.	c #3C4C68",
"G.	c #40506C",
"H.	c #717E93",
"I.	c #8A94A6",
"J.	c #727E93",
"K.	c #4A5A76",
"L.	c #4C5B77",
"M.	c #4D5D79",
"N.	c #5A6982",
"O.	c #939DAD",
"P.	c #838EA2",
"Q.	c #778399",
"R.	c #566480",
"S.	c #566581",
"T.	c #5E6C87",
"U.	c #606D89",
"V.	c #62708A",
"W.	c #63718B",
"X.	c #63728B",
"Y.	c #64738D",
"Z.	c #66768E",
"`.	c #68778F",
" +	c #6C7B93",
".+	c #6F7D95",
"++	c #707E96",
"@+	c #717F97",
"#+	c #748399",
"$+	c #76849A",
"%+	c #5C6B85",
"&+	c #3B4A67",
"*+	c #273654",
"=+	c #142442",
"-+	c #25344C",
";+	c #485971",
">+	c #3B4A61",
",+	c #31415E",
"'+	c #31415F",
")+	c #31405E",
"!+	c #324260",
"~+	c #334260",
"{+	c #44536E",
"]+	c #D0D4DB",
"^+	c #E6E8EC",
"/+	c #D2D6DD",
"(+	c #56657D",
"_+	c #3C4D69",
":+	c #3D4D69",
"<+	c #3E4E6A",
"[+	c #7B8799",
"}+	c #F6F6F8",
"|+	c #D3D7DD",
"1+	c #969FAF",
"2+	c #465572",
"3+	c #475773",
"4+	c #4F5E7B",
"5+	c #54637E",
"6+	c #556480",
"7+	c #596782",
"8+	c #596983",
"9+	c #5B6A84",
"0+	c #5D6B86",
"a+	c #5E6E87",
"b+	c #606F88",
"c+	c #62718A",
"d+	c #65738C",
"e+	c #6B7A92",
"f+	c #6A7991",
"g+	c #354461",
"h+	c #243351",
"i+	c #142342",
"j+	c #23324A",
"k+	c #485970",
"l+	c #39485F",
"m+	c #2F3F5C",
"n+	c #2D3E5B",
"o+	c #2A3A58",
"p+	c #283756",
"q+	c #283755",
"r+	c #616C83",
"s+	c #D3D6DC",
"t+	c #E2E5E9",
"u+	c #E4E6EA",
"v+	c #677388",
"w+	c #2C3D5A",
"x+	c #2D3D5A",
"y+	c #2E3E5B",
"z+	c #45536D",
"A+	c #C1C5CF",
"B+	c #F7F8F9",
"C+	c #E6E7EB",
"D+	c #99A1AF",
"E+	c #404F6A",
"F+	c #354562",
"G+	c #374765",
"H+	c #394967",
"I+	c #3C4C69",
"J+	c #3E4F6A",
"K+	c #41506D",
"L+	c #42516E",
"M+	c #44536F",
"N+	c #455471",
"O+	c #465673",
"P+	c #495975",
"Q+	c #4D5D78",
"R+	c #51617C",
"S+	c #55647F",
"T+	c #586782",
"U+	c #445471",
"V+	c #21304E",
"W+	c #162542",
"X+	c #212F47",
"Y+	c #485870",
"Z+	c #38475E",
"`+	c #293856",
" @	c #263553",
".@	c #233251",
"+@	c #233250",
"@@	c #7C8496",
"#@	c #F9FAFB",
"$@	c #FFFFFF",
"%@	c #EEF0F2",
"&@	c #8992A2",
"*@	c #2E3D59",
"=@	c #243452",
"-@	c #283855",
";@	c #848C9D",
">@	c #F6F7F8",
",@	c #979FAC",
"'@	c #354460",
")@	c #2A3957",
"!@	c #2C3C5A",
"~@	c #2D3D5B",
"{@	c #2F3E5C",
"]@	c #30405E",
"^@	c #31425E",
"/@	c #344361",
"(@	c #3A4A67",
"_@	c #3F4F6C",
":@	c #41516C",
"<@	c #43536F",
"[@	c #485875",
"}@	c #202F4D",
"|@	c #182744",
"1@	c #1F2D44",
"2@	c #37455C",
"3@	c #30405D",
"4@	c #2B3B58",
"5@	c #263654",
"6@	c #A6ACB8",
"7@	c #FBFCFC",
"8@	c #FCFCFC",
"9@	c #FDFDFE",
"0@	c #B9BEC7",
"a@	c #32415C",
"b@	c #1E2D4B",
"c@	c #3B4963",
"d@	c #D8DAE0",
"e@	c #EDEEF0",
"f@	c #FEFEFE",
"g@	c #959CAA",
"h@	c #243350",
"i@	c #293855",
"j@	c #6F7A8D",
"k@	c #CBCFD6",
"l@	c #D1D4DB",
"m@	c #B4B9C4",
"n@	c #3F4C67",
"o@	c #5C687F",
"p@	c #7A8496",
"q@	c #404F68",
"r@	c #414F6A",
"s@	c #8E97A7",
"t@	c #788395",
"u@	c #3F4E69",
"v@	c #667187",
"w@	c #69758A",
"x@	c #47556F",
"y@	c #354462",
"z@	c #384865",
"A@	c #8A94A5",
"B@	c #BBC1CB",
"C@	c #1F2F4D",
"D@	c #1A2A46",
"E@	c #1E2B42",
"F@	c #47586F",
"G@	c #36445A",
"H@	c #32415F",
"I@	c #344360",
"J@	c #32425F",
"K@	c #303F5D",
"L@	c #2C3C59",
"M@	c #31405D",
"N@	c #DADDE2",
"O@	c #F1F2F4",
"P@	c #BDC2CA",
"Q@	c #F9F9FA",
"R@	c #CCD0D6",
"S@	c #505D74",
"T@	c #243250",
"U@	c #A2A8B4",
"V@	c #FBFBFC",
"W@	c #87909F",
"X@	c #F8F9FA",
"Y@	c #7C8597",
"Z@	c #273553",
"`@	c #7D8697",
" #	c #D6D9DE",
".#	c #7C8596",
"+#	c #B4B9C3",
"@#	c #E5E7EB",
"##	c #4C5770",
"$#	c #B7BCC6",
"%#	c #C0C5CD",
"&#	c #58647B",
"*#	c #727C90",
"=#	c #C2C6CF",
"-#	c #ECEEF0",
";#	c #47556D",
">#	c #B5BAC4",
",#	c #AAB0BC",
"'#	c #4C5971",
")#	c #647086",
"!#	c #CDD0D8",
"~#	c #C0C4CD",
"{#	c #354561",
"]#	c #2C3D5B",
"^#	c #21314E",
"/#	c #233350",
"(#	c #1E2D4A",
"_#	c #1C293F",
":#	c #47576F",
"<#	c #344259",
"[#	c #344462",
"}#	c #3A4966",
"|#	c #3E4D6A",
"1#	c #3E4D6B",
"2#	c #4A5873",
"3#	c #D7DAE0",
"4#	c #626D83",
"5#	c #D5D8DE",
"6#	c #F3F4F5",
"7#	c #878F9F",
"8#	c #636E84",
"9#	c #D8DBE0",
"0#	c #4C5871",
"a#	c #F5F6F7",
"b#	c #727B8F",
"c#	c #45526C",
"d#	c #E1E3E8",
"e#	c #A2A9B5",
"f#	c #404D67",
"g#	c #C2C6CE",
"h#	c #C7CBD2",
"i#	c #424E68",
"j#	c #BDC1CA",
"k#	c #B1B7C1",
"l#	c #9CA3B0",
"m#	c #C4C8D0",
"n#	c #CACDD4",
"o#	c #EFF0F2",
"p#	c #687386",
"q#	c #646F84",
"r#	c #989FAD",
"s#	c #2D3C58",
"t#	c #313F5B",
"u#	c #E9EBEE",
"v#	c #243451",
"w#	c #21314F",
"x#	c #223250",
"y#	c #293957",
"z#	c #22324D",
"A#	c #1B273C",
"B#	c #47576E",
"C#	c #334157",
"D#	c #364564",
"E#	c #858FA2",
"F#	c #C4C9D2",
"G#	c #4D5B75",
"H#	c #AAB1BD",
"I#	c #C9CED5",
"J#	c #CBCED6",
"K#	c #E7E9EC",
"L#	c #6F798E",
"M#	c #43506B",
"N#	c #FAFAFB",
"O#	c #868FA0",
"P#	c #8C94A5",
"Q#	c #F5F5F7",
"R#	c #F2F3F5",
"S#	c #D7D9DF",
"T#	c #B3B8C3",
"U#	c #576379",
"V#	c #36445F",
"W#	c #CFD2D9",
"X#	c #E0E2E6",
"Y#	c #D3D5DB",
"Z#	c #5A657B",
"`#	c #B1B5C0",
" $	c #D9DBE0",
".$	c #435169",
"+$	c #838C9C",
"@$	c #7D8698",
"#$	c #757F91",
"$$	c #E5E7EA",
"%$	c #EAECEE",
"&$	c #5C687E",
"*$	c #263550",
"=$	c #19253A",
"-$	c #46576E",
";$	c #323F55",
">$	c #68768E",
",$	c #6A7990",
"'$	c #ADB4C1",
")$	c #ECEEF1",
"!$	c #ACB3C1",
"~$	c #9DA5B5",
"{$	c #F4F5F7",
"]$	c #FCFCFD",
"^$	c #BFC4CE",
"/$	c #414F6C",
"($	c #4B5974",
"_$	c #F4F4F6",
":$	c #9BA2B0",
"<$	c #9DA4B2",
"[$	c #A4ABB7",
"}$	c #57627A",
"|$	c #3C4964",
"1$	c #33415C",
"2$	c #414E67",
"3$	c #E9EAED",
"4$	c #DADCE1",
"5$	c #6E778B",
"6$	c #3A4661",
"7$	c #B3B7C2",
"8$	c #D2D5DB",
"9$	c #3F4C65",
"0$	c #7F8899",
"a$	c #9EA5B3",
"b$	c #6C778B",
"c$	c #CFD3D9",
"d$	c #D9DCE1",
"e$	c #4C5972",
"f$	c #283856",
"g$	c #273754",
"h$	c #263653",
"i$	c #283955",
"j$	c #293853",
"k$	c #182337",
"l$	c #46566D",
"m$	c #303D53",
"n$	c #4E5D79",
"o$	c #78859C",
"p$	c #7E8CA0",
"q$	c #BDC3CE",
"r$	c #99A2B3",
"s$	c #838FA3",
"t$	c #EEF0F3",
"u$	c #E0E2E7",
"v$	c #707C93",
"w$	c #485774",
"x$	c #596680",
"y$	c #E8EAED",
"z$	c #DBDEE4",
"A$	c #9DA4B3",
"B$	c #848D9F",
"C$	c #EBEDEF",
"D$	c #A4AAB7",
"E$	c #7C8697",
"F$	c #5C677E",
"G$	c #F8F9F9",
"H$	c #A9AEBA",
"I$	c #23304E",
"J$	c #394660",
"K$	c #D4D7DC",
"L$	c #6F798C",
"M$	c #EAEBEE",
"N$	c #EEEFF2",
"O$	c #A6ADB9",
"P$	c #EAECEF",
"Q$	c #D9DBE1",
"R$	c #788296",
"S$	c #2E3E5C",
"T$	c #2D3B55",
"U$	c #172134",
"V$	c #2E3C51",
"W$	c #394866",
"X$	c #53627E",
"Y$	c #97A1B2",
"Z$	c #C7CCD6",
"`$	c #BDC4CE",
" %	c #8994A7",
".%	c #7D899E",
"+%	c #7E8BA0",
"@%	c #C5CBD4",
"#%	c #C2C7D2",
"$%	c #8A94A8",
"%%	c #5E6C86",
"&%	c #BBC1CC",
"*%	c #ACB2BF",
"=%	c #929BAB",
"-%	c #505E79",
";%	c #9FA6B4",
">%	c #C2C7D0",
",%	c #55617A",
"'%	c #354361",
")%	c #59647C",
"!%	c #B1B6C1",
"~%	c #1F2E4C",
"{%	c #263651",
"]%	c #7D8797",
"^%	c #C2C7CF",
"/%	c #81899A",
"(%	c #4E5971",
"_%	c #C6CAD1",
":%	c #57637A",
"<%	c #374662",
"[%	c #ACB2BE",
"}%	c #57647C",
"|%	c #334361",
"1%	c #394865",
"2%	c #42526E",
"3%	c #2E3D57",
"4%	c #161F33",
"5%	c #45556D",
"6%	c #2D394F",
"7%	c #52617D",
"8%	c #8C97A9",
"9%	c #8F9AAC",
"0%	c #818EA2",
"a%	c #7F8CA1",
"b%	c #7E8A9F",
"c%	c #7A889D",
"d%	c #6D7A93",
"e%	c #51607C",
"f%	c #455572",
"g%	c #354463",
"h%	c #2D3C5A",
"i%	c #253452",
"j%	c #22314F",
"k%	c #1F2F4C",
"l%	c #1D2C4A",
"m%	c #1C2B48",
"n%	c #1F2E4D",
"o%	c #384662",
"p%	c #3E4C67",
"q%	c #2F3F5D",
"r%	c #334360",
"s%	c #42536F",
"t%	c #2F3D57",
"u%	c #45556C",
"v%	c #2B374D",
"w%	c #4D5C78",
"x%	c #66758E",
"y%	c #728197",
"z%	c #718096",
"A%	c #6F7D94",
"B%	c #6D7B92",
"C%	c #6B7992",
"D%	c #65748D",
"E%	c #5F6D88",
"F%	c #566580",
"G%	c #465672",
"H%	c #3D4C69",
"I%	c #3B4A68",
"J%	c #364664",
"K%	c #273755",
"L%	c #243352",
"M%	c #21304F",
"N%	c #1C2B49",
"O%	c #1E2E4B",
"P%	c #20304E",
"Q%	c #253552",
"R%	c #40516E",
"S%	c #2E3C56",
"T%	c #162032",
"U%	c #283549",
"V%	c #3E4D69",
"W%	c #54637D",
"X%	c #55657D",
"Y%	c #55647D",
"Z%	c #54647D",
"`%	c #53617C",
" &	c #515F7B",
".&	c #4F5E79",
"+&	c #4C5B76",
"@&	c #495874",
"#&	c #374663",
"$&	c #293956",
"%&	c #233351",
"&&	c #1D2D4A",
"*&	c #1B2A48",
"=&	c #1A2946",
"-&	c #192845",
";&	c #1A2A47",
">&	c #1E2C4B",
",&	c #364764",
"'&	c #293650",
")&	c #45546C",
"!&	c #263147",
"~&	c #32415D",
"{&	c #34445F",
"]&	c #33445F",
"^&	c #34435F",
"/&	c #33435E",
"(&	c #33425E",
"_&	c #32425E",
":&	c #303F5C",
"<&	c #2D3C59",
"[&	c #2B3A58",
"}&	c #22324F",
"|&	c #1F304D",
"1&	c #1E2E4C",
"2&	c #1D2D4B",
"3&	c #1C2C49",
"4&	c #1B2B48",
"5&	c #1A2947",
"6&	c #1A2846",
"7&	c #182844",
"8&	c #192945",
"9&	c #1C2A48",
"0&	c #1D2C49",
"a&	c #222E48",
"b&	c #161F32",
"c&	c #44546B",
"d&	c #242F44",
"e&	c #1E2F4B",
"f&	c #21304D",
"g&	c #20304D",
"h&	c #22314E",
"i&	c #22324E",
"j&	c #23324F",
"k&	c #1B2C49",
"l&	c #1B2B49",
"m&	c #1A2A48",
"n&	c #192846",
"o&	c #1F304C",
"p&	c #21324E",
"q&	c #1E2A43",
"r&	c #171F32",
"s&	c #435369",
"t&	c #202938",
"u&	c #182336",
"v&	c #1A2538",
"w&	c #1C263A",
"x&	c #1D263B",
"y&	c #1B2639",
"z&	c #1B263A",
"A&	c #1C273A",
"B&	c #1C263B",
"C&	c #1D273A",
"D&	c #1D273B",
"E&	c #1E273C",
"F&	c #1B253A",
"G&	c #1B2539",
"H&	c #1A2539",
"I&	c #192438",
"J&	c #172236",
"K&	c #172235",
"L&	c #172234",
"M&	c #162133",
"N&	c #162134",
"O&	c #172135",
"P&	c #1B273A",
"Q&	c #1A2233",
"R&	c #161D2C",
". + @ # $ $ % & % * = - ; ; ; > , ' ) ) ! ) ~ ~ ~ ~ ~ { { ] ^ / / / / ( _ : : : : : _ _ : < [ } | 1 ( ",
"2 & 3 4 5 6 7 8 9 0 a b c d e f g h i j k l m n m l o o o n p q r s s t u v w w v u p x m y z A B C D ",
"E F G H I J K L f M N O P Q R S T U V W X Y Z `  ...+.+.@.#.#.$.%.&.&.&.*.&.=.-.-.;.>.,.'.).!.~.{.].^.",
"E /.(._.:.<.[.K }.|.1.l 2.3.4.5.6.7.8.T 9.0.a.b.c.d.e.f.g.h.i.j.k.l.m.n.n.o.p.q.r.s.t.u.v.w.x.~.y.z.A.",
"+ B.C.D.E.4 F.H G.H.I.J.c K.c L.M.N.O.P.Q.R.S.O 4.T.U.V.W.X.Y.Z.` `...f. +$..+++@+;.#+q.$+).%+&+*+=+-+",
";+>+,+'+)+,+!+~+{+]+^+/+(+_+:+<+~.[+}+|+1+2+3+a K.M.4+i k 5+6+O 7+8+9+0+a+b+c+X.d+Y `.e+f+W q g+h+i+j+",
"k+l+m+n+o+p+q+q+r+s+t+u+v+w+x+y+z+A+B+C+D+E+F+F+G+H+_.I+J+K+L+M+N+O+3+P+}.Q+f R+l S+T+5.%+S+U+x+V+W+X+",
"Y+Z+y+x+`+ @.@+@@@#@$@%@&@*@=@-@;@>@$@B+,@'@)@o+!@~@{@]@^@/@g+E.G+H+(@F.H _@:@<@8 O+[@L.L.3+(@q+}@|@1@",
"Y+2@3@m+4@5@+@h+6@7@8@9@0@a@b@c@d@e@$@f@g@h@i@j@k@l@m@n@o@p@q@y+r@s@t@u@v@w@x@y@z@A@B@7 (@z@3@+@C@D@E@",
"F@G@H@I@J@K@L@M@N@O@P@Q@R@S@T@U@V@W@$@X@Y@Z@`@ #.#+#@###$#%#&#*#=#-#&@;#>#,#'#y.)#!#~#{#y+]#q+^#/#(#_#",
":#<#[#}#|#1#I+2#X@3#4#5#6#7#8#9#$#0#$@a#b#c#d#e#f#g#h#i#j#k#l#m#n#o#p#q#a#r#s#t#e#u#Y@q+ @v#w#x#y#z#A#",
"B#C#D#G.L.q q E#B+F#G#H#$@I#J#K#L#M#Q@N#O#P#Q#R#S#T#U#V#W#X#Y#Z#`# $.$+$f@@$V+#$$$%$&$h+h@+@x#-@K@*$=$",
"-$;$G+3+%+>$,$'$)$!$S+~${$#@]$^$/$($_$8@:$<$f@[$}$|$1$2$3$4$5$6$7$8$9$0$a#a$b$c$9@d$e$f$g$h$i$3@(.j$k$",
"l$m$z@n$..o$p$q${$r$+.s$t$f@u$v$w$x$y$z$A$B$N#C$D$E$F$;#G$H$I$J$+#K$L$@$M$N$5#O$P$Q$R$S$!@!@3@z@H T$U$",
"l$V$W$X$;.s$Y$Z$`$ %.%+%@%#%$%V.O %%&%*%=%-%;%>%H#,%'%)%!%f#~%{%]%^%/%(%_%@$:%<%<$[%}%!+!+|%1%_@2%3%4%",
"5%6%(.7%@+v.8%9%0%a%b%c%w.@+d%Y T 5.4.e%}.f%<.(@(.E.g%)+h%f$i%j%k%l%m%l%b@n%j%=@o%p%x+q%3@r%z@<.s%t%4%",
"u%v%r%w%x%++;.l.y%z%j.A%B%C% .D%W.E%4.F%1.}.G%<.:+H%I%J%~+{@4@K%L%M%~%b@l%N%N%O%P%/#Q%*+`+L@,+I+R%S%T%",
"u%U%{.V%n$W%X%X%X%Y%Y%Z%s W%`%i  &.&+&@&[.7 <+4 (.#&y@J@m+L@$&h$%&M%k%&&*&=&-&;&N%>&~%}@^#v#`+J@,&'&T%",
")&!&w#y.~&I@{&]&]&{&{&^&/&^&^&(&(&_&~&M@:&y+<&[&$&$&`+5@Q%%&}&|&1&2&3&4&5&6&7&8&=&*&9&m%0&b@^#h$$&a&b&",
"c&d&4&e&^#j%f&g&g&V+g&^#g&h&j%^#h&i&i&j&T@+@j&j%V+V+V+}@k%O%2&k&l&m&;&D@6&6&7&7&-&n&n&6&=&5&N%o&p&q&r&",
"s&t&u&v&w&x&y&y&y&z&y&y&y&A&B&w&C&C&C&D&E&D&D&D&w&w&F&G&H&v&I&k$k$J&K&L&U$U$M&M&N&U$O&U$U$O&k$G&P&Q&R&"};
