/* XPM */
static char * butactsm_xpm[] = {
"52 21 668 2",
"  	c None",
". 	c #38465B",
"+ 	c #2D3C54",
"@ 	c #303D56",
"# 	c #324058",
"$ 	c #34425A",
"% 	c #36445C",
"& 	c #3B4961",
"* 	c #3D4B63",
"= 	c #3E4C64",
"- 	c #404E66",
"; 	c #424F67",
"> 	c #435068",
", 	c #45536A",
"' 	c #47556C",
") 	c #49556D",
"! 	c #4A566E",
"~ 	c #4A566F",
"{ 	c #4A586F",
"] 	c #4B596F",
"^ 	c #4C5A70",
"/ 	c #4D5A70",
"( 	c #4E5A71",
"_ 	c #4D5A71",
": 	c #4E5A72",
"< 	c #4F5B72",
"[ 	c #4F5C72",
"} 	c #4F5D73",
"| 	c #515E73",
"1 	c #515F73",
"2 	c #505E73",
"3 	c #4F5D72",
"4 	c #505C72",
"5 	c #505D72",
"6 	c #505E72",
"7 	c #535F74",
"8 	c #556175",
"9 	c #566175",
"0 	c #515D72",
"a 	c #455369",
"b 	c #36435B",
"c 	c #24324B",
"d 	c #1B2841",
"e 	c #142238",
"f 	c #10141B",
"g 	c #374559",
"h 	c #2E3D54",
"i 	c #313F58",
"j 	c #34415A",
"k 	c #37445D",
"l 	c #3A4860",
"m 	c #3E4C63",
"n 	c #414F66",
"o 	c #425169",
"p 	c #45536B",
"q 	c #48556C",
"r 	c #4A576E",
"s 	c #4D5970",
"t 	c #4F5B73",
"u 	c #515C74",
"v 	c #515D75",
"w 	c #525E75",
"x 	c #536076",
"y 	c #546176",
"z 	c #566278",
"A 	c #576378",
"B 	c #58637A",
"C 	c #58647A",
"D 	c #59657B",
"E 	c #5A667C",
"F 	c #5B677D",
"G 	c #5C687D",
"H 	c #5D697E",
"I 	c #5D6A7E",
"J 	c #5F6C80",
"K 	c #616D81",
"L 	c #616E82",
"M 	c #606E82",
"N 	c #636F83",
"O 	c #646F83",
"P 	c #647183",
"Q 	c #677285",
"R 	c #6A7587",
"S 	c #6B7588",
"T 	c #667084",
"U 	c #556278",
"V 	c #3E4B64",
"W 	c #26344D",
"X 	c #1A2741",
"Y 	c #142137",
"Z 	c #0F131A",
"` 	c #364458",
" .	c #2C3A52",
"..	c #2E3B55",
"+.	c #303D57",
"@.	c #323F58",
"#.	c #35415A",
"$.	c #38455D",
"%.	c #3A475F",
"&.	c #435269",
"*.	c #435169",
"=.	c #47546B",
"-.	c #47546C",
";.	c #48556D",
">.	c #4D5B71",
",.	c #545F75",
"'.	c #535F75",
").	c #515C73",
"!.	c #4F5C73",
"~.	c #515D74",
"{.	c #556178",
"].	c #566279",
"^.	c #586379",
"/.	c #58667B",
"(.	c #59677C",
"_.	c #5B697E",
":.	c #5C697F",
"<.	c #5D6A7F",
"[.	c #5E6B7F",
"}.	c #5F6B80",
"|.	c #606D81",
"1.	c #626E82",
"2.	c #636E83",
"3.	c #647083",
"4.	c #667285",
"5.	c #697487",
"6.	c #546177",
"7.	c #3C4961",
"8.	c #24314A",
"9.	c #18253E",
"0.	c #132036",
"a.	c #0E1219",
"b.	c #364356",
"c.	c #2B3950",
"d.	c #2A3852",
"e.	c #2B3852",
"f.	c #2C3A53",
"g.	c #2E3C55",
"h.	c #2F3D56",
"i.	c #313E58",
"j.	c #4C576C",
"k.	c #979CA7",
"l.	c #5B6779",
"m.	c #3A4960",
"n.	c #3B4860",
"o.	c #3B4960",
"p.	c #3C4A62",
"q.	c #3E4D64",
"r.	c #6B7585",
"s.	c #A3A7B0",
"t.	c #8C939F",
"u.	c #5B667B",
"v.	c #445169",
"w.	c #44526A",
"x.	c #4B5770",
"y.	c #4D5971",
"z.	c #4F5B71",
"A.	c #505D73",
"B.	c #546077",
"C.	c #576379",
"D.	c #58657A",
"E.	c #59667B",
"F.	c #5B677C",
"G.	c #5C697E",
"H.	c #5E6A7F",
"I.	c #4E5B72",
"J.	c #37445C",
"K.	c #212E48",
"L.	c #17233D",
"M.	c #121F35",
"N.	c #0D1118",
"O.	c #344155",
"P.	c #29364D",
"Q.	c #27354E",
"R.	c #25324C",
"S.	c #26334D",
"T.	c #7C8491",
"U.	c #C3C5C8",
"V.	c #D0D1D3",
"W.	c #9298A3",
"X.	c #35435A",
"Y.	c #2C3B53",
"Z.	c #2D3B53",
"`.	c #2E3B54",
" +	c #3D4960",
".+	c #A9ADB4",
"++	c #D4D5D5",
"@+	c #B3B7BB",
"#+	c #5E687A",
"$+	c #35425A",
"%+	c #35435B",
"&+	c #37455E",
"*+	c #3A4760",
"=+	c #3B4861",
"-+	c #3D4B62",
";+	c #3F4D65",
">+	c #404D65",
",+	c #47566C",
"'+	c #49576D",
")+	c #4C586F",
"!+	c #525F74",
"~+	c #556177",
"{+	c #515E74",
"]+	c #1E2B44",
"^+	c #16233D",
"/+	c #121E34",
"(+	c #0C1017",
"_+	c #334053",
":+	c #28354C",
"<+	c #25334B",
"[+	c #24304A",
"}+	c #212D47",
"|+	c #1F2B45",
"1+	c #1E2B45",
"2+	c #A7ABB2",
"3+	c #C2C4C8",
"4+	c #D1D1D3",
"5+	c #A4A8AF",
"6+	c #313E55",
"7+	c #223049",
"8+	c #23314A",
"9+	c #6E7584",
"0+	c #CECFD0",
"a+	c #D6D7D7",
"b+	c #BABDC1",
"c+	c #6E7685",
"d+	c #28344E",
"e+	c #28354E",
"f+	c #28364F",
"g+	c #293851",
"h+	c #2B3953",
"i+	c #2C3A54",
"j+	c #2F3D55",
"k+	c #323E58",
"l+	c #35425B",
"m+	c #36445D",
"n+	c #38465E",
"o+	c #414E66",
"p+	c #38465F",
"q+	c #17243D",
"r+	c #111E32",
"s+	c #0C0F15",
"t+	c #323F52",
"u+	c #27354C",
"v+	c #25334C",
"w+	c #202C46",
"x+	c #1D2943",
"y+	c #2B364D",
"z+	c #C7C8CA",
"A+	c #D9D9D9",
"B+	c #D8D8D9",
"C+	c #BEC0C4",
"D+	c #576072",
"E+	c #1B2942",
"F+	c #374358",
"G+	c #B6B8BD",
"H+	c #CBCCCE",
"I+	c #5D6676",
"J+	c #202D46",
"K+	c #333F55",
"L+	c #4A5468",
"M+	c #485367",
"N+	c #404A61",
"O+	c #36435A",
"P+	c #2B3952",
"Q+	c #293750",
"R+	c #2A3851",
"S+	c #3C4960",
"T+	c #3A485F",
"U+	c #303E56",
"V+	c #38445C",
"W+	c #39455D",
"X+	c #33405A",
"Y+	c #424E65",
"Z+	c #535E73",
"`+	c #3E4B63",
" @	c #39475F",
".@	c #37455D",
"+@	c #233049",
"@@	c #1A2640",
"#@	c #19263F",
"$@	c #121D31",
"%@	c #0B0E14",
"&@	c #313D51",
"*@	c #222F49",
"=@	c #1F2C45",
"-@	c #1C2942",
";@	c #4C5568",
">@	c #CCCDCF",
",@	c #D6D6D7",
"'@	c #CDCECF",
")@	c #6C7483",
"!@	c #1E2B43",
"~@	c #7F8591",
"{@	c #B6B9BD",
"]@	c #D4D4D5",
"^@	c #4A5366",
"/@	c #1B2740",
"(@	c #374257",
"_@	c #A1A5AD",
":@	c #BEC0C3",
"<@	c #C7C8CB",
"[@	c #ADAFB6",
"}@	c #2E3951",
"|@	c #79818E",
"1@	c #7A818E",
"2@	c #344157",
"3@	c #28344D",
"4@	c #545E71",
"5@	c #A3A7AF",
"6@	c #767E8C",
"7@	c #354258",
"8@	c #6A7282",
"9@	c #455065",
"0@	c #757D8C",
"a@	c #B9BCC1",
"b@	c #4B566B",
"c@	c #121D30",
"d@	c #0A0D13",
"e@	c #303C50",
"f@	c #28354D",
"g@	c #27344E",
"h@	c #7E8492",
"i@	c #8A8F9A",
"j@	c #B2B4BA",
"k@	c #989CA5",
"l@	c #CCCDCE",
"m@	c #AAAEB4",
"n@	c #757C88",
"o@	c #C2C3C6",
"p@	c #3E485D",
"q@	c #394459",
"r@	c #A9ADB3",
"s@	c #343E54",
"t@	c #A4A7AF",
"u@	c #BCBEC2",
"v@	c #313B52",
"w@	c #9DA0A9",
"x@	c #9599A3",
"y@	c #CBCCCD",
"z@	c #68707F",
"A@	c #3F495E",
"B@	c #B1B5B9",
"C@	c #9398A2",
"D@	c #3B465B",
"E@	c #212E47",
"F@	c #626B7B",
"G@	c #C0C2C5",
"H@	c #8D939D",
"I@	c #354157",
"J@	c #1F2C46",
"K@	c #1B2941",
"L@	c #1E2A43",
"M@	c #111C2F",
"N@	c #090C12",
"O@	c #2F3B4F",
"P@	c #38455E",
"Q@	c #3D4962",
"R@	c #9DA1AB",
"S@	c #687181",
"T@	c #787F8D",
"U@	c #C6C7CA",
"V@	c #C1C3C6",
"W@	c #596274",
"X@	c #9EA2AB",
"Y@	c #C3C5C7",
"Z@	c #4F586C",
"`@	c #717886",
" #	c #C0C1C5",
".#	c #414B61",
"+#	c #777E8C",
"@#	c #C4C6CA",
"##	c #8E939D",
"$#	c #6A7180",
"%#	c #7D8490",
"&#	c #384258",
"*#	c #979BA4",
"=#	c #AEB1B7",
"-#	c #8A909A",
";#	c #A3A7AE",
">#	c #C6C8CA",
",#	c #4B5567",
"'#	c #D8D8D8",
")#	c #7E8491",
"!#	c #1F2C44",
"~#	c #27344B",
"{#	c #949AA3",
"]#	c #CCCECF",
"^#	c #707885",
"/#	c #212E46",
"(#	c #1D2942",
"_#	c #25324A",
":#	c #111B2E",
"<#	c #080C11",
"[#	c #2E3B4D",
"}#	c #33415A",
"|#	c #49566D",
"1#	c #4C596F",
"2#	c #5B667A",
"3#	c #B5B8BE",
"4#	c #C0C3C6",
"5#	c #656F80",
"6#	c #545F73",
"7#	c #BDBFC3",
"8#	c #D2D3D4",
"9#	c #C9CACD",
"0#	c #9DA2AB",
"a#	c #354059",
"b#	c #6E7585",
"c#	c #D5D5D6",
"d#	c #586073",
"e#	c #ABAFB5",
"f#	c #D3D3D4",
"g#	c #989CA6",
"h#	c #61687A",
"i#	c #2A364D",
"j#	c #384359",
"k#	c #B9BBC0",
"l#	c #C3C4C7",
"m#	c #8B909A",
"n#	c #364156",
"o#	c #9A9EA7",
"p#	c #B3B6BB",
"q#	c #354155",
"r#	c #6A7280",
"s#	c #D7D7D7",
"t#	c #7D8390",
"u#	c #243049",
"v#	c #797F8C",
"w#	c #CDCED0",
"x#	c #CECED0",
"y#	c #1D2A43",
"z#	c #1D2B43",
"A#	c #29374F",
"B#	c #101B2D",
"C#	c #080B10",
"D#	c #2D394C",
"E#	c #28344B",
"F#	c #737D8E",
"G#	c #BABDC2",
"H#	c #C0C2C6",
"I#	c #5F6A7F",
"J#	c #596579",
"K#	c #A7ABB4",
"L#	c #D5D6D6",
"M#	c #596377",
"N#	c #334059",
"O#	c #767E8D",
"P#	c #6B7383",
"Q#	c #A1A6AD",
"R#	c #7C828F",
"S#	c #313C53",
"T#	c #4E5769",
"U#	c #D1D2D3",
"V#	c #ABAEB5",
"W#	c #384257",
"X#	c #999DA5",
"Y#	c #343F55",
"Z#	c #656D7C",
"`#	c #A8AAB2",
" $	c #878D98",
".$	c #B8BBC0",
"+$	c #D7D8D8",
"@$	c #586274",
"#$	c #212F48",
"$$	c #202E47",
"%$	c #223048",
"&$	c #2F3C55",
"*$	c #2D3A53",
"=$	c #101A2C",
"-$	c #07090E",
";$	c #2C374B",
">$	c #27344A",
",$	c #657084",
"'$	c #6C7789",
")$	c #878F9D",
"!$	c #C5C7CA",
"~$	c #ABAFB7",
"{$	c #636D82",
"]$	c #606B7F",
"^$	c #959BA7",
"/$	c #D0D1D2",
"($	c #CACBCE",
"_$	c #878E9C",
":$	c #46536B",
"<$	c #3F4C64",
"[$	c #798190",
"}$	c #ABAFB6",
"|$	c #A7ABB3",
"1$	c #737B8B",
"2$	c #A6AAB1",
"3$	c #364159",
"4$	c #586071",
"5$	c #19253E",
"6$	c #303C52",
"7$	c #959AA2",
"8$	c #BEBFC3",
"9$	c #7A808D",
"0$	c #646C7C",
"a$	c #A2A6AE",
"b$	c #5A6375",
"c$	c #B1B4B9",
"d$	c #BBBDC2",
"e$	c #78808E",
"f$	c #2C3952",
"g$	c #25334D",
"h$	c #344159",
"i$	c #303D55",
"j$	c #111A2B",
"k$	c #06090E",
"l$	c #2C374A",
"m$	c #26334A",
"n$	c #3E4A63",
"o$	c #566379",
"p$	c #6C7689",
"q$	c #737E8D",
"r$	c #999FAA",
"s$	c #979DA8",
"t$	c #778291",
"u$	c #6D7889",
"v$	c #6B7688",
"w$	c #798393",
"x$	c #868F9D",
"y$	c #778191",
"z$	c #5A667B",
"A$	c #4B586F",
"B$	c #606B80",
"C$	c #7A8392",
"D$	c #717B8B",
"E$	c #677081",
"F$	c #6E7686",
"G$	c #5A6577",
"H$	c #293651",
"I$	c #27344F",
"J$	c #475266",
"K$	c #5E6678",
"L$	c #1B2840",
"M$	c #455062",
"N$	c #6B7281",
"O$	c #465063",
"P$	c #27324A",
"Q$	c #6C7381",
"R$	c #222F48",
"S$	c #566072",
"T$	c #747C8A",
"U$	c #39465D",
"V$	c #293751",
"W$	c #323F57",
"X$	c #10192B",
"Y$	c #06080D",
"Z$	c #2A3648",
"`$	c #243147",
" %	c #525F76",
".%	c #647084",
"+%	c #697587",
"@%	c #717B8C",
"#%	c #6B7789",
"$%	c #687487",
"%%	c #677386",
"&%	c #667184",
"*%	c #636E82",
"=%	c #58647B",
"-%	c #505C74",
";%	c #36435C",
">%	c #313E57",
",%	c #2D3954",
"'%	c #293650",
")%	c #1A2740",
"!%	c #19253F",
"~%	c #17253D",
"{%	c #17253E",
"]%	c #27344D",
"^%	c #2C3953",
"/%	c #323E57",
"(%	c #101A2B",
"_%	c #293446",
":%	c #212D44",
"<%	c #546278",
"[%	c #576579",
"}%	c #576479",
"|%	c #556377",
"1%	c #556277",
"2%	c #525F75",
"3%	c #45526A",
"4%	c #414F67",
"5%	c #3D4A62",
"6%	c #39465F",
"7%	c #2A3751",
"8%	c #1E2A44",
"9%	c #1C2842",
"0%	c #16233B",
"a%	c #15223B",
"b%	c #16243C",
"c%	c #1F2B44",
"d%	c #2E3C54",
"e%	c #111A2A",
"f%	c #273344",
"g%	c #1C283E",
"h%	c #29364F",
"i%	c #3D4961",
"j%	c #3E4B62",
"k%	c #3E4C62",
"l%	c #3E4B61",
"m%	c #3D4A60",
"n%	c #3D4A61",
"o%	c #3C485F",
"p%	c #3B475F",
"q%	c #3A465E",
"r%	c #28354F",
"s%	c #24314B",
"t%	c #222E48",
"u%	c #16233C",
"v%	c #15223A",
"w%	c #142139",
"x%	c #14223A",
"y%	c #18243E",
"z%	c #1A263F",
"A%	c #1E2C45",
"B%	c #27334B",
"C%	c #111A29",
"D%	c #263143",
"E%	c #172238",
"F%	c #202E46",
"G%	c #212D46",
"H%	c #222E47",
"I%	c #202C45",
"J%	c #17243E",
"K%	c #16243D",
"L%	c #15233B",
"M%	c #15213A",
"N%	c #132139",
"O%	c #142239",
"P%	c #16223B",
"Q%	c #1A2840",
"R%	c #1D2940",
"S%	c #121A29",
"T%	c #253041",
"U%	c #152136",
"V%	c #1A273F",
"W%	c #1C2840",
"X%	c #1B273F",
"Y%	c #1B283F",
"Z%	c #1C283F",
"`%	c #1C293F",
" &	c #1C2940",
".&	c #1C2941",
"+&	c #1C2740",
"@&	c #15233A",
"#&	c #152239",
"$&	c #152139",
"%&	c #132138",
"&&	c #14213A",
"*&	c #1A283F",
"=&	c #1B263D",
"-&	c #161B24",
";&	c #0B0F16",
">&	c #0C1118",
",&	c #0D1119",
"'&	c #0E121A",
")&	c #0D1219",
"!&	c #0D111A",
"~&	c #0C1119",
"{&	c #0B1018",
"]&	c #0B0F18",
"^&	c #0B0F17",
"/&	c #0A0F17",
"(&	c #040508",
"_&	c #000000",
". + @ # $ % & * = - ; > , ' ) ! ~ { ] ^ / ( _ ( : < < < < [ [ } | 1 1 2 3 3 4 5 5 6 7 8 9 0 a b c d e f ",
"g h i j k l m n o p q r s t u v w x y z A B C D E F F G H I I J K K L L M L N O O P Q R S T U V W X Y Z ",
"`  ...+.@.#.$.%.* q , &.*.p =.-.;.>.,.'.).t !.~.'.{.].^.C /.(._.:.<.[.}.J |.1.1.2.3.4.5.5.O 6.7.8.9.0.a.",
"b.c.d.e.f.g.h.i.j.k.k.l.m.n.o.p.q.r.s.t.u.v.w., ;.x.y.z.[ A.~.x B.6.z C.D.E.F.G G.H.J L L H.I.J.K.L.M.N.",
"O.P.Q.W R.R.S.S.T.U.V.W.X.Y.Z.`. +.+++@+#+j $+%+&+*+=+7.-+;+>+; > w., =.,+'+)+s ( 4 !+y ~+{+> h.]+^+/+(+",
"_+:+<+[+}+|+1+]+2+3+4+5+6+7+7+8+9+0+a+b+c+d+e+f+g+h+i++ j+k+@.j l+m+k n+l 7.* ;+o+; w.-.) , p+f+d q+r+s+",
"t+u+v+8.w+x+d y+z+A+B+C+D+d E+F+G+A+A+H+I+w+J+K+L+M+N+S. .O+P+Q+R+S+T+U+V+W+$+@.X+Y+Z+`+ @.@g.+@@@#@$@%@",
"&@:+Q.S.*@=@-@;@>@0+,@'@)@q+!@~@>@{@A+]@^@/@(@_@:@<@[@}@|@1@2@3@4@5@6@7@8@6@9@e+Z.0@a@b@f.P+S.]+@@d c@d@",
"e@f@P+f.P+R+g@h@++i@j@++k@}@;@l@m@n@A+o@p@q@r@i@s@t@u@v@m@w@D+x@C+y@z@A@B@C@D@E@F@G@H@I@+@7+J@K@L@J+M@N@",
"O@:+h.$+P@n+Q@R@H+S@T@U@V@W@X@Y@Z@`@A+ #.#+#@###$#<@%#&#{@*#=#-#;#>#,#I+'#)#!#~#{#]#^#/#x+(#d K@*@_#:#<#",
"[#:+}#= |#1#2#3#4#5#6#7#8#u@9#0#a#b#c#]@d#e#f#7#g#h#i#j#k#l#m#n#o#p#q#r#s#t#u#v#w#x#D+|+]+y#z#E@f+A#B#C#",
"D#E#k |#E.J F#G#H#I#J#K#L#A+U@M#N#O#s#9#P#Q#L#R#S#p@n#T#U#V#W#W#X#=#Y#Z#9#`# $.$+$V@@$*@#$$$%$Q.&$*$=$-$",
";$>$=+{+,$'$)$!$~${$]$^$/$($_$:$<$[$}$|$1$0@w#<@2$8@3$D+0+4$5$6$7$8$9$0$U@l#a$b$c$d$e$f$W g$Q+g.h$i$j$k$",
"l$m$n$o$p$q$r$s$t$u$v$w$x$y$z$~.A$B$C$D$8 $.E$F$G$H$I$J$K$=@/@L$M$N$O$P$Q$D@3@R$S$T$U$V$R+R+&$j $.W$X$Y$",
"Z$`$=+ %.%+%@%#%$%%%&%*%J G.=%6.-%y.;.*.q.*+;%>%&$g.,%'%S.*@w+x+)%!%q+~%{%9.@@-@R$f@+@c R.]%^%i k /%(%Y$",
"_%:%l+;.<%D.D.D.D.[%}%|%1%B.2%{+t s |#3%4%5%6%j @.@.+.f.7%S.8.}+8%9%@@9.^+0%a%b%9.)%d x+c%E@R.f.N#d%e%Y$",
"f%g%h%$+i%j%k%k%j%j%l%m%n%n% +o%p%q%V+$+N#U+`.e.Q+h%r%v+s%t%J+y#d @@9.q+u%v%w%x%u%L.y%5$z%d A%8.Q+B%C%Y$",
"D%E%d =@E@E@/#F%/#/#/#G%/#H%/#/#/#/#/#/#}+J+I%c%L@y#x+9%d )%#@{%J%K%0%L%v%M%N%N%O%v%a%P%P%u%9.Q%!@R%S%Y$",
"T%U%~%V%W%/@V%V%V%V%X%V%X%W%X%Y%Z%`% &.&(#.&W%+&X%z%z%z%#@9.~%b%u%L%@&#&$&$&%&%&%&w%&&$&$&#&u%9.*&=&S%Y$",
"-&;&>&,&'&,&,&,&,&,&,&,&)&'&!&)&a.a.'&'&'&'&'&'&,&,&,&,&~&~&>&{&{&]&]&^&^&^&/&/&/&/&]&/&^&^&{&>&)&,&%@(&",
"_&_&_&_&_&_&_&_&_&_&_&_&_&_&_&_&_&_&_&_&_&_&_&_&_&_&_&_&_&_&_&_&_&_&_&_&_&_&_&_&_&_&_&_&_&_&_&_&_&_&_&_&"};
