/* XPM */
static char * butlig_xpm[] = {
"51 21 846 2",
"  	c None",
". 	c #4E5E76",
"+ 	c #495A71",
"@ 	c #43536C",
"# 	c #40516A",
"$ 	c #405169",
"% 	c #405069",
"& 	c #41516A",
"* 	c #3F4F68",
"= 	c #3E4F68",
"- 	c #3E4E67",
"; 	c #3D4E67",
"> 	c #3C4D67",
", 	c #3B4C66",
"' 	c #3B4B66",
") 	c #3A4B65",
"! 	c #3A4B66",
"~ 	c #3A4A65",
"{ 	c #394A65",
"] 	c #384A64",
"^ 	c #384964",
"/ 	c #384A63",
"( 	c #384963",
"_ 	c #374962",
": 	c #374862",
"< 	c #364761",
"[ 	c #34455F",
"} 	c #31415C",
"| 	c #2F3F5A",
"1 	c #273954",
"2 	c #4A5B72",
"3 	c #354662",
"4 	c #394966",
"5 	c #3B4C68",
"6 	c #3D4E69",
"7 	c #41516D",
"8 	c #445470",
"9 	c #465671",
"0 	c #475772",
"a 	c #485873",
"b 	c #495974",
"c 	c #4B5B76",
"d 	c #4D5E78",
"e 	c #4E5E79",
"f 	c #4F5F7A",
"g 	c #505F7A",
"h 	c #50607B",
"i 	c #51607B",
"j 	c #51617D",
"k 	c #52627D",
"l 	c #53627D",
"m 	c #53627C",
"n 	c #52627C",
"o 	c #53617D",
"p 	c #52617B",
"q 	c #52617C",
"r 	c #53637D",
"s 	c #53637C",
"t 	c #51627B",
"u 	c #50617A",
"v 	c #50607A",
"w 	c #515F7A",
"x 	c #54637C",
"y 	c #4D5C77",
"z 	c #44546F",
"A 	c #334460",
"B 	c #283956",
"C 	c #172846",
"D 	c #2A3B55",
"E 	c #495A72",
"F 	c #405068",
"G 	c #384965",
"H 	c #3D4D6A",
"I 	c #40516D",
"J 	c #435370",
"K 	c #485874",
"L 	c #4C5D77",
"M 	c #55647F",
"N 	c #586883",
"O 	c #5B6A85",
"P 	c #5E6D87",
"Q 	c #606F88",
"R 	c #64728B",
"S 	c #65748E",
"T 	c #67758F",
"U 	c #67768F",
"V 	c #687790",
"W 	c #697991",
"X 	c #6B7A92",
"Y 	c #6D7C93",
"Z 	c #6E7C94",
"` 	c #6F7C94",
" .	c #6F7D95",
"..	c #707E96",
"+.	c #717F97",
"@.	c #727F97",
"#.	c #738098",
"$.	c #738198",
"%.	c #75829A",
"&.	c #77859B",
"*.	c #77869B",
"=.	c #76859B",
"-.	c #76869A",
";.	c #78869B",
">.	c #78879B",
",.	c #78869A",
"'.	c #768399",
").	c #7A879C",
"!.	c #7A869C",
"~.	c #707D95",
"{.	c #404F6C",
"].	c #2B3B59",
"^.	c #172745",
"/.	c #283851",
"(.	c #3E4E66",
"_.	c #374764",
":.	c #3B4B68",
"<.	c #3E4E6B",
"[.	c #40506D",
"}.	c #5E6A86",
"|.	c #67738A",
"1.	c #6C778E",
"2.	c #6F7B90",
"3.	c #717D92",
"4.	c #748094",
"5.	c #768297",
"6.	c #778397",
"7.	c #788398",
"8.	c #798599",
"9.	c #7B869A",
"0.	c #7B879B",
"a.	c #7E889C",
"b.	c #7F899D",
"c.	c #808B9E",
"d.	c #828B9F",
"e.	c #838CA0",
"f.	c #858EA2",
"g.	c #848EA3",
"h.	c #858FA3",
"i.	c #8691A3",
"j.	c #8692A4",
"k.	c #8792A4",
"l.	c #8894A6",
"m.	c #8A95A7",
"n.	c #8B96A7",
"o.	c #8B97A7",
"p.	c #8B97A8",
"q.	c #8C97A8",
"r.	c #8D98A9",
"s.	c #8D97AA",
"t.	c #8A95A8",
"u.	c #8794A6",
"v.	c #8691A4",
"w.	c #8590A3",
"x.	c #7F8BA0",
"y.	c #76839A",
"z.	c #62718B",
"A.	c #2A3A57",
"B.	c #162643",
"C.	c #26364F",
"D.	c #3C4C64",
"E.	c #334462",
"F.	c #354563",
"G.	c #374664",
"H.	c #3F4F6B",
"I.	c #4D5B75",
"J.	c #5E6A83",
"K.	c #6B778B",
"L.	c #97A0AC",
"M.	c #ACB3BB",
"N.	c #9BA5AD",
"O.	c #7F8C97",
"P.	c #7F8B97",
"Q.	c #818C97",
"R.	c #828C98",
"S.	c #828E9A",
"T.	c #8996A0",
"U.	c #B3BBC0",
"V.	c #A8B1B8",
"W.	c #9FA8B2",
"X.	c #89939F",
"Y.	c #89949F",
"Z.	c #8A97A2",
"`.	c #8E98A4",
" +	c #9099A7",
".+	c #919BA8",
"++	c #919BA7",
"@+	c #919CA7",
"#+	c #939DAA",
"$+	c #949FAB",
"%+	c #969FAB",
"&+	c #96A0AB",
"*+	c #96A0AC",
"=+	c #98A2AD",
"-+	c #97A2AD",
";+	c #99A3AE",
">+	c #99A3AD",
",+	c #9BA3AE",
"'+	c #97A1AF",
")+	c #929DAB",
"!+	c #838FA5",
"~+	c #7B899C",
"{+	c #5C6B85",
"]+	c #3B4A67",
"^+	c #273654",
"/+	c #142442",
"(+	c #25344C",
"_+	c #485971",
":+	c #3B4A61",
"<+	c #31415E",
"[+	c #31415F",
"}+	c #364561",
"|+	c #3F4D6B",
"1+	c #545F79",
"2+	c #687386",
"3+	c #7E8994",
"4+	c #DFE2E3",
"5+	c #EDEFF0",
"6+	c #E1E4E5",
"7+	c #8E979F",
"8+	c #7C8891",
"9+	c #7E8991",
"0+	c #808A93",
"a+	c #A6AFB2",
"b+	c #F8F9F9",
"c+	c #E0E3E3",
"d+	c #B9C0C3",
"e+	c #848E97",
"f+	c #858F98",
"g+	c #87919A",
"h+	c #89939C",
"i+	c #8A949D",
"j+	c #8A959D",
"k+	c #8C969F",
"l+	c #8E98A1",
"m+	c #8F99A2",
"n+	c #9199A2",
"o+	c #909AA3",
"p+	c #939BA4",
"q+	c #939CA5",
"r+	c #949EA6",
"s+	c #95A0A7",
"t+	c #96A1A8",
"u+	c #98A1A9",
"v+	c #98A2AB",
"w+	c #95A0AB",
"x+	c #8490A3",
"y+	c #758298",
"z+	c #67758C",
"A+	c #354461",
"B+	c #243351",
"C+	c #142342",
"D+	c #23324A",
"E+	c #485970",
"F+	c #39485F",
"G+	c #2F3F5C",
"H+	c #2D3E5B",
"I+	c #31405E",
"J+	c #3E4B67",
"K+	c #58647A",
"L+	c #6A7582",
"M+	c #959DA3",
"N+	c #EBECEC",
"O+	c #ECEDED",
"P+	c #979FA2",
"Q+	c #6C7881",
"R+	c #6D7882",
"S+	c #7E878E",
"T+	c #D5D7D8",
"U+	c #F8F9F8",
"V+	c #EEEFEF",
"W+	c #B9BEC0",
"X+	c #7B858C",
"Y+	c #727F87",
"Z+	c #73808A",
"`+	c #75818A",
" @	c #76828B",
".@	c #78848B",
"+@	c #79868C",
"@@	c #7B868E",
"#@	c #7C868F",
"$@	c #7D8790",
"%@	c #7E8891",
"&@	c #808B93",
"*@	c #818C94",
"=@	c #838E96",
"-@	c #848F97",
";@	c #859198",
">@	c #87939A",
",@	c #89959D",
"'@	c #8E98A0",
")@	c #8C96A2",
"!@	c #808C9D",
"~@	c #6E7B92",
"{@	c #5B6984",
"]@	c #445471",
"^@	c #2D3D5A",
"/@	c #21304E",
"(@	c #162542",
"_@	c #212F47",
":@	c #485870",
"<@	c #38475E",
"[@	c #2E3E5B",
"}@	c #333F5D",
"|@	c #435069",
"1@	c #5C6779",
"2@	c #6A7580",
"3@	c #A7ACAF",
"4@	c #FAFBFB",
"5@	c #FFFFFF",
"6@	c #F2F3F2",
"7@	c #ABB1B3",
"8@	c #68747D",
"9@	c #626F77",
"0@	c #647179",
"a@	c #A7ADAF",
"b@	c #B5BCBA",
"c@	c #6E7881",
"d@	c #65717C",
"e@	c #65727C",
"f@	c #67747E",
"g@	c #67737E",
"h@	c #69747E",
"i@	c #6A7681",
"j@	c #6A7881",
"k@	c #6E7983",
"l@	c #6F7A84",
"m@	c #6F7B86",
"n@	c #707C87",
"o@	c #717E88",
"p@	c #737E88",
"q@	c #76818B",
"r@	c #78838B",
"s@	c #7A868D",
"t@	c #7D8890",
"u@	c #818D95",
"v@	c #848F9A",
"w@	c #7D8796",
"x@	c #657187",
"y@	c #3A4A67",
"z@	c #283755",
"A@	c #202F4D",
"B@	c #182744",
"C@	c #1F2D44",
"D@	c #37455C",
"E@	c #30405D",
"F@	c #35425F",
"G@	c #44526B",
"H@	c #5F6A7A",
"I@	c #6B7681",
"J@	c #C3C7C8",
"K@	c #FBFCFB",
"L@	c #FDFDFC",
"M@	c #FCFCFD",
"N@	c #CDD0D0",
"O@	c #69767E",
"P@	c #5B6670",
"Q@	c #707B83",
"R@	c #E3E4E4",
"S@	c #F1F2F2",
"T@	c #FEFEFE",
"U@	c #B3B8B9",
"V@	c #606B75",
"W@	c #636F78",
"X@	c #99A0A1",
"Y@	c #DADDDD",
"Z@	c #DEDFDF",
"`@	c #CACDCF",
" #	c #737D86",
".#	c #8A9396",
"+#	c #A0A6A8",
"@#	c #747F87",
"##	c #757F88",
"$#	c #AEB3B6",
"%#	c #9FA5A7",
"&#	c #738088",
"*#	c #91999D",
"=#	c #939C9F",
"-#	c #7A858B",
";#	c #6E7883",
">#	c #B0B6B9",
",#	c #D1D6D7",
"'#	c #76818F",
")#	c #58647D",
"!#	c #43526C",
"~#	c #233250",
"{#	c #1F2F4D",
"]#	c #1A2A46",
"^#	c #1E2B42",
"/#	c #47586F",
"(#	c #36445A",
"_#	c #32415F",
":#	c #344360",
"<#	c #3A4966",
"[#	c #4E5A73",
"}#	c #667181",
"|#	c #758089",
"1#	c #E6E7E6",
"2#	c #F6F6F6",
"3#	c #D0D3D2",
"4#	c #FAFAFA",
"5#	c #DADDDC",
"6#	c #818A8F",
"7#	c #606A75",
"8#	c #BDC0C2",
"9#	c #FCFCFC",
"0#	c #A8AFB0",
"a#	c #A1A7A9",
"b#	c #636D76",
"c#	c #E2E3E3",
"d#	c #CACCCD",
"e#	c #7E868D",
"f#	c #CCCFCF",
"g#	c #D3D6D6",
"h#	c #868F94",
"i#	c #9AA0A4",
"j#	c #D4D6D7",
"k#	c #AAB0B2",
"l#	c #798489",
"m#	c #CACECF",
"n#	c #7E888C",
"o#	c #929B9E",
"p#	c #D5D7D9",
"q#	c #6D7A88",
"r#	c #4C5971",
"s#	c #384863",
"t#	c #21314E",
"u#	c #233350",
"v#	c #1E2D4A",
"w#	c #1C293F",
"x#	c #47576F",
"y#	c #344259",
"z#	c #344462",
"A#	c #455470",
"B#	c #5B6680",
"C#	c #717F8E",
"D#	c #868F98",
"E#	c #E4E5E5",
"F#	c #90979A",
"G#	c #E1E3E4",
"H#	c #F6F6F5",
"I#	c #A8AEB0",
"J#	c #F7F8F8",
"K#	c #9AA0A2",
"L#	c #79838A",
"M#	c #E9EAEA",
"N#	c #BDC1C1",
"O#	c #757F86",
"P#	c #D7DAD9",
"Q#	c #768087",
"R#	c #D0D3D3",
"S#	c #C7CBCC",
"T#	c #B8BDBE",
"U#	c #D5D8D8",
"V#	c #D8DBDA",
"W#	c #F3F4F3",
"X#	c #939A9B",
"Y#	c #90989A",
"Z#	c #B5BBBB",
"`#	c #67747A",
" $	c #6A767F",
".$	c #BEC3C2",
"+$	c #F0F1F1",
"@$	c #A7AEB1",
"#$	c #636E7F",
"$$	c #44516B",
"%$	c #31405B",
"&$	c #21314F",
"*$	c #223250",
"=$	c #293957",
"-$	c #22324D",
";$	c #1B273C",
">$	c #47576E",
",$	c #334157",
"'$	c #364564",
")$	c #40506C",
"!$	c #6C778D",
"~$	c #838D9A",
"{$	c #AEB5BA",
"]$	c #D6DADA",
"^$	c #808A91",
"/$	c #C2C6C8",
"($	c #D9DCDC",
"_$	c #DADCDD",
":$	c #EDEEED",
"<$	c #989EA3",
"[$	c #768089",
"}$	c #FBFBFB",
"|$	c #ACB2B4",
"1$	c #F7F7F8",
"2$	c #F5F6F5",
"3$	c #C9CDCE",
"4$	c #868E92",
"5$	c #DDDEDE",
"6$	c #E8E9E9",
"7$	c #DFE0DF",
"8$	c #889094",
"9$	c #C7CACC",
"0$	c #768186",
"a$	c #A5ACAD",
"b$	c #A2A8AA",
"c$	c #5E6B73",
"d$	c #9CA3A6",
"e$	c #909A9F",
"f$	c #606B7B",
"g$	c #435068",
"h$	c #303E5A",
"i$	c #283855",
"j$	c #303F5D",
"k$	c #263550",
"l$	c #19253A",
"m$	c #46576E",
"n$	c #323F55",
"o$	c #374765",
"p$	c #475773",
"q$	c #63718A",
"r$	c #80899D",
"s$	c #C9CDD1",
"t$	c #F2F3F3",
"u$	c #C6CACD",
"v$	c #859098",
"w$	c #B9BFC1",
"x$	c #D1D5D6",
"y$	c #757F8A",
"z$	c #F7F7F6",
"A$	c #B8BCBE",
"B$	c #B9BDC0",
"C$	c #BDC3C3",
"D$	c #868E94",
"E$	c #717C84",
"F$	c #6A757D",
"G$	c #757F85",
"H$	c #EEEFEE",
"I$	c #979D9F",
"J$	c #6F7A82",
"K$	c #C9CBCC",
"L$	c #737D84",
"M$	c #A3A9AB",
"N$	c #BABEC1",
"O$	c #969DA0",
"P$	c #DDE0E0",
"Q$	c #E5E6E5",
"R$	c #636F80",
"S$	c #45536B",
"T$	c #33425D",
"U$	c #283955",
"V$	c #293853",
"W$	c #182337",
"X$	c #46566D",
"Y$	c #303D53",
"Z$	c #384865",
"`$	c #4E5D79",
" %	c #707F96",
".%	c #A0ABB6",
"+%	c #D3D8DB",
"@%	c #F8F8F9",
"#%	c #B8BFC2",
"$%	c #98A0A7",
"%%	c #A8AFB5",
"&%	c #F3F4F4",
"*%	c #99A2A8",
"=%	c #7B8790",
"-%	c #889299",
";%	c #E5E8E8",
">%	c #BABEC0",
",%	c #A7AEB2",
"'%	c #BFC3C3",
")%	c #7A858A",
"!%	c #FAFAF9",
"~%	c #C3C6C5",
"{%	c #707A81",
"]%	c #E1E2E1",
"^%	c #999FA1",
"/%	c #A3A8AB",
"(%	c #EFF0EF",
"_%	c #C1C5C5",
":%	c #E5E6E7",
"<%	c #A4ABB1",
"[%	c #657182",
"}%	c #485770",
"|%	c #364361",
"1%	c #2D3B55",
"2%	c #172134",
"3%	c #2E3C51",
"4%	c #394866",
"5%	c #53627E",
"6%	c #909BAD",
"7%	c #AFB5C1",
"8%	c #D8DCE0",
"9%	c #D3D8D9",
"0%	c #AFB7BB",
"a%	c #A6AFB3",
"b%	c #A6AEB5",
"c%	c #D7DBDC",
"d%	c #D5D8DC",
"e%	c #AFB5BA",
"f%	c #939CA4",
"g%	c #8C959D",
"h%	c #909AA0",
"i%	c #D1D4D6",
"j%	c #C6CACC",
"k%	c #B4BBBC",
"l%	c #869097",
"m%	c #BDC2C3",
"n%	c #D6D8D9",
"o%	c #C5CACB",
"p%	c #899198",
"q%	c #727D87",
"r%	c #8C9499",
"s%	c #7B858A",
"t%	c #626E77",
"u%	c #67727A",
"v%	c #A5ACAC",
"w%	c #A9AEB0",
"x%	c #848C90",
"y%	c #D8DADB",
"z%	c #A5ABAD",
"A%	c #8B9498",
"B%	c #758088",
"C%	c #BCC1C3",
"D%	c #C8CBCE",
"E%	c #8B949F",
"F%	c #606D82",
"G%	c #495871",
"H%	c #394865",
"I%	c #3F4F6C",
"J%	c #42526E",
"K%	c #2E3D57",
"L%	c #161F33",
"M%	c #45556D",
"N%	c #2D394F",
"O%	c #52617D",
"P%	c #737F97",
"Q%	c #8992A6",
"R%	c #9FA7B6",
"S%	c #ACB5BF",
"T%	c #A9B3B9",
"U%	c #A9B1B8",
"V%	c #A7B0B6",
"W%	c #A3ACB3",
"X%	c #A0A9B0",
"Y%	c #9CA6AE",
"Z%	c #99A3AB",
"`%	c #959FA7",
" &	c #929BA5",
".&	c #919BA4",
"+&	c #8B959E",
"@&	c #86929B",
"#&	c #7A868F",
"$&	c #78848D",
"%&	c #78838D",
"&&	c #75808A",
"*&	c #717D88",
"=&	c #6E7A84",
"-&	c #6C7681",
";&	c #6A747F",
">&	c #68737D",
",&	c #67717C",
"'&	c #66717A",
")&	c #68737F",
"!&	c #6A757F",
"~&	c #6C7781",
"{&	c #79838D",
"]&	c #79868E",
"^&	c #636F81",
"/&	c #515E77",
"(&	c #3E4C6A",
"_&	c #42536F",
":&	c #2F3D57",
"<&	c #45556C",
"[&	c #2B374D",
"}&	c #334360",
"|&	c #4D5C78",
"1&	c #66758E",
"2&	c #758399",
"3&	c #7F8CA1",
"4&	c #97A3AE",
"5&	c #96A1AC",
"6&	c #939EAA",
"7&	c #8F99A5",
"8&	c #84909C",
"9&	c #808C98",
"0&	c #7D8995",
"a&	c #798491",
"b&	c #77828F",
"c&	c #76818E",
"d&	c #717F8C",
"e&	c #707B89",
"f&	c #6D7986",
"g&	c #6A7783",
"h&	c #677280",
"i&	c #65707E",
"j&	c #626F7D",
"k&	c #616C7A",
"l&	c #606B79",
"m&	c #606C79",
"n&	c #5F6A78",
"o&	c #5E6977",
"p&	c #5D6978",
"q&	c #5A6779",
"r&	c #546174",
"s&	c #49556E",
"t&	c #3A4763",
"u&	c #303E5C",
"v&	c #2C3C59",
"w&	c #3C4C69",
"x&	c #40516E",
"y&	c #2E3C56",
"z&	c #162032",
"A&	c #283549",
"B&	c #3E4D69",
"C&	c #54637D",
"D&	c #5B6A82",
"E&	c #627087",
"F&	c #68758C",
"G&	c #6E7A8E",
"H&	c #717C90",
"I&	c #717E91",
"J&	c #707C91",
"K&	c #717D91",
"L&	c #717C91",
"M&	c #6F7990",
"N&	c #6D798E",
"O&	c #6B758C",
"P&	c #68748B",
"Q&	c #657188",
"R&	c #626E85",
"S&	c #5F6C83",
"T&	c #5B677F",
"U&	c #59647E",
"V&	c #59657D",
"W&	c #58637D",
"X&	c #556279",
"Y&	c #535F76",
"Z&	c #505D74",
"`&	c #4D5A72",
" *	c #4B586F",
".*	c #4A556D",
"+*	c #48526B",
"@*	c #465269",
"#*	c #455067",
"$*	c #444D65",
"%*	c #414A63",
"&*	c #3F4962",
"**	c #3E4A63",
"=*	c #3D4863",
"-*	c #374361",
";*	c #2E3D59",
">*	c #273653",
",*	c #243451",
"'*	c #293856",
")*	c #32425F",
"!*	c #364764",
"~*	c #293650",
"{*	c #45546C",
"]*	c #263147",
"^*	c #32415D",
"/*	c #34445F",
"(*	c #384962",
"_*	c #394A64",
":*	c #3C4B66",
"<*	c #3F4E66",
"[*	c #3F4D66",
"}*	c #3E4D65",
"|*	c #41506A",
"1*	c #404F69",
"2*	c #3F4F69",
"3*	c #3F4E68",
"4*	c #3E4D68",
"5*	c #3D4C67",
"6*	c #3A4964",
"7*	c #384763",
"8*	c #364661",
"9*	c #33435F",
"0*	c #32425D",
"a*	c #30405C",
"b*	c #2C3D59",
"c*	c #2B3B58",
"d*	c #293955",
"e*	c #283854",
"f*	c #273550",
"g*	c #25344E",
"h*	c #24334D",
"i*	c #22314E",
"j*	c #212F4D",
"k*	c #1C2B48",
"l*	c #1D2C49",
"m*	c #1E2D4B",
"n*	c #263653",
"o*	c #293956",
"p*	c #222E48",
"q*	c #161F32",
"r*	c #44546B",
"s*	c #242F44",
"t*	c #1B2B48",
"u*	c #1E2F4B",
"v*	c #22314F",
"w*	c #21304D",
"x*	c #20304D",
"y*	c #22324E",
"z*	c #23324F",
"A*	c #243250",
"B*	c #1F2F4C",
"C*	c #1E2E4B",
"D*	c #1D2D4B",
"E*	c #1B2C49",
"F*	c #1B2B49",
"G*	c #1A2A48",
"H*	c #1A2A47",
"I*	c #1A2846",
"J*	c #182844",
"K*	c #192845",
"L*	c #192846",
"M*	c #1A2946",
"N*	c #1A2947",
"O*	c #1C2B49",
"P*	c #1F304C",
"Q*	c #21324E",
"R*	c #1E2A43",
"S*	c #171F32",
"T*	c #435369",
"U*	c #202938",
"V*	c #182336",
"W*	c #1A2538",
"X*	c #1C263A",
"Y*	c #1D263B",
"Z*	c #1B2639",
"`*	c #1B263A",
" =	c #1C273A",
".=	c #1C263B",
"+=	c #1D273A",
"@=	c #1D273B",
"#=	c #1E273C",
"$=	c #1B253A",
"%=	c #1B2539",
"&=	c #1A2539",
"*=	c #192438",
"==	c #172236",
"-=	c #172235",
";=	c #172234",
">=	c #162133",
",=	c #162134",
"'=	c #172135",
")=	c #1B273A",
"!=	c #1A2233",
"~=	c #161D2C",
". + @ # $ $ % & % * = - ; ; ; > , ' ) ) ! ) ~ ~ ~ ~ ~ { { ] ^ / / / / ( _ : : : : : _ _ : < [ } | 1 ( ",
"2 & 3 4 5 6 7 8 9 0 a b c d e f g h i j k l m n m l o o o n p q r s s t u v w w v u p x m y z A B C D ",
"E F G H I J K L M N O P Q R S T U V W X Y Z `  ...+.@.@.#.$.$.%.&.*.*.*.=.-.;.>.>.,.'.).!.~.P {.].^./.",
"E (._.:.<.[.c M }.|.1.2.3.4.5.6.7.8.9.0.a.b.c.d.e.f.g.h.i.j.k.l.m.n.o.p.p.q.r.s.t.u.v.w.x.y.z.{.A.B.C.",
"+ D.E.F.G.H.I.J.K.L.M.N.O.P.Q.R.S.T.U.V.W.X.X.Y.Z.`. +.+++@+#+$+%+&+*+=+-+;+>+,+'+)+p.!+~+~.{+]+^+/+(+",
"_+:+<+[+}+|+1+2+3+4+5+6+7+8+9+9+0+a+b+c+d+e+f+f+g+h+i+j+k+k+l+m+n+o+p+q+r+s+t+u+v+w+.+x+y+z+q A+B+C+D+",
"E+F+G+H+I+J+K+L+M+c+N+O+P+Q+Q+R+S+T+U+V+W+X+Y+Y+Z+`+ @.@+@@@#@$@%@0+&@*@=@-@;@>@,@'@)@!@~@{@]@^@/@(@_@",
":@<@[@^@}@|@1@2@3@4@5@6@7@8@9@0@a@b+5@U+b@c@d@e@f@g@h@i@j@R+k@l@m@n@o@p@Z+q@r@s@t@u@v@w@x@e y@z@A@B@C@",
":@D@E@G+F@G@H@I@J@K@L@M@N@O@P@Q@R@S@5@T@U@V@W@X@Y@Z@`@ #.#+#@#g@##$#%#&#*#=#-#;#Y+>#,#'#)#!#E@~#{#]#^#",
"/#(#_#:#<#[#}#|#1#2#3#4#5#6#7#8#9#0#5@4#a#b#a#c#a#d#O+e#f#g#h#i#j#S@k#l#m#J@n#e@o#Z@p#q#r#s#z@t#u#v#w#",
"x#y#z#<#A#B#C#D#4#E#F#G#H#I#F#R@f#e#5@J#K#L#M#N#O#g#P#Q#R#S#T#U#V#W#X#Y#J#Z#`# $.$+$@$#$$$%$&$*$=$-$;$",
">$,$'$)$r !$~${$U+]$^$/$5@($_$:$<$[$4#}$I#|$1$2$R@3$4$Q+5$6$7$8$9$R@0$a$T@b$c$d$:$+$e$f$g$h$*$i$j$k$l$",
"m$n$o$p$q$r$#+s$t$u$v$w$1$4@L@x$y$$@z$L@A$B$T@C$D$E$F$G$H$E#I$J$K$7$L$M$J#N$O$P$M@Q$D#R$S$T$U$E@_.V$W$",
"X$Y$Z$`$ %t..%+%@%#%$%%%&%T@M#*%=%-%H$;%>%,%}$+$'%b$.#)%!%~%V@{%d#]%^%/%(%t$G#_%+$:%<%[%}%|%E@Z$H 1%2%",
"X$3%4%5%,.6%7%8%9%0%a%b%c%d%e%f%g%h%i%j%k%l%m%n%o%p%q%r%d#s%t%u%v%U#w%x%y%z%A%B%C%D%E%F%G%4 H%I%J%K%L%",
"M%N%_.O%P%Q%R%S%T%T%U%V%W%X%Y%Z%`% &.&+&@&e+0+#&$&%&%&&&*&=&-&;&>&,&'&,&,&)&!&~&{&]&^&/&(&s#Z$[._&:&L%",
"<&[&}&|&1&2&3&n.)+4&,+>+=+5&L.6&++7&Z.X.8&9&0&a&b&b&c&d&e&f&g&h&i&j&k&l&m&n&o&p&q&r&s&t&u&v&<+w&x&y&z&",
"<&A&].B&`$C&D&E&F&G&H&I&J&K&L&2.M&N&O&P&Q&R&S&T&U&V&W&X&Y&Z&`& *.*+*@*#*$*%*&***=*-*;*>*t#,*'*)*!*~*z&",
"{*]*&$A.^*:#/*(*_*:*<*[*}*[*|*1*1*2*3*4*5*' 6*7*8*8*}+9*0*a*| b*c*A.d*e*^+f*g*C.h*i*j*k*l*m*t#n*o*p*q*",
"r*s*t*u*t#v*w*x*x*/@x*t#x*i*v*t#i*y*y*z*A*~#z*v*/@/@/@A@B*C*D*E*F*G*H*]#I*I*J*J*K*L*L*I*M*N*O*P*Q*R*S*",
"T*U*V*W*X*Y*Z*Z*Z*`*Z*Z*Z* =.=X*+=+=+=@=#=@=@=@=X*X*$=%=&=W**=W$W$==-=;=2%2%>=>=,=2%'=2%2%'=W$%=)=!=~="};
